solid OpenSCAD_Model
  facet normal 0.994522 0.104528 0
    outer loop
      vertex 59.4432 0.54057 5
      vertex 59.5 0 5
      vertex 59.4432 0.54057 -5
    endloop
  endfacet
  facet normal 0 0 -1
    outer loop
      vertex -59.4432 -0.54057 -5
      vertex -57.1718 2.58576 -5
      vertex 59.4432 0.54057 -5
    endloop
  endfacet
  facet normal 0.951057 0.309017 -0
    outer loop
      vertex 59.2752 1.05752 -5
      vertex 59.2752 1.05752 5
      vertex 59.4432 0.54057 5
    endloop
  endfacet
  facet normal 0.994522 0.104528 0
    outer loop
      vertex 59.5 0 5
      vertex 59.5 0 -5
      vertex 59.4432 0.54057 -5
    endloop
  endfacet
  facet normal -0.994522 -0.104528 -0
    outer loop
      vertex -59.4432 -0.54057 5
      vertex -59.5 1.47304e-15 -5
      vertex -59.4432 -0.54057 -5
    endloop
  endfacet
  facet normal 0 0 -1
    outer loop
      vertex -57.1718 2.58576 -5
      vertex 57.1718 2.58576 -5
      vertex 59.4432 0.54057 -5
    endloop
  endfacet
  facet normal -0 0 1
    outer loop
      vertex -59.4432 -0.54057 5
      vertex 57.1718 -2.58576 5
      vertex 59.5 0 5
    endloop
  endfacet
  facet normal 0 0 1
    outer loop
      vertex 59.4432 0.54057 5
      vertex -59.4432 -0.54057 5
      vertex 59.5 0 5
    endloop
  endfacet
  facet normal 0 0 -1
    outer loop
      vertex 57.1718 -2.58576 -5
      vertex -57.1718 -2.58576 -5
      vertex -59.4432 -0.54057 -5
    endloop
  endfacet
  facet normal 0 0 -1
    outer loop
      vertex 59.4432 0.54057 -5
      vertex 57.1718 -2.58576 -5
      vertex -59.4432 -0.54057 -5
    endloop
  endfacet
  facet normal 0 1 0
    outer loop
      vertex -57.1718 2.58576 -5
      vertex -57.1718 2.58576 5
      vertex 57.1718 2.58576 -5
    endloop
  endfacet
  facet normal 0 0 -1
    outer loop
      vertex 57.1718 2.58576 -5
      vertex 58.6397 1.93218 -5
      vertex 59.4432 0.54057 -5
    endloop
  endfacet
  facet normal 0 0 1
    outer loop
      vertex -57.1718 2.58576 5
      vertex -59.0034 1.52824 5
      vertex -59.4432 -0.54057 5
    endloop
  endfacet
  facet normal 0 0 1
    outer loop
      vertex 59.4432 0.54057 5
      vertex -57.1718 2.58576 5
      vertex -59.4432 -0.54057 5
    endloop
  endfacet
  facet normal 0 0 -1
    outer loop
      vertex -59.0034 1.52824 -5
      vertex -58.2 2.25167 -5
      vertex -57.1718 2.58576 -5
    endloop
  endfacet
  facet normal 0 0 -1
    outer loop
      vertex -59.4432 -0.54057 -5
      vertex -59.0034 1.52824 -5
      vertex -57.1718 2.58576 -5
    endloop
  endfacet
  facet normal 0 -1 -0
    outer loop
      vertex 57.1718 -2.58576 5
      vertex -57.1718 -2.58576 -5
      vertex 57.1718 -2.58576 -5
    endloop
  endfacet
  facet normal 0 0 -1
    outer loop
      vertex 59.4432 0.54057 -5
      vertex 59.0034 -1.52824 -5
      vertex 57.1718 -2.58576 -5
    endloop
  endfacet
  facet normal 0 0 -1
    outer loop
      vertex 59.0034 -1.52824 -5
      vertex 58.2 -2.25167 -5
      vertex 57.1718 -2.58576 -5
    endloop
  endfacet
  facet normal 0 0 1
    outer loop
      vertex 57.1718 -2.58576 5
      vertex 59.0034 -1.52824 5
      vertex 59.5 0 5
    endloop
  endfacet
  facet normal -0.207912 -0.978148 -0
    outer loop
      vertex -57.1718 -2.58576 5
      vertex -57.7034 -2.47275 -5
      vertex -57.1718 -2.58576 -5
    endloop
  endfacet
  facet normal 0 0 -1
    outer loop
      vertex -57.1718 -2.58576 -5
      vertex -58.6397 -1.93218 -5
      vertex -59.4432 -0.54057 -5
    endloop
  endfacet
  facet normal 0.207912 0.978148 0
    outer loop
      vertex 57.1718 2.58576 5
      vertex 57.7034 2.47275 -5
      vertex 57.1718 2.58576 -5
    endloop
  endfacet
  facet normal 0 0 -1
    outer loop
      vertex 58.6397 1.93218 -5
      vertex 59.2752 1.05752 -5
      vertex 59.4432 0.54057 -5
    endloop
  endfacet
  facet normal -0 1 0
    outer loop
      vertex -57.1718 2.58576 5
      vertex 57.1718 2.58576 5
      vertex 57.1718 2.58576 -5
    endloop
  endfacet
  facet normal 0 0 1
    outer loop
      vertex 59.4432 0.54057 5
      vertex 57.1718 2.58576 5
      vertex -57.1718 2.58576 5
    endloop
  endfacet
  facet normal -0.743145 0.669131 0
    outer loop
      vertex -59.0034 1.52824 5
      vertex -58.6397 1.93218 -5
      vertex -59.0034 1.52824 -5
    endloop
  endfacet
  facet normal 0 0 -1
    outer loop
      vertex -59.4432 -0.54057 -5
      vertex -59.4432 0.54057 -5
      vertex -59.0034 1.52824 -5
    endloop
  endfacet
  facet normal 0 0 -1
    outer loop
      vertex -59.4432 0.54057 -5
      vertex -59.2752 1.05752 -5
      vertex -59.0034 1.52824 -5
    endloop
  endfacet
  facet normal 0 0 1
    outer loop
      vertex -59.0034 1.52824 5
      vertex -59.4432 0.54057 5
      vertex -59.4432 -0.54057 5
    endloop
  endfacet
  facet normal -0.406737 0.913545 0
    outer loop
      vertex -58.2 2.25167 5
      vertex -57.7034 2.47275 -5
      vertex -58.2 2.25167 -5
    endloop
  endfacet
  facet normal 0 0 -1
    outer loop
      vertex -58.2 2.25167 -5
      vertex -57.7034 2.47275 -5
      vertex -57.1718 2.58576 -5
    endloop
  endfacet
  facet normal 0.743145 -0.669131 0
    outer loop
      vertex 59.0034 -1.52824 5
      vertex 58.6397 -1.93218 -5
      vertex 59.0034 -1.52824 -5
    endloop
  endfacet
  facet normal 0 -0 -1
    outer loop
      vertex 59.4432 0.54057 -5
      vertex 59.4432 -0.54057 -5
      vertex 59.0034 -1.52824 -5
    endloop
  endfacet
  facet normal 0.207912 -0.978148 0
    outer loop
      vertex 57.7034 -2.47275 -5
      vertex 57.7034 -2.47275 5
      vertex 57.1718 -2.58576 5
    endloop
  endfacet
  facet normal 0 0 -1
    outer loop
      vertex 58.2 -2.25167 -5
      vertex 57.7034 -2.47275 -5
      vertex 57.1718 -2.58576 -5
    endloop
  endfacet
  facet normal 0 0 1
    outer loop
      vertex 59.0034 -1.52824 5
      vertex 59.2752 -1.05752 5
      vertex 59.5 0 5
    endloop
  endfacet
  facet normal 0.866025 -0.5 0
    outer loop
      vertex 59.0034 -1.52824 -5
      vertex 59.2752 -1.05752 -5
      vertex 59.0034 -1.52824 5
    endloop
  endfacet
  facet normal -0 -1 0
    outer loop
      vertex 57.1718 -2.58576 5
      vertex -57.1718 -2.58576 5
      vertex -57.1718 -2.58576 -5
    endloop
  endfacet
  facet normal 0 0 1
    outer loop
      vertex -59.4432 -0.54057 5
      vertex -57.1718 -2.58576 5
      vertex 57.1718 -2.58576 5
    endloop
  endfacet
  facet normal -0.743145 -0.669131 -0
    outer loop
      vertex -58.6397 -1.93218 5
      vertex -59.0034 -1.52824 -5
      vertex -58.6397 -1.93218 -5
    endloop
  endfacet
  facet normal 0 0 -1
    outer loop
      vertex -58.6397 -1.93218 -5
      vertex -59.2752 -1.05752 -5
      vertex -59.4432 -0.54057 -5
    endloop
  endfacet
  facet normal 0.743145 0.669131 0
    outer loop
      vertex 58.6397 1.93218 5
      vertex 59.0034 1.52824 -5
      vertex 58.6397 1.93218 -5
    endloop
  endfacet
  facet normal 0.951057 0.309017 -0
    outer loop
      vertex 59.4432 0.54057 -5
      vertex 59.2752 1.05752 -5
      vertex 59.4432 0.54057 5
    endloop
  endfacet
  facet normal 0 0 1
    outer loop
      vertex 58.6397 1.93218 5
      vertex 57.7034 2.47275 5
      vertex 57.1718 2.58576 5
    endloop
  endfacet
  facet normal 0 0 1
    outer loop
      vertex 59.4432 0.54057 5
      vertex 58.6397 1.93218 5
      vertex 57.1718 2.58576 5
    endloop
  endfacet
  facet normal 0 0 -1
    outer loop
      vertex 57.7034 2.47275 -5
      vertex 58.2 2.25167 -5
      vertex 58.6397 1.93218 -5
    endloop
  endfacet
  facet normal 0 0 -1
    outer loop
      vertex 57.1718 2.58576 -5
      vertex 57.7034 2.47275 -5
      vertex 58.6397 1.93218 -5
    endloop
  endfacet
  facet normal -0.951057 0.309017 0
    outer loop
      vertex -59.4432 0.54057 -5
      vertex -59.4432 0.54057 5
      vertex -59.2752 1.05752 -5
    endloop
  endfacet
  facet normal 0 0 -1
    outer loop
      vertex -59.4432 -0.54057 -5
      vertex -59.5 1.47304e-15 -5
      vertex -59.4432 0.54057 -5
    endloop
  endfacet
  facet normal -0.866025 0.5 0
    outer loop
      vertex -59.2752 1.05752 -5
      vertex -59.2752 1.05752 5
      vertex -59.0034 1.52824 5
    endloop
  endfacet
  facet normal -0.866025 0.5 0
    outer loop
      vertex -59.0034 1.52824 -5
      vertex -59.2752 1.05752 -5
      vertex -59.0034 1.52824 5
    endloop
  endfacet
  facet normal -0.994522 0.104528 0
    outer loop
      vertex -59.5 1.47304e-15 -5
      vertex -59.4432 0.54057 5
      vertex -59.4432 0.54057 -5
    endloop
  endfacet
  facet normal 0 0 1
    outer loop
      vertex -59.4432 0.54057 5
      vertex -59.5 1.47304e-15 5
      vertex -59.4432 -0.54057 5
    endloop
  endfacet
  facet normal -0.587785 0.809017 0
    outer loop
      vertex -58.6397 1.93218 -5
      vertex -58.2 2.25167 5
      vertex -58.2 2.25167 -5
    endloop
  endfacet
  facet normal 0 0 -1
    outer loop
      vertex -59.0034 1.52824 -5
      vertex -58.6397 1.93218 -5
      vertex -58.2 2.25167 -5
    endloop
  endfacet
  facet normal 0 0 1
    outer loop
      vertex -58.2 2.25167 5
      vertex -58.6397 1.93218 5
      vertex -59.0034 1.52824 5
    endloop
  endfacet
  facet normal 0 0 1
    outer loop
      vertex -57.1718 2.58576 5
      vertex -58.2 2.25167 5
      vertex -59.0034 1.52824 5
    endloop
  endfacet
  facet normal -0.207912 0.978148 0
    outer loop
      vertex -57.7034 2.47275 -5
      vertex -57.7034 2.47275 5
      vertex -57.1718 2.58576 5
    endloop
  endfacet
  facet normal -0.207912 0.978148 0
    outer loop
      vertex -57.1718 2.58576 -5
      vertex -57.7034 2.47275 -5
      vertex -57.1718 2.58576 5
    endloop
  endfacet
  facet normal 0.994522 -0.104528 0
    outer loop
      vertex 59.4432 -0.54057 -5
      vertex 59.5 0 -5
      vertex 59.5 0 5
    endloop
  endfacet
  facet normal 0 0 -1
    outer loop
      vertex 59.4432 0.54057 -5
      vertex 59.5 0 -5
      vertex 59.4432 -0.54057 -5
    endloop
  endfacet
  facet normal 0.406737 -0.913545 0
    outer loop
      vertex 58.2 -2.25167 -5
      vertex 58.2 -2.25167 5
      vertex 57.7034 -2.47275 -5
    endloop
  endfacet
  facet normal 0.207912 -0.978148 0
    outer loop
      vertex 57.1718 -2.58576 -5
      vertex 57.7034 -2.47275 -5
      vertex 57.1718 -2.58576 5
    endloop
  endfacet
  facet normal 0 0 1
    outer loop
      vertex 58.2 -2.25167 5
      vertex 58.6397 -1.93218 5
      vertex 59.0034 -1.52824 5
    endloop
  endfacet
  facet normal 0 0 1
    outer loop
      vertex 57.1718 -2.58576 5
      vertex 58.2 -2.25167 5
      vertex 59.0034 -1.52824 5
    endloop
  endfacet
  facet normal 0.587785 -0.809017 0
    outer loop
      vertex 58.2 -2.25167 -5
      vertex 58.6397 -1.93218 -5
      vertex 58.2 -2.25167 5
    endloop
  endfacet
  facet normal 0 0 -1
    outer loop
      vertex 59.0034 -1.52824 -5
      vertex 58.6397 -1.93218 -5
      vertex 58.2 -2.25167 -5
    endloop
  endfacet
  facet normal 0 0 -1
    outer loop
      vertex 59.4432 -0.54057 -5
      vertex 59.2752 -1.05752 -5
      vertex 59.0034 -1.52824 -5
    endloop
  endfacet
  facet normal 0.866025 -0.5 0
    outer loop
      vertex 59.2752 -1.05752 -5
      vertex 59.2752 -1.05752 5
      vertex 59.0034 -1.52824 5
    endloop
  endfacet
  facet normal -0.587785 -0.809017 0
    outer loop
      vertex -58.2 -2.25167 -5
      vertex -58.6397 -1.93218 5
      vertex -58.6397 -1.93218 -5
    endloop
  endfacet
  facet normal 0 0 -1
    outer loop
      vertex -57.1718 -2.58576 -5
      vertex -58.2 -2.25167 -5
      vertex -58.6397 -1.93218 -5
    endloop
  endfacet
  facet normal 0 0 1
    outer loop
      vertex -58.6397 -1.93218 5
      vertex -58.2 -2.25167 5
      vertex -57.1718 -2.58576 5
    endloop
  endfacet
  facet normal 0 0 1
    outer loop
      vertex -59.4432 -0.54057 5
      vertex -58.6397 -1.93218 5
      vertex -57.1718 -2.58576 5
    endloop
  endfacet
  facet normal -0.951057 -0.309017 0
    outer loop
      vertex -59.2752 -1.05752 -5
      vertex -59.2752 -1.05752 5
      vertex -59.4432 -0.54057 5
    endloop
  endfacet
  facet normal -0.951057 -0.309017 0
    outer loop
      vertex -59.4432 -0.54057 -5
      vertex -59.2752 -1.05752 -5
      vertex -59.4432 -0.54057 5
    endloop
  endfacet
  facet normal 0 0 1
    outer loop
      vertex 59.2752 1.05752 5
      vertex 59.0034 1.52824 5
      vertex 58.6397 1.93218 5
    endloop
  endfacet
  facet normal 0 0 1
    outer loop
      vertex 59.4432 0.54057 5
      vertex 59.2752 1.05752 5
      vertex 58.6397 1.93218 5
    endloop
  endfacet
  facet normal 0.866025 0.5 -0
    outer loop
      vertex 59.2752 1.05752 -5
      vertex 59.0034 1.52824 -5
      vertex 59.2752 1.05752 5
    endloop
  endfacet
  facet normal 0 0 -1
    outer loop
      vertex 58.6397 1.93218 -5
      vertex 59.0034 1.52824 -5
      vertex 59.2752 1.05752 -5
    endloop
  endfacet
  facet normal 0.406737 0.913545 0
    outer loop
      vertex 57.7034 2.47275 5
      vertex 58.2 2.25167 -5
      vertex 57.7034 2.47275 -5
    endloop
  endfacet
  facet normal 0.207912 0.978148 0
    outer loop
      vertex 57.1718 2.58576 5
      vertex 57.7034 2.47275 5
      vertex 57.7034 2.47275 -5
    endloop
  endfacet
  facet normal 0.587785 0.809017 -0
    outer loop
      vertex 58.2 2.25167 -5
      vertex 58.2 2.25167 5
      vertex 58.6397 1.93218 5
    endloop
  endfacet
  facet normal 0.587785 0.809017 -0
    outer loop
      vertex 58.6397 1.93218 -5
      vertex 58.2 2.25167 -5
      vertex 58.6397 1.93218 5
    endloop
  endfacet
  facet normal -0.951057 0.309017 0
    outer loop
      vertex -59.4432 0.54057 5
      vertex -59.2752 1.05752 5
      vertex -59.2752 1.05752 -5
    endloop
  endfacet
  facet normal 0 0 1
    outer loop
      vertex -59.0034 1.52824 5
      vertex -59.2752 1.05752 5
      vertex -59.4432 0.54057 5
    endloop
  endfacet
  facet normal -0.994522 0.104528 0
    outer loop
      vertex -59.5 1.47304e-15 -5
      vertex -59.5 1.47304e-15 5
      vertex -59.4432 0.54057 5
    endloop
  endfacet
  facet normal -0.994522 -0.104528 0
    outer loop
      vertex -59.4432 -0.54057 5
      vertex -59.5 1.47304e-15 5
      vertex -59.5 1.47304e-15 -5
    endloop
  endfacet
  facet normal -0.587785 0.809017 0
    outer loop
      vertex -58.6397 1.93218 -5
      vertex -58.6397 1.93218 5
      vertex -58.2 2.25167 5
    endloop
  endfacet
  facet normal -0.743145 0.669131 0
    outer loop
      vertex -59.0034 1.52824 5
      vertex -58.6397 1.93218 5
      vertex -58.6397 1.93218 -5
    endloop
  endfacet
  facet normal -0.406737 0.913545 0
    outer loop
      vertex -58.2 2.25167 5
      vertex -57.7034 2.47275 5
      vertex -57.7034 2.47275 -5
    endloop
  endfacet
  facet normal 0 0 1
    outer loop
      vertex -57.1718 2.58576 5
      vertex -57.7034 2.47275 5
      vertex -58.2 2.25167 5
    endloop
  endfacet
  facet normal 0.406737 -0.913545 0
    outer loop
      vertex 58.2 -2.25167 5
      vertex 57.7034 -2.47275 5
      vertex 57.7034 -2.47275 -5
    endloop
  endfacet
  facet normal 0 0 1
    outer loop
      vertex 57.1718 -2.58576 5
      vertex 57.7034 -2.47275 5
      vertex 58.2 -2.25167 5
    endloop
  endfacet
  facet normal 0.587785 -0.809017 0
    outer loop
      vertex 58.6397 -1.93218 -5
      vertex 58.6397 -1.93218 5
      vertex 58.2 -2.25167 5
    endloop
  endfacet
  facet normal 0.743145 -0.669131 0
    outer loop
      vertex 59.0034 -1.52824 5
      vertex 58.6397 -1.93218 5
      vertex 58.6397 -1.93218 -5
    endloop
  endfacet
  facet normal 0.951057 -0.309017 0
    outer loop
      vertex 59.4432 -0.54057 -5
      vertex 59.2752 -1.05752 5
      vertex 59.2752 -1.05752 -5
    endloop
  endfacet
  facet normal 0 0 1
    outer loop
      vertex 59.2752 -1.05752 5
      vertex 59.4432 -0.54057 5
      vertex 59.5 0 5
    endloop
  endfacet
  facet normal -0.587785 -0.809017 0
    outer loop
      vertex -58.2 -2.25167 -5
      vertex -58.2 -2.25167 5
      vertex -58.6397 -1.93218 5
    endloop
  endfacet
  facet normal 0 0 -1
    outer loop
      vertex -57.1718 -2.58576 -5
      vertex -57.7034 -2.47275 -5
      vertex -58.2 -2.25167 -5
    endloop
  endfacet
  facet normal -0.406737 -0.913545 0
    outer loop
      vertex -57.7034 -2.47275 -5
      vertex -58.2 -2.25167 5
      vertex -58.2 -2.25167 -5
    endloop
  endfacet
  facet normal 0 0 1
    outer loop
      vertex -58.2 -2.25167 5
      vertex -57.7034 -2.47275 5
      vertex -57.1718 -2.58576 5
    endloop
  endfacet
  facet normal -0.866025 -0.5 0
    outer loop
      vertex -59.0034 -1.52824 -5
      vertex -59.2752 -1.05752 5
      vertex -59.2752 -1.05752 -5
    endloop
  endfacet
  facet normal 0 0 -1
    outer loop
      vertex -58.6397 -1.93218 -5
      vertex -59.0034 -1.52824 -5
      vertex -59.2752 -1.05752 -5
    endloop
  endfacet
  facet normal 0 0 1
    outer loop
      vertex -59.2752 -1.05752 5
      vertex -59.0034 -1.52824 5
      vertex -58.6397 -1.93218 5
    endloop
  endfacet
  facet normal 0 0 1
    outer loop
      vertex -59.4432 -0.54057 5
      vertex -59.2752 -1.05752 5
      vertex -58.6397 -1.93218 5
    endloop
  endfacet
  facet normal 0.866025 0.5 -0
    outer loop
      vertex 59.0034 1.52824 -5
      vertex 59.0034 1.52824 5
      vertex 59.2752 1.05752 5
    endloop
  endfacet
  facet normal 0.743145 0.669131 0
    outer loop
      vertex 58.6397 1.93218 5
      vertex 59.0034 1.52824 5
      vertex 59.0034 1.52824 -5
    endloop
  endfacet
  facet normal 0.406737 0.913545 0
    outer loop
      vertex 57.7034 2.47275 5
      vertex 58.2 2.25167 5
      vertex 58.2 2.25167 -5
    endloop
  endfacet
  facet normal 0 0 1
    outer loop
      vertex 58.6397 1.93218 5
      vertex 58.2 2.25167 5
      vertex 57.7034 2.47275 5
    endloop
  endfacet
  facet normal 0.951057 -0.309017 0
    outer loop
      vertex 59.4432 -0.54057 -5
      vertex 59.4432 -0.54057 5
      vertex 59.2752 -1.05752 5
    endloop
  endfacet
  facet normal 0.994522 -0.104528 0
    outer loop
      vertex 59.5 0 5
      vertex 59.4432 -0.54057 5
      vertex 59.4432 -0.54057 -5
    endloop
  endfacet
  facet normal -0.406737 -0.913545 0
    outer loop
      vertex -57.7034 -2.47275 -5
      vertex -57.7034 -2.47275 5
      vertex -58.2 -2.25167 5
    endloop
  endfacet
  facet normal -0.207912 -0.978148 0
    outer loop
      vertex -57.1718 -2.58576 5
      vertex -57.7034 -2.47275 5
      vertex -57.7034 -2.47275 -5
    endloop
  endfacet
  facet normal -0.866025 -0.5 0
    outer loop
      vertex -59.0034 -1.52824 -5
      vertex -59.0034 -1.52824 5
      vertex -59.2752 -1.05752 5
    endloop
  endfacet
  facet normal -0.743145 -0.669131 0
    outer loop
      vertex -58.6397 -1.93218 5
      vertex -59.0034 -1.52824 5
      vertex -59.0034 -1.52824 -5
    endloop
  endfacet
endsolid OpenSCAD_Model
