solid OpenSCAD_Model
  facet normal 0.994522 0.104528 0
    outer loop
      vertex 58.4443 0.530175 5
      vertex 58.5 0 5
      vertex 58.4443 0.530175 -5
    endloop
  endfacet
  facet normal 0 0 -1
    outer loop
      vertex -58.4443 -0.530175 -5
      vertex -56.2165 2.53603 -5
      vertex 58.4443 0.530175 -5
    endloop
  endfacet
  facet normal 0.951057 0.309017 -0
    outer loop
      vertex 58.2795 1.03718 -5
      vertex 58.2795 1.03718 5
      vertex 58.4443 0.530175 5
    endloop
  endfacet
  facet normal 0.994522 0.104528 0
    outer loop
      vertex 58.5 0 5
      vertex 58.5 0 -5
      vertex 58.4443 0.530175 -5
    endloop
  endfacet
  facet normal -0.994522 -0.104528 -0
    outer loop
      vertex -58.4443 -0.530175 5
      vertex -58.5 1.44471e-15 -5
      vertex -58.4443 -0.530175 -5
    endloop
  endfacet
  facet normal 0 0 -1
    outer loop
      vertex -56.2165 2.53603 -5
      vertex 56.2165 2.53603 -5
      vertex 58.4443 0.530175 -5
    endloop
  endfacet
  facet normal -0 0 1
    outer loop
      vertex -58.4443 -0.530175 5
      vertex 56.2165 -2.53603 5
      vertex 58.5 0 5
    endloop
  endfacet
  facet normal 0 0 1
    outer loop
      vertex 58.4443 0.530175 5
      vertex -58.4443 -0.530175 5
      vertex 58.5 0 5
    endloop
  endfacet
  facet normal 0 0 -1
    outer loop
      vertex 56.2165 -2.53603 -5
      vertex -56.2165 -2.53603 -5
      vertex -58.4443 -0.530175 -5
    endloop
  endfacet
  facet normal 0 0 -1
    outer loop
      vertex 58.4443 0.530175 -5
      vertex 56.2165 -2.53603 -5
      vertex -58.4443 -0.530175 -5
    endloop
  endfacet
  facet normal 0 1 0
    outer loop
      vertex -56.2165 2.53603 5
      vertex 55.6835 2.53603 -5
      vertex -56.2165 2.53603 -5
    endloop
  endfacet
  facet normal 0 0 -1
    outer loop
      vertex 56.2165 2.53603 -5
      vertex 57.6563 1.89502 -5
      vertex 58.4443 0.530175 -5
    endloop
  endfacet
  facet normal 0 0 1
    outer loop
      vertex -56.2165 2.53603 5
      vertex -58.013 1.49885 5
      vertex -58.4443 -0.530175 5
    endloop
  endfacet
  facet normal 0 0 1
    outer loop
      vertex 58.4443 0.530175 5
      vertex -56.2165 2.53603 5
      vertex -58.4443 -0.530175 5
    endloop
  endfacet
  facet normal 0 0 -1
    outer loop
      vertex -58.013 1.49885 -5
      vertex -57.225 2.20836 -5
      vertex -56.2165 2.53603 -5
    endloop
  endfacet
  facet normal 0 0 -1
    outer loop
      vertex -58.4443 -0.530175 -5
      vertex -58.013 1.49885 -5
      vertex -56.2165 2.53603 -5
    endloop
  endfacet
  facet normal 0 -1 -0
    outer loop
      vertex 56.2165 -2.53603 5
      vertex -55.6835 -2.53603 -5
      vertex 56.2165 -2.53603 -5
    endloop
  endfacet
  facet normal 0 0 -1
    outer loop
      vertex 58.4443 0.530175 -5
      vertex 58.013 -1.49885 -5
      vertex 56.2165 -2.53603 -5
    endloop
  endfacet
  facet normal 0 0 -1
    outer loop
      vertex 58.013 -1.49885 -5
      vertex 57.225 -2.20836 -5
      vertex 56.2165 -2.53603 -5
    endloop
  endfacet
  facet normal 0 0 1
    outer loop
      vertex 56.2165 -2.53603 5
      vertex 58.013 -1.49885 5
      vertex 58.5 0 5
    endloop
  endfacet
  facet normal -0.207912 -0.978148 -0
    outer loop
      vertex -56.2165 -2.53603 5
      vertex -56.738 -2.42519 -5
      vertex -56.2165 -2.53603 -5
    endloop
  endfacet
  facet normal 0 0 -1
    outer loop
      vertex -56.2165 -2.53603 -5
      vertex -57.6563 -1.89502 -5
      vertex -58.4443 -0.530175 -5
    endloop
  endfacet
  facet normal 0.207912 0.978148 0
    outer loop
      vertex 56.2165 2.53603 5
      vertex 56.738 2.42519 -5
      vertex 56.2165 2.53603 -5
    endloop
  endfacet
  facet normal 0 0 -1
    outer loop
      vertex 57.6563 1.89502 -5
      vertex 58.2795 1.03718 -5
      vertex 58.4443 0.530175 -5
    endloop
  endfacet
  facet normal 0 0 1
    outer loop
      vertex 56.2165 2.53603 5
      vertex 55.6835 2.53603 5
      vertex -56.2165 2.53603 5
    endloop
  endfacet
  facet normal 0 0 1
    outer loop
      vertex 58.4443 0.530175 5
      vertex 56.2165 2.53603 5
      vertex -56.2165 2.53603 5
    endloop
  endfacet
  facet normal 8.33039e-16 1 -0
    outer loop
      vertex 56.2165 2.53603 -5
      vertex 55.6835 2.53603 -5
      vertex 56.2165 2.53603 5
    endloop
  endfacet
  facet normal 0 0 -1
    outer loop
      vertex -56.2165 2.53603 -5
      vertex 55.6835 2.53603 -5
      vertex 56.2165 2.53603 -5
    endloop
  endfacet
  facet normal -0.743145 0.669131 0
    outer loop
      vertex -58.013 1.49885 5
      vertex -57.6563 1.89502 -5
      vertex -58.013 1.49885 -5
    endloop
  endfacet
  facet normal 0 0 -1
    outer loop
      vertex -58.4443 -0.530175 -5
      vertex -58.4443 0.530175 -5
      vertex -58.013 1.49885 -5
    endloop
  endfacet
  facet normal 0 0 -1
    outer loop
      vertex -58.4443 0.530175 -5
      vertex -58.2795 1.03718 -5
      vertex -58.013 1.49885 -5
    endloop
  endfacet
  facet normal 0 0 1
    outer loop
      vertex -58.013 1.49885 5
      vertex -58.4443 0.530175 5
      vertex -58.4443 -0.530175 5
    endloop
  endfacet
  facet normal -0.406737 0.913545 0
    outer loop
      vertex -57.225 2.20836 5
      vertex -56.738 2.42519 -5
      vertex -57.225 2.20836 -5
    endloop
  endfacet
  facet normal 0 0 -1
    outer loop
      vertex -57.225 2.20836 -5
      vertex -56.738 2.42519 -5
      vertex -56.2165 2.53603 -5
    endloop
  endfacet
  facet normal 0.743145 -0.669131 0
    outer loop
      vertex 58.013 -1.49885 5
      vertex 57.6563 -1.89502 -5
      vertex 58.013 -1.49885 -5
    endloop
  endfacet
  facet normal 0 -0 -1
    outer loop
      vertex 58.4443 0.530175 -5
      vertex 58.4443 -0.530175 -5
      vertex 58.013 -1.49885 -5
    endloop
  endfacet
  facet normal 0.207912 -0.978148 0
    outer loop
      vertex 56.738 -2.42519 -5
      vertex 56.738 -2.42519 5
      vertex 56.2165 -2.53603 5
    endloop
  endfacet
  facet normal 0 0 -1
    outer loop
      vertex 57.225 -2.20836 -5
      vertex 56.738 -2.42519 -5
      vertex 56.2165 -2.53603 -5
    endloop
  endfacet
  facet normal 0 0 1
    outer loop
      vertex 58.013 -1.49885 5
      vertex 58.2795 -1.03718 5
      vertex 58.5 0 5
    endloop
  endfacet
  facet normal 0.866025 -0.5 0
    outer loop
      vertex 58.013 -1.49885 -5
      vertex 58.2795 -1.03718 -5
      vertex 58.013 -1.49885 5
    endloop
  endfacet
  facet normal -8.33039e-16 -1 0
    outer loop
      vertex -55.6835 -2.53603 -5
      vertex -56.2165 -2.53603 5
      vertex -56.2165 -2.53603 -5
    endloop
  endfacet
  facet normal 0 0 -1
    outer loop
      vertex 56.2165 -2.53603 -5
      vertex -55.6835 -2.53603 -5
      vertex -56.2165 -2.53603 -5
    endloop
  endfacet
  facet normal 0 0 1
    outer loop
      vertex -56.2165 -2.53603 5
      vertex -55.6835 -2.53603 5
      vertex 56.2165 -2.53603 5
    endloop
  endfacet
  facet normal 0 0 1
    outer loop
      vertex -58.4443 -0.530175 5
      vertex -56.2165 -2.53603 5
      vertex 56.2165 -2.53603 5
    endloop
  endfacet
  facet normal -0.743145 -0.669131 -0
    outer loop
      vertex -57.6563 -1.89502 5
      vertex -58.013 -1.49885 -5
      vertex -57.6563 -1.89502 -5
    endloop
  endfacet
  facet normal 0 0 -1
    outer loop
      vertex -57.6563 -1.89502 -5
      vertex -58.2795 -1.03718 -5
      vertex -58.4443 -0.530175 -5
    endloop
  endfacet
  facet normal 0.743145 0.669131 0
    outer loop
      vertex 57.6563 1.89502 5
      vertex 58.013 1.49885 -5
      vertex 57.6563 1.89502 -5
    endloop
  endfacet
  facet normal 0.951057 0.309017 -0
    outer loop
      vertex 58.4443 0.530175 -5
      vertex 58.2795 1.03718 -5
      vertex 58.4443 0.530175 5
    endloop
  endfacet
  facet normal 0 0 1
    outer loop
      vertex 57.6563 1.89502 5
      vertex 56.738 2.42519 5
      vertex 56.2165 2.53603 5
    endloop
  endfacet
  facet normal 0 0 1
    outer loop
      vertex 58.4443 0.530175 5
      vertex 57.6563 1.89502 5
      vertex 56.2165 2.53603 5
    endloop
  endfacet
  facet normal 0 0 -1
    outer loop
      vertex 56.738 2.42519 -5
      vertex 57.225 2.20836 -5
      vertex 57.6563 1.89502 -5
    endloop
  endfacet
  facet normal 0 0 -1
    outer loop
      vertex 56.2165 2.53603 -5
      vertex 56.738 2.42519 -5
      vertex 57.6563 1.89502 -5
    endloop
  endfacet
  facet normal 8.33039e-16 1 -0
    outer loop
      vertex 55.6835 2.53603 -5
      vertex 55.6835 2.53603 5
      vertex 56.2165 2.53603 5
    endloop
  endfacet
  facet normal -0 1 0
    outer loop
      vertex -56.2165 2.53603 5
      vertex 55.6835 2.53603 5
      vertex 55.6835 2.53603 -5
    endloop
  endfacet
  facet normal -0.951057 0.309017 0
    outer loop
      vertex -58.4443 0.530175 -5
      vertex -58.4443 0.530175 5
      vertex -58.2795 1.03718 -5
    endloop
  endfacet
  facet normal 0 0 -1
    outer loop
      vertex -58.4443 -0.530175 -5
      vertex -58.5 1.44471e-15 -5
      vertex -58.4443 0.530175 -5
    endloop
  endfacet
  facet normal -0.866025 0.5 0
    outer loop
      vertex -58.2795 1.03718 -5
      vertex -58.2795 1.03718 5
      vertex -58.013 1.49885 5
    endloop
  endfacet
  facet normal -0.866025 0.5 0
    outer loop
      vertex -58.013 1.49885 -5
      vertex -58.2795 1.03718 -5
      vertex -58.013 1.49885 5
    endloop
  endfacet
  facet normal -0.994522 0.104528 0
    outer loop
      vertex -58.5 1.44471e-15 -5
      vertex -58.4443 0.530175 5
      vertex -58.4443 0.530175 -5
    endloop
  endfacet
  facet normal 0 0 1
    outer loop
      vertex -58.4443 0.530175 5
      vertex -58.5 1.44471e-15 5
      vertex -58.4443 -0.530175 5
    endloop
  endfacet
  facet normal -0.587785 0.809017 0
    outer loop
      vertex -57.6563 1.89502 -5
      vertex -57.225 2.20836 5
      vertex -57.225 2.20836 -5
    endloop
  endfacet
  facet normal 0 0 -1
    outer loop
      vertex -58.013 1.49885 -5
      vertex -57.6563 1.89502 -5
      vertex -57.225 2.20836 -5
    endloop
  endfacet
  facet normal 0 0 1
    outer loop
      vertex -57.225 2.20836 5
      vertex -57.6563 1.89502 5
      vertex -58.013 1.49885 5
    endloop
  endfacet
  facet normal 0 0 1
    outer loop
      vertex -56.2165 2.53603 5
      vertex -57.225 2.20836 5
      vertex -58.013 1.49885 5
    endloop
  endfacet
  facet normal -0.207912 0.978148 0
    outer loop
      vertex -56.738 2.42519 -5
      vertex -56.738 2.42519 5
      vertex -56.2165 2.53603 5
    endloop
  endfacet
  facet normal -0.207912 0.978148 0
    outer loop
      vertex -56.2165 2.53603 -5
      vertex -56.738 2.42519 -5
      vertex -56.2165 2.53603 5
    endloop
  endfacet
  facet normal 0.994522 -0.104528 0
    outer loop
      vertex 58.4443 -0.530175 -5
      vertex 58.5 0 -5
      vertex 58.5 0 5
    endloop
  endfacet
  facet normal 0 0 -1
    outer loop
      vertex 58.4443 0.530175 -5
      vertex 58.5 0 -5
      vertex 58.4443 -0.530175 -5
    endloop
  endfacet
  facet normal 0.406737 -0.913545 0
    outer loop
      vertex 57.225 -2.20836 -5
      vertex 57.225 -2.20836 5
      vertex 56.738 -2.42519 -5
    endloop
  endfacet
  facet normal 0.207912 -0.978148 0
    outer loop
      vertex 56.2165 -2.53603 -5
      vertex 56.738 -2.42519 -5
      vertex 56.2165 -2.53603 5
    endloop
  endfacet
  facet normal 0 0 1
    outer loop
      vertex 57.225 -2.20836 5
      vertex 57.6563 -1.89502 5
      vertex 58.013 -1.49885 5
    endloop
  endfacet
  facet normal 0 0 1
    outer loop
      vertex 56.2165 -2.53603 5
      vertex 57.225 -2.20836 5
      vertex 58.013 -1.49885 5
    endloop
  endfacet
  facet normal 0.587785 -0.809017 0
    outer loop
      vertex 57.225 -2.20836 -5
      vertex 57.6563 -1.89502 -5
      vertex 57.225 -2.20836 5
    endloop
  endfacet
  facet normal 0 0 -1
    outer loop
      vertex 58.013 -1.49885 -5
      vertex 57.6563 -1.89502 -5
      vertex 57.225 -2.20836 -5
    endloop
  endfacet
  facet normal 0 0 -1
    outer loop
      vertex 58.4443 -0.530175 -5
      vertex 58.2795 -1.03718 -5
      vertex 58.013 -1.49885 -5
    endloop
  endfacet
  facet normal 0.866025 -0.5 0
    outer loop
      vertex 58.2795 -1.03718 -5
      vertex 58.2795 -1.03718 5
      vertex 58.013 -1.49885 5
    endloop
  endfacet
  facet normal -8.33039e-16 -1 0
    outer loop
      vertex -55.6835 -2.53603 -5
      vertex -55.6835 -2.53603 5
      vertex -56.2165 -2.53603 5
    endloop
  endfacet
  facet normal -0 -1 0
    outer loop
      vertex 56.2165 -2.53603 5
      vertex -55.6835 -2.53603 5
      vertex -55.6835 -2.53603 -5
    endloop
  endfacet
  facet normal 0 0 -1
    outer loop
      vertex -56.738 -2.42519 -5
      vertex -57.225 -2.20836 -5
      vertex -57.6563 -1.89502 -5
    endloop
  endfacet
  facet normal 0 0 -1
    outer loop
      vertex -56.2165 -2.53603 -5
      vertex -56.738 -2.42519 -5
      vertex -57.6563 -1.89502 -5
    endloop
  endfacet
  facet normal -0.406737 -0.913545 0
    outer loop
      vertex -56.738 -2.42519 -5
      vertex -56.738 -2.42519 5
      vertex -57.225 -2.20836 -5
    endloop
  endfacet
  facet normal 0 0 1
    outer loop
      vertex -58.4443 -0.530175 5
      vertex -57.6563 -1.89502 5
      vertex -56.2165 -2.53603 5
    endloop
  endfacet
  facet normal -0.951057 -0.309017 0
    outer loop
      vertex -58.2795 -1.03718 -5
      vertex -58.2795 -1.03718 5
      vertex -58.4443 -0.530175 5
    endloop
  endfacet
  facet normal -0.951057 -0.309017 0
    outer loop
      vertex -58.4443 -0.530175 -5
      vertex -58.2795 -1.03718 -5
      vertex -58.4443 -0.530175 5
    endloop
  endfacet
  facet normal 0.866025 0.5 -0
    outer loop
      vertex 58.013 1.49885 -5
      vertex 58.013 1.49885 5
      vertex 58.2795 1.03718 5
    endloop
  endfacet
  facet normal 0 0 1
    outer loop
      vertex 58.4443 0.530175 5
      vertex 58.2795 1.03718 5
      vertex 57.6563 1.89502 5
    endloop
  endfacet
  facet normal 0.866025 0.5 -0
    outer loop
      vertex 58.2795 1.03718 -5
      vertex 58.013 1.49885 -5
      vertex 58.2795 1.03718 5
    endloop
  endfacet
  facet normal 0 0 -1
    outer loop
      vertex 57.6563 1.89502 -5
      vertex 58.013 1.49885 -5
      vertex 58.2795 1.03718 -5
    endloop
  endfacet
  facet normal 0.406737 0.913545 0
    outer loop
      vertex 56.738 2.42519 5
      vertex 57.225 2.20836 -5
      vertex 56.738 2.42519 -5
    endloop
  endfacet
  facet normal 0.207912 0.978148 0
    outer loop
      vertex 56.2165 2.53603 5
      vertex 56.738 2.42519 5
      vertex 56.738 2.42519 -5
    endloop
  endfacet
  facet normal 0 0 1
    outer loop
      vertex 57.6563 1.89502 5
      vertex 57.225 2.20836 5
      vertex 56.738 2.42519 5
    endloop
  endfacet
  facet normal 0.587785 0.809017 -0
    outer loop
      vertex 57.6563 1.89502 -5
      vertex 57.225 2.20836 -5
      vertex 57.6563 1.89502 5
    endloop
  endfacet
  facet normal -0.951057 0.309017 0
    outer loop
      vertex -58.4443 0.530175 5
      vertex -58.2795 1.03718 5
      vertex -58.2795 1.03718 -5
    endloop
  endfacet
  facet normal 0 0 1
    outer loop
      vertex -58.013 1.49885 5
      vertex -58.2795 1.03718 5
      vertex -58.4443 0.530175 5
    endloop
  endfacet
  facet normal -0.994522 0.104528 0
    outer loop
      vertex -58.5 1.44471e-15 -5
      vertex -58.5 1.44471e-15 5
      vertex -58.4443 0.530175 5
    endloop
  endfacet
  facet normal -0.994522 -0.104528 0
    outer loop
      vertex -58.4443 -0.530175 5
      vertex -58.5 1.44471e-15 5
      vertex -58.5 1.44471e-15 -5
    endloop
  endfacet
  facet normal -0.587785 0.809017 0
    outer loop
      vertex -57.6563 1.89502 -5
      vertex -57.6563 1.89502 5
      vertex -57.225 2.20836 5
    endloop
  endfacet
  facet normal -0.743145 0.669131 0
    outer loop
      vertex -58.013 1.49885 5
      vertex -57.6563 1.89502 5
      vertex -57.6563 1.89502 -5
    endloop
  endfacet
  facet normal -0.406737 0.913545 0
    outer loop
      vertex -57.225 2.20836 5
      vertex -56.738 2.42519 5
      vertex -56.738 2.42519 -5
    endloop
  endfacet
  facet normal 0 0 1
    outer loop
      vertex -56.2165 2.53603 5
      vertex -56.738 2.42519 5
      vertex -57.225 2.20836 5
    endloop
  endfacet
  facet normal 0.406737 -0.913545 0
    outer loop
      vertex 57.225 -2.20836 5
      vertex 56.738 -2.42519 5
      vertex 56.738 -2.42519 -5
    endloop
  endfacet
  facet normal 0 0 1
    outer loop
      vertex 56.2165 -2.53603 5
      vertex 56.738 -2.42519 5
      vertex 57.225 -2.20836 5
    endloop
  endfacet
  facet normal 0.587785 -0.809017 0
    outer loop
      vertex 57.6563 -1.89502 -5
      vertex 57.6563 -1.89502 5
      vertex 57.225 -2.20836 5
    endloop
  endfacet
  facet normal 0.743145 -0.669131 0
    outer loop
      vertex 58.013 -1.49885 5
      vertex 57.6563 -1.89502 5
      vertex 57.6563 -1.89502 -5
    endloop
  endfacet
  facet normal 0.951057 -0.309017 0
    outer loop
      vertex 58.4443 -0.530175 -5
      vertex 58.2795 -1.03718 5
      vertex 58.2795 -1.03718 -5
    endloop
  endfacet
  facet normal 0 0 1
    outer loop
      vertex 58.2795 -1.03718 5
      vertex 58.4443 -0.530175 5
      vertex 58.5 0 5
    endloop
  endfacet
  facet normal -0.207912 -0.978148 0
    outer loop
      vertex -56.2165 -2.53603 5
      vertex -56.738 -2.42519 5
      vertex -56.738 -2.42519 -5
    endloop
  endfacet
  facet normal -0.587785 -0.809017 0
    outer loop
      vertex -57.6563 -1.89502 -5
      vertex -57.225 -2.20836 -5
      vertex -57.6563 -1.89502 5
    endloop
  endfacet
  facet normal 0 0 1
    outer loop
      vertex -57.6563 -1.89502 5
      vertex -56.738 -2.42519 5
      vertex -56.2165 -2.53603 5
    endloop
  endfacet
  facet normal -0.406737 -0.913545 0
    outer loop
      vertex -56.738 -2.42519 5
      vertex -57.225 -2.20836 5
      vertex -57.225 -2.20836 -5
    endloop
  endfacet
  facet normal -0.866025 -0.5 0
    outer loop
      vertex -58.013 -1.49885 -5
      vertex -58.2795 -1.03718 5
      vertex -58.2795 -1.03718 -5
    endloop
  endfacet
  facet normal 0 0 -1
    outer loop
      vertex -57.6563 -1.89502 -5
      vertex -58.013 -1.49885 -5
      vertex -58.2795 -1.03718 -5
    endloop
  endfacet
  facet normal -0.743145 -0.669131 0
    outer loop
      vertex -57.6563 -1.89502 5
      vertex -58.013 -1.49885 5
      vertex -58.013 -1.49885 -5
    endloop
  endfacet
  facet normal 0 0 1
    outer loop
      vertex -58.4443 -0.530175 5
      vertex -58.2795 -1.03718 5
      vertex -57.6563 -1.89502 5
    endloop
  endfacet
  facet normal 0.743145 0.669131 0
    outer loop
      vertex 57.6563 1.89502 5
      vertex 58.013 1.49885 5
      vertex 58.013 1.49885 -5
    endloop
  endfacet
  facet normal 0 0 1
    outer loop
      vertex 58.2795 1.03718 5
      vertex 58.013 1.49885 5
      vertex 57.6563 1.89502 5
    endloop
  endfacet
  facet normal 0.587785 0.809017 -0
    outer loop
      vertex 57.225 2.20836 -5
      vertex 57.225 2.20836 5
      vertex 57.6563 1.89502 5
    endloop
  endfacet
  facet normal 0.406737 0.913545 0
    outer loop
      vertex 56.738 2.42519 5
      vertex 57.225 2.20836 5
      vertex 57.225 2.20836 -5
    endloop
  endfacet
  facet normal 0.951057 -0.309017 0
    outer loop
      vertex 58.4443 -0.530175 -5
      vertex 58.4443 -0.530175 5
      vertex 58.2795 -1.03718 5
    endloop
  endfacet
  facet normal 0.994522 -0.104528 0
    outer loop
      vertex 58.5 0 5
      vertex 58.4443 -0.530175 5
      vertex 58.4443 -0.530175 -5
    endloop
  endfacet
  facet normal 0 0 1
    outer loop
      vertex -57.6563 -1.89502 5
      vertex -57.225 -2.20836 5
      vertex -56.738 -2.42519 5
    endloop
  endfacet
  facet normal -0.587785 -0.809017 0
    outer loop
      vertex -57.225 -2.20836 -5
      vertex -57.225 -2.20836 5
      vertex -57.6563 -1.89502 5
    endloop
  endfacet
  facet normal 0 0 1
    outer loop
      vertex -58.2795 -1.03718 5
      vertex -58.013 -1.49885 5
      vertex -57.6563 -1.89502 5
    endloop
  endfacet
  facet normal -0.866025 -0.5 0
    outer loop
      vertex -58.013 -1.49885 -5
      vertex -58.013 -1.49885 5
      vertex -58.2795 -1.03718 5
    endloop
  endfacet
endsolid OpenSCAD_Model
