solid OpenSCAD_Model
  facet normal -0.0450236 0.10135 0.993831
    outer loop
      vertex 5.20093 -20.1457 -50.2913
      vertex 5.20002 -20.1392 -50.292
      vertex 5 -20.15 -50.3
    endloop
  endfacet
  facet normal -0.951057 -0.309017 0
    outer loop
      vertex 64.8597 4.18942 -4.3088
      vertex 63.5579 8.19574 0
      vertex 63.5579 8.19574 -5.31212
    endloop
  endfacet
  facet normal -0.951057 -0.309017 0
    outer loop
      vertex 63.5579 8.19574 0
      vertex 64.8597 4.18942 -4.3088
      vertex 64.8597 4.18942 0
    endloop
  endfacet
  facet normal -0.0344173 0.00382429 0.9994
    outer loop
      vertex 5.19828 -20.0971 -50.2934
      vertex 5.19822 -20.0838 -50.2934
      vertex 5 -20.15 -50.3
    endloop
  endfacet
  facet normal -0.0344173 -0.00382429 0.9994
    outer loop
      vertex 5.19822 20.0838 -50.2934
      vertex 5.19828 20.0971 -50.2934
      vertex 5 20.15 -50.3
    endloop
  endfacet
  facet normal -0.743145 0.66913 0
    outer loop
      vertex 58.633 -14.9744 0
      vertex 61.4517 -11.8439 -6.93553
      vertex 58.633 -14.9744 -9.10808
    endloop
  endfacet
  facet normal -0.743145 0.66913 0
    outer loop
      vertex 61.4517 -11.8439 -6.93553
      vertex 58.633 -14.9744 0
      vertex 61.4517 -11.8439 0
    endloop
  endfacet
  facet normal 0 0 -1
    outer loop
      vertex 48.9 0 0
      vertex 65.3 0 0
      vertex 64.8597 -4.18942 0
    endloop
  endfacet
  facet normal 0 0 -1
    outer loop
      vertex 48.8181 -0.779669 0
      vertex 64.8597 -4.18942 0
      vertex 63.5579 -8.19574 0
    endloop
  endfacet
  facet normal 0 0 -1
    outer loop
      vertex 65.3 0 0
      vertex 48.9 0 0
      vertex 64.8597 4.18942 0
    endloop
  endfacet
  facet normal 0 0 -1
    outer loop
      vertex 48.5758 -1.52526 0
      vertex 63.5579 -8.19574 0
      vertex 61.4517 -11.8439 0
    endloop
  endfacet
  facet normal 0 0 -1
    outer loop
      vertex 48.8181 0.779669 0
      vertex 64.8597 4.18942 0
      vertex 48.9 0 0
    endloop
  endfacet
  facet normal 0 0 -1
    outer loop
      vertex 48.1838 -2.20419 0
      vertex 61.4517 -11.8439 0
      vertex 58.633 -14.9744 0
    endloop
  endfacet
  facet normal -0 0 -1
    outer loop
      vertex 64.8597 4.18942 0
      vertex 48.8181 0.779669 0
      vertex 63.5579 8.19574 0
    endloop
  endfacet
  facet normal 0 0 -1
    outer loop
      vertex 47.6592 -2.78679 0
      vertex 58.633 -14.9744 0
      vertex 55.225 -17.4504 0
    endloop
  endfacet
  facet normal 0 0 -1
    outer loop
      vertex 48.5758 1.52526 0
      vertex 63.5579 8.19574 0
      vertex 48.8181 0.779669 0
    endloop
  endfacet
  facet normal 0 0 -1
    outer loop
      vertex 47.025 -3.24759 0
      vertex 55.225 -17.4504 0
      vertex 51.3767 -19.1638 0
    endloop
  endfacet
  facet normal -0 0 -1
    outer loop
      vertex 63.5579 8.19574 0
      vertex 48.5758 1.52526 0
      vertex 61.4517 11.8439 0
    endloop
  endfacet
  facet normal 0 0 -1
    outer loop
      vertex 48.1838 2.20419 0
      vertex 61.4517 11.8439 0
      vertex 48.5758 1.52526 0
    endloop
  endfacet
  facet normal 0 0 -1
    outer loop
      vertex 64.8597 -4.18942 0
      vertex 48.8181 -0.779669 0
      vertex 48.9 0 0
    endloop
  endfacet
  facet normal 0 0 -1
    outer loop
      vertex 63.5579 -8.19574 0
      vertex 48.5758 -1.52526 0
      vertex 48.8181 -0.779669 0
    endloop
  endfacet
  facet normal 0 0 -1
    outer loop
      vertex 61.4517 -11.8439 0
      vertex 48.1838 -2.20419 0
      vertex 48.5758 -1.52526 0
    endloop
  endfacet
  facet normal 0 0 -1
    outer loop
      vertex 58.633 -14.9744 0
      vertex 47.6592 -2.78679 0
      vertex 48.1838 -2.20419 0
    endloop
  endfacet
  facet normal 0 0 -1
    outer loop
      vertex 46.3088 -3.56646 0
      vertex 51.3767 -19.1638 0
      vertex 47.2562 -20.0396 0
    endloop
  endfacet
  facet normal 0 0 -1
    outer loop
      vertex 55.225 -17.4504 0
      vertex 47.025 -3.24759 0
      vertex 47.6592 -2.78679 0
    endloop
  endfacet
  facet normal 0 0 -1
    outer loop
      vertex 51.3767 -19.1638 0
      vertex 46.3088 -3.56646 0
      vertex 47.025 -3.24759 0
    endloop
  endfacet
  facet normal 0 0 -1
    outer loop
      vertex 47.2562 -20.0396 0
      vertex 45.542 -3.72946 0
      vertex 46.3088 -3.56646 0
    endloop
  endfacet
  facet normal 0 0 -1
    outer loop
      vertex 47.2562 -20.0396 0
      vertex 44.758 -3.72946 0
      vertex 45.542 -3.72946 0
    endloop
  endfacet
  facet normal 0 0 -1
    outer loop
      vertex 47.2562 -20.0396 0
      vertex 43.9912 -3.56646 0
      vertex 44.758 -3.72946 0
    endloop
  endfacet
  facet normal 0 0 -1
    outer loop
      vertex 47.2562 -20.0396 0
      vertex 43.275 -3.24759 0
      vertex 43.9912 -3.56646 0
    endloop
  endfacet
  facet normal 0 0 -1
    outer loop
      vertex 47.2562 -20.0396 0
      vertex 42.6408 -2.78679 0
      vertex 43.275 -3.24759 0
    endloop
  endfacet
  facet normal 0 0 -1
    outer loop
      vertex 47.2562 -20.0396 0
      vertex 42.1162 -2.20419 0
      vertex 42.6408 -2.78679 0
    endloop
  endfacet
  facet normal 0 0 -1
    outer loop
      vertex 5 -20.15 0
      vertex 42.1162 -2.20419 0
      vertex 47.2562 -20.0396 0
    endloop
  endfacet
  facet normal -0 0 -1
    outer loop
      vertex 42.1162 -2.20419 0
      vertex 5 -20.15 0
      vertex 41.7242 -1.52526 0
    endloop
  endfacet
  facet normal -0 0 -1
    outer loop
      vertex 41.4819 -0.779669 0
      vertex 5 -20.15 0
      vertex 41.4 0 0
    endloop
  endfacet
  facet normal -0 0 -1
    outer loop
      vertex 41.7242 -1.52526 0
      vertex 5 -20.15 0
      vertex 41.4819 -0.779669 0
    endloop
  endfacet
  facet normal -0 0 -1
    outer loop
      vertex 61.4517 11.8439 0
      vertex 48.1838 2.20419 0
      vertex 58.633 14.9744 0
    endloop
  endfacet
  facet normal 0 0 -1
    outer loop
      vertex 47.6592 2.78679 0
      vertex 58.633 14.9744 0
      vertex 48.1838 2.20419 0
    endloop
  endfacet
  facet normal -0 0 -1
    outer loop
      vertex 58.633 14.9744 0
      vertex 47.6592 2.78679 0
      vertex 55.225 17.4504 0
    endloop
  endfacet
  facet normal 0 0 -1
    outer loop
      vertex 47.025 3.24759 0
      vertex 55.225 17.4504 0
      vertex 47.6592 2.78679 0
    endloop
  endfacet
  facet normal -0 0 -1
    outer loop
      vertex 55.225 17.4504 0
      vertex 47.025 3.24759 0
      vertex 51.3767 19.1638 0
    endloop
  endfacet
  facet normal 0 0 -1
    outer loop
      vertex 46.3088 3.56646 0
      vertex 51.3767 19.1638 0
      vertex 47.025 3.24759 0
    endloop
  endfacet
  facet normal -0 0 -1
    outer loop
      vertex 51.3767 19.1638 0
      vertex 46.3088 3.56646 0
      vertex 47.2562 20.0396 0
    endloop
  endfacet
  facet normal 0 0 -1
    outer loop
      vertex 45.542 3.72946 0
      vertex 47.2562 20.0396 0
      vertex 46.3088 3.56646 0
    endloop
  endfacet
  facet normal 0 0 -1
    outer loop
      vertex 44.758 3.72946 0
      vertex 47.2562 20.0396 0
      vertex 45.542 3.72946 0
    endloop
  endfacet
  facet normal 0 0 -1
    outer loop
      vertex 43.9912 3.56646 0
      vertex 47.2562 20.0396 0
      vertex 44.758 3.72946 0
    endloop
  endfacet
  facet normal 0 0 -1
    outer loop
      vertex 43.275 3.24759 0
      vertex 47.2562 20.0396 0
      vertex 43.9912 3.56646 0
    endloop
  endfacet
  facet normal 0 0 -1
    outer loop
      vertex 42.6408 2.78679 0
      vertex 47.2562 20.0396 0
      vertex 43.275 3.24759 0
    endloop
  endfacet
  facet normal 0 0 -1
    outer loop
      vertex 42.1162 2.20419 0
      vertex 47.2562 20.0396 0
      vertex 42.6408 2.78679 0
    endloop
  endfacet
  facet normal 0 0 -1
    outer loop
      vertex 5 20.15 0
      vertex 42.1162 2.20419 0
      vertex 41.7242 1.52526 0
    endloop
  endfacet
  facet normal 0 0 -1
    outer loop
      vertex 5 20.15 0
      vertex 41.7242 1.52526 0
      vertex 41.4819 0.779669 0
    endloop
  endfacet
  facet normal 0 0 -1
    outer loop
      vertex 5 20.15 0
      vertex 41.4 0 0
      vertex 5 -20.15 0
    endloop
  endfacet
  facet normal 0 0 -1
    outer loop
      vertex 41.4 0 0
      vertex 5 20.15 0
      vertex 41.4819 0.779669 0
    endloop
  endfacet
  facet normal 0 0 -1
    outer loop
      vertex 42.1162 2.20419 0
      vertex 5 20.15 0
      vertex 47.2562 20.0396 0
    endloop
  endfacet
  facet normal -0.951057 0.309017 0
    outer loop
      vertex 63.5579 -8.19574 0
      vertex 64.8597 -4.18942 -4.3088
      vertex 63.5579 -8.19574 -5.31212
    endloop
  endfacet
  facet normal -0.951057 0.309017 0
    outer loop
      vertex 64.8597 -4.18942 -4.3088
      vertex 63.5579 -8.19574 0
      vertex 64.8597 -4.18942 0
    endloop
  endfacet
  facet normal -0.0466935 0.218791 0.974654
    outer loop
      vertex 5.2021 -20.1495 -50.2904
      vertex 5.20093 -20.1457 -50.2913
      vertex 5 -20.15 -50.3
    endloop
  endfacet
  facet normal -1 0 0
    outer loop
      vertex 0 -25.15 -50.3
      vertex 0 25.15 5
      vertex 0 25.15 -50.3
    endloop
  endfacet
  facet normal -1 -0 0
    outer loop
      vertex 0 25.15 5
      vertex 0 -25.15 -50.3
      vertex 0 -25.15 5
    endloop
  endfacet
  facet normal -0.0466935 -0.218791 0.974654
    outer loop
      vertex 5.20093 20.1457 -50.2913
      vertex 5.2021 20.1495 -50.2904
      vertex 5 20.15 -50.3
    endloop
  endfacet
  facet normal -0.994522 -0.10453 0
    outer loop
      vertex 65.3 0 -3.96941
      vertex 64.8597 4.18942 0
      vertex 64.8597 4.18942 -4.3088
    endloop
  endfacet
  facet normal -0.994522 -0.10453 0
    outer loop
      vertex 64.8597 4.18942 0
      vertex 65.3 0 -3.96941
      vertex 65.3 0 0
    endloop
  endfacet
  facet normal -0.406737 -0.913546 0
    outer loop
      vertex 51.3767 19.1638 0
      vertex 55.225 17.4504 -11.7348
      vertex 55.225 17.4504 0
    endloop
  endfacet
  facet normal -0.406737 -0.913546 0
    outer loop
      vertex 55.225 17.4504 -11.7348
      vertex 51.3767 19.1638 0
      vertex 51.3767 19.1638 -14.7009
    endloop
  endfacet
  facet normal -0.207912 0.978148 0
    outer loop
      vertex 51.3767 -19.1638 -14.7009
      vertex 47.2562 -20.0396 0
      vertex 51.3767 -19.1638 0
    endloop
  endfacet
  facet normal -0.207912 0.978148 0
    outer loop
      vertex 47.2562 -20.0396 0
      vertex 51.3767 -19.1638 -14.7009
      vertex 47.2562 -20.0396 -17.8768
    endloop
  endfacet
  facet normal -0.033141 0 0.999451
    outer loop
      vertex 5 20.15 -50.3
      vertex 5.19822 -20.0838 -50.2934
      vertex 5.19822 20.0838 -50.2934
    endloop
  endfacet
  facet normal -0.033141 0 0.999451
    outer loop
      vertex 5.19822 -20.0838 -50.2934
      vertex 5 20.15 -50.3
      vertex 5 -20.15 -50.3
    endloop
  endfacet
  facet normal -0.00261224 0.999997 0
    outer loop
      vertex 47.2562 -20.0396 -17.8768
      vertex 5 -20.15 0
      vertex 47.2562 -20.0396 0
    endloop
  endfacet
  facet normal -0.00261224 0.999997 8.08896e-09
    outer loop
      vertex 5.2021 -20.1495 -50.2904
      vertex 5 -20.15 0
      vertex 47.2562 -20.0396 -17.8768
    endloop
  endfacet
  facet normal -0.00261425 0.999997 0
    outer loop
      vertex 5 -20.15 0
      vertex 5.2021 -20.1495 -50.2904
      vertex 5 -20.15 -50.3
    endloop
  endfacet
  facet normal -0.0428788 0.0588468 0.997346
    outer loop
      vertex 5.20002 -20.1392 -50.292
      vertex 5.19933 -20.1308 -50.2926
      vertex 5 -20.15 -50.3
    endloop
  endfacet
  facet normal -0.0387114 0.0224978 0.998997
    outer loop
      vertex 5.19883 -20.1207 -50.293
      vertex 5.19848 -20.1095 -50.2932
      vertex 5 -20.15 -50.3
    endloop
  endfacet
  facet normal -0.743145 -0.66913 0
    outer loop
      vertex 61.4517 11.8439 -6.93553
      vertex 58.633 14.9744 0
      vertex 58.633 14.9744 -9.10808
    endloop
  endfacet
  facet normal -0.743145 -0.66913 0
    outer loop
      vertex 58.633 14.9744 0
      vertex 61.4517 11.8439 -6.93553
      vertex 61.4517 11.8439 0
    endloop
  endfacet
  facet normal -0.0365278 -0.011757 0.999263
    outer loop
      vertex 5.19828 20.0971 -50.2934
      vertex 5.19848 20.1095 -50.2932
      vertex 5 20.15 -50.3
    endloop
  endfacet
  facet normal 0 0 -1
    outer loop
      vertex 5 -25.15 -50.3
      vertex 5.18969 25.1494 -50.3
      vertex 5.18969 -25.1494 -50.3
    endloop
  endfacet
  facet normal 0 0 -1
    outer loop
      vertex 5 -25.15 -50.3
      vertex 5 25.15 -50.3
      vertex 5.18969 25.1494 -50.3
    endloop
  endfacet
  facet normal 0 0 -1
    outer loop
      vertex 0 -25.15 -50.3
      vertex 5 25.15 -50.3
      vertex 5 -25.15 -50.3
    endloop
  endfacet
  facet normal -0 0 -1
    outer loop
      vertex 5 25.15 -50.3
      vertex 0 -25.15 -50.3
      vertex 0 25.15 -50.3
    endloop
  endfacet
  facet normal -0.866025 -0.5 0
    outer loop
      vertex 63.5579 8.19574 -5.31212
      vertex 61.4517 11.8439 0
      vertex 61.4517 11.8439 -6.93553
    endloop
  endfacet
  facet normal -0.866025 -0.5 0
    outer loop
      vertex 61.4517 11.8439 0
      vertex 63.5579 8.19574 -5.31212
      vertex 63.5579 8.19574 0
    endloop
  endfacet
  facet normal -0.587785 -0.809017 0
    outer loop
      vertex 55.225 17.4504 0
      vertex 58.633 14.9744 -9.10808
      vertex 58.633 14.9744 0
    endloop
  endfacet
  facet normal -0.587785 -0.809017 0
    outer loop
      vertex 58.633 14.9744 -9.10808
      vertex 55.225 17.4504 0
      vertex 55.225 17.4504 -11.7348
    endloop
  endfacet
  facet normal -0.406737 0.913546 0
    outer loop
      vertex 55.225 -17.4504 -11.7348
      vertex 51.3767 -19.1638 0
      vertex 55.225 -17.4504 0
    endloop
  endfacet
  facet normal -0.406737 0.913546 0
    outer loop
      vertex 51.3767 -19.1638 0
      vertex 55.225 -17.4504 -11.7348
      vertex 51.3767 -19.1638 -14.7009
    endloop
  endfacet
  facet normal -0.866025 0.5 0
    outer loop
      vertex 61.4517 -11.8439 0
      vertex 63.5579 -8.19574 -5.31212
      vertex 61.4517 -11.8439 -6.93553
    endloop
  endfacet
  facet normal -0.866025 0.5 0
    outer loop
      vertex 63.5579 -8.19574 -5.31212
      vertex 61.4517 -11.8439 0
      vertex 63.5579 -8.19574 0
    endloop
  endfacet
  facet normal -0.0365278 0.011757 0.999263
    outer loop
      vertex 5.19848 -20.1095 -50.2932
      vertex 5.19828 -20.0971 -50.2934
      vertex 5 -20.15 -50.3
    endloop
  endfacet
  facet normal -0.994522 0.10453 0
    outer loop
      vertex 64.8597 -4.18942 0
      vertex 65.3 0 -3.96941
      vertex 64.8597 -4.18942 -4.3088
    endloop
  endfacet
  facet normal -0.994522 0.10453 0
    outer loop
      vertex 65.3 0 -3.96941
      vertex 64.8597 -4.18942 0
      vertex 65.3 0 0
    endloop
  endfacet
  facet normal -0.00261224 -0.999997 0
    outer loop
      vertex 5 20.15 0
      vertex 47.2562 20.0396 -17.8768
      vertex 47.2562 20.0396 0
    endloop
  endfacet
  facet normal -0.00261224 -0.999997 8.08896e-09
    outer loop
      vertex 5 20.15 0
      vertex 5.2021 20.1495 -50.2904
      vertex 47.2562 20.0396 -17.8768
    endloop
  endfacet
  facet normal -0.00261425 -0.999997 0
    outer loop
      vertex 5.2021 20.1495 -50.2904
      vertex 5 20.15 0
      vertex 5 20.15 -50.3
    endloop
  endfacet
  facet normal -0.207912 -0.978148 0
    outer loop
      vertex 47.2562 20.0396 0
      vertex 51.3767 19.1638 -14.7009
      vertex 51.3767 19.1638 0
    endloop
  endfacet
  facet normal -0.207912 -0.978148 0
    outer loop
      vertex 51.3767 19.1638 -14.7009
      vertex 47.2562 20.0396 0
      vertex 47.2562 20.0396 -17.8768
    endloop
  endfacet
  facet normal -0.0428788 -0.0588468 0.997346
    outer loop
      vertex 5.19933 20.1308 -50.2926
      vertex 5.20002 20.1392 -50.292
      vertex 5 20.15 -50.3
    endloop
  endfacet
  facet normal -0.0450236 -0.10135 0.993831
    outer loop
      vertex 5.20002 20.1392 -50.292
      vertex 5.20093 20.1457 -50.2913
      vertex 5 20.15 -50.3
    endloop
  endfacet
  facet normal -0.0387114 -0.0224978 0.998997
    outer loop
      vertex 5.19848 20.1095 -50.2932
      vertex 5.19883 20.1207 -50.293
      vertex 5 20.15 -50.3
    endloop
  endfacet
  facet normal -0.0407866 -0.0367227 0.998493
    outer loop
      vertex 5.19883 20.1207 -50.293
      vertex 5.19933 20.1308 -50.2926
      vertex 5 20.15 -50.3
    endloop
  endfacet
  facet normal -0.587785 0.809017 0
    outer loop
      vertex 58.633 -14.9744 -9.10808
      vertex 55.225 -17.4504 0
      vertex 58.633 -14.9744 0
    endloop
  endfacet
  facet normal -0.587785 0.809017 0
    outer loop
      vertex 55.225 -17.4504 0
      vertex 58.633 -14.9744 -9.10808
      vertex 55.225 -17.4504 -11.7348
    endloop
  endfacet
  facet normal -0.0407866 0.0367227 0.998493
    outer loop
      vertex 5.19933 -20.1308 -50.2926
      vertex 5.19883 -20.1207 -50.293
      vertex 5 -20.15 -50.3
    endloop
  endfacet
  facet normal 0.610471 -4.4431e-07 -0.792039
    outer loop
      vertex 65.3 0 -3.96941
      vertex 70.3 0 -0.115614
      vertex 69.7504 -5.22898 -0.539214
    endloop
  endfacet
  facet normal 0.610471 4.79218e-07 -0.792039
    outer loop
      vertex 64.8597 -4.18942 -4.3088
      vertex 69.7504 -5.22898 -0.539214
      vertex 68.1257 -10.2294 -1.7915
    endloop
  endfacet
  facet normal 0.610471 4.4431e-07 -0.792039
    outer loop
      vertex 70.3 0 -0.115614
      vertex 65.3 0 -3.96941
      vertex 69.7504 5.22898 -0.539214
    endloop
  endfacet
  facet normal 0.610471 1.68842e-07 -0.792039
    outer loop
      vertex 63.5579 -8.19574 -5.31212
      vertex 68.1257 -10.2294 -1.7915
      vertex 65.4968 -14.7828 -3.81774
    endloop
  endfacet
  facet normal 0.610471 6.95986e-07 -0.792039
    outer loop
      vertex 64.8597 4.18942 -4.3088
      vertex 69.7504 5.22898 -0.539214
      vertex 65.3 0 -3.96941
    endloop
  endfacet
  facet normal 0.610471 -4.79218e-07 -0.792039
    outer loop
      vertex 69.7504 5.22898 -0.539214
      vertex 64.8597 4.18942 -4.3088
      vertex 68.1257 10.2294 -1.7915
    endloop
  endfacet
  facet normal 0.610471 -6.95986e-07 -0.792039
    outer loop
      vertex 69.7504 -5.22898 -0.539214
      vertex 64.8597 -4.18942 -4.3088
      vertex 65.3 0 -3.96941
    endloop
  endfacet
  facet normal 0.610471 3.84602e-07 -0.792039
    outer loop
      vertex 68.1257 -10.2294 -1.7915
      vertex 63.5579 -8.19574 -5.31212
      vertex 64.8597 -4.18942 -4.3088
    endloop
  endfacet
  facet normal 0.610471 4.81277e-08 -0.792039
    outer loop
      vertex 61.4517 -11.8439 -6.93553
      vertex 65.4968 -14.7828 -3.81774
      vertex 61.9786 -18.6901 -6.52939
    endloop
  endfacet
  facet normal 0.610471 7.04983e-08 -0.792039
    outer loop
      vertex 65.4968 -14.7828 -3.81774
      vertex 61.4517 -11.8439 -6.93553
      vertex 63.5579 -8.19574 -5.31212
    endloop
  endfacet
  facet normal 0.610471 8.85714e-08 -0.792039
    outer loop
      vertex 61.9786 -18.6901 -6.52939
      vertex 58.633 -14.9744 -9.10808
      vertex 61.4517 -11.8439 -6.93553
    endloop
  endfacet
  facet normal 0.610471 4.91218e-08 -0.792039
    outer loop
      vertex 57.725 -21.7805 -9.80791
      vertex 58.633 -14.9744 -9.10808
      vertex 61.9786 -18.6901 -6.52939
    endloop
  endfacet
  facet normal 0.610471 3.7303e-08 -0.792039
    outer loop
      vertex 57.725 -21.7805 -9.80791
      vertex 55.225 -17.4504 -11.7348
      vertex 58.633 -14.9744 -9.10808
    endloop
  endfacet
  facet normal 0.610471 2.67607e-08 -0.792039
    outer loop
      vertex 52.9218 -23.9191 -13.51
      vertex 55.225 -17.4504 -11.7348
      vertex 57.725 -21.7805 -9.80791
    endloop
  endfacet
  facet normal 0.610472 -2.51029e-07 -0.792038
    outer loop
      vertex 52.9218 -23.9191 -13.51
      vertex 51.3767 -19.1638 -14.7009
      vertex 55.225 -17.4504 -11.7348
    endloop
  endfacet
  facet normal 0.610471 -3.17577e-07 -0.792038
    outer loop
      vertex 47.7789 -25.0122 -17.474
      vertex 51.3767 -19.1638 -14.7009
      vertex 52.9218 -23.9191 -13.51
    endloop
  endfacet
  facet normal 0.610471 1.01123e-07 -0.792039
    outer loop
      vertex 47.7789 -25.0122 -17.474
      vertex 47.2562 -20.0396 -17.8768
      vertex 51.3767 -19.1638 -14.7009
    endloop
  endfacet
  facet normal 0.610471 1.10082e-07 -0.792039
    outer loop
      vertex 35.063 -25.0753 -27.2749
      vertex 47.2562 -20.0396 -17.8768
      vertex 47.7789 -25.0122 -17.474
    endloop
  endfacet
  facet normal 0.610471 -2.59933e-07 -0.792039
    outer loop
      vertex 35.063 -25.0753 -27.2749
      vertex 5.2021 -20.1495 -50.2904
      vertex 47.2562 -20.0396 -17.8768
    endloop
  endfacet
  facet normal 0.610357 0 -0.792127
    outer loop
      vertex 5.19822 -20.0838 -50.2934
      vertex 5.18969 -25.1494 -50.3
      vertex 5.19822 20.0838 -50.2934
    endloop
  endfacet
  facet normal 0.627292 -4.58291e-05 -0.778784
    outer loop
      vertex 5.19828 -20.0971 -50.2934
      vertex 5.18969 -25.1494 -50.3
      vertex 5.19822 -20.0838 -50.2934
    endloop
  endfacet
  facet normal 0.607299 8.7611e-06 -0.794473
    outer loop
      vertex 5.19848 -20.1095 -50.2932
      vertex 5.18969 -25.1494 -50.3
      vertex 5.19828 -20.0971 -50.2934
    endloop
  endfacet
  facet normal 0.612749 -6.39206e-06 -0.790278
    outer loop
      vertex 5.19883 -20.1207 -50.293
      vertex 5.18969 -25.1494 -50.3
      vertex 5.19848 -20.1095 -50.2932
    endloop
  endfacet
  facet normal 0.610717 -4.97567e-07 -0.791849
    outer loop
      vertex 5.19933 -20.1308 -50.2926
      vertex 5.18969 -25.1494 -50.3
      vertex 5.19883 -20.1207 -50.293
    endloop
  endfacet
  facet normal 0.609368 3.63271e-06 -0.792888
    outer loop
      vertex 5.20002 -20.1392 -50.292
      vertex 5.18969 -25.1494 -50.3
      vertex 5.19933 -20.1308 -50.2926
    endloop
  endfacet
  facet normal 0.611422 -3.11934e-06 -0.791305
    outer loop
      vertex 5.20093 -20.1457 -50.2913
      vertex 5.18969 -25.1494 -50.3
      vertex 5.20002 -20.1392 -50.292
    endloop
  endfacet
  facet normal 0.608784 6.32486e-06 -0.793336
    outer loop
      vertex 5.2021 -20.1495 -50.2904
      vertex 5.18969 -25.1494 -50.3
      vertex 5.20093 -20.1457 -50.2913
    endloop
  endfacet
  facet normal 0.610471 -3.44078e-07 -0.792039
    outer loop
      vertex 5.18969 -25.1494 -50.3
      vertex 5.2021 -20.1495 -50.2904
      vertex 35.063 -25.0753 -27.2749
    endloop
  endfacet
  facet normal 0.610471 -3.84602e-07 -0.792039
    outer loop
      vertex 63.5579 8.19574 -5.31212
      vertex 68.1257 10.2294 -1.7915
      vertex 64.8597 4.18942 -4.3088
    endloop
  endfacet
  facet normal 0.610471 -1.68842e-07 -0.792039
    outer loop
      vertex 68.1257 10.2294 -1.7915
      vertex 63.5579 8.19574 -5.31212
      vertex 65.4968 14.7828 -3.81774
    endloop
  endfacet
  facet normal 0.610471 -7.04983e-08 -0.792039
    outer loop
      vertex 61.4517 11.8439 -6.93553
      vertex 65.4968 14.7828 -3.81774
      vertex 63.5579 8.19574 -5.31212
    endloop
  endfacet
  facet normal 0.610471 -4.81277e-08 -0.792039
    outer loop
      vertex 65.4968 14.7828 -3.81774
      vertex 61.4517 11.8439 -6.93553
      vertex 61.9786 18.6901 -6.52939
    endloop
  endfacet
  facet normal 0.610471 -8.85714e-08 -0.792039
    outer loop
      vertex 58.633 14.9744 -9.10808
      vertex 61.9786 18.6901 -6.52939
      vertex 61.4517 11.8439 -6.93553
    endloop
  endfacet
  facet normal 0.610471 -4.91218e-08 -0.792039
    outer loop
      vertex 58.633 14.9744 -9.10808
      vertex 57.725 21.7805 -9.80791
      vertex 61.9786 18.6901 -6.52939
    endloop
  endfacet
  facet normal 0.610471 -3.7303e-08 -0.792039
    outer loop
      vertex 55.225 17.4504 -11.7348
      vertex 57.725 21.7805 -9.80791
      vertex 58.633 14.9744 -9.10808
    endloop
  endfacet
  facet normal 0.610471 -2.67607e-08 -0.792039
    outer loop
      vertex 55.225 17.4504 -11.7348
      vertex 52.9218 23.9191 -13.51
      vertex 57.725 21.7805 -9.80791
    endloop
  endfacet
  facet normal 0.610472 2.51029e-07 -0.792038
    outer loop
      vertex 51.3767 19.1638 -14.7009
      vertex 52.9218 23.9191 -13.51
      vertex 55.225 17.4504 -11.7348
    endloop
  endfacet
  facet normal 0.610471 3.17577e-07 -0.792038
    outer loop
      vertex 51.3767 19.1638 -14.7009
      vertex 47.7789 25.0122 -17.474
      vertex 52.9218 23.9191 -13.51
    endloop
  endfacet
  facet normal 0.610471 -1.01123e-07 -0.792039
    outer loop
      vertex 47.2562 20.0396 -17.8768
      vertex 47.7789 25.0122 -17.474
      vertex 51.3767 19.1638 -14.7009
    endloop
  endfacet
  facet normal 0.610471 -1.10082e-07 -0.792039
    outer loop
      vertex 47.2562 20.0396 -17.8768
      vertex 35.063 25.0753 -27.2749
      vertex 47.7789 25.0122 -17.474
    endloop
  endfacet
  facet normal 0.610471 2.59933e-07 -0.792039
    outer loop
      vertex 5.2021 20.1495 -50.2904
      vertex 35.063 25.0753 -27.2749
      vertex 47.2562 20.0396 -17.8768
    endloop
  endfacet
  facet normal 0.610471 3.44078e-07 -0.792039
    outer loop
      vertex 5.2021 20.1495 -50.2904
      vertex 5.18969 25.1494 -50.3
      vertex 35.063 25.0753 -27.2749
    endloop
  endfacet
  facet normal 0.608784 -6.32486e-06 -0.793336
    outer loop
      vertex 5.20093 20.1457 -50.2913
      vertex 5.18969 25.1494 -50.3
      vertex 5.2021 20.1495 -50.2904
    endloop
  endfacet
  facet normal 0.611422 3.11934e-06 -0.791305
    outer loop
      vertex 5.20002 20.1392 -50.292
      vertex 5.18969 25.1494 -50.3
      vertex 5.20093 20.1457 -50.2913
    endloop
  endfacet
  facet normal 0.609368 -3.63271e-06 -0.792888
    outer loop
      vertex 5.19933 20.1308 -50.2926
      vertex 5.18969 25.1494 -50.3
      vertex 5.20002 20.1392 -50.292
    endloop
  endfacet
  facet normal 0.610717 4.97567e-07 -0.791849
    outer loop
      vertex 5.19883 20.1207 -50.293
      vertex 5.18969 25.1494 -50.3
      vertex 5.19933 20.1308 -50.2926
    endloop
  endfacet
  facet normal 0.612749 6.39206e-06 -0.790278
    outer loop
      vertex 5.19848 20.1095 -50.2932
      vertex 5.18969 25.1494 -50.3
      vertex 5.19883 20.1207 -50.293
    endloop
  endfacet
  facet normal 0.607299 -8.7611e-06 -0.794473
    outer loop
      vertex 5.19828 20.0971 -50.2934
      vertex 5.18969 25.1494 -50.3
      vertex 5.19848 20.1095 -50.2932
    endloop
  endfacet
  facet normal 0.627292 4.58291e-05 -0.778784
    outer loop
      vertex 5.19822 20.0838 -50.2934
      vertex 5.18969 25.1494 -50.3
      vertex 5.19828 20.0971 -50.2934
    endloop
  endfacet
  facet normal 0.610357 0 -0.792127
    outer loop
      vertex 5.18969 25.1494 -50.3
      vertex 5.19822 20.0838 -50.2934
      vertex 5.18969 -25.1494 -50.3
    endloop
  endfacet
  facet normal 0 1 -0
    outer loop
      vertex 20 25.15 0
      vertex 0 25.15 5
      vertex 20 25.15 5
    endloop
  endfacet
  facet normal 0 1 -0
    outer loop
      vertex 5 25.15 -50.3
      vertex 0 25.15 5
      vertex 20 25.15 0
    endloop
  endfacet
  facet normal 0 1 0
    outer loop
      vertex 0 25.15 5
      vertex 5 25.15 -50.3
      vertex 0 25.15 -50.3
    endloop
  endfacet
  facet normal 0 0 1
    outer loop
      vertex 48.9 0 5
      vertex 70.3 0 5
      vertex 69.7504 5.22898 5
    endloop
  endfacet
  facet normal 0 0 1
    outer loop
      vertex 48.8181 0.779669 5
      vertex 69.7504 5.22898 5
      vertex 68.1257 10.2294 5
    endloop
  endfacet
  facet normal 0 0 1
    outer loop
      vertex 70.3 0 5
      vertex 48.9 0 5
      vertex 69.7504 -5.22898 5
    endloop
  endfacet
  facet normal 0 0 1
    outer loop
      vertex 48.5758 1.52526 5
      vertex 68.1257 10.2294 5
      vertex 65.4968 14.7828 5
    endloop
  endfacet
  facet normal -0 0 1
    outer loop
      vertex 48.8181 -0.779669 5
      vertex 69.7504 -5.22898 5
      vertex 48.9 0 5
    endloop
  endfacet
  facet normal 0 0 1
    outer loop
      vertex 48.1838 2.20419 5
      vertex 65.4968 14.7828 5
      vertex 61.9786 18.6901 5
    endloop
  endfacet
  facet normal 0 0 1
    outer loop
      vertex 69.7504 -5.22898 5
      vertex 48.8181 -0.779669 5
      vertex 68.1257 -10.2294 5
    endloop
  endfacet
  facet normal 0 0 1
    outer loop
      vertex 47.6592 2.78679 5
      vertex 61.9786 18.6901 5
      vertex 57.725 21.7805 5
    endloop
  endfacet
  facet normal -0 0 1
    outer loop
      vertex 48.5758 -1.52526 5
      vertex 68.1257 -10.2294 5
      vertex 48.8181 -0.779669 5
    endloop
  endfacet
  facet normal 0 0 1
    outer loop
      vertex 47.025 3.24759 5
      vertex 57.725 21.7805 5
      vertex 52.9218 23.9191 5
    endloop
  endfacet
  facet normal 0 0 1
    outer loop
      vertex 68.1257 -10.2294 5
      vertex 48.5758 -1.52526 5
      vertex 65.4968 -14.7828 5
    endloop
  endfacet
  facet normal -0 0 1
    outer loop
      vertex 48.1838 -2.20419 5
      vertex 65.4968 -14.7828 5
      vertex 48.5758 -1.52526 5
    endloop
  endfacet
  facet normal 0 0 1
    outer loop
      vertex 69.7504 5.22898 5
      vertex 48.8181 0.779669 5
      vertex 48.9 0 5
    endloop
  endfacet
  facet normal 0 0 1
    outer loop
      vertex 68.1257 10.2294 5
      vertex 48.5758 1.52526 5
      vertex 48.8181 0.779669 5
    endloop
  endfacet
  facet normal 0 0 1
    outer loop
      vertex 65.4968 14.7828 5
      vertex 48.1838 2.20419 5
      vertex 48.5758 1.52526 5
    endloop
  endfacet
  facet normal 0 0 1
    outer loop
      vertex 46.3088 3.56646 5
      vertex 52.9218 23.9191 5
      vertex 47.7789 25.0122 5
    endloop
  endfacet
  facet normal 0 0 1
    outer loop
      vertex 61.9786 18.6901 5
      vertex 47.6592 2.78679 5
      vertex 48.1838 2.20419 5
    endloop
  endfacet
  facet normal 0 0 1
    outer loop
      vertex 57.725 21.7805 5
      vertex 47.025 3.24759 5
      vertex 47.6592 2.78679 5
    endloop
  endfacet
  facet normal 0 0 1
    outer loop
      vertex 52.9218 23.9191 5
      vertex 46.3088 3.56646 5
      vertex 47.025 3.24759 5
    endloop
  endfacet
  facet normal 0 0 1
    outer loop
      vertex 47.7789 25.0122 5
      vertex 45.542 3.72946 5
      vertex 46.3088 3.56646 5
    endloop
  endfacet
  facet normal 0 0 1
    outer loop
      vertex 47.7789 25.0122 5
      vertex 44.758 3.72946 5
      vertex 45.542 3.72946 5
    endloop
  endfacet
  facet normal 0 0 1
    outer loop
      vertex 47.7789 25.0122 5
      vertex 43.9912 3.56646 5
      vertex 44.758 3.72946 5
    endloop
  endfacet
  facet normal 0 0 1
    outer loop
      vertex 47.7789 25.0122 5
      vertex 43.275 3.24759 5
      vertex 43.9912 3.56646 5
    endloop
  endfacet
  facet normal 0 0 1
    outer loop
      vertex 20 25.15 5
      vertex 43.275 3.24759 5
      vertex 47.7789 25.0122 5
    endloop
  endfacet
  facet normal 0 0 1
    outer loop
      vertex 43.275 3.24759 5
      vertex 20 25.15 5
      vertex 42.6408 2.78679 5
    endloop
  endfacet
  facet normal 0 0 1
    outer loop
      vertex 42.6408 2.78679 5
      vertex 20 25.15 5
      vertex 42.1162 2.20419 5
    endloop
  endfacet
  facet normal 0 0 1
    outer loop
      vertex 42.1162 2.20419 5
      vertex 20 25.15 5
      vertex 41.7242 1.52526 5
    endloop
  endfacet
  facet normal 0 0 1
    outer loop
      vertex 41.4819 0.779669 5
      vertex 20 25.15 5
      vertex 41.4 0 5
    endloop
  endfacet
  facet normal 0 0 1
    outer loop
      vertex 41.7242 1.52526 5
      vertex 20 25.15 5
      vertex 41.4819 0.779669 5
    endloop
  endfacet
  facet normal 0 0 1
    outer loop
      vertex 65.4968 -14.7828 5
      vertex 48.1838 -2.20419 5
      vertex 61.9786 -18.6901 5
    endloop
  endfacet
  facet normal -0 0 1
    outer loop
      vertex 47.6592 -2.78679 5
      vertex 61.9786 -18.6901 5
      vertex 48.1838 -2.20419 5
    endloop
  endfacet
  facet normal 0 0 1
    outer loop
      vertex 61.9786 -18.6901 5
      vertex 47.6592 -2.78679 5
      vertex 57.725 -21.7805 5
    endloop
  endfacet
  facet normal -0 0 1
    outer loop
      vertex 47.025 -3.24759 5
      vertex 57.725 -21.7805 5
      vertex 47.6592 -2.78679 5
    endloop
  endfacet
  facet normal 0 0 1
    outer loop
      vertex 57.725 -21.7805 5
      vertex 47.025 -3.24759 5
      vertex 52.9218 -23.9191 5
    endloop
  endfacet
  facet normal -0 0 1
    outer loop
      vertex 46.3088 -3.56646 5
      vertex 52.9218 -23.9191 5
      vertex 47.025 -3.24759 5
    endloop
  endfacet
  facet normal 0 0 1
    outer loop
      vertex 52.9218 -23.9191 5
      vertex 46.3088 -3.56646 5
      vertex 47.7789 -25.0122 5
    endloop
  endfacet
  facet normal -0 0 1
    outer loop
      vertex 45.542 -3.72946 5
      vertex 47.7789 -25.0122 5
      vertex 46.3088 -3.56646 5
    endloop
  endfacet
  facet normal -0 0 1
    outer loop
      vertex 44.758 -3.72946 5
      vertex 47.7789 -25.0122 5
      vertex 45.542 -3.72946 5
    endloop
  endfacet
  facet normal 0 0 1
    outer loop
      vertex 43.9912 -3.56646 5
      vertex 47.7789 -25.0122 5
      vertex 44.758 -3.72946 5
    endloop
  endfacet
  facet normal 0 0 1
    outer loop
      vertex 43.275 -3.24759 5
      vertex 47.7789 -25.0122 5
      vertex 43.9912 -3.56646 5
    endloop
  endfacet
  facet normal 0 0 1
    outer loop
      vertex 20 -25.15 5
      vertex 43.275 -3.24759 5
      vertex 42.6408 -2.78679 5
    endloop
  endfacet
  facet normal 0 0 1
    outer loop
      vertex 20 -25.15 5
      vertex 42.6408 -2.78679 5
      vertex 42.1162 -2.20419 5
    endloop
  endfacet
  facet normal 0 0 1
    outer loop
      vertex 20 -25.15 5
      vertex 42.1162 -2.20419 5
      vertex 41.7242 -1.52526 5
    endloop
  endfacet
  facet normal 0 0 1
    outer loop
      vertex 20 -25.15 5
      vertex 41.7242 -1.52526 5
      vertex 41.4819 -0.779669 5
    endloop
  endfacet
  facet normal 0 0 1
    outer loop
      vertex 20 -25.15 5
      vertex 41.4 0 5
      vertex 20 25.15 5
    endloop
  endfacet
  facet normal 0 0 1
    outer loop
      vertex 41.4 0 5
      vertex 20 -25.15 5
      vertex 41.4819 -0.779669 5
    endloop
  endfacet
  facet normal 0 0 1
    outer loop
      vertex 43.275 -3.24759 5
      vertex 20 -25.15 5
      vertex 47.7789 -25.0122 5
    endloop
  endfacet
  facet normal -0 0 1
    outer loop
      vertex 0 25.15 5
      vertex 20 -25.15 5
      vertex 20 25.15 5
    endloop
  endfacet
  facet normal 0 0 1
    outer loop
      vertex 20 -25.15 5
      vertex 0 25.15 5
      vertex 0 -25.15 5
    endloop
  endfacet
  facet normal 0 -1 0
    outer loop
      vertex 0 -25.15 5
      vertex 20 -25.15 0
      vertex 20 -25.15 5
    endloop
  endfacet
  facet normal 0 -1 0
    outer loop
      vertex 5 -25.15 -50.3
      vertex 0 -25.15 5
      vertex 0 -25.15 -50.3
    endloop
  endfacet
  facet normal 0 -1 0
    outer loop
      vertex 0 -25.15 5
      vertex 5 -25.15 -50.3
      vertex 20 -25.15 0
    endloop
  endfacet
  facet normal 0.406737 -0.913545 0
    outer loop
      vertex 52.9218 -23.9191 5
      vertex 57.725 -21.7805 -9.80791
      vertex 57.725 -21.7805 5
    endloop
  endfacet
  facet normal 0.406737 -0.913545 0
    outer loop
      vertex 57.725 -21.7805 -9.80791
      vertex 52.9218 -23.9191 5
      vertex 52.9218 -23.9191 -13.51
    endloop
  endfacet
  facet normal 0.866025 -0.5 0
    outer loop
      vertex 65.4968 -14.7828 5
      vertex 68.1257 -10.2294 -1.7915
      vertex 68.1257 -10.2294 5
    endloop
  endfacet
  facet normal 0.866025 -0.5 0
    outer loop
      vertex 68.1257 -10.2294 -1.7915
      vertex 65.4968 -14.7828 5
      vertex 65.4968 -14.7828 -3.81774
    endloop
  endfacet
  facet normal 0.207912 -0.978148 0
    outer loop
      vertex 47.7789 -25.0122 5
      vertex 52.9218 -23.9191 -13.51
      vertex 52.9218 -23.9191 5
    endloop
  endfacet
  facet normal 0.207912 -0.978148 0
    outer loop
      vertex 52.9218 -23.9191 -13.51
      vertex 47.7789 -25.0122 5
      vertex 47.7789 -25.0122 -17.474
    endloop
  endfacet
  facet normal 0.00495959 0.999988 0
    outer loop
      vertex 47.7789 25.0122 5
      vertex 20 25.15 0
      vertex 20 25.15 5
    endloop
  endfacet
  facet normal 0.00495959 0.999988 -0
    outer loop
      vertex 47.7789 25.0122 -17.474
      vertex 20 25.15 0
      vertex 47.7789 25.0122 5
    endloop
  endfacet
  facet normal 0.00495958 0.999988 -6.11423e-09
    outer loop
      vertex 20 25.15 0
      vertex 47.7789 25.0122 -17.474
      vertex 35.063 25.0753 -27.2749
    endloop
  endfacet
  facet normal 0.00321766 -0.999994 -0.000959542
    outer loop
      vertex 5.18969 -25.1494 -50.3
      vertex 20 -25.15 0
      vertex 5 -25.15 -50.3
    endloop
  endfacet
  facet normal 0.00322059 -0.999994 -0.000960405
    outer loop
      vertex 20 -25.15 0
      vertex 5.18969 -25.1494 -50.3
      vertex 35.063 -25.0753 -27.2749
    endloop
  endfacet
  facet normal 0.00495959 -0.999988 0
    outer loop
      vertex 20 -25.15 0
      vertex 47.7789 -25.0122 5
      vertex 20 -25.15 5
    endloop
  endfacet
  facet normal 0.00495959 -0.999988 0
    outer loop
      vertex 20 -25.15 0
      vertex 47.7789 -25.0122 -17.474
      vertex 47.7789 -25.0122 5
    endloop
  endfacet
  facet normal 0.00495958 -0.999988 -6.11423e-09
    outer loop
      vertex 47.7789 -25.0122 -17.474
      vertex 20 -25.15 0
      vertex 35.063 -25.0753 -27.2749
    endloop
  endfacet
  facet normal 0.587785 -0.809017 0
    outer loop
      vertex 57.725 -21.7805 5
      vertex 61.9786 -18.6901 -6.52939
      vertex 61.9786 -18.6901 5
    endloop
  endfacet
  facet normal 0.587785 -0.809017 0
    outer loop
      vertex 61.9786 -18.6901 -6.52939
      vertex 57.725 -21.7805 5
      vertex 57.725 -21.7805 -9.80791
    endloop
  endfacet
  facet normal 0.994522 0.104529 -0
    outer loop
      vertex 70.3 0 -0.115614
      vertex 69.7504 5.22898 5
      vertex 70.3 0 5
    endloop
  endfacet
  facet normal 0.994522 0.104529 0
    outer loop
      vertex 69.7504 5.22898 5
      vertex 70.3 0 -0.115614
      vertex 69.7504 5.22898 -0.539214
    endloop
  endfacet
  facet normal 0.951057 -0.309016 0
    outer loop
      vertex 68.1257 -10.2294 5
      vertex 69.7504 -5.22898 -0.539214
      vertex 69.7504 -5.22898 5
    endloop
  endfacet
  facet normal 0.951057 -0.309016 0
    outer loop
      vertex 69.7504 -5.22898 -0.539214
      vertex 68.1257 -10.2294 5
      vertex 68.1257 -10.2294 -1.7915
    endloop
  endfacet
  facet normal 0.00322059 0.999994 -0.000960405
    outer loop
      vertex 5.18969 25.1494 -50.3
      vertex 20 25.15 0
      vertex 35.063 25.0753 -27.2749
    endloop
  endfacet
  facet normal 0.00321766 0.999994 -0.000959542
    outer loop
      vertex 20 25.15 0
      vertex 5.18969 25.1494 -50.3
      vertex 5 25.15 -50.3
    endloop
  endfacet
  facet normal 0.406737 0.913545 -0
    outer loop
      vertex 57.725 21.7805 -9.80791
      vertex 52.9218 23.9191 5
      vertex 57.725 21.7805 5
    endloop
  endfacet
  facet normal 0.406737 0.913545 0
    outer loop
      vertex 52.9218 23.9191 5
      vertex 57.725 21.7805 -9.80791
      vertex 52.9218 23.9191 -13.51
    endloop
  endfacet
  facet normal 0.994522 -0.104529 0
    outer loop
      vertex 69.7504 -5.22898 5
      vertex 70.3 0 -0.115614
      vertex 70.3 0 5
    endloop
  endfacet
  facet normal 0.994522 -0.104529 0
    outer loop
      vertex 70.3 0 -0.115614
      vertex 69.7504 -5.22898 5
      vertex 69.7504 -5.22898 -0.539214
    endloop
  endfacet
  facet normal 0.866025 0.5 -0
    outer loop
      vertex 68.1257 10.2294 -1.7915
      vertex 65.4968 14.7828 5
      vertex 68.1257 10.2294 5
    endloop
  endfacet
  facet normal 0.866025 0.5 0
    outer loop
      vertex 65.4968 14.7828 5
      vertex 68.1257 10.2294 -1.7915
      vertex 65.4968 14.7828 -3.81774
    endloop
  endfacet
  facet normal 0.743144 -0.669131 0
    outer loop
      vertex 61.9786 -18.6901 5
      vertex 65.4968 -14.7828 -3.81774
      vertex 65.4968 -14.7828 5
    endloop
  endfacet
  facet normal 0.743144 -0.669131 0
    outer loop
      vertex 65.4968 -14.7828 -3.81774
      vertex 61.9786 -18.6901 5
      vertex 61.9786 -18.6901 -6.52939
    endloop
  endfacet
  facet normal 0.587785 0.809017 -0
    outer loop
      vertex 61.9786 18.6901 -6.52939
      vertex 57.725 21.7805 5
      vertex 61.9786 18.6901 5
    endloop
  endfacet
  facet normal 0.587785 0.809017 0
    outer loop
      vertex 57.725 21.7805 5
      vertex 61.9786 18.6901 -6.52939
      vertex 57.725 21.7805 -9.80791
    endloop
  endfacet
  facet normal 0.743144 0.669131 -0
    outer loop
      vertex 65.4968 14.7828 -3.81774
      vertex 61.9786 18.6901 5
      vertex 65.4968 14.7828 5
    endloop
  endfacet
  facet normal 0.743144 0.669131 0
    outer loop
      vertex 61.9786 18.6901 5
      vertex 65.4968 14.7828 -3.81774
      vertex 61.9786 18.6901 -6.52939
    endloop
  endfacet
  facet normal 0.207912 0.978148 -0
    outer loop
      vertex 52.9218 23.9191 -13.51
      vertex 47.7789 25.0122 5
      vertex 52.9218 23.9191 5
    endloop
  endfacet
  facet normal 0.207912 0.978148 0
    outer loop
      vertex 47.7789 25.0122 5
      vertex 52.9218 23.9191 -13.51
      vertex 47.7789 25.0122 -17.474
    endloop
  endfacet
  facet normal 0.951057 0.309016 -0
    outer loop
      vertex 69.7504 5.22898 -0.539214
      vertex 68.1257 10.2294 5
      vertex 69.7504 5.22898 5
    endloop
  endfacet
  facet normal 0.951057 0.309016 0
    outer loop
      vertex 68.1257 10.2294 5
      vertex 69.7504 5.22898 -0.539214
      vertex 68.1257 10.2294 -1.7915
    endloop
  endfacet
  facet normal -0.994522 -0.10453 0
    outer loop
      vertex 48.9 0 0
      vertex 48.8181 0.779669 5
      vertex 48.8181 0.779669 0
    endloop
  endfacet
  facet normal -0.994522 -0.10453 0
    outer loop
      vertex 48.8181 0.779669 5
      vertex 48.9 0 0
      vertex 48.9 0 5
    endloop
  endfacet
  facet normal 0.994522 -0.104525 0
    outer loop
      vertex 41.4 0 5
      vertex 41.4819 0.779669 0
      vertex 41.4819 0.779669 5
    endloop
  endfacet
  facet normal 0.994522 -0.104525 0
    outer loop
      vertex 41.4819 0.779669 0
      vertex 41.4 0 5
      vertex 41.4 0 0
    endloop
  endfacet
  facet normal 0 -1 0
    outer loop
      vertex 44.758 3.72946 0
      vertex 45.542 3.72946 5
      vertex 44.758 3.72946 5
    endloop
  endfacet
  facet normal 0 -1 -0
    outer loop
      vertex 45.542 3.72946 5
      vertex 44.758 3.72946 0
      vertex 45.542 3.72946 0
    endloop
  endfacet
  facet normal 0 1 -0
    outer loop
      vertex 45.542 -3.72946 0
      vertex 44.758 -3.72946 5
      vertex 45.542 -3.72946 5
    endloop
  endfacet
  facet normal 0 1 0
    outer loop
      vertex 44.758 -3.72946 5
      vertex 45.542 -3.72946 0
      vertex 44.758 -3.72946 0
    endloop
  endfacet
  facet normal -0.743145 -0.669131 0
    outer loop
      vertex 48.1838 2.20419 0
      vertex 47.6592 2.78679 5
      vertex 47.6592 2.78679 0
    endloop
  endfacet
  facet normal -0.743145 -0.669131 0
    outer loop
      vertex 47.6592 2.78679 5
      vertex 48.1838 2.20419 0
      vertex 48.1838 2.20419 5
    endloop
  endfacet
  facet normal -0.951056 -0.309019 0
    outer loop
      vertex 48.8181 0.779669 0
      vertex 48.5758 1.52526 5
      vertex 48.5758 1.52526 0
    endloop
  endfacet
  facet normal -0.951056 -0.309019 0
    outer loop
      vertex 48.5758 1.52526 5
      vertex 48.8181 0.779669 0
      vertex 48.8181 0.779669 5
    endloop
  endfacet
  facet normal 0.587783 -0.809018 0
    outer loop
      vertex 42.6408 2.78679 0
      vertex 43.275 3.24759 5
      vertex 42.6408 2.78679 5
    endloop
  endfacet
  facet normal 0.587783 -0.809018 0
    outer loop
      vertex 43.275 3.24759 5
      vertex 42.6408 2.78679 0
      vertex 43.275 3.24759 0
    endloop
  endfacet
  facet normal 0.406737 -0.913545 0
    outer loop
      vertex 43.275 3.24759 0
      vertex 43.9912 3.56646 5
      vertex 43.275 3.24759 5
    endloop
  endfacet
  facet normal 0.406737 -0.913545 0
    outer loop
      vertex 43.9912 3.56646 5
      vertex 43.275 3.24759 0
      vertex 43.9912 3.56646 0
    endloop
  endfacet
  facet normal -0.866027 0.499998 0
    outer loop
      vertex 48.1838 -2.20419 0
      vertex 48.5758 -1.52526 5
      vertex 48.5758 -1.52526 0
    endloop
  endfacet
  facet normal -0.866027 0.499998 0
    outer loop
      vertex 48.5758 -1.52526 5
      vertex 48.1838 -2.20419 0
      vertex 48.1838 -2.20419 5
    endloop
  endfacet
  facet normal -0.866027 -0.499998 0
    outer loop
      vertex 48.5758 1.52526 0
      vertex 48.1838 2.20419 5
      vertex 48.1838 2.20419 0
    endloop
  endfacet
  facet normal -0.866027 -0.499998 0
    outer loop
      vertex 48.1838 2.20419 5
      vertex 48.5758 1.52526 0
      vertex 48.5758 1.52526 5
    endloop
  endfacet
  facet normal -0.406737 -0.913545 0
    outer loop
      vertex 46.3088 3.56646 0
      vertex 47.025 3.24759 5
      vertex 46.3088 3.56646 5
    endloop
  endfacet
  facet normal -0.406737 -0.913545 -0
    outer loop
      vertex 47.025 3.24759 5
      vertex 46.3088 3.56646 0
      vertex 47.025 3.24759 0
    endloop
  endfacet
  facet normal -0.207911 -0.978148 0
    outer loop
      vertex 45.542 3.72946 0
      vertex 46.3088 3.56646 5
      vertex 45.542 3.72946 5
    endloop
  endfacet
  facet normal -0.207911 -0.978148 -0
    outer loop
      vertex 46.3088 3.56646 5
      vertex 45.542 3.72946 0
      vertex 46.3088 3.56646 0
    endloop
  endfacet
  facet normal -0.587786 -0.809017 0
    outer loop
      vertex 47.025 3.24759 0
      vertex 47.6592 2.78679 5
      vertex 47.025 3.24759 5
    endloop
  endfacet
  facet normal -0.587786 -0.809017 -0
    outer loop
      vertex 47.6592 2.78679 5
      vertex 47.025 3.24759 0
      vertex 47.6592 2.78679 0
    endloop
  endfacet
  facet normal 0.866025 -0.500001 0
    outer loop
      vertex 41.7242 1.52526 5
      vertex 42.1162 2.20419 0
      vertex 42.1162 2.20419 5
    endloop
  endfacet
  facet normal 0.866025 -0.500001 0
    outer loop
      vertex 42.1162 2.20419 0
      vertex 41.7242 1.52526 5
      vertex 41.7242 1.52526 0
    endloop
  endfacet
  facet normal 0.743147 -0.669128 0
    outer loop
      vertex 42.1162 2.20419 5
      vertex 42.6408 2.78679 0
      vertex 42.6408 2.78679 5
    endloop
  endfacet
  facet normal 0.743147 -0.669128 0
    outer loop
      vertex 42.6408 2.78679 0
      vertex 42.1162 2.20419 5
      vertex 42.1162 2.20419 0
    endloop
  endfacet
  facet normal 0.951056 -0.309019 0
    outer loop
      vertex 41.4819 0.779669 5
      vertex 41.7242 1.52526 0
      vertex 41.7242 1.52526 5
    endloop
  endfacet
  facet normal 0.951056 -0.309019 0
    outer loop
      vertex 41.7242 1.52526 0
      vertex 41.4819 0.779669 5
      vertex 41.4819 0.779669 0
    endloop
  endfacet
  facet normal 0.207912 -0.978147 0
    outer loop
      vertex 43.9912 3.56646 0
      vertex 44.758 3.72946 5
      vertex 43.9912 3.56646 5
    endloop
  endfacet
  facet normal 0.207912 -0.978147 0
    outer loop
      vertex 44.758 3.72946 5
      vertex 43.9912 3.56646 0
      vertex 44.758 3.72946 0
    endloop
  endfacet
  facet normal -0.994522 0.10453 0
    outer loop
      vertex 48.8181 -0.779669 0
      vertex 48.9 0 5
      vertex 48.9 0 0
    endloop
  endfacet
  facet normal -0.994522 0.10453 0
    outer loop
      vertex 48.9 0 5
      vertex 48.8181 -0.779669 0
      vertex 48.8181 -0.779669 5
    endloop
  endfacet
  facet normal -0.587786 0.809017 0
    outer loop
      vertex 47.6592 -2.78679 0
      vertex 47.025 -3.24759 5
      vertex 47.6592 -2.78679 5
    endloop
  endfacet
  facet normal -0.587786 0.809017 0
    outer loop
      vertex 47.025 -3.24759 5
      vertex 47.6592 -2.78679 0
      vertex 47.025 -3.24759 0
    endloop
  endfacet
  facet normal -0.743145 0.669131 0
    outer loop
      vertex 47.6592 -2.78679 0
      vertex 48.1838 -2.20419 5
      vertex 48.1838 -2.20419 0
    endloop
  endfacet
  facet normal -0.743145 0.669131 0
    outer loop
      vertex 48.1838 -2.20419 5
      vertex 47.6592 -2.78679 0
      vertex 47.6592 -2.78679 5
    endloop
  endfacet
  facet normal -0.951056 0.309019 0
    outer loop
      vertex 48.5758 -1.52526 0
      vertex 48.8181 -0.779669 5
      vertex 48.8181 -0.779669 0
    endloop
  endfacet
  facet normal -0.951056 0.309019 0
    outer loop
      vertex 48.8181 -0.779669 5
      vertex 48.5758 -1.52526 0
      vertex 48.5758 -1.52526 5
    endloop
  endfacet
  facet normal 0.866025 0.500001 0
    outer loop
      vertex 42.1162 -2.20419 5
      vertex 41.7242 -1.52526 0
      vertex 41.7242 -1.52526 5
    endloop
  endfacet
  facet normal 0.866025 0.500001 0
    outer loop
      vertex 41.7242 -1.52526 0
      vertex 42.1162 -2.20419 5
      vertex 42.1162 -2.20419 0
    endloop
  endfacet
  facet normal 0.743147 0.669128 0
    outer loop
      vertex 42.6408 -2.78679 5
      vertex 42.1162 -2.20419 0
      vertex 42.1162 -2.20419 5
    endloop
  endfacet
  facet normal 0.743147 0.669128 0
    outer loop
      vertex 42.1162 -2.20419 0
      vertex 42.6408 -2.78679 5
      vertex 42.6408 -2.78679 0
    endloop
  endfacet
  facet normal 0.994522 0.104525 0
    outer loop
      vertex 41.4819 -0.779669 5
      vertex 41.4 0 0
      vertex 41.4 0 5
    endloop
  endfacet
  facet normal 0.994522 0.104525 0
    outer loop
      vertex 41.4 0 0
      vertex 41.4819 -0.779669 5
      vertex 41.4819 -0.779669 0
    endloop
  endfacet
  facet normal 0.951056 0.309019 0
    outer loop
      vertex 41.7242 -1.52526 5
      vertex 41.4819 -0.779669 0
      vertex 41.4819 -0.779669 5
    endloop
  endfacet
  facet normal 0.951056 0.309019 0
    outer loop
      vertex 41.4819 -0.779669 0
      vertex 41.7242 -1.52526 5
      vertex 41.7242 -1.52526 0
    endloop
  endfacet
  facet normal -0.406737 0.913545 0
    outer loop
      vertex 47.025 -3.24759 0
      vertex 46.3088 -3.56646 5
      vertex 47.025 -3.24759 5
    endloop
  endfacet
  facet normal -0.406737 0.913545 0
    outer loop
      vertex 46.3088 -3.56646 5
      vertex 47.025 -3.24759 0
      vertex 46.3088 -3.56646 0
    endloop
  endfacet
  facet normal -0.207911 0.978148 0
    outer loop
      vertex 46.3088 -3.56646 0
      vertex 45.542 -3.72946 5
      vertex 46.3088 -3.56646 5
    endloop
  endfacet
  facet normal -0.207911 0.978148 0
    outer loop
      vertex 45.542 -3.72946 5
      vertex 46.3088 -3.56646 0
      vertex 45.542 -3.72946 0
    endloop
  endfacet
  facet normal 0.406737 0.913545 -0
    outer loop
      vertex 43.9912 -3.56646 0
      vertex 43.275 -3.24759 5
      vertex 43.9912 -3.56646 5
    endloop
  endfacet
  facet normal 0.406737 0.913545 0
    outer loop
      vertex 43.275 -3.24759 5
      vertex 43.9912 -3.56646 0
      vertex 43.275 -3.24759 0
    endloop
  endfacet
  facet normal 0.587783 0.809018 -0
    outer loop
      vertex 43.275 -3.24759 0
      vertex 42.6408 -2.78679 5
      vertex 43.275 -3.24759 5
    endloop
  endfacet
  facet normal 0.587783 0.809018 0
    outer loop
      vertex 42.6408 -2.78679 5
      vertex 43.275 -3.24759 0
      vertex 42.6408 -2.78679 0
    endloop
  endfacet
  facet normal 0.207912 0.978147 -0
    outer loop
      vertex 44.758 -3.72946 0
      vertex 43.9912 -3.56646 5
      vertex 44.758 -3.72946 5
    endloop
  endfacet
  facet normal 0.207912 0.978147 0
    outer loop
      vertex 43.9912 -3.56646 5
      vertex 44.758 -3.72946 0
      vertex 43.9912 -3.56646 0
    endloop
  endfacet
  facet normal 1 -0 0
    outer loop
      vertex 5 -20.15 0
      vertex 5 20.15 -50.3
      vertex 5 20.15 0
    endloop
  endfacet
  facet normal 1 0 0
    outer loop
      vertex 5 20.15 -50.3
      vertex 5 -20.15 0
      vertex 5 -20.15 -50.3
    endloop
  endfacet
endsolid OpenSCAD_Model
