solid OpenSCAD_Model
  facet normal 0.951057 0.309016 0
    outer loop
      vertex 69.7504 5.22898 5
      vertex 68.1257 10.2294 0
      vertex 68.1257 10.2294 5
    endloop
  endfacet
  facet normal 0.951057 0.309016 0
    outer loop
      vertex 68.1257 10.2294 0
      vertex 69.7504 5.22898 5
      vertex 69.7504 5.22898 0
    endloop
  endfacet
  facet normal 0.624669 0.0656574 -0.778124
    outer loop
      vertex 18.0708 20.1159 -40.2317
      vertex 5 25.15 -50.3
      vertex 21.391 20.1072 -37.567
    endloop
  endfacet
  facet normal 0.624669 0.0656557 -0.778125
    outer loop
      vertex 65.0891 2.00697 -4.01394
      vertex 69.7504 5.22898 0
      vertex 70.3 0 0
    endloop
  endfacet
  facet normal 0.624669 0.0656556 -0.778125
    outer loop
      vertex 64.8597 4.18942 -4.01394
      vertex 69.7504 5.22898 0
      vertex 65.0891 2.00697 -4.01394
    endloop
  endfacet
  facet normal 0.624669 0.0656551 -0.778125
    outer loop
      vertex 69.7504 5.22898 0
      vertex 64.8597 4.18942 -4.01394
      vertex 63.9412 7.01624 -4.51278
    endloop
  endfacet
  facet normal 0 0 1
    outer loop
      vertex 48.9 0 5
      vertex 70.3 0 5
      vertex 69.7504 5.22898 5
    endloop
  endfacet
  facet normal 0 0 1
    outer loop
      vertex 48.8181 0.779669 5
      vertex 69.7504 5.22898 5
      vertex 68.1257 10.2294 5
    endloop
  endfacet
  facet normal 0 0 1
    outer loop
      vertex 70.3 0 5
      vertex 48.9 0 5
      vertex 69.7504 -5.22898 5
    endloop
  endfacet
  facet normal 0 0 1
    outer loop
      vertex 48.5758 1.52526 5
      vertex 68.1257 10.2294 5
      vertex 65.4968 14.7828 5
    endloop
  endfacet
  facet normal -0 0 1
    outer loop
      vertex 48.8181 -0.779669 5
      vertex 69.7504 -5.22898 5
      vertex 48.9 0 5
    endloop
  endfacet
  facet normal 0 0 1
    outer loop
      vertex 48.1838 2.20419 5
      vertex 65.4968 14.7828 5
      vertex 61.9786 18.6901 5
    endloop
  endfacet
  facet normal 0 0 1
    outer loop
      vertex 69.7504 -5.22898 5
      vertex 48.8181 -0.779669 5
      vertex 68.1257 -10.2294 5
    endloop
  endfacet
  facet normal 0 0 1
    outer loop
      vertex 47.6592 2.78679 5
      vertex 61.9786 18.6901 5
      vertex 57.725 21.7805 5
    endloop
  endfacet
  facet normal -0 0 1
    outer loop
      vertex 48.5758 -1.52526 5
      vertex 68.1257 -10.2294 5
      vertex 48.8181 -0.779669 5
    endloop
  endfacet
  facet normal 0 0 1
    outer loop
      vertex 47.025 3.24759 5
      vertex 57.725 21.7805 5
      vertex 52.9218 23.9191 5
    endloop
  endfacet
  facet normal 0 0 1
    outer loop
      vertex 68.1257 -10.2294 5
      vertex 48.5758 -1.52526 5
      vertex 65.4968 -14.7828 5
    endloop
  endfacet
  facet normal -0 0 1
    outer loop
      vertex 48.1838 -2.20419 5
      vertex 65.4968 -14.7828 5
      vertex 48.5758 -1.52526 5
    endloop
  endfacet
  facet normal 0 0 1
    outer loop
      vertex 69.7504 5.22898 5
      vertex 48.8181 0.779669 5
      vertex 48.9 0 5
    endloop
  endfacet
  facet normal 0 0 1
    outer loop
      vertex 68.1257 10.2294 5
      vertex 48.5758 1.52526 5
      vertex 48.8181 0.779669 5
    endloop
  endfacet
  facet normal 0 0 1
    outer loop
      vertex 65.4968 14.7828 5
      vertex 48.1838 2.20419 5
      vertex 48.5758 1.52526 5
    endloop
  endfacet
  facet normal 0 0 1
    outer loop
      vertex 46.3088 3.56646 5
      vertex 52.9218 23.9191 5
      vertex 47.7789 25.0122 5
    endloop
  endfacet
  facet normal 0 0 1
    outer loop
      vertex 61.9786 18.6901 5
      vertex 47.6592 2.78679 5
      vertex 48.1838 2.20419 5
    endloop
  endfacet
  facet normal 0 0 1
    outer loop
      vertex 57.725 21.7805 5
      vertex 47.025 3.24759 5
      vertex 47.6592 2.78679 5
    endloop
  endfacet
  facet normal 0 0 1
    outer loop
      vertex 52.9218 23.9191 5
      vertex 46.3088 3.56646 5
      vertex 47.025 3.24759 5
    endloop
  endfacet
  facet normal 0 0 1
    outer loop
      vertex 47.7789 25.0122 5
      vertex 45.542 3.72946 5
      vertex 46.3088 3.56646 5
    endloop
  endfacet
  facet normal 0 0 1
    outer loop
      vertex 47.7789 25.0122 5
      vertex 44.758 3.72946 5
      vertex 45.542 3.72946 5
    endloop
  endfacet
  facet normal 0 0 1
    outer loop
      vertex 47.7789 25.0122 5
      vertex 43.9912 3.56646 5
      vertex 44.758 3.72946 5
    endloop
  endfacet
  facet normal 0 0 1
    outer loop
      vertex 47.7789 25.0122 5
      vertex 43.275 3.24759 5
      vertex 43.9912 3.56646 5
    endloop
  endfacet
  facet normal 0 0 1
    outer loop
      vertex 20 25.15 5
      vertex 43.275 3.24759 5
      vertex 47.7789 25.0122 5
    endloop
  endfacet
  facet normal 0 0 1
    outer loop
      vertex 43.275 3.24759 5
      vertex 20 25.15 5
      vertex 42.6408 2.78679 5
    endloop
  endfacet
  facet normal 0 0 1
    outer loop
      vertex 42.6408 2.78679 5
      vertex 20 25.15 5
      vertex 42.1162 2.20419 5
    endloop
  endfacet
  facet normal 0 0 1
    outer loop
      vertex 42.1162 2.20419 5
      vertex 20 25.15 5
      vertex 41.7242 1.52526 5
    endloop
  endfacet
  facet normal 0 0 1
    outer loop
      vertex 41.4819 0.779669 5
      vertex 20 25.15 5
      vertex 41.4 0 5
    endloop
  endfacet
  facet normal 0 0 1
    outer loop
      vertex 41.7242 1.52526 5
      vertex 20 25.15 5
      vertex 41.4819 0.779669 5
    endloop
  endfacet
  facet normal 0 0 1
    outer loop
      vertex 65.4968 -14.7828 5
      vertex 48.1838 -2.20419 5
      vertex 61.9786 -18.6901 5
    endloop
  endfacet
  facet normal -0 0 1
    outer loop
      vertex 47.6592 -2.78679 5
      vertex 61.9786 -18.6901 5
      vertex 48.1838 -2.20419 5
    endloop
  endfacet
  facet normal 0 0 1
    outer loop
      vertex 61.9786 -18.6901 5
      vertex 47.6592 -2.78679 5
      vertex 57.725 -21.7805 5
    endloop
  endfacet
  facet normal -0 0 1
    outer loop
      vertex 47.025 -3.24759 5
      vertex 57.725 -21.7805 5
      vertex 47.6592 -2.78679 5
    endloop
  endfacet
  facet normal 0 0 1
    outer loop
      vertex 57.725 -21.7805 5
      vertex 47.025 -3.24759 5
      vertex 52.9218 -23.9191 5
    endloop
  endfacet
  facet normal -0 0 1
    outer loop
      vertex 46.3088 -3.56646 5
      vertex 52.9218 -23.9191 5
      vertex 47.025 -3.24759 5
    endloop
  endfacet
  facet normal 0 0 1
    outer loop
      vertex 52.9218 -23.9191 5
      vertex 46.3088 -3.56646 5
      vertex 47.7789 -25.0122 5
    endloop
  endfacet
  facet normal -0 0 1
    outer loop
      vertex 45.542 -3.72946 5
      vertex 47.7789 -25.0122 5
      vertex 46.3088 -3.56646 5
    endloop
  endfacet
  facet normal -0 0 1
    outer loop
      vertex 44.758 -3.72946 5
      vertex 47.7789 -25.0122 5
      vertex 45.542 -3.72946 5
    endloop
  endfacet
  facet normal 0 0 1
    outer loop
      vertex 43.9912 -3.56646 5
      vertex 47.7789 -25.0122 5
      vertex 44.758 -3.72946 5
    endloop
  endfacet
  facet normal 0 0 1
    outer loop
      vertex 43.275 -3.24759 5
      vertex 47.7789 -25.0122 5
      vertex 43.9912 -3.56646 5
    endloop
  endfacet
  facet normal 0 0 1
    outer loop
      vertex 20 -25.15 5
      vertex 43.275 -3.24759 5
      vertex 42.6408 -2.78679 5
    endloop
  endfacet
  facet normal 0 0 1
    outer loop
      vertex 20 -25.15 5
      vertex 42.6408 -2.78679 5
      vertex 42.1162 -2.20419 5
    endloop
  endfacet
  facet normal 0 0 1
    outer loop
      vertex 20 -25.15 5
      vertex 42.1162 -2.20419 5
      vertex 41.7242 -1.52526 5
    endloop
  endfacet
  facet normal 0 0 1
    outer loop
      vertex 20 -25.15 5
      vertex 41.7242 -1.52526 5
      vertex 41.4819 -0.779669 5
    endloop
  endfacet
  facet normal 0 0 1
    outer loop
      vertex 20 -25.15 5
      vertex 41.4 0 5
      vertex 20 25.15 5
    endloop
  endfacet
  facet normal 0 0 1
    outer loop
      vertex 41.4 0 5
      vertex 20 -25.15 5
      vertex 41.4819 -0.779669 5
    endloop
  endfacet
  facet normal 0 0 1
    outer loop
      vertex 43.275 -3.24759 5
      vertex 20 -25.15 5
      vertex 47.7789 -25.0122 5
    endloop
  endfacet
  facet normal -0 0 1
    outer loop
      vertex 0 25.15 5
      vertex 20 -25.15 5
      vertex 20 25.15 5
    endloop
  endfacet
  facet normal 0 0 1
    outer loop
      vertex 20 -25.15 5
      vertex 0 25.15 5
      vertex 0 -25.15 5
    endloop
  endfacet
  facet normal 0.207912 -0.978148 0
    outer loop
      vertex 47.7789 -25.0122 0
      vertex 52.9218 -23.9191 5
      vertex 47.7789 -25.0122 5
    endloop
  endfacet
  facet normal 0.207912 -0.978148 0
    outer loop
      vertex 52.9218 -23.9191 5
      vertex 47.7789 -25.0122 0
      vertex 52.9218 -23.9191 0
    endloop
  endfacet
  facet normal 0 1 -0
    outer loop
      vertex 20 25.15 0
      vertex 0 25.15 5
      vertex 20 25.15 5
    endloop
  endfacet
  facet normal 0 1 -0
    outer loop
      vertex 5 25.15 -50.3
      vertex 0 25.15 5
      vertex 20 25.15 0
    endloop
  endfacet
  facet normal 0 1 0
    outer loop
      vertex 0 25.15 5
      vertex 5 25.15 -50.3
      vertex 0 25.15 -50.3
    endloop
  endfacet
  facet normal 0.994522 0.104529 0
    outer loop
      vertex 70.3 0 5
      vertex 69.7504 5.22898 0
      vertex 69.7504 5.22898 5
    endloop
  endfacet
  facet normal 0.994522 0.104529 0
    outer loop
      vertex 69.7504 5.22898 0
      vertex 70.3 0 5
      vertex 70.3 0 0
    endloop
  endfacet
  facet normal 0.610238 0 -0.792218
    outer loop
      vertex 18.0708 20.1159 -40.2317
      vertex 5 20.15 -50.3
      vertex 5 25.15 -50.3
    endloop
  endfacet
  facet normal 0.610238 0 -0.792218
    outer loop
      vertex 18.0708 -20.1159 -40.2317
      vertex 5 -25.15 -50.3
      vertex 5 -20.15 -50.3
    endloop
  endfacet
  facet normal 0.610238 -1.2028e-06 -0.792218
    outer loop
      vertex 70.3 0 0
      vertex 65.0891 -2.00697 -4.01394
      vertex 65.3 0 -3.85145
    endloop
  endfacet
  facet normal 0.610238 1.2028e-06 -0.792218
    outer loop
      vertex 70.3 0 0
      vertex 65.3 0 -3.85145
      vertex 65.0891 2.00697 -4.01394
    endloop
  endfacet
  facet normal 0 -1 0
    outer loop
      vertex 0 -25.15 5
      vertex 20 -25.15 0
      vertex 20 -25.15 5
    endloop
  endfacet
  facet normal 0 -1 0
    outer loop
      vertex 5 -25.15 -50.3
      vertex 0 -25.15 5
      vertex 0 -25.15 -50.3
    endloop
  endfacet
  facet normal 0 -1 0
    outer loop
      vertex 0 -25.15 5
      vertex 5 -25.15 -50.3
      vertex 20 -25.15 0
    endloop
  endfacet
  facet normal 0.592838 -0.533794 -0.602999
    outer loop
      vertex 61.9786 -18.6901 0
      vertex 56.8594 -16.263 -7.18157
      vertex 65.4968 -14.7828 0
    endloop
  endfacet
  facet normal 0.592838 -0.533794 -0.602999
    outer loop
      vertex 61.9786 -18.6901 0
      vertex 55.225 -17.4504 -7.73724
      vertex 56.8594 -16.263 -7.18157
    endloop
  endfacet
  facet normal 0.592838 -0.533793 -0.602999
    outer loop
      vertex 61.9786 -18.6901 0
      vertex 51.3767 -19.1638 -10.004
      vertex 55.225 -17.4504 -7.73724
    endloop
  endfacet
  facet normal 0.592838 -0.533794 -0.602998
    outer loop
      vertex 61.9786 -18.6901 0
      vertex 47.2562 -20.0396 -13.2797
      vertex 51.3767 -19.1638 -10.004
    endloop
  endfacet
  facet normal 0.592838 -0.533793 -0.602999
    outer loop
      vertex 47.2562 -20.0396 -13.2797
      vertex 5 -25.15 -50.3
      vertex 34.6287 -20.0726 -25.6653
    endloop
  endfacet
  facet normal 0.592838 -0.533794 -0.602998
    outer loop
      vertex 5 -25.15 -50.3
      vertex 47.2562 -20.0396 -13.2797
      vertex 61.9786 -18.6901 0
    endloop
  endfacet
  facet normal 0.639146 -0.207671 -0.740516
    outer loop
      vertex 26.3903 -20.0941 -33.2557
      vertex 5 -25.15 -50.3
      vertex 21.391 -20.1072 -37.567
    endloop
  endfacet
  facet normal 0.639146 -0.207671 -0.740517
    outer loop
      vertex 68.1257 -10.2294 0
      vertex 63.9412 -7.01624 -4.51278
      vertex 69.7504 -5.22898 0
    endloop
  endfacet
  facet normal 0.639146 -0.207671 -0.740516
    outer loop
      vertex 68.1257 -10.2294 0
      vertex 63.5579 -8.19574 -4.51278
      vertex 63.9412 -7.01624 -4.51278
    endloop
  endfacet
  facet normal 0.639146 -0.207671 -0.740517
    outer loop
      vertex 63.5579 -8.19574 -4.51278
      vertex 68.1257 -10.2294 0
      vertex 61.4764 -11.8011 -5.29829
    endloop
  endfacet
  facet normal 0 0 -1
    outer loop
      vertex 0 -25.15 -50.3
      vertex 5 -20.15 -50.3
      vertex 5 -25.15 -50.3
    endloop
  endfacet
  facet normal -0 0 -1
    outer loop
      vertex 5 -20.15 -50.3
      vertex 0 -25.15 -50.3
      vertex 5 20.15 -50.3
    endloop
  endfacet
  facet normal 0 0 -1
    outer loop
      vertex 0 25.15 -50.3
      vertex 5 20.15 -50.3
      vertex 0 -25.15 -50.3
    endloop
  endfacet
  facet normal 0 0 -1
    outer loop
      vertex 5 20.15 -50.3
      vertex 0 25.15 -50.3
      vertex 5 25.15 -50.3
    endloop
  endfacet
  facet normal 0.639146 0.207671 -0.740516
    outer loop
      vertex 21.391 20.1072 -37.567
      vertex 5 25.15 -50.3
      vertex 26.3903 20.0941 -33.2557
    endloop
  endfacet
  facet normal 0.639146 0.207671 -0.740517
    outer loop
      vertex 63.9412 7.01624 -4.51278
      vertex 68.1257 10.2294 0
      vertex 69.7504 5.22898 0
    endloop
  endfacet
  facet normal 0.639146 0.207671 -0.740516
    outer loop
      vertex 63.5579 8.19574 -4.51278
      vertex 68.1257 10.2294 0
      vertex 63.9412 7.01624 -4.51278
    endloop
  endfacet
  facet normal 0.639146 0.207671 -0.740517
    outer loop
      vertex 68.1257 10.2294 0
      vertex 63.5579 8.19574 -4.51278
      vertex 61.4764 11.8011 -5.29829
    endloop
  endfacet
  facet normal 0.743144 -0.669131 0
    outer loop
      vertex 61.9786 -18.6901 5
      vertex 65.4968 -14.7828 0
      vertex 65.4968 -14.7828 5
    endloop
  endfacet
  facet normal 0.743144 -0.669131 0
    outer loop
      vertex 65.4968 -14.7828 0
      vertex 61.9786 -18.6901 5
      vertex 61.9786 -18.6901 0
    endloop
  endfacet
  facet normal 0.00495958 -0.999987 -0.001479
    outer loop
      vertex 20 -25.15 0
      vertex 5 -25.15 -50.3
      vertex 47.7789 -25.0122 0
    endloop
  endfacet
  facet normal 0.624669 -0.0656574 -0.778124
    outer loop
      vertex 21.391 -20.1072 -37.567
      vertex 5 -25.15 -50.3
      vertex 18.0708 -20.1159 -40.2317
    endloop
  endfacet
  facet normal 0.624669 -0.0656557 -0.778125
    outer loop
      vertex 69.7504 -5.22898 0
      vertex 65.0891 -2.00697 -4.01394
      vertex 70.3 0 0
    endloop
  endfacet
  facet normal 0.624669 -0.0656556 -0.778125
    outer loop
      vertex 69.7504 -5.22898 0
      vertex 64.8597 -4.18942 -4.01394
      vertex 65.0891 -2.00697 -4.01394
    endloop
  endfacet
  facet normal 0.624669 -0.0656551 -0.778125
    outer loop
      vertex 64.8597 -4.18942 -4.01394
      vertex 69.7504 -5.22898 0
      vertex 63.9412 -7.01624 -4.51278
    endloop
  endfacet
  facet normal 0.866025 0.5 0
    outer loop
      vertex 68.1257 10.2294 5
      vertex 65.4968 14.7828 0
      vertex 65.4968 14.7828 5
    endloop
  endfacet
  facet normal 0.866025 0.5 0
    outer loop
      vertex 65.4968 14.7828 0
      vertex 68.1257 10.2294 5
      vertex 68.1257 10.2294 0
    endloop
  endfacet
  facet normal -1 0 0
    outer loop
      vertex 0 -25.15 -50.3
      vertex 0 25.15 5
      vertex 0 25.15 -50.3
    endloop
  endfacet
  facet normal -1 -0 0
    outer loop
      vertex 0 25.15 5
      vertex 0 -25.15 -50.3
      vertex 0 -25.15 5
    endloop
  endfacet
  facet normal 0.406737 0.913545 -0
    outer loop
      vertex 57.725 21.7805 0
      vertex 52.9218 23.9191 5
      vertex 57.725 21.7805 5
    endloop
  endfacet
  facet normal 0.406737 0.913545 0
    outer loop
      vertex 52.9218 23.9191 5
      vertex 57.725 21.7805 0
      vertex 52.9218 23.9191 0
    endloop
  endfacet
  facet normal 0.382062 -0.858126 -0.342998
    outer loop
      vertex 52.9218 -23.9191 0
      vertex 5 -25.15 -50.3
      vertex 57.725 -21.7805 0
    endloop
  endfacet
  facet normal 0.406737 -0.913545 0
    outer loop
      vertex 52.9218 -23.9191 0
      vertex 57.725 -21.7805 5
      vertex 52.9218 -23.9191 5
    endloop
  endfacet
  facet normal 0.406737 -0.913545 0
    outer loop
      vertex 57.725 -21.7805 5
      vertex 52.9218 -23.9191 0
      vertex 57.725 -21.7805 0
    endloop
  endfacet
  facet normal 0.00495959 -0.999988 0
    outer loop
      vertex 20 -25.15 0
      vertex 47.7789 -25.0122 5
      vertex 20 -25.15 5
    endloop
  endfacet
  facet normal 0.00495959 -0.999988 0
    outer loop
      vertex 47.7789 -25.0122 5
      vertex 20 -25.15 0
      vertex 47.7789 -25.0122 0
    endloop
  endfacet
  facet normal 0.994522 -0.104529 0
    outer loop
      vertex 69.7504 -5.22898 5
      vertex 70.3 0 0
      vertex 70.3 0 5
    endloop
  endfacet
  facet normal 0.994522 -0.104529 0
    outer loop
      vertex 70.3 0 0
      vertex 69.7504 -5.22898 5
      vertex 69.7504 -5.22898 0
    endloop
  endfacet
  facet normal 0.866025 -0.5 0
    outer loop
      vertex 65.4968 -14.7828 5
      vertex 68.1257 -10.2294 0
      vertex 68.1257 -10.2294 5
    endloop
  endfacet
  facet normal 0.866025 -0.5 0
    outer loop
      vertex 68.1257 -10.2294 0
      vertex 65.4968 -14.7828 5
      vertex 65.4968 -14.7828 0
    endloop
  endfacet
  facet normal 0.631473 -0.364581 -0.684341
    outer loop
      vertex 34.6287 -20.0726 -25.6653
      vertex 5 -25.15 -50.3
      vertex 26.3903 -20.0941 -33.2557
    endloop
  endfacet
  facet normal 0.631472 -0.364581 -0.684342
    outer loop
      vertex 65.4968 -14.7828 0
      vertex 61.4764 -11.8011 -5.29829
      vertex 68.1257 -10.2294 0
    endloop
  endfacet
  facet normal 0.631462 -0.364597 -0.684343
    outer loop
      vertex 65.4968 -14.7828 0
      vertex 61.4517 -11.8439 -5.29829
      vertex 61.4764 -11.8011 -5.29829
    endloop
  endfacet
  facet normal 0.631472 -0.364581 -0.684342
    outer loop
      vertex 65.4968 -14.7828 0
      vertex 58.633 -14.9744 -6.23147
      vertex 61.4517 -11.8439 -5.29829
    endloop
  endfacet
  facet normal 0.631473 -0.36458 -0.684342
    outer loop
      vertex 58.633 -14.9744 -6.23147
      vertex 65.4968 -14.7828 0
      vertex 56.8594 -16.263 -7.18157
    endloop
  endfacet
  facet normal 0.631473 0.364581 -0.684341
    outer loop
      vertex 26.3903 20.0941 -33.2557
      vertex 5 25.15 -50.3
      vertex 34.6287 20.0726 -25.6653
    endloop
  endfacet
  facet normal 0.631472 0.364581 -0.684342
    outer loop
      vertex 61.4764 11.8011 -5.29829
      vertex 65.4968 14.7828 0
      vertex 68.1257 10.2294 0
    endloop
  endfacet
  facet normal 0.631462 0.364597 -0.684343
    outer loop
      vertex 61.4517 11.8439 -5.29829
      vertex 65.4968 14.7828 0
      vertex 61.4764 11.8011 -5.29829
    endloop
  endfacet
  facet normal 0.631472 0.364581 -0.684342
    outer loop
      vertex 58.633 14.9744 -6.23147
      vertex 65.4968 14.7828 0
      vertex 61.4517 11.8439 -5.29829
    endloop
  endfacet
  facet normal 0.631473 0.36458 -0.684342
    outer loop
      vertex 65.4968 14.7828 0
      vertex 58.633 14.9744 -6.23147
      vertex 56.8594 16.263 -7.18157
    endloop
  endfacet
  facet normal 0.382062 0.858126 -0.342998
    outer loop
      vertex 57.725 21.7805 0
      vertex 5 25.15 -50.3
      vertex 52.9218 23.9191 0
    endloop
  endfacet
  facet normal 0.587785 -0.809017 0
    outer loop
      vertex 57.725 -21.7805 0
      vertex 61.9786 -18.6901 5
      vertex 57.725 -21.7805 5
    endloop
  endfacet
  facet normal 0.587785 -0.809017 0
    outer loop
      vertex 61.9786 -18.6901 5
      vertex 57.725 -21.7805 0
      vertex 61.9786 -18.6901 0
    endloop
  endfacet
  facet normal 0.512424 -0.705292 -0.489883
    outer loop
      vertex 57.725 -21.7805 0
      vertex 5 -25.15 -50.3
      vertex 61.9786 -18.6901 0
    endloop
  endfacet
  facet normal 0.204829 -0.963645 -0.171563
    outer loop
      vertex 47.7789 -25.0122 0
      vertex 5 -25.15 -50.3
      vertex 52.9218 -23.9191 0
    endloop
  endfacet
  facet normal 0.951057 -0.309016 0
    outer loop
      vertex 68.1257 -10.2294 5
      vertex 69.7504 -5.22898 0
      vertex 69.7504 -5.22898 5
    endloop
  endfacet
  facet normal 0.951057 -0.309016 0
    outer loop
      vertex 69.7504 -5.22898 0
      vertex 68.1257 -10.2294 5
      vertex 68.1257 -10.2294 0
    endloop
  endfacet
  facet normal 0.512424 0.705292 -0.489883
    outer loop
      vertex 61.9786 18.6901 0
      vertex 5 25.15 -50.3
      vertex 57.725 21.7805 0
    endloop
  endfacet
  facet normal 0.587785 0.809017 -0
    outer loop
      vertex 61.9786 18.6901 0
      vertex 57.725 21.7805 5
      vertex 61.9786 18.6901 5
    endloop
  endfacet
  facet normal 0.587785 0.809017 0
    outer loop
      vertex 57.725 21.7805 5
      vertex 61.9786 18.6901 0
      vertex 57.725 21.7805 0
    endloop
  endfacet
  facet normal 0.204829 0.963645 -0.171563
    outer loop
      vertex 52.9218 23.9191 0
      vertex 5 25.15 -50.3
      vertex 47.7789 25.0122 0
    endloop
  endfacet
  facet normal 0.207912 0.978148 -0
    outer loop
      vertex 52.9218 23.9191 0
      vertex 47.7789 25.0122 5
      vertex 52.9218 23.9191 5
    endloop
  endfacet
  facet normal 0.207912 0.978148 0
    outer loop
      vertex 47.7789 25.0122 5
      vertex 52.9218 23.9191 0
      vertex 47.7789 25.0122 0
    endloop
  endfacet
  facet normal 0.00495959 0.999988 -0
    outer loop
      vertex 47.7789 25.0122 0
      vertex 20 25.15 5
      vertex 47.7789 25.0122 5
    endloop
  endfacet
  facet normal 0.00495959 0.999988 0
    outer loop
      vertex 20 25.15 5
      vertex 47.7789 25.0122 0
      vertex 20 25.15 0
    endloop
  endfacet
  facet normal 0.00495958 0.999987 -0.001479
    outer loop
      vertex 47.7789 25.0122 0
      vertex 5 25.15 -50.3
      vertex 20 25.15 0
    endloop
  endfacet
  facet normal 0.592838 0.533794 -0.602999
    outer loop
      vertex 56.8594 16.263 -7.18157
      vertex 61.9786 18.6901 0
      vertex 65.4968 14.7828 0
    endloop
  endfacet
  facet normal 0.592838 0.533794 -0.602999
    outer loop
      vertex 55.225 17.4504 -7.73724
      vertex 61.9786 18.6901 0
      vertex 56.8594 16.263 -7.18157
    endloop
  endfacet
  facet normal 0.592838 0.533793 -0.602999
    outer loop
      vertex 51.3767 19.1638 -10.004
      vertex 61.9786 18.6901 0
      vertex 55.225 17.4504 -7.73724
    endloop
  endfacet
  facet normal 0.592838 0.533794 -0.602998
    outer loop
      vertex 47.2562 20.0396 -13.2797
      vertex 61.9786 18.6901 0
      vertex 51.3767 19.1638 -10.004
    endloop
  endfacet
  facet normal 0.592838 0.533794 -0.602998
    outer loop
      vertex 47.2562 20.0396 -13.2797
      vertex 5 25.15 -50.3
      vertex 61.9786 18.6901 0
    endloop
  endfacet
  facet normal 0.592838 0.533793 -0.602999
    outer loop
      vertex 5 25.15 -50.3
      vertex 47.2562 20.0396 -13.2797
      vertex 34.6287 20.0726 -25.6653
    endloop
  endfacet
  facet normal 0.743144 0.669131 0
    outer loop
      vertex 65.4968 14.7828 5
      vertex 61.9786 18.6901 0
      vertex 61.9786 18.6901 5
    endloop
  endfacet
  facet normal 0.743144 0.669131 0
    outer loop
      vertex 61.9786 18.6901 0
      vertex 65.4968 14.7828 5
      vertex 65.4968 14.7828 0
    endloop
  endfacet
  facet normal -0.994522 -0.10453 0
    outer loop
      vertex 48.9 0 0
      vertex 48.8181 0.779669 5
      vertex 48.8181 0.779669 0
    endloop
  endfacet
  facet normal -0.994522 -0.10453 0
    outer loop
      vertex 48.8181 0.779669 5
      vertex 48.9 0 0
      vertex 48.9 0 5
    endloop
  endfacet
  facet normal 0.994522 -0.104525 0
    outer loop
      vertex 41.4 0 5
      vertex 41.4819 0.779669 0
      vertex 41.4819 0.779669 5
    endloop
  endfacet
  facet normal 0.994522 -0.104525 0
    outer loop
      vertex 41.4819 0.779669 0
      vertex 41.4 0 5
      vertex 41.4 0 0
    endloop
  endfacet
  facet normal 0 -1 0
    outer loop
      vertex 44.758 3.72946 0
      vertex 45.542 3.72946 5
      vertex 44.758 3.72946 5
    endloop
  endfacet
  facet normal 0 -1 -0
    outer loop
      vertex 45.542 3.72946 5
      vertex 44.758 3.72946 0
      vertex 45.542 3.72946 0
    endloop
  endfacet
  facet normal 0 1 -0
    outer loop
      vertex 45.542 -3.72946 0
      vertex 44.758 -3.72946 5
      vertex 45.542 -3.72946 5
    endloop
  endfacet
  facet normal 0 1 0
    outer loop
      vertex 44.758 -3.72946 5
      vertex 45.542 -3.72946 0
      vertex 44.758 -3.72946 0
    endloop
  endfacet
  facet normal -0.743145 -0.669131 0
    outer loop
      vertex 48.1838 2.20419 0
      vertex 47.6592 2.78679 5
      vertex 47.6592 2.78679 0
    endloop
  endfacet
  facet normal -0.743145 -0.669131 0
    outer loop
      vertex 47.6592 2.78679 5
      vertex 48.1838 2.20419 0
      vertex 48.1838 2.20419 5
    endloop
  endfacet
  facet normal -0.951056 -0.309019 0
    outer loop
      vertex 48.8181 0.779669 0
      vertex 48.5758 1.52526 5
      vertex 48.5758 1.52526 0
    endloop
  endfacet
  facet normal -0.951056 -0.309019 0
    outer loop
      vertex 48.5758 1.52526 5
      vertex 48.8181 0.779669 0
      vertex 48.8181 0.779669 5
    endloop
  endfacet
  facet normal 0.587783 -0.809018 0
    outer loop
      vertex 42.6408 2.78679 0
      vertex 43.275 3.24759 5
      vertex 42.6408 2.78679 5
    endloop
  endfacet
  facet normal 0.587783 -0.809018 0
    outer loop
      vertex 43.275 3.24759 5
      vertex 42.6408 2.78679 0
      vertex 43.275 3.24759 0
    endloop
  endfacet
  facet normal 0.406737 -0.913545 0
    outer loop
      vertex 43.275 3.24759 0
      vertex 43.9912 3.56646 5
      vertex 43.275 3.24759 5
    endloop
  endfacet
  facet normal 0.406737 -0.913545 0
    outer loop
      vertex 43.9912 3.56646 5
      vertex 43.275 3.24759 0
      vertex 43.9912 3.56646 0
    endloop
  endfacet
  facet normal -0.866027 0.499998 0
    outer loop
      vertex 48.1838 -2.20419 0
      vertex 48.5758 -1.52526 5
      vertex 48.5758 -1.52526 0
    endloop
  endfacet
  facet normal -0.866027 0.499998 0
    outer loop
      vertex 48.5758 -1.52526 5
      vertex 48.1838 -2.20419 0
      vertex 48.1838 -2.20419 5
    endloop
  endfacet
  facet normal -0.866027 -0.499998 0
    outer loop
      vertex 48.5758 1.52526 0
      vertex 48.1838 2.20419 5
      vertex 48.1838 2.20419 0
    endloop
  endfacet
  facet normal -0.866027 -0.499998 0
    outer loop
      vertex 48.1838 2.20419 5
      vertex 48.5758 1.52526 0
      vertex 48.5758 1.52526 5
    endloop
  endfacet
  facet normal -0.406737 -0.913545 0
    outer loop
      vertex 46.3088 3.56646 0
      vertex 47.025 3.24759 5
      vertex 46.3088 3.56646 5
    endloop
  endfacet
  facet normal -0.406737 -0.913545 -0
    outer loop
      vertex 47.025 3.24759 5
      vertex 46.3088 3.56646 0
      vertex 47.025 3.24759 0
    endloop
  endfacet
  facet normal -0.207911 -0.978148 0
    outer loop
      vertex 45.542 3.72946 0
      vertex 46.3088 3.56646 5
      vertex 45.542 3.72946 5
    endloop
  endfacet
  facet normal -0.207911 -0.978148 -0
    outer loop
      vertex 46.3088 3.56646 5
      vertex 45.542 3.72946 0
      vertex 46.3088 3.56646 0
    endloop
  endfacet
  facet normal -0.587786 -0.809017 0
    outer loop
      vertex 47.025 3.24759 0
      vertex 47.6592 2.78679 5
      vertex 47.025 3.24759 5
    endloop
  endfacet
  facet normal -0.587786 -0.809017 -0
    outer loop
      vertex 47.6592 2.78679 5
      vertex 47.025 3.24759 0
      vertex 47.6592 2.78679 0
    endloop
  endfacet
  facet normal 0.866025 -0.500001 0
    outer loop
      vertex 41.7242 1.52526 5
      vertex 42.1162 2.20419 0
      vertex 42.1162 2.20419 5
    endloop
  endfacet
  facet normal 0.866025 -0.500001 0
    outer loop
      vertex 42.1162 2.20419 0
      vertex 41.7242 1.52526 5
      vertex 41.7242 1.52526 0
    endloop
  endfacet
  facet normal 0.743147 -0.669128 0
    outer loop
      vertex 42.1162 2.20419 5
      vertex 42.6408 2.78679 0
      vertex 42.6408 2.78679 5
    endloop
  endfacet
  facet normal 0.743147 -0.669128 0
    outer loop
      vertex 42.6408 2.78679 0
      vertex 42.1162 2.20419 5
      vertex 42.1162 2.20419 0
    endloop
  endfacet
  facet normal 0.951056 -0.309019 0
    outer loop
      vertex 41.4819 0.779669 5
      vertex 41.7242 1.52526 0
      vertex 41.7242 1.52526 5
    endloop
  endfacet
  facet normal 0.951056 -0.309019 0
    outer loop
      vertex 41.7242 1.52526 0
      vertex 41.4819 0.779669 5
      vertex 41.4819 0.779669 0
    endloop
  endfacet
  facet normal 0.207912 -0.978147 0
    outer loop
      vertex 43.9912 3.56646 0
      vertex 44.758 3.72946 5
      vertex 43.9912 3.56646 5
    endloop
  endfacet
  facet normal 0.207912 -0.978147 0
    outer loop
      vertex 44.758 3.72946 5
      vertex 43.9912 3.56646 0
      vertex 44.758 3.72946 0
    endloop
  endfacet
  facet normal -0.994522 0.10453 0
    outer loop
      vertex 48.8181 -0.779669 0
      vertex 48.9 0 5
      vertex 48.9 0 0
    endloop
  endfacet
  facet normal -0.994522 0.10453 0
    outer loop
      vertex 48.9 0 5
      vertex 48.8181 -0.779669 0
      vertex 48.8181 -0.779669 5
    endloop
  endfacet
  facet normal -0.587786 0.809017 0
    outer loop
      vertex 47.6592 -2.78679 0
      vertex 47.025 -3.24759 5
      vertex 47.6592 -2.78679 5
    endloop
  endfacet
  facet normal -0.587786 0.809017 0
    outer loop
      vertex 47.025 -3.24759 5
      vertex 47.6592 -2.78679 0
      vertex 47.025 -3.24759 0
    endloop
  endfacet
  facet normal -0.743145 0.669131 0
    outer loop
      vertex 47.6592 -2.78679 0
      vertex 48.1838 -2.20419 5
      vertex 48.1838 -2.20419 0
    endloop
  endfacet
  facet normal -0.743145 0.669131 0
    outer loop
      vertex 48.1838 -2.20419 5
      vertex 47.6592 -2.78679 0
      vertex 47.6592 -2.78679 5
    endloop
  endfacet
  facet normal -0.951056 0.309019 0
    outer loop
      vertex 48.5758 -1.52526 0
      vertex 48.8181 -0.779669 5
      vertex 48.8181 -0.779669 0
    endloop
  endfacet
  facet normal -0.951056 0.309019 0
    outer loop
      vertex 48.8181 -0.779669 5
      vertex 48.5758 -1.52526 0
      vertex 48.5758 -1.52526 5
    endloop
  endfacet
  facet normal 0.866025 0.500001 0
    outer loop
      vertex 42.1162 -2.20419 5
      vertex 41.7242 -1.52526 0
      vertex 41.7242 -1.52526 5
    endloop
  endfacet
  facet normal 0.866025 0.500001 0
    outer loop
      vertex 41.7242 -1.52526 0
      vertex 42.1162 -2.20419 5
      vertex 42.1162 -2.20419 0
    endloop
  endfacet
  facet normal 0.743147 0.669128 0
    outer loop
      vertex 42.6408 -2.78679 5
      vertex 42.1162 -2.20419 0
      vertex 42.1162 -2.20419 5
    endloop
  endfacet
  facet normal 0.743147 0.669128 0
    outer loop
      vertex 42.1162 -2.20419 0
      vertex 42.6408 -2.78679 5
      vertex 42.6408 -2.78679 0
    endloop
  endfacet
  facet normal 0.951056 0.309019 0
    outer loop
      vertex 41.7242 -1.52526 5
      vertex 41.4819 -0.779669 0
      vertex 41.4819 -0.779669 5
    endloop
  endfacet
  facet normal 0.951056 0.309019 0
    outer loop
      vertex 41.4819 -0.779669 0
      vertex 41.7242 -1.52526 5
      vertex 41.7242 -1.52526 0
    endloop
  endfacet
  facet normal 0.994522 0.104525 0
    outer loop
      vertex 41.4819 -0.779669 5
      vertex 41.4 0 0
      vertex 41.4 0 5
    endloop
  endfacet
  facet normal 0.994522 0.104525 0
    outer loop
      vertex 41.4 0 0
      vertex 41.4819 -0.779669 5
      vertex 41.4819 -0.779669 0
    endloop
  endfacet
  facet normal -0.406737 0.913545 0
    outer loop
      vertex 47.025 -3.24759 0
      vertex 46.3088 -3.56646 5
      vertex 47.025 -3.24759 5
    endloop
  endfacet
  facet normal -0.406737 0.913545 0
    outer loop
      vertex 46.3088 -3.56646 5
      vertex 47.025 -3.24759 0
      vertex 46.3088 -3.56646 0
    endloop
  endfacet
  facet normal -0.207911 0.978148 0
    outer loop
      vertex 46.3088 -3.56646 0
      vertex 45.542 -3.72946 5
      vertex 46.3088 -3.56646 5
    endloop
  endfacet
  facet normal -0.207911 0.978148 0
    outer loop
      vertex 45.542 -3.72946 5
      vertex 46.3088 -3.56646 0
      vertex 45.542 -3.72946 0
    endloop
  endfacet
  facet normal 0.406737 0.913545 -0
    outer loop
      vertex 43.9912 -3.56646 0
      vertex 43.275 -3.24759 5
      vertex 43.9912 -3.56646 5
    endloop
  endfacet
  facet normal 0.406737 0.913545 0
    outer loop
      vertex 43.275 -3.24759 5
      vertex 43.9912 -3.56646 0
      vertex 43.275 -3.24759 0
    endloop
  endfacet
  facet normal 0.587783 0.809018 -0
    outer loop
      vertex 43.275 -3.24759 0
      vertex 42.6408 -2.78679 5
      vertex 43.275 -3.24759 5
    endloop
  endfacet
  facet normal 0.587783 0.809018 0
    outer loop
      vertex 42.6408 -2.78679 5
      vertex 43.275 -3.24759 0
      vertex 42.6408 -2.78679 0
    endloop
  endfacet
  facet normal 0.207912 0.978147 -0
    outer loop
      vertex 44.758 -3.72946 0
      vertex 43.9912 -3.56646 5
      vertex 44.758 -3.72946 5
    endloop
  endfacet
  facet normal 0.207912 0.978147 0
    outer loop
      vertex 43.9912 -3.56646 5
      vertex 44.758 -3.72946 0
      vertex 43.9912 -3.56646 0
    endloop
  endfacet
  facet normal -0.951057 -0.309016 0
    outer loop
      vertex 63.9412 7.01624 -4.51278
      vertex 63.5579 8.19574 0
      vertex 63.5579 8.19574 -4.51278
    endloop
  endfacet
  facet normal -0.951057 -0.309017 -0
    outer loop
      vertex 64.8597 4.18942 0
      vertex 63.9412 7.01624 -4.51278
      vertex 64.8597 4.18942 -4.01394
    endloop
  endfacet
  facet normal -0.951057 -0.309017 1.04556e-07
    outer loop
      vertex 63.9412 7.01624 -4.51278
      vertex 64.8597 4.18942 0
      vertex 63.5579 8.19574 0
    endloop
  endfacet
  facet normal -0.743145 0.66913 0
    outer loop
      vertex 58.633 -14.9744 0
      vertex 61.4517 -11.8439 -5.29829
      vertex 58.633 -14.9744 -6.23147
    endloop
  endfacet
  facet normal -0.743145 0.66913 0
    outer loop
      vertex 61.4517 -11.8439 -5.29829
      vertex 58.633 -14.9744 0
      vertex 61.4517 -11.8439 0
    endloop
  endfacet
  facet normal 0 0 -1
    outer loop
      vertex 48.9 0 0
      vertex 65.3 0 0
      vertex 64.8597 -4.18942 0
    endloop
  endfacet
  facet normal 0 0 -1
    outer loop
      vertex 48.8181 -0.779669 0
      vertex 64.8597 -4.18942 0
      vertex 63.5579 -8.19574 0
    endloop
  endfacet
  facet normal 0 0 -1
    outer loop
      vertex 65.3 0 0
      vertex 48.9 0 0
      vertex 64.8597 4.18942 0
    endloop
  endfacet
  facet normal 0 0 -1
    outer loop
      vertex 48.5758 -1.52526 0
      vertex 63.5579 -8.19574 0
      vertex 61.4517 -11.8439 0
    endloop
  endfacet
  facet normal 0 0 -1
    outer loop
      vertex 48.8181 0.779669 0
      vertex 64.8597 4.18942 0
      vertex 48.9 0 0
    endloop
  endfacet
  facet normal 0 0 -1
    outer loop
      vertex 48.1838 -2.20419 0
      vertex 61.4517 -11.8439 0
      vertex 58.633 -14.9744 0
    endloop
  endfacet
  facet normal -0 0 -1
    outer loop
      vertex 64.8597 4.18942 0
      vertex 48.8181 0.779669 0
      vertex 63.5579 8.19574 0
    endloop
  endfacet
  facet normal 0 0 -1
    outer loop
      vertex 47.6592 -2.78679 0
      vertex 58.633 -14.9744 0
      vertex 55.225 -17.4504 0
    endloop
  endfacet
  facet normal 0 0 -1
    outer loop
      vertex 48.5758 1.52526 0
      vertex 63.5579 8.19574 0
      vertex 48.8181 0.779669 0
    endloop
  endfacet
  facet normal 0 0 -1
    outer loop
      vertex 47.025 -3.24759 0
      vertex 55.225 -17.4504 0
      vertex 51.3767 -19.1638 0
    endloop
  endfacet
  facet normal -0 0 -1
    outer loop
      vertex 63.5579 8.19574 0
      vertex 48.5758 1.52526 0
      vertex 61.4517 11.8439 0
    endloop
  endfacet
  facet normal 0 0 -1
    outer loop
      vertex 48.1838 2.20419 0
      vertex 61.4517 11.8439 0
      vertex 48.5758 1.52526 0
    endloop
  endfacet
  facet normal 0 0 -1
    outer loop
      vertex 64.8597 -4.18942 0
      vertex 48.8181 -0.779669 0
      vertex 48.9 0 0
    endloop
  endfacet
  facet normal 0 0 -1
    outer loop
      vertex 63.5579 -8.19574 0
      vertex 48.5758 -1.52526 0
      vertex 48.8181 -0.779669 0
    endloop
  endfacet
  facet normal 0 0 -1
    outer loop
      vertex 61.4517 -11.8439 0
      vertex 48.1838 -2.20419 0
      vertex 48.5758 -1.52526 0
    endloop
  endfacet
  facet normal 0 0 -1
    outer loop
      vertex 58.633 -14.9744 0
      vertex 47.6592 -2.78679 0
      vertex 48.1838 -2.20419 0
    endloop
  endfacet
  facet normal 0 0 -1
    outer loop
      vertex 46.3088 -3.56646 0
      vertex 51.3767 -19.1638 0
      vertex 47.2562 -20.0396 0
    endloop
  endfacet
  facet normal 0 0 -1
    outer loop
      vertex 55.225 -17.4504 0
      vertex 47.025 -3.24759 0
      vertex 47.6592 -2.78679 0
    endloop
  endfacet
  facet normal 0 0 -1
    outer loop
      vertex 51.3767 -19.1638 0
      vertex 46.3088 -3.56646 0
      vertex 47.025 -3.24759 0
    endloop
  endfacet
  facet normal 0 0 -1
    outer loop
      vertex 47.2562 -20.0396 0
      vertex 45.542 -3.72946 0
      vertex 46.3088 -3.56646 0
    endloop
  endfacet
  facet normal 0 0 -1
    outer loop
      vertex 47.2562 -20.0396 0
      vertex 44.758 -3.72946 0
      vertex 45.542 -3.72946 0
    endloop
  endfacet
  facet normal 0 0 -1
    outer loop
      vertex 47.2562 -20.0396 0
      vertex 43.9912 -3.56646 0
      vertex 44.758 -3.72946 0
    endloop
  endfacet
  facet normal 0 0 -1
    outer loop
      vertex 47.2562 -20.0396 0
      vertex 43.275 -3.24759 0
      vertex 43.9912 -3.56646 0
    endloop
  endfacet
  facet normal 0 0 -1
    outer loop
      vertex 47.2562 -20.0396 0
      vertex 42.6408 -2.78679 0
      vertex 43.275 -3.24759 0
    endloop
  endfacet
  facet normal 0 0 -1
    outer loop
      vertex 47.2562 -20.0396 0
      vertex 42.1162 -2.20419 0
      vertex 42.6408 -2.78679 0
    endloop
  endfacet
  facet normal 0 0 -1
    outer loop
      vertex 5 -20.15 0
      vertex 42.1162 -2.20419 0
      vertex 47.2562 -20.0396 0
    endloop
  endfacet
  facet normal -0 0 -1
    outer loop
      vertex 42.1162 -2.20419 0
      vertex 5 -20.15 0
      vertex 41.7242 -1.52526 0
    endloop
  endfacet
  facet normal -0 0 -1
    outer loop
      vertex 41.4819 -0.779669 0
      vertex 5 -20.15 0
      vertex 41.4 0 0
    endloop
  endfacet
  facet normal -0 0 -1
    outer loop
      vertex 41.7242 -1.52526 0
      vertex 5 -20.15 0
      vertex 41.4819 -0.779669 0
    endloop
  endfacet
  facet normal -0 0 -1
    outer loop
      vertex 61.4517 11.8439 0
      vertex 48.1838 2.20419 0
      vertex 58.633 14.9744 0
    endloop
  endfacet
  facet normal 0 0 -1
    outer loop
      vertex 47.6592 2.78679 0
      vertex 58.633 14.9744 0
      vertex 48.1838 2.20419 0
    endloop
  endfacet
  facet normal -0 0 -1
    outer loop
      vertex 58.633 14.9744 0
      vertex 47.6592 2.78679 0
      vertex 55.225 17.4504 0
    endloop
  endfacet
  facet normal 0 0 -1
    outer loop
      vertex 47.025 3.24759 0
      vertex 55.225 17.4504 0
      vertex 47.6592 2.78679 0
    endloop
  endfacet
  facet normal -0 0 -1
    outer loop
      vertex 55.225 17.4504 0
      vertex 47.025 3.24759 0
      vertex 51.3767 19.1638 0
    endloop
  endfacet
  facet normal 0 0 -1
    outer loop
      vertex 46.3088 3.56646 0
      vertex 51.3767 19.1638 0
      vertex 47.025 3.24759 0
    endloop
  endfacet
  facet normal -0 0 -1
    outer loop
      vertex 51.3767 19.1638 0
      vertex 46.3088 3.56646 0
      vertex 47.2562 20.0396 0
    endloop
  endfacet
  facet normal 0 0 -1
    outer loop
      vertex 45.542 3.72946 0
      vertex 47.2562 20.0396 0
      vertex 46.3088 3.56646 0
    endloop
  endfacet
  facet normal 0 0 -1
    outer loop
      vertex 44.758 3.72946 0
      vertex 47.2562 20.0396 0
      vertex 45.542 3.72946 0
    endloop
  endfacet
  facet normal 0 0 -1
    outer loop
      vertex 43.9912 3.56646 0
      vertex 47.2562 20.0396 0
      vertex 44.758 3.72946 0
    endloop
  endfacet
  facet normal 0 0 -1
    outer loop
      vertex 43.275 3.24759 0
      vertex 47.2562 20.0396 0
      vertex 43.9912 3.56646 0
    endloop
  endfacet
  facet normal 0 0 -1
    outer loop
      vertex 42.6408 2.78679 0
      vertex 47.2562 20.0396 0
      vertex 43.275 3.24759 0
    endloop
  endfacet
  facet normal 0 0 -1
    outer loop
      vertex 42.1162 2.20419 0
      vertex 47.2562 20.0396 0
      vertex 42.6408 2.78679 0
    endloop
  endfacet
  facet normal 0 0 -1
    outer loop
      vertex 5 20.15 0
      vertex 42.1162 2.20419 0
      vertex 41.7242 1.52526 0
    endloop
  endfacet
  facet normal 0 0 -1
    outer loop
      vertex 5 20.15 0
      vertex 41.7242 1.52526 0
      vertex 41.4819 0.779669 0
    endloop
  endfacet
  facet normal 0 0 -1
    outer loop
      vertex 5 20.15 0
      vertex 41.4 0 0
      vertex 5 -20.15 0
    endloop
  endfacet
  facet normal 0 0 -1
    outer loop
      vertex 41.4 0 0
      vertex 5 20.15 0
      vertex 41.4819 0.779669 0
    endloop
  endfacet
  facet normal 0 0 -1
    outer loop
      vertex 42.1162 2.20419 0
      vertex 5 20.15 0
      vertex 47.2562 20.0396 0
    endloop
  endfacet
  facet normal -0.951057 0.309017 0
    outer loop
      vertex 63.9412 -7.01624 -4.51278
      vertex 64.8597 -4.18942 0
      vertex 64.8597 -4.18942 -4.01394
    endloop
  endfacet
  facet normal -0.951057 0.309016 0
    outer loop
      vertex 63.5579 -8.19574 0
      vertex 63.9412 -7.01624 -4.51278
      vertex 63.5579 -8.19574 -4.51278
    endloop
  endfacet
  facet normal -0.951057 0.309017 1.04556e-07
    outer loop
      vertex 63.9412 -7.01624 -4.51278
      vertex 63.5579 -8.19574 0
      vertex 64.8597 -4.18942 0
    endloop
  endfacet
  facet normal -0.994522 -0.104529 0
    outer loop
      vertex 65.0891 2.00697 -4.01394
      vertex 64.8597 4.18942 0
      vertex 64.8597 4.18942 -4.01394
    endloop
  endfacet
  facet normal -0.994522 -0.10453 -0
    outer loop
      vertex 65.3 0 0
      vertex 65.0891 2.00697 -4.01394
      vertex 65.3 0 -3.85145
    endloop
  endfacet
  facet normal -0.994522 -0.10453 4.37499e-07
    outer loop
      vertex 65.0891 2.00697 -4.01394
      vertex 65.3 0 0
      vertex 64.8597 4.18942 0
    endloop
  endfacet
  facet normal -0.406737 -0.913546 0
    outer loop
      vertex 51.3767 19.1638 0
      vertex 55.225 17.4504 -7.73724
      vertex 55.225 17.4504 0
    endloop
  endfacet
  facet normal -0.406737 -0.913546 0
    outer loop
      vertex 55.225 17.4504 -7.73724
      vertex 51.3767 19.1638 0
      vertex 51.3767 19.1638 -10.004
    endloop
  endfacet
  facet normal -0.207912 0.978148 0
    outer loop
      vertex 51.3767 -19.1638 -10.004
      vertex 47.2562 -20.0396 0
      vertex 51.3767 -19.1638 0
    endloop
  endfacet
  facet normal -0.207912 0.978148 0
    outer loop
      vertex 47.2562 -20.0396 0
      vertex 51.3767 -19.1638 -10.004
      vertex 47.2562 -20.0396 -13.2797
    endloop
  endfacet
  facet normal -0.00261218 0.999997 0
    outer loop
      vertex 34.6287 -20.0726 -25.6653
      vertex 47.2562 -20.0396 0
      vertex 47.2562 -20.0396 -13.2797
    endloop
  endfacet
  facet normal -0.00261224 0.999997 3.06135e-08
    outer loop
      vertex 47.2562 -20.0396 0
      vertex 34.6287 -20.0726 -25.6653
      vertex 5 -20.15 0
    endloop
  endfacet
  facet normal -0.00261226 0.999997 1.65276e-08
    outer loop
      vertex 26.3903 -20.0941 -33.2557
      vertex 5 -20.15 0
      vertex 34.6287 -20.0726 -25.6653
    endloop
  endfacet
  facet normal -0.00261226 0.999997 1.21173e-08
    outer loop
      vertex 21.391 -20.1072 -37.567
      vertex 5 -20.15 0
      vertex 26.3903 -20.0941 -33.2557
    endloop
  endfacet
  facet normal -0.00261258 0.999997 -1.25614e-07
    outer loop
      vertex 18.0708 -20.1159 -40.2317
      vertex 5 -20.15 0
      vertex 21.391 -20.1072 -37.567
    endloop
  endfacet
  facet normal -0.00261219 0.999997 0
    outer loop
      vertex 5 -20.15 0
      vertex 18.0708 -20.1159 -40.2317
      vertex 5 -20.15 -50.3
    endloop
  endfacet
  facet normal -0.743145 -0.66913 0
    outer loop
      vertex 61.4517 11.8439 -5.29829
      vertex 58.633 14.9744 0
      vertex 58.633 14.9744 -6.23147
    endloop
  endfacet
  facet normal -0.743145 -0.66913 0
    outer loop
      vertex 58.633 14.9744 0
      vertex 61.4517 11.8439 -5.29829
      vertex 61.4517 11.8439 0
    endloop
  endfacet
  facet normal -0.866012 -0.500024 0
    outer loop
      vertex 61.4764 11.8011 -5.29829
      vertex 61.4517 11.8439 0
      vertex 61.4517 11.8439 -5.29829
    endloop
  endfacet
  facet normal -0.866025 -0.5 -2.52821e-07
    outer loop
      vertex 63.5579 8.19574 -4.51278
      vertex 61.4517 11.8439 0
      vertex 61.4764 11.8011 -5.29829
    endloop
  endfacet
  facet normal -0.866025 -0.5 0
    outer loop
      vertex 61.4517 11.8439 0
      vertex 63.5579 8.19574 -4.51278
      vertex 63.5579 8.19574 0
    endloop
  endfacet
  facet normal -0.587785 -0.809017 0
    outer loop
      vertex 55.225 17.4504 0
      vertex 58.633 14.9744 -6.23147
      vertex 58.633 14.9744 0
    endloop
  endfacet
  facet normal -0.587786 -0.809017 -1.61258e-07
    outer loop
      vertex 55.225 17.4504 0
      vertex 56.8594 16.263 -7.18157
      vertex 58.633 14.9744 -6.23147
    endloop
  endfacet
  facet normal -0.587785 -0.809017 0
    outer loop
      vertex 56.8594 16.263 -7.18157
      vertex 55.225 17.4504 0
      vertex 55.225 17.4504 -7.73724
    endloop
  endfacet
  facet normal -0.406737 0.913546 0
    outer loop
      vertex 55.225 -17.4504 -7.73724
      vertex 51.3767 -19.1638 0
      vertex 55.225 -17.4504 0
    endloop
  endfacet
  facet normal -0.406737 0.913546 0
    outer loop
      vertex 51.3767 -19.1638 0
      vertex 55.225 -17.4504 -7.73724
      vertex 51.3767 -19.1638 -10.004
    endloop
  endfacet
  facet normal -0.866025 0.5 -2.52821e-07
    outer loop
      vertex 61.4517 -11.8439 0
      vertex 63.5579 -8.19574 -4.51278
      vertex 61.4764 -11.8011 -5.29829
    endloop
  endfacet
  facet normal -0.866012 0.500024 0
    outer loop
      vertex 61.4517 -11.8439 0
      vertex 61.4764 -11.8011 -5.29829
      vertex 61.4517 -11.8439 -5.29829
    endloop
  endfacet
  facet normal -0.866025 0.5 0
    outer loop
      vertex 63.5579 -8.19574 -4.51278
      vertex 61.4517 -11.8439 0
      vertex 63.5579 -8.19574 0
    endloop
  endfacet
  facet normal -0.994522 0.10453 0
    outer loop
      vertex 65.0891 -2.00697 -4.01394
      vertex 65.3 0 0
      vertex 65.3 0 -3.85145
    endloop
  endfacet
  facet normal -0.994522 0.104529 0
    outer loop
      vertex 64.8597 -4.18942 0
      vertex 65.0891 -2.00697 -4.01394
      vertex 64.8597 -4.18942 -4.01394
    endloop
  endfacet
  facet normal -0.994522 0.10453 4.37499e-07
    outer loop
      vertex 65.0891 -2.00697 -4.01394
      vertex 64.8597 -4.18942 0
      vertex 65.3 0 0
    endloop
  endfacet
  facet normal -0.00261224 -0.999997 3.06135e-08
    outer loop
      vertex 34.6287 20.0726 -25.6653
      vertex 47.2562 20.0396 0
      vertex 5 20.15 0
    endloop
  endfacet
  facet normal -0.00261218 -0.999997 -0
    outer loop
      vertex 47.2562 20.0396 0
      vertex 34.6287 20.0726 -25.6653
      vertex 47.2562 20.0396 -13.2797
    endloop
  endfacet
  facet normal -0.00261226 -0.999997 1.65276e-08
    outer loop
      vertex 5 20.15 0
      vertex 26.3903 20.0941 -33.2557
      vertex 34.6287 20.0726 -25.6653
    endloop
  endfacet
  facet normal -0.00261226 -0.999997 1.21173e-08
    outer loop
      vertex 5 20.15 0
      vertex 21.391 20.1072 -37.567
      vertex 26.3903 20.0941 -33.2557
    endloop
  endfacet
  facet normal -0.00261258 -0.999997 -1.25614e-07
    outer loop
      vertex 5 20.15 0
      vertex 18.0708 20.1159 -40.2317
      vertex 21.391 20.1072 -37.567
    endloop
  endfacet
  facet normal -0.00261219 -0.999997 0
    outer loop
      vertex 18.0708 20.1159 -40.2317
      vertex 5 20.15 0
      vertex 5 20.15 -50.3
    endloop
  endfacet
  facet normal -0.207912 -0.978148 0
    outer loop
      vertex 47.2562 20.0396 0
      vertex 51.3767 19.1638 -10.004
      vertex 51.3767 19.1638 0
    endloop
  endfacet
  facet normal -0.207912 -0.978148 0
    outer loop
      vertex 51.3767 19.1638 -10.004
      vertex 47.2562 20.0396 0
      vertex 47.2562 20.0396 -13.2797
    endloop
  endfacet
  facet normal -0.587785 0.809017 0
    outer loop
      vertex 58.633 -14.9744 -6.23147
      vertex 55.225 -17.4504 0
      vertex 58.633 -14.9744 0
    endloop
  endfacet
  facet normal -0.587786 0.809017 -1.61258e-07
    outer loop
      vertex 56.8594 -16.263 -7.18157
      vertex 55.225 -17.4504 0
      vertex 58.633 -14.9744 -6.23147
    endloop
  endfacet
  facet normal -0.587785 0.809017 0
    outer loop
      vertex 55.225 -17.4504 0
      vertex 56.8594 -16.263 -7.18157
      vertex 55.225 -17.4504 -7.73724
    endloop
  endfacet
  facet normal 1 -0 0
    outer loop
      vertex 5 -20.15 0
      vertex 5 20.15 -50.3
      vertex 5 20.15 0
    endloop
  endfacet
  facet normal 1 0 0
    outer loop
      vertex 5 20.15 -50.3
      vertex 5 -20.15 0
      vertex 5 -20.15 -50.3
    endloop
  endfacet
endsolid OpenSCAD_Model
