solid OpenSCAD_Model
  facet normal -1 0 0
    outer loop
      vertex -15.75 19.5 0.5
      vertex -15.75 13 2
      vertex -15.75 19.5 9.5
    endloop
  endfacet
  facet normal -1 0 0
    outer loop
      vertex -15.75 19.5 0.5
      vertex -15.75 -6 2
      vertex -15.75 13 2
    endloop
  endfacet
  facet normal -1 0 0
    outer loop
      vertex -15.75 -6 2
      vertex -15.75 -11.5 2
      vertex -15.75 -6 9.5
    endloop
  endfacet
  facet normal -1 0 0
    outer loop
      vertex -15.75 -17.5 0.5
      vertex -15.75 -6 2
      vertex -15.75 19.5 0.5
    endloop
  endfacet
  facet normal -1 -0 0
    outer loop
      vertex -15.75 -6 2
      vertex -15.75 -17.5 0.5
      vertex -15.75 -11.5 2
    endloop
  endfacet
  facet normal -1 -0 0
    outer loop
      vertex -15.75 -11.5 2
      vertex -15.75 -17.5 0.5
      vertex -15.75 -17.5 2
    endloop
  endfacet
  facet normal -1 -0 0
    outer loop
      vertex -15.75 19.5 9.5
      vertex -15.75 13 2
      vertex -15.75 13 9.5
    endloop
  endfacet
  facet normal -1 -0 0
    outer loop
      vertex -15.75 -6 9.5
      vertex -15.75 -11.5 2
      vertex -15.75 -11.5 9.5
    endloop
  endfacet
  facet normal 0 0 1
    outer loop
      vertex 15.75 19.5 9.5
      vertex 13.25 17.5 9.5
      vertex 15.75 13 9.5
    endloop
  endfacet
  facet normal -0 0 1
    outer loop
      vertex 9 19.5 9.5
      vertex 13.25 17.5 9.5
      vertex 15.75 19.5 9.5
    endloop
  endfacet
  facet normal 0 0 1
    outer loop
      vertex 13.25 17.5 9.5
      vertex 9 19.5 9.5
      vertex 9 17.5 9.5
    endloop
  endfacet
  facet normal 0 0 1
    outer loop
      vertex 15.75 13 9.5
      vertex 13.25 17.5 9.5
      vertex 13.25 13 9.5
    endloop
  endfacet
  facet normal 0 0 1
    outer loop
      vertex -9 19.5 9.5
      vertex -13.25 17.5 9.5
      vertex -9 17.5 9.5
    endloop
  endfacet
  facet normal -0 0 1
    outer loop
      vertex -15.75 19.5 9.5
      vertex -13.25 17.5 9.5
      vertex -9 19.5 9.5
    endloop
  endfacet
  facet normal 0 0 1
    outer loop
      vertex -15.75 13 9.5
      vertex -13.25 17.5 9.5
      vertex -15.75 19.5 9.5
    endloop
  endfacet
  facet normal 0 0 1
    outer loop
      vertex -13.25 17.5 9.5
      vertex -15.75 13 9.5
      vertex -13.25 13 9.5
    endloop
  endfacet
  facet normal -0 0 1
    outer loop
      vertex 13.25 -6 9.5
      vertex 15.75 -17.5 9.5
      vertex 15.75 -6 9.5
    endloop
  endfacet
  facet normal 0 0 1
    outer loop
      vertex 15.75 -17.5 9.5
      vertex 13.25 -6 9.5
      vertex 13.25 -17.5 9.5
    endloop
  endfacet
  facet normal -0 0 1
    outer loop
      vertex -15.75 -6 9.5
      vertex -13.25 -11.5 9.5
      vertex -13.25 -6 9.5
    endloop
  endfacet
  facet normal 0 0 1
    outer loop
      vertex -13.25 -11.5 9.5
      vertex -15.75 -6 9.5
      vertex -15.75 -11.5 9.5
    endloop
  endfacet
  facet normal 1 0 0
    outer loop
      vertex 15.75 -6 9.5
      vertex 15.75 -17.5 9.5
      vertex 15.75 -6 2
    endloop
  endfacet
  facet normal 1 0 0
    outer loop
      vertex 15.75 13 2
      vertex 15.75 19.5 9.5
      vertex 15.75 13 9.5
    endloop
  endfacet
  facet normal 1 0 0
    outer loop
      vertex 15.75 19.5 9.5
      vertex 15.75 13 2
      vertex 15.75 19.5 0.5
    endloop
  endfacet
  facet normal 1 -0 0
    outer loop
      vertex 15.75 -6 2
      vertex 15.75 19.5 0.5
      vertex 15.75 13 2
    endloop
  endfacet
  facet normal 1 0 0
    outer loop
      vertex 15.75 -6 2
      vertex 15.75 -17.5 0.5
      vertex 15.75 19.5 0.5
    endloop
  endfacet
  facet normal 1 0 0
    outer loop
      vertex 15.75 -17.5 0.5
      vertex 15.75 -6 2
      vertex 15.75 -17.5 9.5
    endloop
  endfacet
  facet normal 0 0 -1
    outer loop
      vertex 13.25 13 0.5
      vertex 15.75 -17.5 0.5
      vertex 13.25 -12 0.5
    endloop
  endfacet
  facet normal 0 0 -1
    outer loop
      vertex 15.75 -17.5 0.5
      vertex -13.25 -12 0.5
      vertex 13.25 -12 0.5
    endloop
  endfacet
  facet normal -0 0 -1
    outer loop
      vertex -13.25 -12 0.5
      vertex -15.75 -17.5 0.5
      vertex -13.25 13 0.5
    endloop
  endfacet
  facet normal 0 0 -1
    outer loop
      vertex -15.75 -17.5 0.5
      vertex -13.25 -12 0.5
      vertex 15.75 -17.5 0.5
    endloop
  endfacet
  facet normal 0 0 -1
    outer loop
      vertex 15.75 -17.5 0.5
      vertex 13.25 13 0.5
      vertex 15.75 19.5 0.5
    endloop
  endfacet
  facet normal 0 0 -1
    outer loop
      vertex -13.25 13 0.5
      vertex 15.75 19.5 0.5
      vertex 13.25 13 0.5
    endloop
  endfacet
  facet normal 0 0 -1
    outer loop
      vertex -13.25 13 0.5
      vertex -15.75 19.5 0.5
      vertex 15.75 19.5 0.5
    endloop
  endfacet
  facet normal 0 0 -1
    outer loop
      vertex -15.75 19.5 0.5
      vertex -13.25 13 0.5
      vertex -15.75 -17.5 0.5
    endloop
  endfacet
  facet normal 0 1 0
    outer loop
      vertex 15.75 19.5 9.5
      vertex 9 19.5 2
      vertex 9 19.5 9.5
    endloop
  endfacet
  facet normal 0 1 0
    outer loop
      vertex 9 19.5 2
      vertex 15.75 19.5 0.5
      vertex -9 19.5 2
    endloop
  endfacet
  facet normal 0 1 -0
    outer loop
      vertex 15.75 19.5 0.5
      vertex 9 19.5 2
      vertex 15.75 19.5 9.5
    endloop
  endfacet
  facet normal 0 1 -0
    outer loop
      vertex -9 19.5 2
      vertex -15.75 19.5 9.5
      vertex -9 19.5 9.5
    endloop
  endfacet
  facet normal 0 1 0
    outer loop
      vertex -9 19.5 2
      vertex -15.75 19.5 0.5
      vertex -15.75 19.5 9.5
    endloop
  endfacet
  facet normal 0 1 0
    outer loop
      vertex -15.75 19.5 0.5
      vertex -9 19.5 2
      vertex 15.75 19.5 0.5
    endloop
  endfacet
  facet normal 1 0 0
    outer loop
      vertex -9 17.5 4.5
      vertex -9 19.5 9.5
      vertex -9 17.5 9.5
    endloop
  endfacet
  facet normal 1 0 0
    outer loop
      vertex -9 19.5 9.5
      vertex -9 17.5 4.5
      vertex -9 19.5 2
    endloop
  endfacet
  facet normal 1 0 0
    outer loop
      vertex -9 13 2
      vertex -9 17.5 4.5
      vertex -9 13 4.5
    endloop
  endfacet
  facet normal 1 0 0
    outer loop
      vertex -9 17.5 4.5
      vertex -9 13 2
      vertex -9 19.5 2
    endloop
  endfacet
  facet normal -1 0 0
    outer loop
      vertex 9 19.5 2
      vertex 9 17.5 4.5
      vertex 9 19.5 9.5
    endloop
  endfacet
  facet normal -1 0 0
    outer loop
      vertex 9 13 2
      vertex 9 17.5 4.5
      vertex 9 19.5 2
    endloop
  endfacet
  facet normal -1 -0 0
    outer loop
      vertex 9 17.5 4.5
      vertex 9 13 2
      vertex 9 13 4.5
    endloop
  endfacet
  facet normal -1 -0 0
    outer loop
      vertex 9 19.5 9.5
      vertex 9 17.5 4.5
      vertex 9 17.5 9.5
    endloop
  endfacet
  facet normal -0 0 1
    outer loop
      vertex -9 19.5 2
      vertex 9 13 2
      vertex 9 19.5 2
    endloop
  endfacet
  facet normal 0 0 1
    outer loop
      vertex 9 13 2
      vertex -9 19.5 2
      vertex -9 13 2
    endloop
  endfacet
  facet normal 1 -0 0
    outer loop
      vertex -13.25 13 9.5
      vertex -13.25 17.5 4.5
      vertex -13.25 17.5 9.5
    endloop
  endfacet
  facet normal 1 0 0
    outer loop
      vertex -13.25 17.5 4.5
      vertex -13.25 13 9.5
      vertex -13.25 13 4.5
    endloop
  endfacet
  facet normal 1 0 0
    outer loop
      vertex -13.25 -6 9.5
      vertex -13.25 -11.5 9.5
      vertex -13.25 -6 2
    endloop
  endfacet
  facet normal 1 -0 0
    outer loop
      vertex -13.25 -6 2
      vertex -13.25 13 0.5
      vertex -13.25 13 2
    endloop
  endfacet
  facet normal 1 0 0
    outer loop
      vertex -13.25 -11.5 2
      vertex -13.25 -6 2
      vertex -13.25 -11.5 9.5
    endloop
  endfacet
  facet normal 1 0 0
    outer loop
      vertex -13.25 -12 0.5
      vertex -13.25 -6 2
      vertex -13.25 -11.5 2
    endloop
  endfacet
  facet normal 1 0 0
    outer loop
      vertex -13.25 -12 0.5
      vertex -13.25 -11.5 2
      vertex -13.25 -12 2
    endloop
  endfacet
  facet normal 1 0 0
    outer loop
      vertex -13.25 -6 2
      vertex -13.25 -12 0.5
      vertex -13.25 13 0.5
    endloop
  endfacet
  facet normal -1 0 0
    outer loop
      vertex 13.25 13 4.5
      vertex 13.25 17.5 9.5
      vertex 13.25 17.5 4.5
    endloop
  endfacet
  facet normal -1 -0 0
    outer loop
      vertex 13.25 17.5 9.5
      vertex 13.25 13 4.5
      vertex 13.25 13 9.5
    endloop
  endfacet
  facet normal -1 0 0
    outer loop
      vertex 13.25 13 0.5
      vertex 13.25 -6 2
      vertex 13.25 13 2
    endloop
  endfacet
  facet normal -1 0 0
    outer loop
      vertex 13.25 -12 0.5
      vertex 13.25 -6 2
      vertex 13.25 13 0.5
    endloop
  endfacet
  facet normal -1 0 0
    outer loop
      vertex 13.25 -12 2
      vertex 13.25 -6 2
      vertex 13.25 -12 0.5
    endloop
  endfacet
  facet normal -1 0 0
    outer loop
      vertex 13.25 -6 2
      vertex 13.25 -12 2
      vertex 13.25 -6 9.5
    endloop
  endfacet
  facet normal -1 0 0
    outer loop
      vertex 13.25 -17.5 9.5
      vertex 13.25 -12 2
      vertex 13.25 -17.5 2
    endloop
  endfacet
  facet normal -1 0 0
    outer loop
      vertex 13.25 -12 2
      vertex 13.25 -17.5 9.5
      vertex 13.25 -6 9.5
    endloop
  endfacet
  facet normal 0 -1 0
    outer loop
      vertex 9 17.5 4.5
      vertex 13.25 17.5 9.5
      vertex 9 17.5 9.5
    endloop
  endfacet
  facet normal 0 -1 -0
    outer loop
      vertex 13.25 17.5 9.5
      vertex 9 17.5 4.5
      vertex 13.25 17.5 4.5
    endloop
  endfacet
  facet normal 0 -1 0
    outer loop
      vertex -13.25 17.5 4.5
      vertex -9 17.5 9.5
      vertex -13.25 17.5 9.5
    endloop
  endfacet
  facet normal 0 -1 -0
    outer loop
      vertex -9 17.5 9.5
      vertex -13.25 17.5 4.5
      vertex -9 17.5 4.5
    endloop
  endfacet
  facet normal -0 0 1
    outer loop
      vertex 9 17.5 4.5
      vertex 13.25 13 4.5
      vertex 13.25 17.5 4.5
    endloop
  endfacet
  facet normal 0 0 1
    outer loop
      vertex 13.25 13 4.5
      vertex 9 17.5 4.5
      vertex 9 13 4.5
    endloop
  endfacet
  facet normal -0 0 1
    outer loop
      vertex -13.25 17.5 4.5
      vertex -9 13 4.5
      vertex -9 17.5 4.5
    endloop
  endfacet
  facet normal 0 0 1
    outer loop
      vertex -9 13 4.5
      vertex -13.25 17.5 4.5
      vertex -13.25 13 4.5
    endloop
  endfacet
  facet normal 0 -1 0
    outer loop
      vertex -15.75 -17.5 2
      vertex -15.75 -17.5 0.5
      vertex 13.25 -17.5 2
    endloop
  endfacet
  facet normal 0 -1 0
    outer loop
      vertex 13.25 -17.5 2
      vertex 15.75 -17.5 9.5
      vertex 13.25 -17.5 9.5
    endloop
  endfacet
  facet normal 0 -1 0
    outer loop
      vertex 13.25 -17.5 2
      vertex 15.75 -17.5 0.5
      vertex 15.75 -17.5 9.5
    endloop
  endfacet
  facet normal 0 -1 0
    outer loop
      vertex 15.75 -17.5 0.5
      vertex 13.25 -17.5 2
      vertex -15.75 -17.5 0.5
    endloop
  endfacet
  facet normal 0 1 -0
    outer loop
      vertex 13.25 -12 0.5
      vertex -13.25 -12 2
      vertex 13.25 -12 2
    endloop
  endfacet
  facet normal 0 1 0
    outer loop
      vertex -13.25 -12 2
      vertex 13.25 -12 0.5
      vertex -13.25 -12 0.5
    endloop
  endfacet
  facet normal 0 -1 0
    outer loop
      vertex 9 13 4.5
      vertex 9 13 2
      vertex 13.25 13 4.5
    endloop
  endfacet
  facet normal 0 -1 0
    outer loop
      vertex 13.25 13 4.5
      vertex 15.75 13 9.5
      vertex 13.25 13 9.5
    endloop
  endfacet
  facet normal 0 -1 0
    outer loop
      vertex 13.25 13 2
      vertex 13.25 13 4.5
      vertex 9 13 2
    endloop
  endfacet
  facet normal 0 -1 0
    outer loop
      vertex 15.75 13 2
      vertex 13.25 13 4.5
      vertex 13.25 13 2
    endloop
  endfacet
  facet normal 0 -1 0
    outer loop
      vertex 13.25 13 4.5
      vertex 15.75 13 2
      vertex 15.75 13 9.5
    endloop
  endfacet
  facet normal 0 -1 0
    outer loop
      vertex -15.75 13 9.5
      vertex -13.25 13 4.5
      vertex -13.25 13 9.5
    endloop
  endfacet
  facet normal 0 -1 0
    outer loop
      vertex -15.75 13 2
      vertex -13.25 13 4.5
      vertex -15.75 13 9.5
    endloop
  endfacet
  facet normal 0 -1 0
    outer loop
      vertex -13.25 13 2
      vertex -13.25 13 4.5
      vertex -15.75 13 2
    endloop
  endfacet
  facet normal 0 -1 0
    outer loop
      vertex -13.25 13 4.5
      vertex -13.25 13 2
      vertex -9 13 4.5
    endloop
  endfacet
  facet normal 0 -1 0
    outer loop
      vertex -13.25 13 2
      vertex -9 13 2
      vertex -9 13 4.5
    endloop
  endfacet
  facet normal 0 -1 0
    outer loop
      vertex -13.25 13 0.5
      vertex -9 13 2
      vertex -13.25 13 2
    endloop
  endfacet
  facet normal 0 -1 -0
    outer loop
      vertex -9 13 2
      vertex -13.25 13 0.5
      vertex 9 13 2
    endloop
  endfacet
  facet normal 0 -1 0
    outer loop
      vertex 13.25 13 0.5
      vertex 9 13 2
      vertex -13.25 13 0.5
    endloop
  endfacet
  facet normal 0 -1 0
    outer loop
      vertex 9 13 2
      vertex 13.25 13 0.5
      vertex 13.25 13 2
    endloop
  endfacet
  facet normal 0 0 1
    outer loop
      vertex -13.25 -11.5 2
      vertex -15.75 -11.5 2
      vertex -13.25 -12 2
    endloop
  endfacet
  facet normal -0 0 1
    outer loop
      vertex -13.25 -12 2
      vertex 13.25 -17.5 2
      vertex 13.25 -12 2
    endloop
  endfacet
  facet normal 0 0 1
    outer loop
      vertex -15.75 -17.5 2
      vertex -13.25 -12 2
      vertex -15.75 -11.5 2
    endloop
  endfacet
  facet normal 0 0 1
    outer loop
      vertex -13.25 -12 2
      vertex -15.75 -17.5 2
      vertex 13.25 -17.5 2
    endloop
  endfacet
  facet normal -0 0 1
    outer loop
      vertex -15.75 13 2
      vertex -13.25 -6 2
      vertex -13.25 13 2
    endloop
  endfacet
  facet normal 0 0 1
    outer loop
      vertex -13.25 -6 2
      vertex -15.75 13 2
      vertex -15.75 -6 2
    endloop
  endfacet
  facet normal -0 0 1
    outer loop
      vertex 13.25 13 2
      vertex 15.75 -6 2
      vertex 15.75 13 2
    endloop
  endfacet
  facet normal 0 0 1
    outer loop
      vertex 15.75 -6 2
      vertex 13.25 13 2
      vertex 13.25 -6 2
    endloop
  endfacet
  facet normal 0 1 -0
    outer loop
      vertex -13.25 -6 2
      vertex -15.75 -6 9.5
      vertex -13.25 -6 9.5
    endloop
  endfacet
  facet normal 0 1 0
    outer loop
      vertex -15.75 -6 9.5
      vertex -13.25 -6 2
      vertex -15.75 -6 2
    endloop
  endfacet
  facet normal 0 1 -0
    outer loop
      vertex 15.75 -6 2
      vertex 13.25 -6 9.5
      vertex 15.75 -6 9.5
    endloop
  endfacet
  facet normal 0 1 0
    outer loop
      vertex 13.25 -6 9.5
      vertex 15.75 -6 2
      vertex 13.25 -6 2
    endloop
  endfacet
  facet normal 0 -1 0
    outer loop
      vertex -15.75 -11.5 2
      vertex -13.25 -11.5 9.5
      vertex -15.75 -11.5 9.5
    endloop
  endfacet
  facet normal 0 -1 -0
    outer loop
      vertex -13.25 -11.5 9.5
      vertex -15.75 -11.5 2
      vertex -13.25 -11.5 2
    endloop
  endfacet
endsolid OpenSCAD_Model
