solid OpenSCAD_Model
  facet normal 0.258865 -0.965914 0
    outer loop
      vertex -17.85 10.899 -4
      vertex -17.1 11.1 0
      vertex -17.85 10.899 0
    endloop
  endfacet
  facet normal 0.258865 -0.965914 0
    outer loop
      vertex -17.1 11.1 0
      vertex -17.85 10.899 -4
      vertex -17.1 11.1 -4
    endloop
  endfacet
  facet normal 0.258817 0.965926 -0
    outer loop
      vertex -17.1 8.1 -4
      vertex -17.85 8.30096 0
      vertex -17.1 8.1 0
    endloop
  endfacet
  facet normal 0.258817 0.965926 0
    outer loop
      vertex -17.85 8.30096 0
      vertex -17.1 8.1 -4
      vertex -17.85 8.30096 -4
    endloop
  endfacet
  facet normal 0.965914 -0.258865 0
    outer loop
      vertex -18.6 9.6 0
      vertex -18.399 10.35 -4
      vertex -18.399 10.35 0
    endloop
  endfacet
  facet normal 0.965914 -0.258865 0
    outer loop
      vertex -18.399 10.35 -4
      vertex -18.6 9.6 0
      vertex -18.6 9.6 -4
    endloop
  endfacet
  facet normal 0.707107 -0.707107 0
    outer loop
      vertex -18.399 10.35 0
      vertex -17.85 10.899 -4
      vertex -17.85 10.899 0
    endloop
  endfacet
  facet normal 0.707107 -0.707107 0
    outer loop
      vertex -17.85 10.899 -4
      vertex -18.399 10.35 0
      vertex -18.399 10.35 -4
    endloop
  endfacet
  facet normal 0.965914 0.258865 0
    outer loop
      vertex -18.399 8.85 0
      vertex -18.6 9.6 -4
      vertex -18.6 9.6 0
    endloop
  endfacet
  facet normal 0.965914 0.258865 0
    outer loop
      vertex -18.6 9.6 -4
      vertex -18.399 8.85 0
      vertex -18.399 8.85 -4
    endloop
  endfacet
  facet normal -0.965914 -0.258865 0
    outer loop
      vertex -15.6 9.6 -4
      vertex -15.801 10.35 0
      vertex -15.801 10.35 -4
    endloop
  endfacet
  facet normal -0.965914 -0.258865 0
    outer loop
      vertex -15.801 10.35 0
      vertex -15.6 9.6 -4
      vertex -15.6 9.6 0
    endloop
  endfacet
  facet normal -0.965914 0.258865 0
    outer loop
      vertex -15.801 8.85 -4
      vertex -15.6 9.6 0
      vertex -15.6 9.6 -4
    endloop
  endfacet
  facet normal -0.965914 0.258865 0
    outer loop
      vertex -15.6 9.6 0
      vertex -15.801 8.85 -4
      vertex -15.801 8.85 0
    endloop
  endfacet
  facet normal -0.258817 0.965926 0
    outer loop
      vertex -16.35 8.30096 -4
      vertex -17.1 8.1 0
      vertex -16.35 8.30096 0
    endloop
  endfacet
  facet normal -0.258817 0.965926 0
    outer loop
      vertex -17.1 8.1 0
      vertex -16.35 8.30096 -4
      vertex -17.1 8.1 -4
    endloop
  endfacet
  facet normal -0.707133 0.707081 0
    outer loop
      vertex -16.35 8.30096 -4
      vertex -15.801 8.85 0
      vertex -15.801 8.85 -4
    endloop
  endfacet
  facet normal -0.707133 0.707081 0
    outer loop
      vertex -15.801 8.85 0
      vertex -16.35 8.30096 -4
      vertex -16.35 8.30096 0
    endloop
  endfacet
  facet normal 0.707133 0.707081 0
    outer loop
      vertex -17.85 8.30096 0
      vertex -18.399 8.85 -4
      vertex -18.399 8.85 0
    endloop
  endfacet
  facet normal 0.707133 0.707081 0
    outer loop
      vertex -18.399 8.85 -4
      vertex -17.85 8.30096 0
      vertex -17.85 8.30096 -4
    endloop
  endfacet
  facet normal -0.707107 -0.707107 0
    outer loop
      vertex -15.801 10.35 -4
      vertex -16.35 10.899 0
      vertex -16.35 10.899 -4
    endloop
  endfacet
  facet normal -0.707107 -0.707107 0
    outer loop
      vertex -16.35 10.899 0
      vertex -15.801 10.35 -4
      vertex -15.801 10.35 0
    endloop
  endfacet
  facet normal -0.258865 -0.965914 0
    outer loop
      vertex -17.1 11.1 -4
      vertex -16.35 10.899 0
      vertex -17.1 11.1 0
    endloop
  endfacet
  facet normal -0.258865 -0.965914 -0
    outer loop
      vertex -16.35 10.899 0
      vertex -17.1 11.1 -4
      vertex -16.35 10.899 -4
    endloop
  endfacet
  facet normal 0.258865 -0.965914 0
    outer loop
      vertex 16.35 10.899 -4
      vertex 17.1 11.1 0
      vertex 16.35 10.899 0
    endloop
  endfacet
  facet normal 0.258865 -0.965914 0
    outer loop
      vertex 17.1 11.1 0
      vertex 16.35 10.899 -4
      vertex 17.1 11.1 -4
    endloop
  endfacet
  facet normal 0.258817 0.965926 -0
    outer loop
      vertex 17.1 8.1 -4
      vertex 16.35 8.30096 0
      vertex 17.1 8.1 0
    endloop
  endfacet
  facet normal 0.258817 0.965926 0
    outer loop
      vertex 16.35 8.30096 0
      vertex 17.1 8.1 -4
      vertex 16.35 8.30096 -4
    endloop
  endfacet
  facet normal 0.965914 -0.258865 0
    outer loop
      vertex 15.6 9.6 0
      vertex 15.801 10.35 -4
      vertex 15.801 10.35 0
    endloop
  endfacet
  facet normal 0.965914 -0.258865 0
    outer loop
      vertex 15.801 10.35 -4
      vertex 15.6 9.6 0
      vertex 15.6 9.6 -4
    endloop
  endfacet
  facet normal 0.707107 -0.707107 0
    outer loop
      vertex 15.801 10.35 0
      vertex 16.35 10.899 -4
      vertex 16.35 10.899 0
    endloop
  endfacet
  facet normal 0.707107 -0.707107 0
    outer loop
      vertex 16.35 10.899 -4
      vertex 15.801 10.35 0
      vertex 15.801 10.35 -4
    endloop
  endfacet
  facet normal 0.965914 0.258865 0
    outer loop
      vertex 15.801 8.85 0
      vertex 15.6 9.6 -4
      vertex 15.6 9.6 0
    endloop
  endfacet
  facet normal 0.965914 0.258865 0
    outer loop
      vertex 15.6 9.6 -4
      vertex 15.801 8.85 0
      vertex 15.801 8.85 -4
    endloop
  endfacet
  facet normal -0.965914 -0.258865 0
    outer loop
      vertex 18.6 9.6 -4
      vertex 18.399 10.35 0
      vertex 18.399 10.35 -4
    endloop
  endfacet
  facet normal -0.965914 -0.258865 0
    outer loop
      vertex 18.399 10.35 0
      vertex 18.6 9.6 -4
      vertex 18.6 9.6 0
    endloop
  endfacet
  facet normal -0.965914 0.258865 0
    outer loop
      vertex 18.399 8.85 -4
      vertex 18.6 9.6 0
      vertex 18.6 9.6 -4
    endloop
  endfacet
  facet normal -0.965914 0.258865 0
    outer loop
      vertex 18.6 9.6 0
      vertex 18.399 8.85 -4
      vertex 18.399 8.85 0
    endloop
  endfacet
  facet normal -0.258817 0.965926 0
    outer loop
      vertex 17.85 8.30096 -4
      vertex 17.1 8.1 0
      vertex 17.85 8.30096 0
    endloop
  endfacet
  facet normal -0.258817 0.965926 0
    outer loop
      vertex 17.1 8.1 0
      vertex 17.85 8.30096 -4
      vertex 17.1 8.1 -4
    endloop
  endfacet
  facet normal 0.707133 0.707081 0
    outer loop
      vertex 16.35 8.30096 0
      vertex 15.801 8.85 -4
      vertex 15.801 8.85 0
    endloop
  endfacet
  facet normal 0.707133 0.707081 0
    outer loop
      vertex 15.801 8.85 -4
      vertex 16.35 8.30096 0
      vertex 16.35 8.30096 -4
    endloop
  endfacet
  facet normal -0.707133 0.707081 0
    outer loop
      vertex 17.85 8.30096 -4
      vertex 18.399 8.85 0
      vertex 18.399 8.85 -4
    endloop
  endfacet
  facet normal -0.707133 0.707081 0
    outer loop
      vertex 18.399 8.85 0
      vertex 17.85 8.30096 -4
      vertex 17.85 8.30096 0
    endloop
  endfacet
  facet normal -0.707107 -0.707107 0
    outer loop
      vertex 18.399 10.35 -4
      vertex 17.85 10.899 0
      vertex 17.85 10.899 -4
    endloop
  endfacet
  facet normal -0.707107 -0.707107 0
    outer loop
      vertex 17.85 10.899 0
      vertex 18.399 10.35 -4
      vertex 18.399 10.35 0
    endloop
  endfacet
  facet normal -0.258865 -0.965914 0
    outer loop
      vertex 17.1 11.1 -4
      vertex 17.85 10.899 0
      vertex 17.1 11.1 0
    endloop
  endfacet
  facet normal -0.258865 -0.965914 -0
    outer loop
      vertex 17.85 10.899 0
      vertex 17.1 11.1 -4
      vertex 17.85 10.899 -4
    endloop
  endfacet
  facet normal -0.258805 0.96593 0
    outer loop
      vertex -17.1 12.6 -4
      vertex -18.6 12.1981 0
      vertex -17.1 12.6 0
    endloop
  endfacet
  facet normal -0.258805 0.96593 0
    outer loop
      vertex -18.6 12.1981 0
      vertex -17.1 12.6 -4
      vertex -18.6 12.1981 -4
    endloop
  endfacet
  facet normal -0.707107 0.707107 0
    outer loop
      vertex -19.6981 11.1 -4
      vertex -18.6 12.1981 0
      vertex -18.6 12.1981 -4
    endloop
  endfacet
  facet normal -0.707107 0.707107 0
    outer loop
      vertex -18.6 12.1981 0
      vertex -19.6981 11.1 -4
      vertex -19.6981 11.1 0
    endloop
  endfacet
  facet normal 0 -1 0
    outer loop
      vertex 14.1 6.6 -4
      vertex 17.1 6.6 0
      vertex 14.1 6.6 0
    endloop
  endfacet
  facet normal 0 -1 -0
    outer loop
      vertex 17.1 6.6 0
      vertex 14.1 6.6 -4
      vertex 17.1 6.6 -4
    endloop
  endfacet
  facet normal 0 -1 0
    outer loop
      vertex -17.1 6.6 -4
      vertex -14.1 6.6 0
      vertex -17.1 6.6 0
    endloop
  endfacet
  facet normal 0 -1 -0
    outer loop
      vertex -14.1 6.6 0
      vertex -17.1 6.6 -4
      vertex -14.1 6.6 -4
    endloop
  endfacet
  facet normal -0.96593 0.258805 0
    outer loop
      vertex -20.1 9.6 -4
      vertex -19.6981 11.1 0
      vertex -19.6981 11.1 -4
    endloop
  endfacet
  facet normal -0.96593 0.258805 0
    outer loop
      vertex -19.6981 11.1 0
      vertex -20.1 9.6 -4
      vertex -20.1 9.6 0
    endloop
  endfacet
  facet normal 0 1 0
    outer loop
      vertex 17.1 12.6 0
      vertex 9.33205 12.6 -0.900001
      vertex 9.5732 12.6 0
    endloop
  endfacet
  facet normal 0 1 -0
    outer loop
      vertex 17.1 12.6 -4
      vertex 9.33205 12.6 -0.900001
      vertex 17.1 12.6 0
    endloop
  endfacet
  facet normal 0 1 0
    outer loop
      vertex 9.33205 12.6 -0.900001
      vertex 17.1 12.6 -4
      vertex 8.6 12.6 -1.63205
    endloop
  endfacet
  facet normal 0 1 0
    outer loop
      vertex 7.6 12.6 -1.9
      vertex 17.1 12.6 -4
      vertex 4.6 12.6 -1.9
    endloop
  endfacet
  facet normal 0 1 0
    outer loop
      vertex 8.6 12.6 -1.63205
      vertex 17.1 12.6 -4
      vertex 7.6 12.6 -1.9
    endloop
  endfacet
  facet normal 0 1 0
    outer loop
      vertex -17.1 12.6 -4
      vertex 2.62679 12.6 0
      vertex 2.86795 12.6 -0.900001
    endloop
  endfacet
  facet normal 0 1 0
    outer loop
      vertex -17.1 12.6 -4
      vertex 2.86795 12.6 -0.900001
      vertex 3.6 12.6 -1.63205
    endloop
  endfacet
  facet normal 0 1 0
    outer loop
      vertex -17.1 12.6 -4
      vertex 3.6 12.6 -1.63205
      vertex 4.6 12.6 -1.9
    endloop
  endfacet
  facet normal 0 1 0
    outer loop
      vertex -17.1 12.6 -4
      vertex 4.6 12.6 -1.9
      vertex 17.1 12.6 -4
    endloop
  endfacet
  facet normal 0 1 0
    outer loop
      vertex 2.62679 12.6 0
      vertex -17.1 12.6 -4
      vertex -17.1 12.6 0
    endloop
  endfacet
  facet normal -0 0 -1
    outer loop
      vertex -13.1 9.1 -4
      vertex -15.801 8.85 -4
      vertex -15.6 9.6 -4
    endloop
  endfacet
  facet normal 0 0 -1
    outer loop
      vertex -14.1 6.6 -4
      vertex -16.35 8.30096 -4
      vertex -15.801 8.85 -4
    endloop
  endfacet
  facet normal 0 0 -1
    outer loop
      vertex -17.1 6.6 -4
      vertex -16.35 8.30096 -4
      vertex -14.1 6.6 -4
    endloop
  endfacet
  facet normal 0 0 -1
    outer loop
      vertex -17.1 6.6 -4
      vertex -17.1 8.1 -4
      vertex -16.35 8.30096 -4
    endloop
  endfacet
  facet normal 0 0 -1
    outer loop
      vertex -17.1 6.6 -4
      vertex -17.85 8.30096 -4
      vertex -17.1 8.1 -4
    endloop
  endfacet
  facet normal 0 0 -1
    outer loop
      vertex -18.6 7.00192 -4
      vertex -17.85 8.30096 -4
      vertex -17.1 6.6 -4
    endloop
  endfacet
  facet normal -0 0 -1
    outer loop
      vertex -17.85 8.30096 -4
      vertex -18.6 7.00192 -4
      vertex -18.399 8.85 -4
    endloop
  endfacet
  facet normal 0 0 -1
    outer loop
      vertex -19.6981 8.1 -4
      vertex -18.399 8.85 -4
      vertex -18.6 7.00192 -4
    endloop
  endfacet
  facet normal -0 0 -1
    outer loop
      vertex -18.399 8.85 -4
      vertex -19.6981 8.1 -4
      vertex -18.6 9.6 -4
    endloop
  endfacet
  facet normal 0 0 -1
    outer loop
      vertex -20.1 9.6 -4
      vertex -18.6 9.6 -4
      vertex -19.6981 8.1 -4
    endloop
  endfacet
  facet normal 0 0 -1
    outer loop
      vertex -18.6 9.6 -4
      vertex -19.6981 11.1 -4
      vertex -18.6 12.1981 -4
    endloop
  endfacet
  facet normal 0 0 -1
    outer loop
      vertex -18.6 9.6 -4
      vertex -20.1 9.6 -4
      vertex -19.6981 11.1 -4
    endloop
  endfacet
  facet normal 0 0 -1
    outer loop
      vertex 14.1 -6.6 -4
      vertex 10.899 -2.85 -4
      vertex 11.1 -2.1 -4
    endloop
  endfacet
  facet normal 0 0 -1
    outer loop
      vertex 10.1 -4.6 -4
      vertex 11.225 -7.01747 -4
      vertex 10.6 -6.85 -4
    endloop
  endfacet
  facet normal 0 0 -1
    outer loop
      vertex 14.1 -6.6 -4
      vertex 10.1 -4.6 -4
      vertex 10.899 -2.85 -4
    endloop
  endfacet
  facet normal 0 0 -1
    outer loop
      vertex 10.899 -2.85 -4
      vertex 10.1 -4.6 -4
      vertex 10.35 -3.39904 -4
    endloop
  endfacet
  facet normal 0 0 -1
    outer loop
      vertex 9.69808 -6.1 -4
      vertex 10.6 -6.85 -4
      vertex 9.975 -7.01747 -4
    endloop
  endfacet
  facet normal 0 0 -1
    outer loop
      vertex 10.6 -6.85 -4
      vertex 9.69808 -6.1 -4
      vertex 10.1 -4.6 -4
    endloop
  endfacet
  facet normal 0 0 -1
    outer loop
      vertex 9.51747 -7.475 -4
      vertex 9.69808 -6.1 -4
      vertex 9.975 -7.01747 -4
    endloop
  endfacet
  facet normal 0 0 -1
    outer loop
      vertex 8.6 -7.19808 -4
      vertex 9.51747 -7.475 -4
      vertex 9.35 -8.1 -4
    endloop
  endfacet
  facet normal 0 0 -1
    outer loop
      vertex 9.51747 -7.475 -4
      vertex 8.6 -7.19808 -4
      vertex 9.69808 -6.1 -4
    endloop
  endfacet
  facet normal 0 0 -1
    outer loop
      vertex 19.6981 -11.1 -4
      vertex 18.399 -10.35 -4
      vertex 18.6 -9.6 -4
    endloop
  endfacet
  facet normal 0 0 -1
    outer loop
      vertex 18.6 -12.1981 -4
      vertex 17.85 -10.899 -4
      vertex 18.399 -10.35 -4
    endloop
  endfacet
  facet normal 0 0 -1
    outer loop
      vertex 17.1 -12.6 -4
      vertex 17.85 -10.899 -4
      vertex 18.6 -12.1981 -4
    endloop
  endfacet
  facet normal 0 0 -1
    outer loop
      vertex 17.1 -12.6 -4
      vertex 17.1 -11.1 -4
      vertex 17.85 -10.899 -4
    endloop
  endfacet
  facet normal 0 0 -1
    outer loop
      vertex 17.1 -12.6 -4
      vertex 16.35 -10.899 -4
      vertex 17.1 -11.1 -4
    endloop
  endfacet
  facet normal 0 0 -1
    outer loop
      vertex 17.1 -12.6 -4
      vertex 15.801 -10.35 -4
      vertex 16.35 -10.899 -4
    endloop
  endfacet
  facet normal 0 0 -1
    outer loop
      vertex 11.6825 -8.725 -4
      vertex 15.6 -9.6 -4
      vertex 15.801 -10.35 -4
    endloop
  endfacet
  facet normal 0 0 -1
    outer loop
      vertex 11.6825 -7.475 -4
      vertex 14.1 -6.6 -4
      vertex 11.85 -8.1 -4
    endloop
  endfacet
  facet normal 0 0 -1
    outer loop
      vertex 15.6 -9.6 -4
      vertex 11.85 -8.1 -4
      vertex 14.1 -6.6 -4
    endloop
  endfacet
  facet normal 0 0 -1
    outer loop
      vertex 11.225 -9.18253 -4
      vertex 15.801 -10.35 -4
      vertex 17.1 -12.6 -4
    endloop
  endfacet
  facet normal 0 0 -1
    outer loop
      vertex 15.6 -9.6 -4
      vertex 11.6825 -8.725 -4
      vertex 11.85 -8.1 -4
    endloop
  endfacet
  facet normal 0 0 -1
    outer loop
      vertex 15.801 -10.35 -4
      vertex 11.225 -9.18253 -4
      vertex 11.6825 -8.725 -4
    endloop
  endfacet
  facet normal 0 0 -1
    outer loop
      vertex 17.1 -12.6 -4
      vertex 10.6 -9.35 -4
      vertex 11.225 -9.18253 -4
    endloop
  endfacet
  facet normal 0 0 -1
    outer loop
      vertex 17.1 -12.6 -4
      vertex 9.975 -9.18253 -4
      vertex 10.6 -9.35 -4
    endloop
  endfacet
  facet normal 0 0 -1
    outer loop
      vertex 7.1 -7.6 -4
      vertex 9.35 -8.1 -4
      vertex 9.51747 -8.725 -4
    endloop
  endfacet
  facet normal 0 0 -1
    outer loop
      vertex 9.35 -8.1 -4
      vertex 7.1 -7.6 -4
      vertex 8.6 -7.19808 -4
    endloop
  endfacet
  facet normal 0 0 -1
    outer loop
      vertex 9.975 -9.18253 -4
      vertex 7.1 -7.6 -4
      vertex 9.51747 -8.725 -4
    endloop
  endfacet
  facet normal 0 0 -1
    outer loop
      vertex -5.85 -8.39904 -4
      vertex 7.1 -7.6 -4
      vertex 9.975 -9.18253 -4
    endloop
  endfacet
  facet normal 0 0 -1
    outer loop
      vertex -6.6 -8.6 -4
      vertex 9.975 -9.18253 -4
      vertex 17.1 -12.6 -4
    endloop
  endfacet
  facet normal -0 0 -1
    outer loop
      vertex 7.1 -7.6 -4
      vertex -5.30096 -7.85 -4
      vertex -5.23397 -7.6 -4
    endloop
  endfacet
  facet normal 0 0 -1
    outer loop
      vertex 7.1 -7.6 -4
      vertex -5.85 -8.39904 -4
      vertex -5.30096 -7.85 -4
    endloop
  endfacet
  facet normal 0 0 -1
    outer loop
      vertex 9.975 -9.18253 -4
      vertex -6.6 -8.6 -4
      vertex -5.85 -8.39904 -4
    endloop
  endfacet
  facet normal 0 0 -1
    outer loop
      vertex -17.1 -12.6 -4
      vertex -6.6 -8.6 -4
      vertex 17.1 -12.6 -4
    endloop
  endfacet
  facet normal 0 0 -1
    outer loop
      vertex -14.1 6.6 -4
      vertex -13.1 -7.1 -4
      vertex -14.1 -6.6 -4
    endloop
  endfacet
  facet normal 0 0 -1
    outer loop
      vertex -12.899 -7.85 -4
      vertex -14.1 -6.6 -4
      vertex -13.1 -7.1 -4
    endloop
  endfacet
  facet normal 0 0 -1
    outer loop
      vertex -15.801 -8.85 -4
      vertex -12.899 -7.85 -4
      vertex -15.6 -9.6 -4
    endloop
  endfacet
  facet normal -0 0 -1
    outer loop
      vertex -12.35 -8.39904 -4
      vertex -15.6 -9.6 -4
      vertex -12.899 -7.85 -4
    endloop
  endfacet
  facet normal 0 0 -1
    outer loop
      vertex -15.801 -10.35 -4
      vertex -12.35 -8.39904 -4
      vertex -11.6 -8.6 -4
    endloop
  endfacet
  facet normal -0 0 -1
    outer loop
      vertex -6.6 -8.6 -4
      vertex -17.1 -12.6 -4
      vertex -11.6 -8.6 -4
    endloop
  endfacet
  facet normal 0 0 -1
    outer loop
      vertex -12.35 -8.39904 -4
      vertex -15.801 -10.35 -4
      vertex -15.6 -9.6 -4
    endloop
  endfacet
  facet normal 0 0 -1
    outer loop
      vertex -11.6 -8.6 -4
      vertex -17.1 -12.6 -4
      vertex -15.801 -10.35 -4
    endloop
  endfacet
  facet normal 0 0 -1
    outer loop
      vertex -15.801 -10.35 -4
      vertex -17.1 -12.6 -4
      vertex -16.35 -10.899 -4
    endloop
  endfacet
  facet normal 0 0 -1
    outer loop
      vertex -17.1 -12.6 -4
      vertex -17.1 -11.1 -4
      vertex -16.35 -10.899 -4
    endloop
  endfacet
  facet normal 0 0 -1
    outer loop
      vertex -17.1 -12.6 -4
      vertex -17.85 -10.899 -4
      vertex -17.1 -11.1 -4
    endloop
  endfacet
  facet normal 0 0 -1
    outer loop
      vertex -18.6 -12.1981 -4
      vertex -17.85 -10.899 -4
      vertex -17.1 -12.6 -4
    endloop
  endfacet
  facet normal -0 0 -1
    outer loop
      vertex -17.85 -10.899 -4
      vertex -18.6 -12.1981 -4
      vertex -18.399 -10.35 -4
    endloop
  endfacet
  facet normal 0 0 -1
    outer loop
      vertex -19.6981 -11.1 -4
      vertex -18.399 -10.35 -4
      vertex -18.6 -12.1981 -4
    endloop
  endfacet
  facet normal -0 0 -1
    outer loop
      vertex -18.399 -10.35 -4
      vertex -19.6981 -11.1 -4
      vertex -18.6 -9.6 -4
    endloop
  endfacet
  facet normal 0 0 -1
    outer loop
      vertex -20.1 -9.6 -4
      vertex -18.6 -9.6 -4
      vertex -19.6981 -11.1 -4
    endloop
  endfacet
  facet normal 0 0 -1
    outer loop
      vertex -18.6 -9.6 -4
      vertex -19.6981 -8.1 -4
      vertex -18.6 -7.00192 -4
    endloop
  endfacet
  facet normal 0 0 -1
    outer loop
      vertex -18.6 -9.6 -4
      vertex -20.1 -9.6 -4
      vertex -19.6981 -8.1 -4
    endloop
  endfacet
  facet normal 0 0 -1
    outer loop
      vertex 18.6 -9.6 -4
      vertex 20.1 -9.6 -4
      vertex 19.6981 -11.1 -4
    endloop
  endfacet
  facet normal 0 0 -1
    outer loop
      vertex 18.399 -10.35 -4
      vertex 19.6981 -11.1 -4
      vertex 18.6 -12.1981 -4
    endloop
  endfacet
  facet normal 0 0 -1
    outer loop
      vertex 20.1 -9.6 -4
      vertex 18.6 -9.6 -4
      vertex 19.6981 -8.1 -4
    endloop
  endfacet
  facet normal 0 0 -1
    outer loop
      vertex 18.399 -8.85 -4
      vertex 19.6981 -8.1 -4
      vertex 18.6 -9.6 -4
    endloop
  endfacet
  facet normal -0 0 -1
    outer loop
      vertex 19.6981 -8.1 -4
      vertex 18.399 -8.85 -4
      vertex 18.6 -7.00192 -4
    endloop
  endfacet
  facet normal 0 0 -1
    outer loop
      vertex 17.85 -8.30096 -4
      vertex 18.6 -7.00192 -4
      vertex 18.399 -8.85 -4
    endloop
  endfacet
  facet normal 0 0 -1
    outer loop
      vertex 17.1 -8.1 -4
      vertex 18.6 -7.00192 -4
      vertex 17.85 -8.30096 -4
    endloop
  endfacet
  facet normal 0 0 -1
    outer loop
      vertex 17.1 -8.1 -4
      vertex 17.1 -6.6 -4
      vertex 18.6 -7.00192 -4
    endloop
  endfacet
  facet normal 0 0 -1
    outer loop
      vertex 16.35 -8.30096 -4
      vertex 17.1 -6.6 -4
      vertex 17.1 -8.1 -4
    endloop
  endfacet
  facet normal 0 0 -1
    outer loop
      vertex 14.1 -6.6 -4
      vertex 16.35 -8.30096 -4
      vertex 15.801 -8.85 -4
    endloop
  endfacet
  facet normal 0 0 -1
    outer loop
      vertex 16.35 -8.30096 -4
      vertex 14.1 -6.6 -4
      vertex 17.1 -6.6 -4
    endloop
  endfacet
  facet normal 0 0 -1
    outer loop
      vertex 14.1 -6.6 -4
      vertex 15.801 -8.85 -4
      vertex 15.6 -9.6 -4
    endloop
  endfacet
  facet normal 0 0 -1
    outer loop
      vertex 10.35 -3.39904 -4
      vertex 10.1 -4.6 -4
      vertex 10.1 -3.46602 -4
    endloop
  endfacet
  facet normal -0 0 -1
    outer loop
      vertex -12.899 -7.85 -4
      vertex -15.801 -8.85 -4
      vertex -14.1 -6.6 -4
    endloop
  endfacet
  facet normal 0 0 -1
    outer loop
      vertex -16.35 -8.30096 -4
      vertex -14.1 -6.6 -4
      vertex -15.801 -8.85 -4
    endloop
  endfacet
  facet normal 0 0 -1
    outer loop
      vertex -17.1 -6.6 -4
      vertex -16.35 -8.30096 -4
      vertex -17.1 -8.1 -4
    endloop
  endfacet
  facet normal 0 0 -1
    outer loop
      vertex -16.35 -8.30096 -4
      vertex -17.1 -6.6 -4
      vertex -14.1 -6.6 -4
    endloop
  endfacet
  facet normal 0 0 -1
    outer loop
      vertex -17.85 -8.30096 -4
      vertex -17.1 -6.6 -4
      vertex -17.1 -8.1 -4
    endloop
  endfacet
  facet normal 0 0 -1
    outer loop
      vertex -18.6 -7.00192 -4
      vertex -17.85 -8.30096 -4
      vertex -18.399 -8.85 -4
    endloop
  endfacet
  facet normal 0 0 -1
    outer loop
      vertex -17.85 -8.30096 -4
      vertex -18.6 -7.00192 -4
      vertex -17.1 -6.6 -4
    endloop
  endfacet
  facet normal 0 0 -1
    outer loop
      vertex -18.6 -7.00192 -4
      vertex -18.399 -8.85 -4
      vertex -18.6 -9.6 -4
    endloop
  endfacet
  facet normal 0 0 -1
    outer loop
      vertex 19.6981 8.1 -4
      vertex 18.399 8.85 -4
      vertex 18.6 9.6 -4
    endloop
  endfacet
  facet normal 0 0 -1
    outer loop
      vertex 18.6 7.00192 -4
      vertex 17.85 8.30096 -4
      vertex 18.399 8.85 -4
    endloop
  endfacet
  facet normal 0 0 -1
    outer loop
      vertex 17.1 6.6 -4
      vertex 17.85 8.30096 -4
      vertex 18.6 7.00192 -4
    endloop
  endfacet
  facet normal 0 0 -1
    outer loop
      vertex 17.1 6.6 -4
      vertex 17.1 8.1 -4
      vertex 17.85 8.30096 -4
    endloop
  endfacet
  facet normal 0 0 -1
    outer loop
      vertex 17.1 6.6 -4
      vertex 16.35 8.30096 -4
      vertex 17.1 8.1 -4
    endloop
  endfacet
  facet normal 0 0 -1
    outer loop
      vertex 14.1 6.6 -4
      vertex 16.35 8.30096 -4
      vertex 17.1 6.6 -4
    endloop
  endfacet
  facet normal -0 0 -1
    outer loop
      vertex 15.801 8.85 -4
      vertex 14.1 6.6 -4
      vertex 15.6 9.6 -4
    endloop
  endfacet
  facet normal -0 0 -1
    outer loop
      vertex 16.35 8.30096 -4
      vertex 14.1 6.6 -4
      vertex 15.801 8.85 -4
    endloop
  endfacet
  facet normal 0 0 -1
    outer loop
      vertex 18.6 9.6 -4
      vertex 20.1 9.6 -4
      vertex 19.6981 8.1 -4
    endloop
  endfacet
  facet normal 0 0 -1
    outer loop
      vertex 18.399 8.85 -4
      vertex 19.6981 8.1 -4
      vertex 18.6 7.00192 -4
    endloop
  endfacet
  facet normal 0 0 -1
    outer loop
      vertex 20.1 9.6 -4
      vertex 18.6 9.6 -4
      vertex 19.6981 11.1 -4
    endloop
  endfacet
  facet normal 0 0 -1
    outer loop
      vertex 18.399 10.35 -4
      vertex 19.6981 11.1 -4
      vertex 18.6 9.6 -4
    endloop
  endfacet
  facet normal -0 0 -1
    outer loop
      vertex 19.6981 11.1 -4
      vertex 18.399 10.35 -4
      vertex 18.6 12.1981 -4
    endloop
  endfacet
  facet normal 0 0 -1
    outer loop
      vertex 17.85 10.899 -4
      vertex 18.6 12.1981 -4
      vertex 18.399 10.35 -4
    endloop
  endfacet
  facet normal 0 0 -1
    outer loop
      vertex 17.1 11.1 -4
      vertex 18.6 12.1981 -4
      vertex 17.85 10.899 -4
    endloop
  endfacet
  facet normal 0 0 -1
    outer loop
      vertex 17.1 11.1 -4
      vertex 17.1 12.6 -4
      vertex 18.6 12.1981 -4
    endloop
  endfacet
  facet normal 0 0 -1
    outer loop
      vertex 16.35 10.899 -4
      vertex 17.1 12.6 -4
      vertex 17.1 11.1 -4
    endloop
  endfacet
  facet normal 0 0 -1
    outer loop
      vertex 15.801 10.35 -4
      vertex 17.1 12.6 -4
      vertex 16.35 10.899 -4
    endloop
  endfacet
  facet normal 0 0 -1
    outer loop
      vertex 11.1 8.1 -4
      vertex 15.6 9.6 -4
      vertex 14.1 6.6 -4
    endloop
  endfacet
  facet normal 0 0 -1
    outer loop
      vertex 11.225 -7.01747 -4
      vertex 14.1 -6.6 -4
      vertex 11.6825 -7.475 -4
    endloop
  endfacet
  facet normal 0 0 -1
    outer loop
      vertex 10.1 -4.6 -4
      vertex 14.1 -6.6 -4
      vertex 11.225 -7.01747 -4
    endloop
  endfacet
  facet normal 0 0 -1
    outer loop
      vertex 14.1 -6.6 -4
      vertex 11.1 -2.1 -4
      vertex 14.1 6.6 -4
    endloop
  endfacet
  facet normal 0 0 -1
    outer loop
      vertex 11.1 8.1 -4
      vertex 14.1 6.6 -4
      vertex 11.1 -2.1 -4
    endloop
  endfacet
  facet normal 0 0 -1
    outer loop
      vertex 10.899 8.85 -4
      vertex 15.6 9.6 -4
      vertex 11.1 8.1 -4
    endloop
  endfacet
  facet normal -0 0 -1
    outer loop
      vertex 15.6 9.6 -4
      vertex 10.899 8.85 -4
      vertex 15.801 10.35 -4
    endloop
  endfacet
  facet normal 0 0 -1
    outer loop
      vertex 10.35 9.39904 -4
      vertex 15.801 10.35 -4
      vertex 10.899 8.85 -4
    endloop
  endfacet
  facet normal -0 0 -1
    outer loop
      vertex 15.801 10.35 -4
      vertex 10.35 9.39904 -4
      vertex 17.1 12.6 -4
    endloop
  endfacet
  facet normal 0 0 -1
    outer loop
      vertex 9.6 9.6 -4
      vertex 17.1 12.6 -4
      vertex 10.35 9.39904 -4
    endloop
  endfacet
  facet normal 0 0 -1
    outer loop
      vertex -5.30096 9.85 -4
      vertex 9.6 9.6 -4
      vertex -5.23397 9.6 -4
    endloop
  endfacet
  facet normal 0 0 -1
    outer loop
      vertex -5.85 10.399 -4
      vertex 9.6 9.6 -4
      vertex -5.30096 9.85 -4
    endloop
  endfacet
  facet normal 0 0 -1
    outer loop
      vertex 9.6 9.6 -4
      vertex -5.85 10.399 -4
      vertex 17.1 12.6 -4
    endloop
  endfacet
  facet normal 0 0 -1
    outer loop
      vertex -6.6 10.6 -4
      vertex 17.1 12.6 -4
      vertex -5.85 10.399 -4
    endloop
  endfacet
  facet normal 0 0 -1
    outer loop
      vertex -17.1 12.6 -4
      vertex -6.6 10.6 -4
      vertex -11.6 10.6 -4
    endloop
  endfacet
  facet normal 0 0 -1
    outer loop
      vertex -13.1 -7.1 -4
      vertex -14.1 6.6 -4
      vertex -13.1 9.1 -4
    endloop
  endfacet
  facet normal 0 0 -1
    outer loop
      vertex -15.801 8.85 -4
      vertex -13.1 9.1 -4
      vertex -14.1 6.6 -4
    endloop
  endfacet
  facet normal 0 0 -1
    outer loop
      vertex -13.1 9.1 -4
      vertex -15.6 9.6 -4
      vertex -12.899 9.85 -4
    endloop
  endfacet
  facet normal 0 0 -1
    outer loop
      vertex -15.801 10.35 -4
      vertex -12.899 9.85 -4
      vertex -15.6 9.6 -4
    endloop
  endfacet
  facet normal 0 0 -1
    outer loop
      vertex -12.899 9.85 -4
      vertex -15.801 10.35 -4
      vertex -12.35 10.399 -4
    endloop
  endfacet
  facet normal 0 0 -1
    outer loop
      vertex -16.35 10.899 -4
      vertex -12.35 10.399 -4
      vertex -15.801 10.35 -4
    endloop
  endfacet
  facet normal 0 0 -1
    outer loop
      vertex -17.1 12.6 -4
      vertex -12.35 10.399 -4
      vertex -16.35 10.899 -4
    endloop
  endfacet
  facet normal 0 0 -1
    outer loop
      vertex -12.35 10.399 -4
      vertex -17.1 12.6 -4
      vertex -11.6 10.6 -4
    endloop
  endfacet
  facet normal 0 0 -1
    outer loop
      vertex -17.1 12.6 -4
      vertex -16.35 10.899 -4
      vertex -17.1 11.1 -4
    endloop
  endfacet
  facet normal 0 0 -1
    outer loop
      vertex -6.6 10.6 -4
      vertex -17.1 12.6 -4
      vertex 17.1 12.6 -4
    endloop
  endfacet
  facet normal 0 0 -1
    outer loop
      vertex -17.85 10.899 -4
      vertex -17.1 12.6 -4
      vertex -17.1 11.1 -4
    endloop
  endfacet
  facet normal 0 0 -1
    outer loop
      vertex -18.6 12.1981 -4
      vertex -17.85 10.899 -4
      vertex -18.399 10.35 -4
    endloop
  endfacet
  facet normal 0 0 -1
    outer loop
      vertex -17.85 10.899 -4
      vertex -18.6 12.1981 -4
      vertex -17.1 12.6 -4
    endloop
  endfacet
  facet normal 0 0 -1
    outer loop
      vertex -18.6 12.1981 -4
      vertex -18.399 10.35 -4
      vertex -18.6 9.6 -4
    endloop
  endfacet
  facet normal -0.96593 -0.258805 0
    outer loop
      vertex -19.6981 8.1 -4
      vertex -20.1 9.6 0
      vertex -20.1 9.6 -4
    endloop
  endfacet
  facet normal -0.96593 -0.258805 0
    outer loop
      vertex -20.1 9.6 0
      vertex -19.6981 8.1 -4
      vertex -19.6981 8.1 0
    endloop
  endfacet
  facet normal 0 0 1
    outer loop
      vertex -13.1 -10.1 0
      vertex -15.801 -8.85 0
      vertex -15.6 -9.6 0
    endloop
  endfacet
  facet normal 0 0 1
    outer loop
      vertex -14.1 -6.6 0
      vertex -16.35 -8.30096 0
      vertex -15.801 -8.85 0
    endloop
  endfacet
  facet normal -0 0 1
    outer loop
      vertex -17.1 -6.6 0
      vertex -16.35 -8.30096 0
      vertex -14.1 -6.6 0
    endloop
  endfacet
  facet normal 0 0 1
    outer loop
      vertex -17.1 -6.6 0
      vertex -17.1 -8.1 0
      vertex -16.35 -8.30096 0
    endloop
  endfacet
  facet normal 0 0 1
    outer loop
      vertex -17.1 -6.6 0
      vertex -17.85 -8.30096 0
      vertex -17.1 -8.1 0
    endloop
  endfacet
  facet normal -0 0 1
    outer loop
      vertex -18.6 -7.00192 0
      vertex -17.85 -8.30096 0
      vertex -17.1 -6.6 0
    endloop
  endfacet
  facet normal 0 0 1
    outer loop
      vertex -17.85 -8.30096 0
      vertex -18.6 -7.00192 0
      vertex -18.399 -8.85 0
    endloop
  endfacet
  facet normal -0 0 1
    outer loop
      vertex -19.6981 -8.1 0
      vertex -18.399 -8.85 0
      vertex -18.6 -7.00192 0
    endloop
  endfacet
  facet normal 0 0 1
    outer loop
      vertex -18.399 -8.85 0
      vertex -19.6981 -8.1 0
      vertex -18.6 -9.6 0
    endloop
  endfacet
  facet normal 0 0 1
    outer loop
      vertex -20.1 -9.6 0
      vertex -18.6 -9.6 0
      vertex -19.6981 -8.1 0
    endloop
  endfacet
  facet normal 0 0 1
    outer loop
      vertex -18.6 -9.6 0
      vertex -19.6981 -11.1 0
      vertex -18.6 -12.1981 0
    endloop
  endfacet
  facet normal 0 0 1
    outer loop
      vertex -18.6 -9.6 0
      vertex -20.1 -9.6 0
      vertex -19.6981 -11.1 0
    endloop
  endfacet
  facet normal 0 0 1
    outer loop
      vertex 2.62679 12.6 0
      vertex -12.6 10.6 0
      vertex 2.62679 10.6 0
    endloop
  endfacet
  facet normal 0 0 1
    outer loop
      vertex -13.1 10.1 0
      vertex -14.1 6.6 0
      vertex -13.1 -10.1 0
    endloop
  endfacet
  facet normal -0 0 1
    outer loop
      vertex -15.801 10.35 0
      vertex -13.1 10.1 0
      vertex -13.033 10.35 0
    endloop
  endfacet
  facet normal 0 0 1
    outer loop
      vertex -13.1 10.1 0
      vertex -15.6 9.6 0
      vertex -15.801 8.85 0
    endloop
  endfacet
  facet normal 0 0 1
    outer loop
      vertex -15.801 10.35 0
      vertex -13.033 10.35 0
      vertex -12.85 10.533 0
    endloop
  endfacet
  facet normal 0 0 1
    outer loop
      vertex -13.1 10.1 0
      vertex -15.801 10.35 0
      vertex -15.6 9.6 0
    endloop
  endfacet
  facet normal 0 0 1
    outer loop
      vertex -17.1 12.6 0
      vertex -12.85 10.533 0
      vertex -12.6 10.6 0
    endloop
  endfacet
  facet normal -0 0 1
    outer loop
      vertex -17.1 12.6 0
      vertex -12.6 10.6 0
      vertex 2.62679 12.6 0
    endloop
  endfacet
  facet normal 0 0 1
    outer loop
      vertex -12.85 10.533 0
      vertex -17.1 12.6 0
      vertex -16.35 10.899 0
    endloop
  endfacet
  facet normal 0 0 1
    outer loop
      vertex -12.85 10.533 0
      vertex -16.35 10.899 0
      vertex -15.801 10.35 0
    endloop
  endfacet
  facet normal 0 0 1
    outer loop
      vertex -17.1 12.6 0
      vertex -17.1 11.1 0
      vertex -16.35 10.899 0
    endloop
  endfacet
  facet normal 0 0 1
    outer loop
      vertex -17.1 12.6 0
      vertex -17.85 10.899 0
      vertex -17.1 11.1 0
    endloop
  endfacet
  facet normal -0 0 1
    outer loop
      vertex -18.6 12.1981 0
      vertex -17.85 10.899 0
      vertex -17.1 12.6 0
    endloop
  endfacet
  facet normal 0 0 1
    outer loop
      vertex -17.85 10.899 0
      vertex -18.6 12.1981 0
      vertex -18.399 10.35 0
    endloop
  endfacet
  facet normal -0 0 1
    outer loop
      vertex -19.6981 11.1 0
      vertex -18.399 10.35 0
      vertex -18.6 12.1981 0
    endloop
  endfacet
  facet normal 0 0 1
    outer loop
      vertex -18.399 10.35 0
      vertex -19.6981 11.1 0
      vertex -18.6 9.6 0
    endloop
  endfacet
  facet normal 0 0 1
    outer loop
      vertex -20.1 9.6 0
      vertex -18.6 9.6 0
      vertex -19.6981 11.1 0
    endloop
  endfacet
  facet normal 0 0 1
    outer loop
      vertex -18.6 9.6 0
      vertex -19.6981 8.1 0
      vertex -18.6 7.00192 0
    endloop
  endfacet
  facet normal 0 0 1
    outer loop
      vertex -18.6 9.6 0
      vertex -20.1 9.6 0
      vertex -19.6981 8.1 0
    endloop
  endfacet
  facet normal -0 0 1
    outer loop
      vertex -12.6 -10.6 0
      vertex -4.47321 -12.6 0
      vertex -4.47321 -10.6 0
    endloop
  endfacet
  facet normal -0 0 1
    outer loop
      vertex -14.1 -6.6 0
      vertex -13.1 -10.1 0
      vertex -14.1 6.6 0
    endloop
  endfacet
  facet normal -0 0 1
    outer loop
      vertex -15.801 -8.85 0
      vertex -13.1 -10.1 0
      vertex -14.1 -6.6 0
    endloop
  endfacet
  facet normal 0 0 1
    outer loop
      vertex -15.801 -10.35 0
      vertex -13.1 -10.1 0
      vertex -15.6 -9.6 0
    endloop
  endfacet
  facet normal 0 0 1
    outer loop
      vertex -13.1 -10.1 0
      vertex -15.801 -10.35 0
      vertex -13.033 -10.35 0
    endloop
  endfacet
  facet normal 0 0 1
    outer loop
      vertex -13.033 -10.35 0
      vertex -15.801 -10.35 0
      vertex -12.85 -10.533 0
    endloop
  endfacet
  facet normal 0 0 1
    outer loop
      vertex -16.35 -10.899 0
      vertex -12.85 -10.533 0
      vertex -15.801 -10.35 0
    endloop
  endfacet
  facet normal 0 0 1
    outer loop
      vertex -17.1 -12.6 0
      vertex -12.85 -10.533 0
      vertex -16.35 -10.899 0
    endloop
  endfacet
  facet normal 0 0 1
    outer loop
      vertex -12.85 -10.533 0
      vertex -17.1 -12.6 0
      vertex -12.6 -10.6 0
    endloop
  endfacet
  facet normal 0 0 1
    outer loop
      vertex -17.1 -12.6 0
      vertex -16.35 -10.899 0
      vertex -17.1 -11.1 0
    endloop
  endfacet
  facet normal 0 0 1
    outer loop
      vertex -12.6 -10.6 0
      vertex -17.1 -12.6 0
      vertex -4.47321 -12.6 0
    endloop
  endfacet
  facet normal 0 0 1
    outer loop
      vertex -17.85 -10.899 0
      vertex -17.1 -12.6 0
      vertex -17.1 -11.1 0
    endloop
  endfacet
  facet normal 0 0 1
    outer loop
      vertex -18.6 -12.1981 0
      vertex -17.85 -10.899 0
      vertex -18.399 -10.35 0
    endloop
  endfacet
  facet normal 0 0 1
    outer loop
      vertex -17.85 -10.899 0
      vertex -18.6 -12.1981 0
      vertex -17.1 -12.6 0
    endloop
  endfacet
  facet normal 0 0 1
    outer loop
      vertex -18.6 -12.1981 0
      vertex -18.399 -10.35 0
      vertex -18.6 -9.6 0
    endloop
  endfacet
  facet normal 0 0 1
    outer loop
      vertex -13.1 10.1 0
      vertex -15.801 8.85 0
      vertex -14.1 6.6 0
    endloop
  endfacet
  facet normal -0 0 1
    outer loop
      vertex -16.35 8.30096 0
      vertex -14.1 6.6 0
      vertex -15.801 8.85 0
    endloop
  endfacet
  facet normal 0 0 1
    outer loop
      vertex -17.1 6.6 0
      vertex -16.35 8.30096 0
      vertex -17.1 8.1 0
    endloop
  endfacet
  facet normal 0 0 1
    outer loop
      vertex -16.35 8.30096 0
      vertex -17.1 6.6 0
      vertex -14.1 6.6 0
    endloop
  endfacet
  facet normal 0 0 1
    outer loop
      vertex -17.85 8.30096 0
      vertex -17.1 6.6 0
      vertex -17.1 8.1 0
    endloop
  endfacet
  facet normal 0 0 1
    outer loop
      vertex -18.6 7.00192 0
      vertex -17.85 8.30096 0
      vertex -18.399 8.85 0
    endloop
  endfacet
  facet normal 0 0 1
    outer loop
      vertex -17.85 8.30096 0
      vertex -18.6 7.00192 0
      vertex -17.1 6.6 0
    endloop
  endfacet
  facet normal 0 0 1
    outer loop
      vertex -18.6 7.00192 0
      vertex -18.399 8.85 0
      vertex -18.6 9.6 0
    endloop
  endfacet
  facet normal 0 0 1
    outer loop
      vertex 19.6981 11.1 0
      vertex 18.399 10.35 0
      vertex 18.6 9.6 0
    endloop
  endfacet
  facet normal 0 0 1
    outer loop
      vertex 18.6 12.1981 0
      vertex 17.85 10.899 0
      vertex 18.399 10.35 0
    endloop
  endfacet
  facet normal 0 0 1
    outer loop
      vertex 17.1 12.6 0
      vertex 17.85 10.899 0
      vertex 18.6 12.1981 0
    endloop
  endfacet
  facet normal 0 0 1
    outer loop
      vertex 17.1 12.6 0
      vertex 17.1 11.1 0
      vertex 17.85 10.899 0
    endloop
  endfacet
  facet normal 0 0 1
    outer loop
      vertex 17.1 12.6 0
      vertex 16.35 10.899 0
      vertex 17.1 11.1 0
    endloop
  endfacet
  facet normal 0 0 1
    outer loop
      vertex 12.85 10.533 0
      vertex 16.35 10.899 0
      vertex 17.1 12.6 0
    endloop
  endfacet
  facet normal -0 0 1
    outer loop
      vertex 13.1 10.1 0
      vertex 15.6 9.6 0
      vertex 15.801 10.35 0
    endloop
  endfacet
  facet normal 0 0 1
    outer loop
      vertex 14.1 6.6 0
      vertex 13.1 10.1 0
      vertex 14.1 -6.6 0
    endloop
  endfacet
  facet normal 0 0 1
    outer loop
      vertex 15.6 9.6 0
      vertex 13.1 10.1 0
      vertex 14.1 6.6 0
    endloop
  endfacet
  facet normal 0 0 1
    outer loop
      vertex 16.35 10.899 0
      vertex 12.85 10.533 0
      vertex 15.801 10.35 0
    endloop
  endfacet
  facet normal 0 0 1
    outer loop
      vertex 15.801 10.35 0
      vertex 13.033 10.35 0
      vertex 13.1 10.1 0
    endloop
  endfacet
  facet normal 0 0 1
    outer loop
      vertex 15.801 10.35 0
      vertex 12.85 10.533 0
      vertex 13.033 10.35 0
    endloop
  endfacet
  facet normal 0 0 1
    outer loop
      vertex 17.1 12.6 0
      vertex 12.6 10.6 0
      vertex 12.85 10.533 0
    endloop
  endfacet
  facet normal -0 0 1
    outer loop
      vertex 9.5732 12.6 0
      vertex 12.6 10.6 0
      vertex 17.1 12.6 0
    endloop
  endfacet
  facet normal 0 0 1
    outer loop
      vertex 12.6 10.6 0
      vertex 9.5732 12.6 0
      vertex 9.5732 10.6 0
    endloop
  endfacet
  facet normal 0 0 1
    outer loop
      vertex 18.6 9.6 0
      vertex 20.1 9.6 0
      vertex 19.6981 11.1 0
    endloop
  endfacet
  facet normal 0 0 1
    outer loop
      vertex 18.399 10.35 0
      vertex 19.6981 11.1 0
      vertex 18.6 12.1981 0
    endloop
  endfacet
  facet normal 0 0 1
    outer loop
      vertex 20.1 9.6 0
      vertex 18.6 9.6 0
      vertex 19.6981 8.1 0
    endloop
  endfacet
  facet normal -0 0 1
    outer loop
      vertex 18.399 8.85 0
      vertex 19.6981 8.1 0
      vertex 18.6 9.6 0
    endloop
  endfacet
  facet normal 0 0 1
    outer loop
      vertex 19.6981 8.1 0
      vertex 18.399 8.85 0
      vertex 18.6 7.00192 0
    endloop
  endfacet
  facet normal -0 0 1
    outer loop
      vertex 17.85 8.30096 0
      vertex 18.6 7.00192 0
      vertex 18.399 8.85 0
    endloop
  endfacet
  facet normal -0 0 1
    outer loop
      vertex 17.1 8.1 0
      vertex 18.6 7.00192 0
      vertex 17.85 8.30096 0
    endloop
  endfacet
  facet normal 0 0 1
    outer loop
      vertex 17.1 8.1 0
      vertex 17.1 6.6 0
      vertex 18.6 7.00192 0
    endloop
  endfacet
  facet normal 0 0 1
    outer loop
      vertex 16.35 8.30096 0
      vertex 17.1 6.6 0
      vertex 17.1 8.1 0
    endloop
  endfacet
  facet normal 0 0 1
    outer loop
      vertex 14.1 6.6 0
      vertex 16.35 8.30096 0
      vertex 15.801 8.85 0
    endloop
  endfacet
  facet normal 0 0 1
    outer loop
      vertex 16.35 8.30096 0
      vertex 14.1 6.6 0
      vertex 17.1 6.6 0
    endloop
  endfacet
  facet normal 0 0 1
    outer loop
      vertex 14.1 6.6 0
      vertex 15.801 8.85 0
      vertex 15.6 9.6 0
    endloop
  endfacet
  facet normal 0 0 1
    outer loop
      vertex 19.6981 -8.1 0
      vertex 18.399 -8.85 0
      vertex 18.6 -9.6 0
    endloop
  endfacet
  facet normal 0 0 1
    outer loop
      vertex 18.6 -7.00192 0
      vertex 17.85 -8.30096 0
      vertex 18.399 -8.85 0
    endloop
  endfacet
  facet normal 0 0 1
    outer loop
      vertex 17.1 -6.6 0
      vertex 17.85 -8.30096 0
      vertex 18.6 -7.00192 0
    endloop
  endfacet
  facet normal 0 0 1
    outer loop
      vertex 17.1 -6.6 0
      vertex 17.1 -8.1 0
      vertex 17.85 -8.30096 0
    endloop
  endfacet
  facet normal 0 0 1
    outer loop
      vertex 17.1 -6.6 0
      vertex 16.35 -8.30096 0
      vertex 17.1 -8.1 0
    endloop
  endfacet
  facet normal -0 0 1
    outer loop
      vertex 14.1 -6.6 0
      vertex 16.35 -8.30096 0
      vertex 17.1 -6.6 0
    endloop
  endfacet
  facet normal 0 0 1
    outer loop
      vertex 13.1 -10.1 0
      vertex 15.801 -8.85 0
      vertex 14.1 -6.6 0
    endloop
  endfacet
  facet normal 0 0 1
    outer loop
      vertex 16.35 -8.30096 0
      vertex 14.1 -6.6 0
      vertex 15.801 -8.85 0
    endloop
  endfacet
  facet normal 0 0 1
    outer loop
      vertex 18.6 -9.6 0
      vertex 20.1 -9.6 0
      vertex 19.6981 -8.1 0
    endloop
  endfacet
  facet normal 0 0 1
    outer loop
      vertex 18.399 -8.85 0
      vertex 19.6981 -8.1 0
      vertex 18.6 -7.00192 0
    endloop
  endfacet
  facet normal 0 0 1
    outer loop
      vertex 20.1 -9.6 0
      vertex 18.6 -9.6 0
      vertex 19.6981 -11.1 0
    endloop
  endfacet
  facet normal -0 0 1
    outer loop
      vertex 18.399 -10.35 0
      vertex 19.6981 -11.1 0
      vertex 18.6 -9.6 0
    endloop
  endfacet
  facet normal 0 0 1
    outer loop
      vertex 19.6981 -11.1 0
      vertex 18.399 -10.35 0
      vertex 18.6 -12.1981 0
    endloop
  endfacet
  facet normal -0 0 1
    outer loop
      vertex 17.85 -10.899 0
      vertex 18.6 -12.1981 0
      vertex 18.399 -10.35 0
    endloop
  endfacet
  facet normal -0 0 1
    outer loop
      vertex 17.1 -11.1 0
      vertex 18.6 -12.1981 0
      vertex 17.85 -10.899 0
    endloop
  endfacet
  facet normal 0 0 1
    outer loop
      vertex 17.1 -11.1 0
      vertex 17.1 -12.6 0
      vertex 18.6 -12.1981 0
    endloop
  endfacet
  facet normal 0 0 1
    outer loop
      vertex 16.35 -10.899 0
      vertex 17.1 -12.6 0
      vertex 17.1 -11.1 0
    endloop
  endfacet
  facet normal -0 0 1
    outer loop
      vertex 12.85 -10.533 0
      vertex 16.35 -10.899 0
      vertex 15.801 -10.35 0
    endloop
  endfacet
  facet normal 0 0 1
    outer loop
      vertex 15.801 -8.85 0
      vertex 13.1 -10.1 0
      vertex 15.6 -9.6 0
    endloop
  endfacet
  facet normal 0 0 1
    outer loop
      vertex 13.1 -10.1 0
      vertex 14.1 -6.6 0
      vertex 13.1 10.1 0
    endloop
  endfacet
  facet normal 0 0 1
    outer loop
      vertex 15.6 -9.6 0
      vertex 13.1 -10.1 0
      vertex 15.801 -10.35 0
    endloop
  endfacet
  facet normal 0 0 1
    outer loop
      vertex 13.033 -10.35 0
      vertex 15.801 -10.35 0
      vertex 13.1 -10.1 0
    endloop
  endfacet
  facet normal 0 0 1
    outer loop
      vertex 12.85 -10.533 0
      vertex 15.801 -10.35 0
      vertex 13.033 -10.35 0
    endloop
  endfacet
  facet normal 0 0 1
    outer loop
      vertex 16.35 -10.899 0
      vertex 12.85 -10.533 0
      vertex 17.1 -12.6 0
    endloop
  endfacet
  facet normal -0 0 1
    outer loop
      vertex 12.6 -10.6 0
      vertex 17.1 -12.6 0
      vertex 12.85 -10.533 0
    endloop
  endfacet
  facet normal 0 0 1
    outer loop
      vertex 6.47321 -12.6 0
      vertex 12.6 -10.6 0
      vertex 6.47321 -10.6 0
    endloop
  endfacet
  facet normal 0 0 1
    outer loop
      vertex 12.6 -10.6 0
      vertex 6.47321 -12.6 0
      vertex 17.1 -12.6 0
    endloop
  endfacet
  facet normal 0.96593 -0.258805 0
    outer loop
      vertex 19.6981 8.1 0
      vertex 20.1 9.6 -4
      vertex 20.1 9.6 0
    endloop
  endfacet
  facet normal 0.96593 -0.258805 0
    outer loop
      vertex 20.1 9.6 -4
      vertex 19.6981 8.1 0
      vertex 19.6981 8.1 -4
    endloop
  endfacet
  facet normal 0.258805 0.96593 -0
    outer loop
      vertex 18.6 12.1981 -4
      vertex 17.1 12.6 0
      vertex 18.6 12.1981 0
    endloop
  endfacet
  facet normal 0.258805 0.96593 0
    outer loop
      vertex 17.1 12.6 0
      vertex 18.6 12.1981 -4
      vertex 17.1 12.6 -4
    endloop
  endfacet
  facet normal 0.96593 0.258805 0
    outer loop
      vertex 20.1 9.6 0
      vertex 19.6981 11.1 -4
      vertex 19.6981 11.1 0
    endloop
  endfacet
  facet normal 0.96593 0.258805 0
    outer loop
      vertex 19.6981 11.1 -4
      vertex 20.1 9.6 0
      vertex 20.1 9.6 -4
    endloop
  endfacet
  facet normal 0.707107 0.707107 0
    outer loop
      vertex 19.6981 11.1 0
      vertex 18.6 12.1981 -4
      vertex 18.6 12.1981 0
    endloop
  endfacet
  facet normal 0.707107 0.707107 0
    outer loop
      vertex 18.6 12.1981 -4
      vertex 19.6981 11.1 0
      vertex 19.6981 11.1 -4
    endloop
  endfacet
  facet normal 0.258817 -0.965926 0
    outer loop
      vertex 17.1 6.6 -4
      vertex 18.6 7.00192 0
      vertex 17.1 6.6 0
    endloop
  endfacet
  facet normal 0.258817 -0.965926 0
    outer loop
      vertex 18.6 7.00192 0
      vertex 17.1 6.6 -4
      vertex 18.6 7.00192 -4
    endloop
  endfacet
  facet normal 0.7071 -0.707113 0
    outer loop
      vertex 18.6 7.00192 0
      vertex 19.6981 8.1 -4
      vertex 19.6981 8.1 0
    endloop
  endfacet
  facet normal 0.7071 -0.707113 0
    outer loop
      vertex 19.6981 8.1 -4
      vertex 18.6 7.00192 0
      vertex 18.6 7.00192 -4
    endloop
  endfacet
  facet normal -0.258817 -0.965926 0
    outer loop
      vertex -18.6 7.00192 -4
      vertex -17.1 6.6 0
      vertex -18.6 7.00192 0
    endloop
  endfacet
  facet normal -0.258817 -0.965926 -0
    outer loop
      vertex -17.1 6.6 0
      vertex -18.6 7.00192 -4
      vertex -17.1 6.6 -4
    endloop
  endfacet
  facet normal -0.7071 -0.707113 0
    outer loop
      vertex -18.6 7.00192 -4
      vertex -19.6981 8.1 0
      vertex -19.6981 8.1 -4
    endloop
  endfacet
  facet normal -0.7071 -0.707113 0
    outer loop
      vertex -19.6981 8.1 0
      vertex -18.6 7.00192 -4
      vertex -18.6 7.00192 0
    endloop
  endfacet
  facet normal 0.258817 -0.965926 0
    outer loop
      vertex -17.85 -8.30096 -4
      vertex -17.1 -8.1 0
      vertex -17.85 -8.30096 0
    endloop
  endfacet
  facet normal 0.258817 -0.965926 0
    outer loop
      vertex -17.1 -8.1 0
      vertex -17.85 -8.30096 -4
      vertex -17.1 -8.1 -4
    endloop
  endfacet
  facet normal 0.258865 0.965914 -0
    outer loop
      vertex -17.1 -11.1 -4
      vertex -17.85 -10.899 0
      vertex -17.1 -11.1 0
    endloop
  endfacet
  facet normal 0.258865 0.965914 0
    outer loop
      vertex -17.85 -10.899 0
      vertex -17.1 -11.1 -4
      vertex -17.85 -10.899 -4
    endloop
  endfacet
  facet normal 0.965914 -0.258865 0
    outer loop
      vertex -18.6 -9.6 0
      vertex -18.399 -8.85 -4
      vertex -18.399 -8.85 0
    endloop
  endfacet
  facet normal 0.965914 -0.258865 0
    outer loop
      vertex -18.399 -8.85 -4
      vertex -18.6 -9.6 0
      vertex -18.6 -9.6 -4
    endloop
  endfacet
  facet normal 0.707133 -0.707081 0
    outer loop
      vertex -18.399 -8.85 0
      vertex -17.85 -8.30096 -4
      vertex -17.85 -8.30096 0
    endloop
  endfacet
  facet normal 0.707133 -0.707081 0
    outer loop
      vertex -17.85 -8.30096 -4
      vertex -18.399 -8.85 0
      vertex -18.399 -8.85 -4
    endloop
  endfacet
  facet normal 0.965914 0.258865 0
    outer loop
      vertex -18.399 -10.35 0
      vertex -18.6 -9.6 -4
      vertex -18.6 -9.6 0
    endloop
  endfacet
  facet normal 0.965914 0.258865 0
    outer loop
      vertex -18.6 -9.6 -4
      vertex -18.399 -10.35 0
      vertex -18.399 -10.35 -4
    endloop
  endfacet
  facet normal -0.965914 -0.258865 0
    outer loop
      vertex -15.6 -9.6 -4
      vertex -15.801 -8.85 0
      vertex -15.801 -8.85 -4
    endloop
  endfacet
  facet normal -0.965914 -0.258865 0
    outer loop
      vertex -15.801 -8.85 0
      vertex -15.6 -9.6 -4
      vertex -15.6 -9.6 0
    endloop
  endfacet
  facet normal -0.965914 0.258865 0
    outer loop
      vertex -15.801 -10.35 -4
      vertex -15.6 -9.6 0
      vertex -15.6 -9.6 -4
    endloop
  endfacet
  facet normal -0.965914 0.258865 0
    outer loop
      vertex -15.6 -9.6 0
      vertex -15.801 -10.35 -4
      vertex -15.801 -10.35 0
    endloop
  endfacet
  facet normal -0.258865 0.965914 0
    outer loop
      vertex -16.35 -10.899 -4
      vertex -17.1 -11.1 0
      vertex -16.35 -10.899 0
    endloop
  endfacet
  facet normal -0.258865 0.965914 0
    outer loop
      vertex -17.1 -11.1 0
      vertex -16.35 -10.899 -4
      vertex -17.1 -11.1 -4
    endloop
  endfacet
  facet normal -0.707107 0.707107 0
    outer loop
      vertex -16.35 -10.899 -4
      vertex -15.801 -10.35 0
      vertex -15.801 -10.35 -4
    endloop
  endfacet
  facet normal -0.707107 0.707107 0
    outer loop
      vertex -15.801 -10.35 0
      vertex -16.35 -10.899 -4
      vertex -16.35 -10.899 0
    endloop
  endfacet
  facet normal 0.707107 0.707107 0
    outer loop
      vertex -17.85 -10.899 0
      vertex -18.399 -10.35 -4
      vertex -18.399 -10.35 0
    endloop
  endfacet
  facet normal 0.707107 0.707107 0
    outer loop
      vertex -18.399 -10.35 -4
      vertex -17.85 -10.899 0
      vertex -17.85 -10.899 -4
    endloop
  endfacet
  facet normal -0.707133 -0.707081 0
    outer loop
      vertex -15.801 -8.85 -4
      vertex -16.35 -8.30096 0
      vertex -16.35 -8.30096 -4
    endloop
  endfacet
  facet normal -0.707133 -0.707081 0
    outer loop
      vertex -16.35 -8.30096 0
      vertex -15.801 -8.85 -4
      vertex -15.801 -8.85 0
    endloop
  endfacet
  facet normal -0.258817 -0.965926 0
    outer loop
      vertex -17.1 -8.1 -4
      vertex -16.35 -8.30096 0
      vertex -17.1 -8.1 0
    endloop
  endfacet
  facet normal -0.258817 -0.965926 -0
    outer loop
      vertex -16.35 -8.30096 0
      vertex -17.1 -8.1 -4
      vertex -16.35 -8.30096 -4
    endloop
  endfacet
  facet normal 0.258817 -0.965926 0
    outer loop
      vertex 16.35 -8.30096 -4
      vertex 17.1 -8.1 0
      vertex 16.35 -8.30096 0
    endloop
  endfacet
  facet normal 0.258817 -0.965926 0
    outer loop
      vertex 17.1 -8.1 0
      vertex 16.35 -8.30096 -4
      vertex 17.1 -8.1 -4
    endloop
  endfacet
  facet normal 0.258865 0.965914 -0
    outer loop
      vertex 17.1 -11.1 -4
      vertex 16.35 -10.899 0
      vertex 17.1 -11.1 0
    endloop
  endfacet
  facet normal 0.258865 0.965914 0
    outer loop
      vertex 16.35 -10.899 0
      vertex 17.1 -11.1 -4
      vertex 16.35 -10.899 -4
    endloop
  endfacet
  facet normal 0.965914 -0.258865 0
    outer loop
      vertex 15.6 -9.6 0
      vertex 15.801 -8.85 -4
      vertex 15.801 -8.85 0
    endloop
  endfacet
  facet normal 0.965914 -0.258865 0
    outer loop
      vertex 15.801 -8.85 -4
      vertex 15.6 -9.6 0
      vertex 15.6 -9.6 -4
    endloop
  endfacet
  facet normal 0.707133 -0.707081 0
    outer loop
      vertex 15.801 -8.85 0
      vertex 16.35 -8.30096 -4
      vertex 16.35 -8.30096 0
    endloop
  endfacet
  facet normal 0.707133 -0.707081 0
    outer loop
      vertex 16.35 -8.30096 -4
      vertex 15.801 -8.85 0
      vertex 15.801 -8.85 -4
    endloop
  endfacet
  facet normal 0.965914 0.258865 0
    outer loop
      vertex 15.801 -10.35 0
      vertex 15.6 -9.6 -4
      vertex 15.6 -9.6 0
    endloop
  endfacet
  facet normal 0.965914 0.258865 0
    outer loop
      vertex 15.6 -9.6 -4
      vertex 15.801 -10.35 0
      vertex 15.801 -10.35 -4
    endloop
  endfacet
  facet normal -0.965914 -0.258865 0
    outer loop
      vertex 18.6 -9.6 -4
      vertex 18.399 -8.85 0
      vertex 18.399 -8.85 -4
    endloop
  endfacet
  facet normal -0.965914 -0.258865 0
    outer loop
      vertex 18.399 -8.85 0
      vertex 18.6 -9.6 -4
      vertex 18.6 -9.6 0
    endloop
  endfacet
  facet normal -0.965914 0.258865 0
    outer loop
      vertex 18.399 -10.35 -4
      vertex 18.6 -9.6 0
      vertex 18.6 -9.6 -4
    endloop
  endfacet
  facet normal -0.965914 0.258865 0
    outer loop
      vertex 18.6 -9.6 0
      vertex 18.399 -10.35 -4
      vertex 18.399 -10.35 0
    endloop
  endfacet
  facet normal -0.258865 0.965914 0
    outer loop
      vertex 17.85 -10.899 -4
      vertex 17.1 -11.1 0
      vertex 17.85 -10.899 0
    endloop
  endfacet
  facet normal -0.258865 0.965914 0
    outer loop
      vertex 17.1 -11.1 0
      vertex 17.85 -10.899 -4
      vertex 17.1 -11.1 -4
    endloop
  endfacet
  facet normal 0.707107 0.707107 0
    outer loop
      vertex 16.35 -10.899 0
      vertex 15.801 -10.35 -4
      vertex 15.801 -10.35 0
    endloop
  endfacet
  facet normal 0.707107 0.707107 0
    outer loop
      vertex 15.801 -10.35 -4
      vertex 16.35 -10.899 0
      vertex 16.35 -10.899 -4
    endloop
  endfacet
  facet normal -0.707107 0.707107 0
    outer loop
      vertex 17.85 -10.899 -4
      vertex 18.399 -10.35 0
      vertex 18.399 -10.35 -4
    endloop
  endfacet
  facet normal -0.707107 0.707107 0
    outer loop
      vertex 18.399 -10.35 0
      vertex 17.85 -10.899 -4
      vertex 17.85 -10.899 0
    endloop
  endfacet
  facet normal -0.707133 -0.707081 0
    outer loop
      vertex 18.399 -8.85 -4
      vertex 17.85 -8.30096 0
      vertex 17.85 -8.30096 -4
    endloop
  endfacet
  facet normal -0.707133 -0.707081 0
    outer loop
      vertex 17.85 -8.30096 0
      vertex 18.399 -8.85 -4
      vertex 18.399 -8.85 0
    endloop
  endfacet
  facet normal -0.258817 -0.965926 0
    outer loop
      vertex 17.1 -8.1 -4
      vertex 17.85 -8.30096 0
      vertex 17.1 -8.1 0
    endloop
  endfacet
  facet normal -0.258817 -0.965926 -0
    outer loop
      vertex 17.85 -8.30096 0
      vertex 17.1 -8.1 -4
      vertex 17.85 -8.30096 -4
    endloop
  endfacet
  facet normal -0.258817 0.965926 0
    outer loop
      vertex -17.1 -6.6 -4
      vertex -18.6 -7.00192 0
      vertex -17.1 -6.6 0
    endloop
  endfacet
  facet normal -0.258817 0.965926 0
    outer loop
      vertex -18.6 -7.00192 0
      vertex -17.1 -6.6 -4
      vertex -18.6 -7.00192 -4
    endloop
  endfacet
  facet normal -0.7071 0.707113 0
    outer loop
      vertex -19.6981 -8.1 -4
      vertex -18.6 -7.00192 0
      vertex -18.6 -7.00192 -4
    endloop
  endfacet
  facet normal -0.7071 0.707113 0
    outer loop
      vertex -18.6 -7.00192 0
      vertex -19.6981 -8.1 -4
      vertex -19.6981 -8.1 0
    endloop
  endfacet
  facet normal 0 -1 0
    outer loop
      vertex -17.1 -12.6 -4
      vertex -4.47321 -12.6 0
      vertex -17.1 -12.6 0
    endloop
  endfacet
  facet normal 0 -1 -0
    outer loop
      vertex -4.47321 -12.6 0
      vertex -17.1 -12.6 -4
      vertex -4.23205 -12.6 -0.900001
    endloop
  endfacet
  facet normal 0 -1 -0
    outer loop
      vertex -4.23205 -12.6 -0.900001
      vertex -17.1 -12.6 -4
      vertex -3.5 -12.6 -1.63205
    endloop
  endfacet
  facet normal 0 -1 0
    outer loop
      vertex 17.1 -12.6 -4
      vertex -2.5 -12.6 -1.9
      vertex -17.1 -12.6 -4
    endloop
  endfacet
  facet normal 0 -1 -0
    outer loop
      vertex -3.5 -12.6 -1.63205
      vertex -17.1 -12.6 -4
      vertex -2.5 -12.6 -1.9
    endloop
  endfacet
  facet normal 0 -1 0
    outer loop
      vertex 6.23205 -12.6 -0.900001
      vertex 17.1 -12.6 0
      vertex 6.47321 -12.6 0
    endloop
  endfacet
  facet normal 0 -1 0
    outer loop
      vertex 17.1 -12.6 -4
      vertex 6.23205 -12.6 -0.900001
      vertex 5.5 -12.6 -1.63205
    endloop
  endfacet
  facet normal 0 -1 0
    outer loop
      vertex 17.1 -12.6 -4
      vertex 5.5 -12.6 -1.63205
      vertex 4.5 -12.6 -1.9
    endloop
  endfacet
  facet normal 0 -1 0
    outer loop
      vertex 6.23205 -12.6 -0.900001
      vertex 17.1 -12.6 -4
      vertex 17.1 -12.6 0
    endloop
  endfacet
  facet normal 0 -1 0
    outer loop
      vertex -2.5 -12.6 -1.9
      vertex 17.1 -12.6 -4
      vertex 4.5 -12.6 -1.9
    endloop
  endfacet
  facet normal -0.96593 0.258805 0
    outer loop
      vertex -20.1 -9.6 -4
      vertex -19.6981 -8.1 0
      vertex -19.6981 -8.1 -4
    endloop
  endfacet
  facet normal -0.96593 0.258805 0
    outer loop
      vertex -19.6981 -8.1 0
      vertex -20.1 -9.6 -4
      vertex -20.1 -9.6 0
    endloop
  endfacet
  facet normal 0 1 -0
    outer loop
      vertex -14.1 -6.6 -4
      vertex -17.1 -6.6 0
      vertex -14.1 -6.6 0
    endloop
  endfacet
  facet normal 0 1 0
    outer loop
      vertex -17.1 -6.6 0
      vertex -14.1 -6.6 -4
      vertex -17.1 -6.6 -4
    endloop
  endfacet
  facet normal 0 1 -0
    outer loop
      vertex 17.1 -6.6 -4
      vertex 14.1 -6.6 0
      vertex 17.1 -6.6 0
    endloop
  endfacet
  facet normal 0 1 0
    outer loop
      vertex 14.1 -6.6 0
      vertex 17.1 -6.6 -4
      vertex 14.1 -6.6 -4
    endloop
  endfacet
  facet normal -0.96593 -0.258805 0
    outer loop
      vertex -19.6981 -11.1 -4
      vertex -20.1 -9.6 0
      vertex -20.1 -9.6 -4
    endloop
  endfacet
  facet normal -0.96593 -0.258805 0
    outer loop
      vertex -20.1 -9.6 0
      vertex -19.6981 -11.1 -4
      vertex -19.6981 -11.1 0
    endloop
  endfacet
  facet normal 0.96593 -0.258805 0
    outer loop
      vertex 19.6981 -11.1 0
      vertex 20.1 -9.6 -4
      vertex 20.1 -9.6 0
    endloop
  endfacet
  facet normal 0.96593 -0.258805 0
    outer loop
      vertex 20.1 -9.6 -4
      vertex 19.6981 -11.1 0
      vertex 19.6981 -11.1 -4
    endloop
  endfacet
  facet normal 0.258817 0.965926 -0
    outer loop
      vertex 18.6 -7.00192 -4
      vertex 17.1 -6.6 0
      vertex 18.6 -7.00192 0
    endloop
  endfacet
  facet normal 0.258817 0.965926 0
    outer loop
      vertex 17.1 -6.6 0
      vertex 18.6 -7.00192 -4
      vertex 17.1 -6.6 -4
    endloop
  endfacet
  facet normal 0.96593 0.258805 0
    outer loop
      vertex 20.1 -9.6 0
      vertex 19.6981 -8.1 -4
      vertex 19.6981 -8.1 0
    endloop
  endfacet
  facet normal 0.96593 0.258805 0
    outer loop
      vertex 19.6981 -8.1 -4
      vertex 20.1 -9.6 0
      vertex 20.1 -9.6 -4
    endloop
  endfacet
  facet normal 0.7071 0.707113 0
    outer loop
      vertex 19.6981 -8.1 0
      vertex 18.6 -7.00192 -4
      vertex 18.6 -7.00192 0
    endloop
  endfacet
  facet normal 0.7071 0.707113 0
    outer loop
      vertex 18.6 -7.00192 -4
      vertex 19.6981 -8.1 0
      vertex 19.6981 -8.1 -4
    endloop
  endfacet
  facet normal 0.258805 -0.96593 0
    outer loop
      vertex 17.1 -12.6 -4
      vertex 18.6 -12.1981 0
      vertex 17.1 -12.6 0
    endloop
  endfacet
  facet normal 0.258805 -0.96593 0
    outer loop
      vertex 18.6 -12.1981 0
      vertex 17.1 -12.6 -4
      vertex 18.6 -12.1981 -4
    endloop
  endfacet
  facet normal 0.707107 -0.707107 0
    outer loop
      vertex 18.6 -12.1981 0
      vertex 19.6981 -11.1 -4
      vertex 19.6981 -11.1 0
    endloop
  endfacet
  facet normal 0.707107 -0.707107 0
    outer loop
      vertex 19.6981 -11.1 -4
      vertex 18.6 -12.1981 0
      vertex 18.6 -12.1981 -4
    endloop
  endfacet
  facet normal -0.258805 -0.96593 0
    outer loop
      vertex -18.6 -12.1981 -4
      vertex -17.1 -12.6 0
      vertex -18.6 -12.1981 0
    endloop
  endfacet
  facet normal -0.258805 -0.96593 -0
    outer loop
      vertex -17.1 -12.6 0
      vertex -18.6 -12.1981 -4
      vertex -17.1 -12.6 -4
    endloop
  endfacet
  facet normal -0.707107 -0.707107 0
    outer loop
      vertex -18.6 -12.1981 -4
      vertex -19.6981 -11.1 0
      vertex -19.6981 -11.1 -4
    endloop
  endfacet
  facet normal -0.707107 -0.707107 0
    outer loop
      vertex -19.6981 -11.1 0
      vertex -18.6 -12.1981 -4
      vertex -18.6 -12.1981 0
    endloop
  endfacet
  facet normal -1 0 0
    outer loop
      vertex -14.1 -6.6 -4
      vertex -14.1 6.6 0
      vertex -14.1 6.6 -4
    endloop
  endfacet
  facet normal -1 -0 0
    outer loop
      vertex -14.1 6.6 0
      vertex -14.1 -6.6 -4
      vertex -14.1 -6.6 0
    endloop
  endfacet
  facet normal 1 -0 0
    outer loop
      vertex 14.1 -6.6 0
      vertex 14.1 6.6 -4
      vertex 14.1 6.6 0
    endloop
  endfacet
  facet normal 1 0 0
    outer loop
      vertex 14.1 6.6 -4
      vertex 14.1 -6.6 0
      vertex 14.1 -6.6 -4
    endloop
  endfacet
  facet normal -0.965914 -0.258865 0
    outer loop
      vertex 11.85 -8.1 -4
      vertex 11.6825 -7.475 -1.9
      vertex 11.6825 -7.475 -4
    endloop
  endfacet
  facet normal -0.965914 -0.258865 0
    outer loop
      vertex 11.6825 -7.475 -1.9
      vertex 11.85 -8.1 -4
      vertex 11.85 -8.1 -1.9
    endloop
  endfacet
  facet normal 0.965925 -0.258822 0
    outer loop
      vertex 9.35 -8.1 -1.9
      vertex 9.51747 -7.475 -4
      vertex 9.51747 -7.475 -1.9
    endloop
  endfacet
  facet normal 0.965925 -0.258822 0
    outer loop
      vertex 9.51747 -7.475 -4
      vertex 9.35 -8.1 -1.9
      vertex 9.35 -8.1 -4
    endloop
  endfacet
  facet normal 0.258822 -0.965925 0
    outer loop
      vertex 9.975 -7.01747 -4
      vertex 10.6 -6.85 -1.9
      vertex 9.975 -7.01747 -1.9
    endloop
  endfacet
  facet normal 0.258822 -0.965925 0
    outer loop
      vertex 10.6 -6.85 -1.9
      vertex 9.975 -7.01747 -4
      vertex 10.6 -6.85 -4
    endloop
  endfacet
  facet normal -0.70713 -0.707084 0
    outer loop
      vertex 11.6825 -7.475 -4
      vertex 11.225 -7.01747 -1.9
      vertex 11.225 -7.01747 -4
    endloop
  endfacet
  facet normal -0.70713 -0.707084 0
    outer loop
      vertex 11.225 -7.01747 -1.9
      vertex 11.6825 -7.475 -4
      vertex 11.6825 -7.475 -1.9
    endloop
  endfacet
  facet normal 0.707107 -0.707107 0
    outer loop
      vertex 9.51747 -7.475 -1.9
      vertex 9.975 -7.01747 -4
      vertex 9.975 -7.01747 -1.9
    endloop
  endfacet
  facet normal 0.707107 -0.707107 0
    outer loop
      vertex 9.975 -7.01747 -4
      vertex 9.51747 -7.475 -1.9
      vertex 9.51747 -7.475 -4
    endloop
  endfacet
  facet normal -0.258822 0.965925 0
    outer loop
      vertex 11.225 -9.18253 -4
      vertex 10.6 -9.35 -1.9
      vertex 11.225 -9.18253 -1.9
    endloop
  endfacet
  facet normal -0.258822 0.965925 0
    outer loop
      vertex 10.6 -9.35 -1.9
      vertex 11.225 -9.18253 -4
      vertex 10.6 -9.35 -4
    endloop
  endfacet
  facet normal -0.70713 0.707084 0
    outer loop
      vertex 11.225 -9.18253 -4
      vertex 11.6825 -8.725 -1.9
      vertex 11.6825 -8.725 -4
    endloop
  endfacet
  facet normal -0.70713 0.707084 0
    outer loop
      vertex 11.6825 -8.725 -1.9
      vertex 11.225 -9.18253 -4
      vertex 11.225 -9.18253 -1.9
    endloop
  endfacet
  facet normal -0.258822 -0.965925 0
    outer loop
      vertex 10.6 -6.85 -4
      vertex 11.225 -7.01747 -1.9
      vertex 10.6 -6.85 -1.9
    endloop
  endfacet
  facet normal -0.258822 -0.965925 -0
    outer loop
      vertex 11.225 -7.01747 -1.9
      vertex 10.6 -6.85 -4
      vertex 11.225 -7.01747 -4
    endloop
  endfacet
  facet normal -0.965914 0.258865 0
    outer loop
      vertex 11.6825 -8.725 -4
      vertex 11.85 -8.1 -1.9
      vertex 11.85 -8.1 -4
    endloop
  endfacet
  facet normal -0.965914 0.258865 0
    outer loop
      vertex 11.85 -8.1 -1.9
      vertex 11.6825 -8.725 -4
      vertex 11.6825 -8.725 -1.9
    endloop
  endfacet
  facet normal 0.258822 0.965925 -0
    outer loop
      vertex 10.6 -9.35 -4
      vertex 9.975 -9.18253 -1.9
      vertex 10.6 -9.35 -1.9
    endloop
  endfacet
  facet normal 0.258822 0.965925 0
    outer loop
      vertex 9.975 -9.18253 -1.9
      vertex 10.6 -9.35 -4
      vertex 9.975 -9.18253 -4
    endloop
  endfacet
  facet normal 0.707107 0.707107 0
    outer loop
      vertex 9.975 -9.18253 -1.9
      vertex 9.51747 -8.725 -4
      vertex 9.51747 -8.725 -1.9
    endloop
  endfacet
  facet normal 0.707107 0.707107 0
    outer loop
      vertex 9.51747 -8.725 -4
      vertex 9.975 -9.18253 -1.9
      vertex 9.975 -9.18253 -4
    endloop
  endfacet
  facet normal 0.965925 0.258822 0
    outer loop
      vertex 9.51747 -8.725 -1.9
      vertex 9.35 -8.1 -4
      vertex 9.35 -8.1 -1.9
    endloop
  endfacet
  facet normal 0.965925 0.258822 0
    outer loop
      vertex 9.35 -8.1 -4
      vertex 9.51747 -8.725 -1.9
      vertex 9.51747 -8.725 -4
    endloop
  endfacet
  facet normal -0.965914 -0.258865 0
    outer loop
      vertex 13.1 10.1 -1.9
      vertex 13.033 10.35 0
      vertex 13.033 10.35 -1.9
    endloop
  endfacet
  facet normal -0.965914 -0.258865 0
    outer loop
      vertex 13.033 10.35 0
      vertex 13.1 10.1 -1.9
      vertex 13.1 10.1 0
    endloop
  endfacet
  facet normal -0.707107 -0.707107 0
    outer loop
      vertex 13.033 10.35 -1.9
      vertex 12.85 10.533 0
      vertex 12.85 10.533 -1.9
    endloop
  endfacet
  facet normal -0.707107 -0.707107 0
    outer loop
      vertex 12.85 10.533 0
      vertex 13.033 10.35 -1.9
      vertex 13.033 10.35 0
    endloop
  endfacet
  facet normal 1 0 0
    outer loop
      vertex -13.1 10.1 0
      vertex -13.1 9.1 -1.9
      vertex -13.1 10.1 -1.9
    endloop
  endfacet
  facet normal 1 0 0
    outer loop
      vertex -13.1 9.1 -1.9
      vertex -13.1 -7.1 -1.9
      vertex -13.1 9.1 -4
    endloop
  endfacet
  facet normal 1 0 0
    outer loop
      vertex -13.1 10.1 0
      vertex -13.1 -7.1 -1.9
      vertex -13.1 9.1 -1.9
    endloop
  endfacet
  facet normal 1 -0 0
    outer loop
      vertex -13.1 -10.1 0
      vertex -13.1 -7.1 -1.9
      vertex -13.1 10.1 0
    endloop
  endfacet
  facet normal 1 0 0
    outer loop
      vertex -13.1 -7.1 -1.9
      vertex -13.1 -10.1 0
      vertex -13.1 -10.1 -1.9
    endloop
  endfacet
  facet normal 1 0 0
    outer loop
      vertex -13.1 9.1 -4
      vertex -13.1 -7.1 -1.9
      vertex -13.1 -7.1 -4
    endloop
  endfacet
  facet normal 0 0 1
    outer loop
      vertex 7.6 12.6 -1.9
      vertex 4.6 12.6 -1.9
      vertex 7.6 10.6 -1.9
    endloop
  endfacet
  facet normal 0 0 1
    outer loop
      vertex 4.5 -12.6 -1.9
      vertex -2.5 -10.6 -1.9
      vertex -2.5 -12.6 -1.9
    endloop
  endfacet
  facet normal 0 0 1
    outer loop
      vertex 12.6 10.6 -1.9
      vertex 13.1 10.1 -1.9
      vertex 13.033 10.35 -1.9
    endloop
  endfacet
  facet normal 0 0 1
    outer loop
      vertex 13.1 10.1 -1.9
      vertex 11.1 -2.1 -1.9
      vertex 13.1 -10.1 -1.9
    endloop
  endfacet
  facet normal 0 0 1
    outer loop
      vertex 12.6 10.6 -1.9
      vertex 13.033 10.35 -1.9
      vertex 12.85 10.533 -1.9
    endloop
  endfacet
  facet normal -0 -0 1
    outer loop
      vertex 11.6825 -7.475 -1.9
      vertex 13.1 -10.1 -1.9
      vertex 11.1 -2.1 -1.9
    endloop
  endfacet
  facet normal 0 0 1
    outer loop
      vertex 13.1 10.1 -1.9
      vertex 12.6 10.6 -1.9
      vertex 10.899 8.85 -1.9
    endloop
  endfacet
  facet normal -0 -0 1
    outer loop
      vertex 11.85 -8.1 -1.9
      vertex 13.1 -10.1 -1.9
      vertex 11.6825 -7.475 -1.9
    endloop
  endfacet
  facet normal -0 0 1
    outer loop
      vertex 11.6825 -8.725 -1.9
      vertex 13.1 -10.1 -1.9
      vertex 11.85 -8.1 -1.9
    endloop
  endfacet
  facet normal 0 0 1
    outer loop
      vertex 13.1 -10.1 -1.9
      vertex 12.6 -10.6 -1.9
      vertex 13.033 -10.35 -1.9
    endloop
  endfacet
  facet normal 0 -0 1
    outer loop
      vertex 12.6 -10.6 -1.9
      vertex 13.1 -10.1 -1.9
      vertex 11.6825 -8.725 -1.9
    endloop
  endfacet
  facet normal 0 0 1
    outer loop
      vertex 13.1 10.1 -1.9
      vertex 11.1 8.1 -1.9
      vertex 11.1 -2.1 -1.9
    endloop
  endfacet
  facet normal 0 0 1
    outer loop
      vertex 13.1 10.1 -1.9
      vertex 10.899 8.85 -1.9
      vertex 11.1 8.1 -1.9
    endloop
  endfacet
  facet normal 0 0 1
    outer loop
      vertex 12.6 10.6 -1.9
      vertex 10.35 9.39904 -1.9
      vertex 10.899 8.85 -1.9
    endloop
  endfacet
  facet normal 0 0 1
    outer loop
      vertex 12.6 10.6 -1.9
      vertex 9.6 9.6 -1.9
      vertex 10.35 9.39904 -1.9
    endloop
  endfacet
  facet normal -0 0 1
    outer loop
      vertex 7.6 10.6 -1.9
      vertex 9.6 9.6 -1.9
      vertex 12.6 10.6 -1.9
    endloop
  endfacet
  facet normal 0 0 1
    outer loop
      vertex 4.6 10.6 -1.9
      vertex 7.6 10.6 -1.9
      vertex 4.6 12.6 -1.9
    endloop
  endfacet
  facet normal -0 0 1
    outer loop
      vertex 4.6 10.6 -1.9
      vertex 9.6 9.6 -1.9
      vertex 7.6 10.6 -1.9
    endloop
  endfacet
  facet normal 0 0 1
    outer loop
      vertex 4.6 10.6 -1.9
      vertex -5.23397 9.6 -1.9
      vertex 9.6 9.6 -1.9
    endloop
  endfacet
  facet normal 0 0 1
    outer loop
      vertex 4.6 10.6 -1.9
      vertex -5.30096 9.85 -1.9
      vertex -5.23397 9.6 -1.9
    endloop
  endfacet
  facet normal 0 0 1
    outer loop
      vertex 4.6 10.6 -1.9
      vertex -5.85 10.399 -1.9
      vertex -5.30096 9.85 -1.9
    endloop
  endfacet
  facet normal 0 -0 1
    outer loop
      vertex -5.85 10.399 -1.9
      vertex 4.6 10.6 -1.9
      vertex -6.6 10.6 -1.9
    endloop
  endfacet
  facet normal 0 0 1
    outer loop
      vertex 13.033 -10.35 -1.9
      vertex 12.6 -10.6 -1.9
      vertex 12.85 -10.533 -1.9
    endloop
  endfacet
  facet normal -0 0 1
    outer loop
      vertex 11.225 -9.18253 -1.9
      vertex 12.6 -10.6 -1.9
      vertex 11.6825 -8.725 -1.9
    endloop
  endfacet
  facet normal -0 0 1
    outer loop
      vertex 10.6 -9.35 -1.9
      vertex 12.6 -10.6 -1.9
      vertex 11.225 -9.18253 -1.9
    endloop
  endfacet
  facet normal 0 0 1
    outer loop
      vertex 9.975 -9.18253 -1.9
      vertex 12.6 -10.6 -1.9
      vertex 10.6 -9.35 -1.9
    endloop
  endfacet
  facet normal -0 0 1
    outer loop
      vertex 7.1 -7.6 -1.9
      vertex 9.35 -8.1 -1.9
      vertex 8.6 -7.19808 -1.9
    endloop
  endfacet
  facet normal 0 0 1
    outer loop
      vertex 9.35 -8.1 -1.9
      vertex 7.1 -7.6 -1.9
      vertex 9.51747 -8.725 -1.9
    endloop
  endfacet
  facet normal 0 0 1
    outer loop
      vertex 4.5 -10.6 -1.9
      vertex 9.51747 -8.725 -1.9
      vertex 7.1 -7.6 -1.9
    endloop
  endfacet
  facet normal 0 0 1
    outer loop
      vertex 9.975 -9.18253 -1.9
      vertex 4.5 -10.6 -1.9
      vertex 12.6 -10.6 -1.9
    endloop
  endfacet
  facet normal 0 0 1
    outer loop
      vertex 9.51747 -8.725 -1.9
      vertex 4.5 -10.6 -1.9
      vertex 9.975 -9.18253 -1.9
    endloop
  endfacet
  facet normal 0 0 1
    outer loop
      vertex 4.5 -10.6 -1.9
      vertex -2.5 -10.6 -1.9
      vertex 4.5 -12.6 -1.9
    endloop
  endfacet
  facet normal 0 0 1
    outer loop
      vertex 7.1 -7.6 -1.9
      vertex -2.5 -10.6 -1.9
      vertex 4.5 -10.6 -1.9
    endloop
  endfacet
  facet normal -0 0 1
    outer loop
      vertex -5.23397 -7.6 -1.9
      vertex -2.5 -10.6 -1.9
      vertex 7.1 -7.6 -1.9
    endloop
  endfacet
  facet normal -0 0 1
    outer loop
      vertex -5.30096 -7.85 -1.9
      vertex -2.5 -10.6 -1.9
      vertex -5.23397 -7.6 -1.9
    endloop
  endfacet
  facet normal -0 0 1
    outer loop
      vertex -5.85 -8.39904 -1.9
      vertex -2.5 -10.6 -1.9
      vertex -5.30096 -7.85 -1.9
    endloop
  endfacet
  facet normal -0 0 1
    outer loop
      vertex -6.6 -8.6 -1.9
      vertex -2.5 -10.6 -1.9
      vertex -5.85 -8.39904 -1.9
    endloop
  endfacet
  facet normal 0 0 1
    outer loop
      vertex -12.6 -10.6 -1.9
      vertex -6.6 -8.6 -1.9
      vertex -11.6 -8.6 -1.9
    endloop
  endfacet
  facet normal 0 0 1
    outer loop
      vertex -6.6 -8.6 -1.9
      vertex -12.6 -10.6 -1.9
      vertex -2.5 -10.6 -1.9
    endloop
  endfacet
  facet normal 0 0 1
    outer loop
      vertex -13.1 -10.1 -1.9
      vertex -11.6 -8.6 -1.9
      vertex -12.35 -8.39904 -1.9
    endloop
  endfacet
  facet normal 0 0 1
    outer loop
      vertex -11.6 -8.6 -1.9
      vertex -13.1 -10.1 -1.9
      vertex -12.6 -10.6 -1.9
    endloop
  endfacet
  facet normal 0 0 1
    outer loop
      vertex -13.1 -10.1 -1.9
      vertex -12.35 -8.39904 -1.9
      vertex -12.899 -7.85 -1.9
    endloop
  endfacet
  facet normal 0 0 1
    outer loop
      vertex -12.6 -10.6 -1.9
      vertex -13.1 -10.1 -1.9
      vertex -12.85 -10.533 -1.9
    endloop
  endfacet
  facet normal 0 0 1
    outer loop
      vertex -13.1 -10.1 -1.9
      vertex -12.899 -7.85 -1.9
      vertex -13.1 -7.1 -1.9
    endloop
  endfacet
  facet normal 0 0 1
    outer loop
      vertex -12.85 -10.533 -1.9
      vertex -13.1 -10.1 -1.9
      vertex -13.033 -10.35 -1.9
    endloop
  endfacet
  facet normal -0 0 1
    outer loop
      vertex 10.899 -2.85 -1.9
      vertex 11.6825 -7.475 -1.9
      vertex 11.1 -2.1 -1.9
    endloop
  endfacet
  facet normal 0 0 1
    outer loop
      vertex 11.6825 -7.475 -1.9
      vertex 10.899 -2.85 -1.9
      vertex 11.225 -7.01747 -1.9
    endloop
  endfacet
  facet normal -0 0 1
    outer loop
      vertex 10.1 -4.6 -1.9
      vertex 11.225 -7.01747 -1.9
      vertex 10.899 -2.85 -1.9
    endloop
  endfacet
  facet normal 0 0 1
    outer loop
      vertex 10.1 -4.6 -1.9
      vertex 10.899 -2.85 -1.9
      vertex 10.35 -3.39904 -1.9
    endloop
  endfacet
  facet normal 0 0 1
    outer loop
      vertex 10.1 -4.6 -1.9
      vertex 10.35 -3.39904 -1.9
      vertex 10.1 -3.46602 -1.9
    endloop
  endfacet
  facet normal 0 0 1
    outer loop
      vertex 11.225 -7.01747 -1.9
      vertex 10.1 -4.6 -1.9
      vertex 10.6 -6.85 -1.9
    endloop
  endfacet
  facet normal -0 0 1
    outer loop
      vertex 9.69808 -6.1 -1.9
      vertex 10.6 -6.85 -1.9
      vertex 10.1 -4.6 -1.9
    endloop
  endfacet
  facet normal 0 0 1
    outer loop
      vertex 10.6 -6.85 -1.9
      vertex 9.69808 -6.1 -1.9
      vertex 9.975 -7.01747 -1.9
    endloop
  endfacet
  facet normal 0 0 1
    outer loop
      vertex 9.69808 -6.1 -1.9
      vertex 9.51747 -7.475 -1.9
      vertex 9.975 -7.01747 -1.9
    endloop
  endfacet
  facet normal -0 0 1
    outer loop
      vertex 8.6 -7.19808 -1.9
      vertex 9.51747 -7.475 -1.9
      vertex 9.69808 -6.1 -1.9
    endloop
  endfacet
  facet normal 0 0 1
    outer loop
      vertex 9.51747 -7.475 -1.9
      vertex 8.6 -7.19808 -1.9
      vertex 9.35 -8.1 -1.9
    endloop
  endfacet
  facet normal -0 0 1
    outer loop
      vertex -12.6 10.6 -1.9
      vertex -12.35 10.399 -1.9
      vertex -11.6 10.6 -1.9
    endloop
  endfacet
  facet normal -0 0 1
    outer loop
      vertex -12.85 10.533 -1.9
      vertex -12.35 10.399 -1.9
      vertex -12.6 10.6 -1.9
    endloop
  endfacet
  facet normal 0 0 1
    outer loop
      vertex -12.85 10.533 -1.9
      vertex -12.899 9.85 -1.9
      vertex -12.35 10.399 -1.9
    endloop
  endfacet
  facet normal -0 0 1
    outer loop
      vertex -13.033 10.35 -1.9
      vertex -12.899 9.85 -1.9
      vertex -12.85 10.533 -1.9
    endloop
  endfacet
  facet normal -0 0 1
    outer loop
      vertex -13.1 10.1 -1.9
      vertex -12.899 9.85 -1.9
      vertex -13.033 10.35 -1.9
    endloop
  endfacet
  facet normal 0 0 1
    outer loop
      vertex -12.899 9.85 -1.9
      vertex -13.1 10.1 -1.9
      vertex -13.1 9.1 -1.9
    endloop
  endfacet
  facet normal 0.258865 -0.965914 0
    outer loop
      vertex -12.85 10.533 -1.9
      vertex -12.6 10.6 0
      vertex -12.85 10.533 0
    endloop
  endfacet
  facet normal 0.258865 -0.965914 0
    outer loop
      vertex -12.6 10.6 0
      vertex -12.85 10.533 -1.9
      vertex -12.6 10.6 -1.9
    endloop
  endfacet
  facet normal 0 1 -0
    outer loop
      vertex 12.6 -10.6 -1.9
      vertex 6.47321 -10.6 0
      vertex 12.6 -10.6 0
    endloop
  endfacet
  facet normal 0 1 0
    outer loop
      vertex 6.47321 -10.6 0
      vertex 12.6 -10.6 -1.9
      vertex 6.23205 -10.6 -0.900001
    endloop
  endfacet
  facet normal 0 1 0
    outer loop
      vertex 6.23205 -10.6 -0.900001
      vertex 12.6 -10.6 -1.9
      vertex 5.5 -10.6 -1.63205
    endloop
  endfacet
  facet normal 0 1 0
    outer loop
      vertex 5.5 -10.6 -1.63205
      vertex 12.6 -10.6 -1.9
      vertex 4.5 -10.6 -1.9
    endloop
  endfacet
  facet normal 0 1 0
    outer loop
      vertex -12.6 -10.6 -1.9
      vertex -4.47321 -10.6 0
      vertex -4.23205 -10.6 -0.900001
    endloop
  endfacet
  facet normal 0 1 0
    outer loop
      vertex -12.6 -10.6 -1.9
      vertex -4.23205 -10.6 -0.900001
      vertex -3.5 -10.6 -1.63205
    endloop
  endfacet
  facet normal 0 1 0
    outer loop
      vertex -12.6 -10.6 -1.9
      vertex -3.5 -10.6 -1.63205
      vertex -2.5 -10.6 -1.9
    endloop
  endfacet
  facet normal 0 1 0
    outer loop
      vertex -4.47321 -10.6 0
      vertex -12.6 -10.6 -1.9
      vertex -12.6 -10.6 0
    endloop
  endfacet
  facet normal 0.965914 0.258865 0
    outer loop
      vertex -13.033 -10.35 0
      vertex -13.1 -10.1 -1.9
      vertex -13.1 -10.1 0
    endloop
  endfacet
  facet normal 0.965914 0.258865 0
    outer loop
      vertex -13.1 -10.1 -1.9
      vertex -13.033 -10.35 0
      vertex -13.033 -10.35 -1.9
    endloop
  endfacet
  facet normal -1 0 0
    outer loop
      vertex 13.1 -10.1 -1.9
      vertex 13.1 10.1 0
      vertex 13.1 10.1 -1.9
    endloop
  endfacet
  facet normal -1 -0 0
    outer loop
      vertex 13.1 10.1 0
      vertex 13.1 -10.1 -1.9
      vertex 13.1 -10.1 0
    endloop
  endfacet
  facet normal -0.707107 0.707107 0
    outer loop
      vertex 12.85 -10.533 -1.9
      vertex 13.033 -10.35 0
      vertex 13.033 -10.35 -1.9
    endloop
  endfacet
  facet normal -0.707107 0.707107 0
    outer loop
      vertex 13.033 -10.35 0
      vertex 12.85 -10.533 -1.9
      vertex 12.85 -10.533 0
    endloop
  endfacet
  facet normal -0.258865 -0.965914 0
    outer loop
      vertex 12.6 10.6 -1.9
      vertex 12.85 10.533 0
      vertex 12.6 10.6 0
    endloop
  endfacet
  facet normal -0.258865 -0.965914 -0
    outer loop
      vertex 12.85 10.533 0
      vertex 12.6 10.6 -1.9
      vertex 12.85 10.533 -1.9
    endloop
  endfacet
  facet normal 0 -1 0
    outer loop
      vertex 9.33205 10.6 -0.900001
      vertex 12.6 10.6 0
      vertex 9.5732 10.6 0
    endloop
  endfacet
  facet normal 0 -1 0
    outer loop
      vertex 12.6 10.6 -1.9
      vertex 9.33205 10.6 -0.900001
      vertex 8.6 10.6 -1.63205
    endloop
  endfacet
  facet normal 0 -1 0
    outer loop
      vertex 9.33205 10.6 -0.900001
      vertex 12.6 10.6 -1.9
      vertex 12.6 10.6 0
    endloop
  endfacet
  facet normal 0 -1 0
    outer loop
      vertex 12.6 10.6 -1.9
      vertex 8.6 10.6 -1.63205
      vertex 7.6 10.6 -1.9
    endloop
  endfacet
  facet normal 0 -1 0
    outer loop
      vertex -11.6 10.6 -4
      vertex -6.6 10.6 -1.9
      vertex -11.6 10.6 -1.9
    endloop
  endfacet
  facet normal 0 -1 -0
    outer loop
      vertex -6.6 10.6 -1.9
      vertex -11.6 10.6 -4
      vertex -6.6 10.6 -4
    endloop
  endfacet
  facet normal 0 -1 0
    outer loop
      vertex -6.6 10.6 -1.9
      vertex 2.62679 10.6 0
      vertex -12.6 10.6 0
    endloop
  endfacet
  facet normal 0 -1 -0
    outer loop
      vertex 2.62679 10.6 0
      vertex -6.6 10.6 -1.9
      vertex 2.86795 10.6 -0.900001
    endloop
  endfacet
  facet normal 0 -1 0
    outer loop
      vertex -11.6 10.6 -1.9
      vertex -12.6 10.6 0
      vertex -12.6 10.6 -1.9
    endloop
  endfacet
  facet normal 0 -1 0
    outer loop
      vertex -6.6 10.6 -1.9
      vertex -12.6 10.6 0
      vertex -11.6 10.6 -1.9
    endloop
  endfacet
  facet normal 0 -1 -0
    outer loop
      vertex 2.86795 10.6 -0.900001
      vertex -6.6 10.6 -1.9
      vertex 3.6 10.6 -1.63205
    endloop
  endfacet
  facet normal 0 -1 -0
    outer loop
      vertex 3.6 10.6 -1.63205
      vertex -6.6 10.6 -1.9
      vertex 4.6 10.6 -1.9
    endloop
  endfacet
  facet normal 0.707107 -0.707107 0
    outer loop
      vertex -13.033 10.35 0
      vertex -12.85 10.533 -1.9
      vertex -12.85 10.533 0
    endloop
  endfacet
  facet normal 0.707107 -0.707107 0
    outer loop
      vertex -12.85 10.533 -1.9
      vertex -13.033 10.35 0
      vertex -13.033 10.35 -1.9
    endloop
  endfacet
  facet normal 0.965914 -0.258865 0
    outer loop
      vertex -13.1 10.1 0
      vertex -13.033 10.35 -1.9
      vertex -13.033 10.35 0
    endloop
  endfacet
  facet normal 0.965914 -0.258865 0
    outer loop
      vertex -13.033 10.35 -1.9
      vertex -13.1 10.1 0
      vertex -13.1 10.1 -1.9
    endloop
  endfacet
  facet normal -0.258865 0.965914 0
    outer loop
      vertex 12.85 -10.533 -1.9
      vertex 12.6 -10.6 0
      vertex 12.85 -10.533 0
    endloop
  endfacet
  facet normal -0.258865 0.965914 0
    outer loop
      vertex 12.6 -10.6 0
      vertex 12.85 -10.533 -1.9
      vertex 12.6 -10.6 -1.9
    endloop
  endfacet
  facet normal 0.707107 0.707107 0
    outer loop
      vertex -12.85 -10.533 0
      vertex -13.033 -10.35 -1.9
      vertex -13.033 -10.35 0
    endloop
  endfacet
  facet normal 0.707107 0.707107 0
    outer loop
      vertex -13.033 -10.35 -1.9
      vertex -12.85 -10.533 0
      vertex -12.85 -10.533 -1.9
    endloop
  endfacet
  facet normal -0.965914 0.258865 0
    outer loop
      vertex 13.033 -10.35 -1.9
      vertex 13.1 -10.1 0
      vertex 13.1 -10.1 -1.9
    endloop
  endfacet
  facet normal -0.965914 0.258865 0
    outer loop
      vertex 13.1 -10.1 0
      vertex 13.033 -10.35 -1.9
      vertex 13.033 -10.35 0
    endloop
  endfacet
  facet normal 0.258865 0.965914 -0
    outer loop
      vertex -12.6 -10.6 -1.9
      vertex -12.85 -10.533 0
      vertex -12.6 -10.6 0
    endloop
  endfacet
  facet normal 0.258865 0.965914 0
    outer loop
      vertex -12.85 -10.533 0
      vertex -12.6 -10.6 -1.9
      vertex -12.85 -10.533 -1.9
    endloop
  endfacet
  facet normal 0 1 -0
    outer loop
      vertex 7.1 -7.6 -4
      vertex -5.23397 -7.6 -1.9
      vertex 7.1 -7.6 -1.9
    endloop
  endfacet
  facet normal 0 1 0
    outer loop
      vertex -5.23397 -7.6 -1.9
      vertex 7.1 -7.6 -4
      vertex -5.23397 -7.6 -4
    endloop
  endfacet
  facet normal -1 0 0
    outer loop
      vertex 10.1 -4.6 -4
      vertex 10.1 -3.46602 -1.9
      vertex 10.1 -3.46602 -4
    endloop
  endfacet
  facet normal -1 -0 0
    outer loop
      vertex 10.1 -3.46602 -1.9
      vertex 10.1 -4.6 -4
      vertex 10.1 -4.6 -1.9
    endloop
  endfacet
  facet normal -0.707107 0.707107 0
    outer loop
      vertex 8.6 -7.19808 -4
      vertex 9.69808 -6.1 -1.9
      vertex 9.69808 -6.1 -4
    endloop
  endfacet
  facet normal -0.707107 0.707107 0
    outer loop
      vertex 9.69808 -6.1 -1.9
      vertex 8.6 -7.19808 -4
      vertex 8.6 -7.19808 -1.9
    endloop
  endfacet
  facet normal -0.258817 0.965926 0
    outer loop
      vertex 8.6 -7.19808 -4
      vertex 7.1 -7.6 -1.9
      vertex 8.6 -7.19808 -1.9
    endloop
  endfacet
  facet normal -0.258817 0.965926 0
    outer loop
      vertex 7.1 -7.6 -1.9
      vertex 8.6 -7.19808 -4
      vertex 7.1 -7.6 -4
    endloop
  endfacet
  facet normal -0.965926 0.258817 0
    outer loop
      vertex 9.69808 -6.1 -4
      vertex 10.1 -4.6 -1.9
      vertex 10.1 -4.6 -4
    endloop
  endfacet
  facet normal -0.965926 0.258817 0
    outer loop
      vertex 10.1 -4.6 -1.9
      vertex 9.69808 -6.1 -4
      vertex 9.69808 -6.1 -1.9
    endloop
  endfacet
  facet normal 0 -1 0
    outer loop
      vertex -5.23397 9.6 -4
      vertex 9.6 9.6 -1.9
      vertex -5.23397 9.6 -1.9
    endloop
  endfacet
  facet normal 0 -1 -0
    outer loop
      vertex 9.6 9.6 -1.9
      vertex -5.23397 9.6 -4
      vertex 9.6 9.6 -4
    endloop
  endfacet
  facet normal -0.707081 -0.707133 0
    outer loop
      vertex -5.30096 9.85 -4
      vertex -5.85 10.399 -1.9
      vertex -5.85 10.399 -4
    endloop
  endfacet
  facet normal -0.707081 -0.707133 0
    outer loop
      vertex -5.85 10.399 -1.9
      vertex -5.30096 9.85 -4
      vertex -5.30096 9.85 -1.9
    endloop
  endfacet
  facet normal -0.965923 0.258829 0
    outer loop
      vertex -5.30096 -7.85 -4
      vertex -5.23397 -7.6 -1.9
      vertex -5.23397 -7.6 -4
    endloop
  endfacet
  facet normal -0.965923 0.258829 0
    outer loop
      vertex -5.23397 -7.6 -1.9
      vertex -5.30096 -7.85 -4
      vertex -5.30096 -7.85 -1.9
    endloop
  endfacet
  facet normal -0.258865 -0.965914 0
    outer loop
      vertex -6.6 10.6 -4
      vertex -5.85 10.399 -1.9
      vertex -6.6 10.6 -1.9
    endloop
  endfacet
  facet normal -0.258865 -0.965914 -0
    outer loop
      vertex -5.85 10.399 -1.9
      vertex -6.6 10.6 -4
      vertex -5.85 10.399 -4
    endloop
  endfacet
  facet normal -0.258817 0.965926 0
    outer loop
      vertex -5.85 -8.39904 -4
      vertex -6.6 -8.6 -1.9
      vertex -5.85 -8.39904 -1.9
    endloop
  endfacet
  facet normal -0.258817 0.965926 0
    outer loop
      vertex -6.6 -8.6 -1.9
      vertex -5.85 -8.39904 -4
      vertex -6.6 -8.6 -4
    endloop
  endfacet
  facet normal -0.965923 -0.258829 0
    outer loop
      vertex -5.23397 9.6 -4
      vertex -5.30096 9.85 -1.9
      vertex -5.30096 9.85 -4
    endloop
  endfacet
  facet normal -0.965923 -0.258829 0
    outer loop
      vertex -5.30096 9.85 -1.9
      vertex -5.23397 9.6 -4
      vertex -5.23397 9.6 -1.9
    endloop
  endfacet
  facet normal 0.965914 -0.258865 0
    outer loop
      vertex -13.1 9.1 -1.9
      vertex -12.899 9.85 -4
      vertex -12.899 9.85 -1.9
    endloop
  endfacet
  facet normal 0.965914 -0.258865 0
    outer loop
      vertex -12.899 9.85 -4
      vertex -13.1 9.1 -1.9
      vertex -13.1 9.1 -4
    endloop
  endfacet
  facet normal 0.965914 0.258865 0
    outer loop
      vertex -12.899 -7.85 -1.9
      vertex -13.1 -7.1 -4
      vertex -13.1 -7.1 -1.9
    endloop
  endfacet
  facet normal 0.965914 0.258865 0
    outer loop
      vertex -13.1 -7.1 -4
      vertex -12.899 -7.85 -1.9
      vertex -12.899 -7.85 -4
    endloop
  endfacet
  facet normal 0 1 -0
    outer loop
      vertex -6.6 -8.6 -4
      vertex -11.6 -8.6 -1.9
      vertex -6.6 -8.6 -1.9
    endloop
  endfacet
  facet normal 0 1 0
    outer loop
      vertex -11.6 -8.6 -1.9
      vertex -6.6 -8.6 -4
      vertex -11.6 -8.6 -4
    endloop
  endfacet
  facet normal 0.258817 0.965926 -0
    outer loop
      vertex -11.6 -8.6 -4
      vertex -12.35 -8.39904 -1.9
      vertex -11.6 -8.6 -1.9
    endloop
  endfacet
  facet normal 0.258817 0.965926 0
    outer loop
      vertex -12.35 -8.39904 -1.9
      vertex -11.6 -8.6 -4
      vertex -12.35 -8.39904 -4
    endloop
  endfacet
  facet normal -0.707107 0.707107 0
    outer loop
      vertex -5.85 -8.39904 -4
      vertex -5.30096 -7.85 -1.9
      vertex -5.30096 -7.85 -4
    endloop
  endfacet
  facet normal -0.707107 0.707107 0
    outer loop
      vertex -5.30096 -7.85 -1.9
      vertex -5.85 -8.39904 -4
      vertex -5.85 -8.39904 -1.9
    endloop
  endfacet
  facet normal 0.707133 0.707081 0
    outer loop
      vertex -12.35 -8.39904 -1.9
      vertex -12.899 -7.85 -4
      vertex -12.899 -7.85 -1.9
    endloop
  endfacet
  facet normal 0.707133 0.707081 0
    outer loop
      vertex -12.899 -7.85 -4
      vertex -12.35 -8.39904 -1.9
      vertex -12.35 -8.39904 -4
    endloop
  endfacet
  facet normal 0.707107 -0.707107 0
    outer loop
      vertex -12.899 9.85 -1.9
      vertex -12.35 10.399 -4
      vertex -12.35 10.399 -1.9
    endloop
  endfacet
  facet normal 0.707107 -0.707107 0
    outer loop
      vertex -12.35 10.399 -4
      vertex -12.899 9.85 -1.9
      vertex -12.899 9.85 -4
    endloop
  endfacet
  facet normal 0.258865 -0.965914 0
    outer loop
      vertex -12.35 10.399 -4
      vertex -11.6 10.6 -1.9
      vertex -12.35 10.399 -1.9
    endloop
  endfacet
  facet normal 0.258865 -0.965914 0
    outer loop
      vertex -11.6 10.6 -1.9
      vertex -12.35 10.399 -4
      vertex -11.6 10.6 -4
    endloop
  endfacet
  facet normal -0.965914 0.258865 0
    outer loop
      vertex 10.899 -2.85 -4
      vertex 11.1 -2.1 -1.9
      vertex 11.1 -2.1 -4
    endloop
  endfacet
  facet normal -0.965914 0.258865 0
    outer loop
      vertex 11.1 -2.1 -1.9
      vertex 10.899 -2.85 -4
      vertex 10.899 -2.85 -1.9
    endloop
  endfacet
  facet normal -0.258817 -0.965926 0
    outer loop
      vertex 9.6 9.6 -4
      vertex 10.35 9.39904 -1.9
      vertex 9.6 9.6 -1.9
    endloop
  endfacet
  facet normal -0.258817 -0.965926 -0
    outer loop
      vertex 10.35 9.39904 -1.9
      vertex 9.6 9.6 -4
      vertex 10.35 9.39904 -4
    endloop
  endfacet
  facet normal -0.258793 0.965933 0
    outer loop
      vertex 10.35 -3.39904 -4
      vertex 10.1 -3.46602 -1.9
      vertex 10.35 -3.39904 -1.9
    endloop
  endfacet
  facet normal -0.258793 0.965933 0
    outer loop
      vertex 10.1 -3.46602 -1.9
      vertex 10.35 -3.39904 -4
      vertex 10.1 -3.46602 -4
    endloop
  endfacet
  facet normal -0.965914 -0.258865 0
    outer loop
      vertex 11.1 8.1 -4
      vertex 10.899 8.85 -1.9
      vertex 10.899 8.85 -4
    endloop
  endfacet
  facet normal -0.965914 -0.258865 0
    outer loop
      vertex 10.899 8.85 -1.9
      vertex 11.1 8.1 -4
      vertex 11.1 8.1 -1.9
    endloop
  endfacet
  facet normal -1 0 0
    outer loop
      vertex 11.1 -2.1 -4
      vertex 11.1 8.1 -1.9
      vertex 11.1 8.1 -4
    endloop
  endfacet
  facet normal -1 -0 0
    outer loop
      vertex 11.1 8.1 -1.9
      vertex 11.1 -2.1 -4
      vertex 11.1 -2.1 -1.9
    endloop
  endfacet
  facet normal -0.707133 0.707081 0
    outer loop
      vertex 10.35 -3.39904 -4
      vertex 10.899 -2.85 -1.9
      vertex 10.899 -2.85 -4
    endloop
  endfacet
  facet normal -0.707133 0.707081 0
    outer loop
      vertex 10.899 -2.85 -1.9
      vertex 10.35 -3.39904 -4
      vertex 10.35 -3.39904 -1.9
    endloop
  endfacet
  facet normal -0.707133 -0.707081 0
    outer loop
      vertex 10.899 8.85 -4
      vertex 10.35 9.39904 -1.9
      vertex 10.35 9.39904 -4
    endloop
  endfacet
  facet normal -0.707133 -0.707081 0
    outer loop
      vertex 10.35 9.39904 -1.9
      vertex 10.899 8.85 -4
      vertex 10.899 8.85 -1.9
    endloop
  endfacet
  facet normal -0.707106 0 0.707107
    outer loop
      vertex 8.6 10.6 -1.63205
      vertex 9.33205 12.6 -0.900001
      vertex 8.6 12.6 -1.63205
    endloop
  endfacet
  facet normal -0.707106 0 0.707107
    outer loop
      vertex 9.33205 12.6 -0.900001
      vertex 8.6 10.6 -1.63205
      vertex 9.33205 10.6 -0.900001
    endloop
  endfacet
  facet normal 0.25882 0 0.965926
    outer loop
      vertex 3.6 12.6 -1.63205
      vertex 4.6 10.6 -1.9
      vertex 4.6 12.6 -1.9
    endloop
  endfacet
  facet normal 0.25882 0 0.965926
    outer loop
      vertex 4.6 10.6 -1.9
      vertex 3.6 12.6 -1.63205
      vertex 3.6 10.6 -1.63205
    endloop
  endfacet
  facet normal -0.965927 0 0.258814
    outer loop
      vertex 9.33205 10.6 -0.900001
      vertex 9.5732 12.6 0
      vertex 9.33205 12.6 -0.900001
    endloop
  endfacet
  facet normal -0.965927 0 0.258814
    outer loop
      vertex 9.5732 12.6 0
      vertex 9.33205 10.6 -0.900001
      vertex 9.5732 10.6 0
    endloop
  endfacet
  facet normal -0.25882 0 0.965926
    outer loop
      vertex 7.6 12.6 -1.9
      vertex 8.6 10.6 -1.63205
      vertex 8.6 12.6 -1.63205
    endloop
  endfacet
  facet normal -0.25882 0 0.965926
    outer loop
      vertex 8.6 10.6 -1.63205
      vertex 7.6 12.6 -1.9
      vertex 7.6 10.6 -1.9
    endloop
  endfacet
  facet normal 0.965924 -0 0.258825
    outer loop
      vertex 2.62679 10.6 0
      vertex 2.86795 12.6 -0.900001
      vertex 2.62679 12.6 0
    endloop
  endfacet
  facet normal 0.965924 0 0.258825
    outer loop
      vertex 2.86795 12.6 -0.900001
      vertex 2.62679 10.6 0
      vertex 2.86795 10.6 -0.900001
    endloop
  endfacet
  facet normal 0.707106 -0 0.707107
    outer loop
      vertex 2.86795 10.6 -0.900001
      vertex 3.6 12.6 -1.63205
      vertex 2.86795 12.6 -0.900001
    endloop
  endfacet
  facet normal 0.707106 0 0.707107
    outer loop
      vertex 3.6 12.6 -1.63205
      vertex 2.86795 10.6 -0.900001
      vertex 3.6 10.6 -1.63205
    endloop
  endfacet
  facet normal -0.707106 0 0.707107
    outer loop
      vertex 5.5 -12.6 -1.63205
      vertex 6.23205 -10.6 -0.900001
      vertex 5.5 -10.6 -1.63205
    endloop
  endfacet
  facet normal -0.707106 0 0.707107
    outer loop
      vertex 6.23205 -10.6 -0.900001
      vertex 5.5 -12.6 -1.63205
      vertex 6.23205 -12.6 -0.900001
    endloop
  endfacet
  facet normal 0.25882 0 0.965926
    outer loop
      vertex -3.5 -10.6 -1.63205
      vertex -2.5 -12.6 -1.9
      vertex -2.5 -10.6 -1.9
    endloop
  endfacet
  facet normal 0.25882 0 0.965926
    outer loop
      vertex -2.5 -12.6 -1.9
      vertex -3.5 -10.6 -1.63205
      vertex -3.5 -12.6 -1.63205
    endloop
  endfacet
  facet normal -0.25882 0 0.965926
    outer loop
      vertex 4.5 -10.6 -1.9
      vertex 5.5 -12.6 -1.63205
      vertex 5.5 -10.6 -1.63205
    endloop
  endfacet
  facet normal -0.25882 0 0.965926
    outer loop
      vertex 5.5 -12.6 -1.63205
      vertex 4.5 -10.6 -1.9
      vertex 4.5 -12.6 -1.9
    endloop
  endfacet
  facet normal -0.965924 0 0.258825
    outer loop
      vertex 6.23205 -12.6 -0.900001
      vertex 6.47321 -10.6 0
      vertex 6.23205 -10.6 -0.900001
    endloop
  endfacet
  facet normal -0.965924 0 0.258825
    outer loop
      vertex 6.47321 -10.6 0
      vertex 6.23205 -12.6 -0.900001
      vertex 6.47321 -12.6 0
    endloop
  endfacet
  facet normal 0.707106 -0 0.707107
    outer loop
      vertex -4.23205 -12.6 -0.900001
      vertex -3.5 -10.6 -1.63205
      vertex -4.23205 -10.6 -0.900001
    endloop
  endfacet
  facet normal 0.707106 0 0.707107
    outer loop
      vertex -3.5 -10.6 -1.63205
      vertex -4.23205 -12.6 -0.900001
      vertex -3.5 -12.6 -1.63205
    endloop
  endfacet
  facet normal 0.965924 -0 0.258825
    outer loop
      vertex -4.47321 -12.6 0
      vertex -4.23205 -10.6 -0.900001
      vertex -4.47321 -10.6 0
    endloop
  endfacet
  facet normal 0.965924 0 0.258825
    outer loop
      vertex -4.23205 -10.6 -0.900001
      vertex -4.47321 -12.6 0
      vertex -4.23205 -12.6 -0.900001
    endloop
  endfacet
endsolid OpenSCAD_Model
