solid vcg
  facet normal 9.961947e-001 -8.715559e-002 0.000000e+000
    outer loop
      vertex  9.848078e+000 -1.736482e+000 4.000000e-001
      vertex  9.848078e+000 -1.736482e+000 0.000000e+000
      vertex  1.000000e+001 0.000000e+000 4.000000e-001
    endloop
  endfacet
  facet normal 9.659257e-001 -2.588194e-001 0.000000e+000
    outer loop
      vertex  9.848078e+000 -1.736482e+000 4.000000e-001
      vertex  9.396926e+000 -3.420201e+000 0.000000e+000
      vertex  9.848078e+000 -1.736482e+000 0.000000e+000
    endloop
  endfacet
  facet normal 9.659257e-001 -2.588194e-001 0.000000e+000
    outer loop
      vertex  9.848078e+000 -1.736482e+000 4.000000e-001
      vertex  9.396926e+000 -3.420201e+000 4.000000e-001
      vertex  9.396926e+000 -3.420201e+000 0.000000e+000
    endloop
  endfacet
  facet normal 9.063078e-001 -4.226183e-001 0.000000e+000
    outer loop
      vertex  9.396926e+000 -3.420201e+000 0.000000e+000
      vertex  9.396926e+000 -3.420201e+000 4.000000e-001
      vertex  8.660254e+000 -5.000000e+000 0.000000e+000
    endloop
  endfacet
  facet normal 9.063078e-001 -4.226183e-001 0.000000e+000
    outer loop
      vertex  8.660254e+000 -5.000000e+000 0.000000e+000
      vertex  9.396926e+000 -3.420201e+000 4.000000e-001
      vertex  8.660254e+000 -5.000000e+000 4.000000e-001
    endloop
  endfacet
  facet normal 8.191520e-001 -5.735765e-001 0.000000e+000
    outer loop
      vertex  7.660444e+000 -6.427876e+000 0.000000e+000
      vertex  8.660254e+000 -5.000000e+000 4.000000e-001
      vertex  7.660444e+000 -6.427876e+000 4.000000e-001
    endloop
  endfacet
  facet normal 7.071068e-001 -7.071068e-001 0.000000e+000
    outer loop
      vertex  6.427876e+000 -7.660444e+000 0.000000e+000
      vertex  7.660444e+000 -6.427876e+000 4.000000e-001
      vertex  6.427876e+000 -7.660444e+000 4.000000e-001
    endloop
  endfacet
  facet normal 5.735765e-001 -8.191520e-001 0.000000e+000
    outer loop
      vertex  5.000000e+000 -8.660254e+000 0.000000e+000
      vertex  6.427876e+000 -7.660444e+000 4.000000e-001
      vertex  5.000000e+000 -8.660254e+000 4.000000e-001
    endloop
  endfacet
  facet normal 4.226183e-001 -9.063078e-001 0.000000e+000
    outer loop
      vertex  3.420201e+000 -9.396926e+000 0.000000e+000
      vertex  5.000000e+000 -8.660254e+000 4.000000e-001
      vertex  3.420201e+000 -9.396926e+000 4.000000e-001
    endloop
  endfacet
  facet normal 2.588194e-001 -9.659257e-001 0.000000e+000
    outer loop
      vertex  1.736482e+000 -9.848078e+000 0.000000e+000
      vertex  3.420201e+000 -9.396926e+000 4.000000e-001
      vertex  1.736482e+000 -9.848078e+000 4.000000e-001
    endloop
  endfacet
  facet normal 8.715559e-002 -9.961947e-001 -5.336565e-016
    outer loop
      vertex  -1.836910e-015 -1.000000e+001 0.000000e+000
      vertex  1.736482e+000 -9.848078e+000 4.000000e-001
      vertex  6.123032e-016 -1.000000e+001 4.000000e-001
    endloop
  endfacet
  facet normal -8.715559e-002 -9.961947e-001 0.000000e+000
    outer loop
      vertex  -1.736482e+000 -9.848078e+000 0.000000e+000
      vertex  6.123032e-016 -1.000000e+001 4.000000e-001
      vertex  -1.736482e+000 -9.848078e+000 4.000000e-001
    endloop
  endfacet
  facet normal -2.588194e-001 -9.659257e-001 0.000000e+000
    outer loop
      vertex  -3.420201e+000 -9.396926e+000 0.000000e+000
      vertex  -1.736482e+000 -9.848078e+000 4.000000e-001
      vertex  -3.420201e+000 -9.396926e+000 4.000000e-001
    endloop
  endfacet
  facet normal -4.226183e-001 -9.063078e-001 0.000000e+000
    outer loop
      vertex  -5.000000e+000 -8.660254e+000 0.000000e+000
      vertex  -3.420201e+000 -9.396926e+000 4.000000e-001
      vertex  -5.000000e+000 -8.660254e+000 4.000000e-001
    endloop
  endfacet
  facet normal -5.735765e-001 -8.191520e-001 0.000000e+000
    outer loop
      vertex  -6.427876e+000 -7.660444e+000 0.000000e+000
      vertex  -5.000000e+000 -8.660254e+000 4.000000e-001
      vertex  -6.427876e+000 -7.660444e+000 4.000000e-001
    endloop
  endfacet
  facet normal -7.071068e-001 -7.071068e-001 0.000000e+000
    outer loop
      vertex  -7.660444e+000 -6.427876e+000 0.000000e+000
      vertex  -6.427876e+000 -7.660444e+000 4.000000e-001
      vertex  -7.660444e+000 -6.427876e+000 4.000000e-001
    endloop
  endfacet
  facet normal -8.191520e-001 -5.735765e-001 0.000000e+000
    outer loop
      vertex  -8.660254e+000 -5.000000e+000 0.000000e+000
      vertex  -7.660444e+000 -6.427876e+000 4.000000e-001
      vertex  -8.660254e+000 -5.000000e+000 4.000000e-001
    endloop
  endfacet
  facet normal -9.063078e-001 -4.226183e-001 0.000000e+000
    outer loop
      vertex  -9.396926e+000 -3.420201e+000 0.000000e+000
      vertex  -8.660254e+000 -5.000000e+000 4.000000e-001
      vertex  -9.396926e+000 -3.420201e+000 4.000000e-001
    endloop
  endfacet
  facet normal -9.659257e-001 -2.588194e-001 0.000000e+000
    outer loop
      vertex  -9.848078e+000 -1.736482e+000 0.000000e+000
      vertex  -9.396926e+000 -3.420201e+000 4.000000e-001
      vertex  -9.848078e+000 -1.736482e+000 4.000000e-001
    endloop
  endfacet
  facet normal -9.961947e-001 -8.715559e-002 -5.336563e-016
    outer loop
      vertex  -1.000000e+001 1.224606e-015 0.000000e+000
      vertex  -9.848078e+000 -1.736482e+000 4.000000e-001
      vertex  -1.000000e+001 -1.224606e-015 4.000000e-001
    endloop
  endfacet
  facet normal -9.961947e-001 8.715559e-002 0.000000e+000
    outer loop
      vertex  -9.848078e+000 1.736482e+000 0.000000e+000
      vertex  -1.000000e+001 -1.224606e-015 4.000000e-001
      vertex  -9.848078e+000 1.736482e+000 4.000000e-001
    endloop
  endfacet
  facet normal -9.659257e-001 2.588194e-001 0.000000e+000
    outer loop
      vertex  -9.396926e+000 3.420201e+000 0.000000e+000
      vertex  -9.848078e+000 1.736482e+000 4.000000e-001
      vertex  -9.396926e+000 3.420201e+000 4.000000e-001
    endloop
  endfacet
  facet normal -9.063078e-001 4.226183e-001 0.000000e+000
    outer loop
      vertex  -8.660254e+000 5.000000e+000 0.000000e+000
      vertex  -9.396926e+000 3.420201e+000 4.000000e-001
      vertex  -8.660254e+000 5.000000e+000 4.000000e-001
    endloop
  endfacet
  facet normal -8.191520e-001 5.735765e-001 0.000000e+000
    outer loop
      vertex  -7.660444e+000 6.427876e+000 0.000000e+000
      vertex  -8.660254e+000 5.000000e+000 4.000000e-001
      vertex  -7.660444e+000 6.427876e+000 4.000000e-001
    endloop
  endfacet
  facet normal -7.071068e-001 7.071068e-001 0.000000e+000
    outer loop
      vertex  -6.427876e+000 7.660444e+000 0.000000e+000
      vertex  -7.660444e+000 6.427876e+000 4.000000e-001
      vertex  -6.427876e+000 7.660444e+000 4.000000e-001
    endloop
  endfacet
  facet normal -5.735765e-001 8.191520e-001 0.000000e+000
    outer loop
      vertex  -5.000000e+000 8.660254e+000 0.000000e+000
      vertex  -6.427876e+000 7.660444e+000 4.000000e-001
      vertex  -5.000000e+000 8.660254e+000 4.000000e-001
    endloop
  endfacet
  facet normal -4.226183e-001 9.063078e-001 0.000000e+000
    outer loop
      vertex  -3.420201e+000 9.396926e+000 0.000000e+000
      vertex  -5.000000e+000 8.660254e+000 4.000000e-001
      vertex  -3.420201e+000 9.396926e+000 4.000000e-001
    endloop
  endfacet
  facet normal -2.588194e-001 9.659257e-001 0.000000e+000
    outer loop
      vertex  -1.736482e+000 9.848078e+000 0.000000e+000
      vertex  -3.420201e+000 9.396926e+000 4.000000e-001
      vertex  -1.736482e+000 9.848078e+000 4.000000e-001
    endloop
  endfacet
  facet normal -8.715559e-002 9.961947e-001 -5.336565e-016
    outer loop
      vertex  6.123032e-016 1.000000e+001 0.000000e+000
      vertex  -1.736482e+000 9.848078e+000 4.000000e-001
      vertex  -1.836910e-015 1.000000e+001 4.000000e-001
    endloop
  endfacet
  facet normal 8.715559e-002 9.961947e-001 -0.000000e+000
    outer loop
      vertex  1.736482e+000 9.848078e+000 0.000000e+000
      vertex  -1.836910e-015 1.000000e+001 4.000000e-001
      vertex  1.736482e+000 9.848078e+000 4.000000e-001
    endloop
  endfacet
  facet normal 2.588194e-001 9.659257e-001 -0.000000e+000
    outer loop
      vertex  3.420201e+000 9.396926e+000 0.000000e+000
      vertex  1.736482e+000 9.848078e+000 4.000000e-001
      vertex  3.420201e+000 9.396926e+000 4.000000e-001
    endloop
  endfacet
  facet normal 4.226183e-001 9.063078e-001 -0.000000e+000
    outer loop
      vertex  5.000000e+000 8.660254e+000 0.000000e+000
      vertex  3.420201e+000 9.396926e+000 4.000000e-001
      vertex  5.000000e+000 8.660254e+000 4.000000e-001
    endloop
  endfacet
  facet normal 5.735765e-001 8.191520e-001 -0.000000e+000
    outer loop
      vertex  6.427876e+000 7.660444e+000 0.000000e+000
      vertex  5.000000e+000 8.660254e+000 4.000000e-001
      vertex  6.427876e+000 7.660444e+000 4.000000e-001
    endloop
  endfacet
  facet normal 7.071068e-001 7.071068e-001 -0.000000e+000
    outer loop
      vertex  7.660444e+000 6.427876e+000 0.000000e+000
      vertex  6.427876e+000 7.660444e+000 4.000000e-001
      vertex  7.660444e+000 6.427876e+000 4.000000e-001
    endloop
  endfacet
  facet normal 8.191520e-001 5.735765e-001 -0.000000e+000
    outer loop
      vertex  8.660254e+000 5.000000e+000 0.000000e+000
      vertex  7.660444e+000 6.427876e+000 4.000000e-001
      vertex  8.660254e+000 5.000000e+000 4.000000e-001
    endloop
  endfacet
  facet normal 9.063078e-001 4.226183e-001 -0.000000e+000
    outer loop
      vertex  9.396926e+000 3.420201e+000 0.000000e+000
      vertex  8.660254e+000 5.000000e+000 4.000000e-001
      vertex  9.396926e+000 3.420201e+000 4.000000e-001
    endloop
  endfacet
  facet normal 9.659257e-001 2.588194e-001 -0.000000e+000
    outer loop
      vertex  9.848078e+000 1.736482e+000 0.000000e+000
      vertex  9.396926e+000 3.420201e+000 4.000000e-001
      vertex  9.848078e+000 1.736482e+000 4.000000e-001
    endloop
  endfacet
  facet normal 9.961947e-001 8.715559e-002 -0.000000e+000
    outer loop
      vertex  1.000000e+001 0.000000e+000 0.000000e+000
      vertex  9.848078e+000 1.736482e+000 4.000000e-001
      vertex  1.000000e+001 0.000000e+000 4.000000e-001
    endloop
  endfacet
  facet normal 9.961947e-001 -8.715559e-002 0.000000e+000
    outer loop
      vertex  9.848078e+000 -1.736482e+000 0.000000e+000
      vertex  1.000000e+001 0.000000e+000 0.000000e+000
      vertex  1.000000e+001 0.000000e+000 4.000000e-001
    endloop
  endfacet
  facet normal 9.961947e-001 8.715559e-002 0.000000e+000
    outer loop
      vertex  1.000000e+001 0.000000e+000 0.000000e+000
      vertex  9.848078e+000 1.736482e+000 0.000000e+000
      vertex  9.848078e+000 1.736482e+000 4.000000e-001
    endloop
  endfacet
  facet normal 9.659257e-001 2.588194e-001 0.000000e+000
    outer loop
      vertex  9.848078e+000 1.736482e+000 0.000000e+000
      vertex  9.396926e+000 3.420201e+000 0.000000e+000
      vertex  9.396926e+000 3.420201e+000 4.000000e-001
    endloop
  endfacet
  facet normal 9.063078e-001 4.226183e-001 0.000000e+000
    outer loop
      vertex  9.396926e+000 3.420201e+000 0.000000e+000
      vertex  8.660254e+000 5.000000e+000 0.000000e+000
      vertex  8.660254e+000 5.000000e+000 4.000000e-001
    endloop
  endfacet
  facet normal 8.191520e-001 5.735765e-001 0.000000e+000
    outer loop
      vertex  8.660254e+000 5.000000e+000 0.000000e+000
      vertex  7.660444e+000 6.427876e+000 0.000000e+000
      vertex  7.660444e+000 6.427876e+000 4.000000e-001
    endloop
  endfacet
  facet normal 7.071068e-001 7.071068e-001 0.000000e+000
    outer loop
      vertex  7.660444e+000 6.427876e+000 0.000000e+000
      vertex  6.427876e+000 7.660444e+000 0.000000e+000
      vertex  6.427876e+000 7.660444e+000 4.000000e-001
    endloop
  endfacet
  facet normal 5.735765e-001 8.191520e-001 0.000000e+000
    outer loop
      vertex  6.427876e+000 7.660444e+000 0.000000e+000
      vertex  5.000000e+000 8.660254e+000 0.000000e+000
      vertex  5.000000e+000 8.660254e+000 4.000000e-001
    endloop
  endfacet
  facet normal 4.226183e-001 9.063078e-001 0.000000e+000
    outer loop
      vertex  5.000000e+000 8.660254e+000 0.000000e+000
      vertex  3.420201e+000 9.396926e+000 0.000000e+000
      vertex  3.420201e+000 9.396926e+000 4.000000e-001
    endloop
  endfacet
  facet normal 2.588194e-001 9.659257e-001 0.000000e+000
    outer loop
      vertex  3.420201e+000 9.396926e+000 0.000000e+000
      vertex  1.736482e+000 9.848078e+000 0.000000e+000
      vertex  1.736482e+000 9.848078e+000 4.000000e-001
    endloop
  endfacet
  facet normal 8.715559e-002 9.961947e-001 0.000000e+000
    outer loop
      vertex  1.736482e+000 9.848078e+000 0.000000e+000
      vertex  6.123032e-016 1.000000e+001 0.000000e+000
      vertex  -1.836910e-015 1.000000e+001 4.000000e-001
    endloop
  endfacet
  facet normal -8.715559e-002 9.961947e-001 0.000000e+000
    outer loop
      vertex  6.123032e-016 1.000000e+001 0.000000e+000
      vertex  -1.736482e+000 9.848078e+000 0.000000e+000
      vertex  -1.736482e+000 9.848078e+000 4.000000e-001
    endloop
  endfacet
  facet normal -2.588194e-001 9.659257e-001 0.000000e+000
    outer loop
      vertex  -1.736482e+000 9.848078e+000 0.000000e+000
      vertex  -3.420201e+000 9.396926e+000 0.000000e+000
      vertex  -3.420201e+000 9.396926e+000 4.000000e-001
    endloop
  endfacet
  facet normal -4.226183e-001 9.063078e-001 0.000000e+000
    outer loop
      vertex  -3.420201e+000 9.396926e+000 0.000000e+000
      vertex  -5.000000e+000 8.660254e+000 0.000000e+000
      vertex  -5.000000e+000 8.660254e+000 4.000000e-001
    endloop
  endfacet
  facet normal -5.735765e-001 8.191520e-001 0.000000e+000
    outer loop
      vertex  -5.000000e+000 8.660254e+000 0.000000e+000
      vertex  -6.427876e+000 7.660444e+000 0.000000e+000
      vertex  -6.427876e+000 7.660444e+000 4.000000e-001
    endloop
  endfacet
  facet normal -7.071068e-001 7.071068e-001 0.000000e+000
    outer loop
      vertex  -6.427876e+000 7.660444e+000 0.000000e+000
      vertex  -7.660444e+000 6.427876e+000 0.000000e+000
      vertex  -7.660444e+000 6.427876e+000 4.000000e-001
    endloop
  endfacet
  facet normal -8.191520e-001 5.735765e-001 0.000000e+000
    outer loop
      vertex  -7.660444e+000 6.427876e+000 0.000000e+000
      vertex  -8.660254e+000 5.000000e+000 0.000000e+000
      vertex  -8.660254e+000 5.000000e+000 4.000000e-001
    endloop
  endfacet
  facet normal -9.063078e-001 4.226183e-001 0.000000e+000
    outer loop
      vertex  -8.660254e+000 5.000000e+000 0.000000e+000
      vertex  -9.396926e+000 3.420201e+000 0.000000e+000
      vertex  -9.396926e+000 3.420201e+000 4.000000e-001
    endloop
  endfacet
  facet normal -9.659257e-001 2.588194e-001 0.000000e+000
    outer loop
      vertex  -9.396926e+000 3.420201e+000 0.000000e+000
      vertex  -9.848078e+000 1.736482e+000 0.000000e+000
      vertex  -9.848078e+000 1.736482e+000 4.000000e-001
    endloop
  endfacet
  facet normal -9.961947e-001 8.715559e-002 0.000000e+000
    outer loop
      vertex  -9.848078e+000 1.736482e+000 0.000000e+000
      vertex  -1.000000e+001 1.224606e-015 0.000000e+000
      vertex  -1.000000e+001 -1.224606e-015 4.000000e-001
    endloop
  endfacet
  facet normal -9.961947e-001 -8.715559e-002 0.000000e+000
    outer loop
      vertex  -1.000000e+001 1.224606e-015 0.000000e+000
      vertex  -9.848078e+000 -1.736482e+000 0.000000e+000
      vertex  -9.848078e+000 -1.736482e+000 4.000000e-001
    endloop
  endfacet
  facet normal -9.659257e-001 -2.588194e-001 0.000000e+000
    outer loop
      vertex  -9.848078e+000 -1.736482e+000 0.000000e+000
      vertex  -9.396926e+000 -3.420201e+000 0.000000e+000
      vertex  -9.396926e+000 -3.420201e+000 4.000000e-001
    endloop
  endfacet
  facet normal -9.063078e-001 -4.226183e-001 0.000000e+000
    outer loop
      vertex  -9.396926e+000 -3.420201e+000 0.000000e+000
      vertex  -8.660254e+000 -5.000000e+000 0.000000e+000
      vertex  -8.660254e+000 -5.000000e+000 4.000000e-001
    endloop
  endfacet
  facet normal -8.191520e-001 -5.735765e-001 0.000000e+000
    outer loop
      vertex  -8.660254e+000 -5.000000e+000 0.000000e+000
      vertex  -7.660444e+000 -6.427876e+000 0.000000e+000
      vertex  -7.660444e+000 -6.427876e+000 4.000000e-001
    endloop
  endfacet
  facet normal -7.071068e-001 -7.071068e-001 0.000000e+000
    outer loop
      vertex  -7.660444e+000 -6.427876e+000 0.000000e+000
      vertex  -6.427876e+000 -7.660444e+000 0.000000e+000
      vertex  -6.427876e+000 -7.660444e+000 4.000000e-001
    endloop
  endfacet
  facet normal -5.735765e-001 -8.191520e-001 0.000000e+000
    outer loop
      vertex  -6.427876e+000 -7.660444e+000 0.000000e+000
      vertex  -5.000000e+000 -8.660254e+000 0.000000e+000
      vertex  -5.000000e+000 -8.660254e+000 4.000000e-001
    endloop
  endfacet
  facet normal -4.226183e-001 -9.063078e-001 0.000000e+000
    outer loop
      vertex  -5.000000e+000 -8.660254e+000 0.000000e+000
      vertex  -3.420201e+000 -9.396926e+000 0.000000e+000
      vertex  -3.420201e+000 -9.396926e+000 4.000000e-001
    endloop
  endfacet
  facet normal -2.588194e-001 -9.659257e-001 0.000000e+000
    outer loop
      vertex  -3.420201e+000 -9.396926e+000 0.000000e+000
      vertex  -1.736482e+000 -9.848078e+000 0.000000e+000
      vertex  -1.736482e+000 -9.848078e+000 4.000000e-001
    endloop
  endfacet
  facet normal -8.715559e-002 -9.961947e-001 0.000000e+000
    outer loop
      vertex  -1.736482e+000 -9.848078e+000 0.000000e+000
      vertex  -1.836910e-015 -1.000000e+001 0.000000e+000
      vertex  6.123032e-016 -1.000000e+001 4.000000e-001
    endloop
  endfacet
  facet normal 8.715559e-002 -9.961947e-001 0.000000e+000
    outer loop
      vertex  -1.836910e-015 -1.000000e+001 0.000000e+000
      vertex  1.736482e+000 -9.848078e+000 0.000000e+000
      vertex  1.736482e+000 -9.848078e+000 4.000000e-001
    endloop
  endfacet
  facet normal 2.588194e-001 -9.659257e-001 0.000000e+000
    outer loop
      vertex  1.736482e+000 -9.848078e+000 0.000000e+000
      vertex  3.420201e+000 -9.396926e+000 0.000000e+000
      vertex  3.420201e+000 -9.396926e+000 4.000000e-001
    endloop
  endfacet
  facet normal 4.226183e-001 -9.063078e-001 0.000000e+000
    outer loop
      vertex  3.420201e+000 -9.396926e+000 0.000000e+000
      vertex  5.000000e+000 -8.660254e+000 0.000000e+000
      vertex  5.000000e+000 -8.660254e+000 4.000000e-001
    endloop
  endfacet
  facet normal 5.735765e-001 -8.191520e-001 0.000000e+000
    outer loop
      vertex  5.000000e+000 -8.660254e+000 0.000000e+000
      vertex  6.427876e+000 -7.660444e+000 0.000000e+000
      vertex  6.427876e+000 -7.660444e+000 4.000000e-001
    endloop
  endfacet
  facet normal 7.071068e-001 -7.071068e-001 0.000000e+000
    outer loop
      vertex  6.427876e+000 -7.660444e+000 0.000000e+000
      vertex  7.660444e+000 -6.427876e+000 0.000000e+000
      vertex  7.660444e+000 -6.427876e+000 4.000000e-001
    endloop
  endfacet
  facet normal 8.191520e-001 -5.735765e-001 0.000000e+000
    outer loop
      vertex  7.660444e+000 -6.427876e+000 0.000000e+000
      vertex  8.660254e+000 -5.000000e+000 0.000000e+000
      vertex  8.660254e+000 -5.000000e+000 4.000000e-001
    endloop
  endfacet
  facet normal 0.000000e+000 0.000000e+000 1.000000e+000
    outer loop
      vertex  1.736482e+000 9.848078e+000 4.000000e-001
      vertex  -1.736482e+000 9.848078e+000 4.000000e-001
      vertex  3.420201e+000 9.396926e+000 4.000000e-001
    endloop
  endfacet
  facet normal 0.000000e+000 0.000000e+000 1.000000e+000
    outer loop
      vertex  1.736482e+000 9.848078e+000 4.000000e-001
      vertex  -1.836910e-015 1.000000e+001 4.000000e-001
      vertex  -1.736482e+000 9.848078e+000 4.000000e-001
    endloop
  endfacet
  facet normal 0.000000e+000 0.000000e+000 1.000000e+000
    outer loop
      vertex  3.420201e+000 9.396926e+000 4.000000e-001
      vertex  -3.420201e+000 9.396926e+000 4.000000e-001
      vertex  5.000000e+000 8.660254e+000 4.000000e-001
    endloop
  endfacet
  facet normal 0.000000e+000 0.000000e+000 1.000000e+000
    outer loop
      vertex  3.420201e+000 9.396926e+000 4.000000e-001
      vertex  -1.736482e+000 9.848078e+000 4.000000e-001
      vertex  -3.420201e+000 9.396926e+000 4.000000e-001
    endloop
  endfacet
  facet normal 0.000000e+000 0.000000e+000 1.000000e+000
    outer loop
      vertex  5.000000e+000 8.660254e+000 4.000000e-001
      vertex  -5.000000e+000 8.660254e+000 4.000000e-001
      vertex  6.427876e+000 7.660444e+000 4.000000e-001
    endloop
  endfacet
  facet normal 0.000000e+000 0.000000e+000 1.000000e+000
    outer loop
      vertex  5.000000e+000 8.660254e+000 4.000000e-001
      vertex  -3.420201e+000 9.396926e+000 4.000000e-001
      vertex  -5.000000e+000 8.660254e+000 4.000000e-001
    endloop
  endfacet
  facet normal 0.000000e+000 0.000000e+000 1.000000e+000
    outer loop
      vertex  6.427876e+000 7.660444e+000 4.000000e-001
      vertex  -6.427876e+000 7.660444e+000 4.000000e-001
      vertex  7.660444e+000 6.427876e+000 4.000000e-001
    endloop
  endfacet
  facet normal 0.000000e+000 0.000000e+000 1.000000e+000
    outer loop
      vertex  6.427876e+000 7.660444e+000 4.000000e-001
      vertex  -5.000000e+000 8.660254e+000 4.000000e-001
      vertex  -6.427876e+000 7.660444e+000 4.000000e-001
    endloop
  endfacet
  facet normal 0.000000e+000 0.000000e+000 1.000000e+000
    outer loop
      vertex  -6.427876e+000 7.660444e+000 4.000000e-001
      vertex  -7.660444e+000 6.427876e+000 4.000000e-001
      vertex  7.660444e+000 6.427876e+000 4.000000e-001
    endloop
  endfacet
  facet normal 0.000000e+000 0.000000e+000 1.000000e+000
    outer loop
      vertex  7.660444e+000 6.427876e+000 4.000000e-001
      vertex  -7.660444e+000 6.427876e+000 4.000000e-001
      vertex  8.660254e+000 5.000000e+000 4.000000e-001
    endloop
  endfacet
  facet normal 0.000000e+000 0.000000e+000 1.000000e+000
    outer loop
      vertex  8.660254e+000 5.000000e+000 4.000000e-001
      vertex  -7.660444e+000 6.427876e+000 4.000000e-001
      vertex  -8.660254e+000 5.000000e+000 4.000000e-001
    endloop
  endfacet
  facet normal 0.000000e+000 0.000000e+000 1.000000e+000
    outer loop
      vertex  9.396926e+000 3.420201e+000 4.000000e-001
      vertex  -8.660254e+000 5.000000e+000 4.000000e-001
      vertex  -9.396926e+000 3.420201e+000 4.000000e-001
    endloop
  endfacet
  facet normal 0.000000e+000 0.000000e+000 1.000000e+000
    outer loop
      vertex  9.848078e+000 1.736482e+000 4.000000e-001
      vertex  -9.396926e+000 3.420201e+000 4.000000e-001
      vertex  -9.848078e+000 1.736482e+000 4.000000e-001
    endloop
  endfacet
  facet normal 0.000000e+000 0.000000e+000 1.000000e+000
    outer loop
      vertex  1.000000e+001 0.000000e+000 4.000000e-001
      vertex  -9.848078e+000 1.736482e+000 4.000000e-001
      vertex  -1.000000e+001 -1.224606e-015 4.000000e-001
    endloop
  endfacet
  facet normal 0.000000e+000 0.000000e+000 1.000000e+000
    outer loop
      vertex  9.848078e+000 -1.736482e+000 4.000000e-001
      vertex  -1.000000e+001 -1.224606e-015 4.000000e-001
      vertex  -9.848078e+000 -1.736482e+000 4.000000e-001
    endloop
  endfacet
  facet normal 0.000000e+000 0.000000e+000 1.000000e+000
    outer loop
      vertex  9.396926e+000 -3.420201e+000 4.000000e-001
      vertex  -9.848078e+000 -1.736482e+000 4.000000e-001
      vertex  -9.396926e+000 -3.420201e+000 4.000000e-001
    endloop
  endfacet
  facet normal 0.000000e+000 0.000000e+000 1.000000e+000
    outer loop
      vertex  8.660254e+000 -5.000000e+000 4.000000e-001
      vertex  -9.396926e+000 -3.420201e+000 4.000000e-001
      vertex  -8.660254e+000 -5.000000e+000 4.000000e-001
    endloop
  endfacet
  facet normal 0.000000e+000 0.000000e+000 1.000000e+000
    outer loop
      vertex  7.660444e+000 -6.427876e+000 4.000000e-001
      vertex  -8.660254e+000 -5.000000e+000 4.000000e-001
      vertex  -7.660444e+000 -6.427876e+000 4.000000e-001
    endloop
  endfacet
  facet normal 0.000000e+000 0.000000e+000 1.000000e+000
    outer loop
      vertex  6.427876e+000 -7.660444e+000 4.000000e-001
      vertex  -7.660444e+000 -6.427876e+000 4.000000e-001
      vertex  -6.427876e+000 -7.660444e+000 4.000000e-001
    endloop
  endfacet
  facet normal 0.000000e+000 0.000000e+000 1.000000e+000
    outer loop
      vertex  5.000000e+000 -8.660254e+000 4.000000e-001
      vertex  -6.427876e+000 -7.660444e+000 4.000000e-001
      vertex  -5.000000e+000 -8.660254e+000 4.000000e-001
    endloop
  endfacet
  facet normal 0.000000e+000 0.000000e+000 1.000000e+000
    outer loop
      vertex  3.420201e+000 -9.396926e+000 4.000000e-001
      vertex  -5.000000e+000 -8.660254e+000 4.000000e-001
      vertex  -3.420201e+000 -9.396926e+000 4.000000e-001
    endloop
  endfacet
  facet normal 0.000000e+000 0.000000e+000 1.000000e+000
    outer loop
      vertex  1.736482e+000 -9.848078e+000 4.000000e-001
      vertex  -3.420201e+000 -9.396926e+000 4.000000e-001
      vertex  -1.736482e+000 -9.848078e+000 4.000000e-001
    endloop
  endfacet
  facet normal 0.000000e+000 -0.000000e+000 1.000000e+000
    outer loop
      vertex  6.123032e-016 -1.000000e+001 4.000000e-001
      vertex  1.736482e+000 -9.848078e+000 4.000000e-001
      vertex  -1.736482e+000 -9.848078e+000 4.000000e-001
    endloop
  endfacet
  facet normal 0.000000e+000 -0.000000e+000 1.000000e+000
    outer loop
      vertex  1.736482e+000 -9.848078e+000 4.000000e-001
      vertex  3.420201e+000 -9.396926e+000 4.000000e-001
      vertex  -3.420201e+000 -9.396926e+000 4.000000e-001
    endloop
  endfacet
  facet normal 0.000000e+000 -0.000000e+000 1.000000e+000
    outer loop
      vertex  3.420201e+000 -9.396926e+000 4.000000e-001
      vertex  5.000000e+000 -8.660254e+000 4.000000e-001
      vertex  -5.000000e+000 -8.660254e+000 4.000000e-001
    endloop
  endfacet
  facet normal 0.000000e+000 -0.000000e+000 1.000000e+000
    outer loop
      vertex  5.000000e+000 -8.660254e+000 4.000000e-001
      vertex  6.427876e+000 -7.660444e+000 4.000000e-001
      vertex  -6.427876e+000 -7.660444e+000 4.000000e-001
    endloop
  endfacet
  facet normal 0.000000e+000 -0.000000e+000 1.000000e+000
    outer loop
      vertex  6.427876e+000 -7.660444e+000 4.000000e-001
      vertex  7.660444e+000 -6.427876e+000 4.000000e-001
      vertex  -7.660444e+000 -6.427876e+000 4.000000e-001
    endloop
  endfacet
  facet normal 0.000000e+000 -0.000000e+000 1.000000e+000
    outer loop
      vertex  7.660444e+000 -6.427876e+000 4.000000e-001
      vertex  8.660254e+000 -5.000000e+000 4.000000e-001
      vertex  -8.660254e+000 -5.000000e+000 4.000000e-001
    endloop
  endfacet
  facet normal 0.000000e+000 -0.000000e+000 1.000000e+000
    outer loop
      vertex  8.660254e+000 -5.000000e+000 4.000000e-001
      vertex  9.396926e+000 -3.420201e+000 4.000000e-001
      vertex  -9.396926e+000 -3.420201e+000 4.000000e-001
    endloop
  endfacet
  facet normal 0.000000e+000 -0.000000e+000 1.000000e+000
    outer loop
      vertex  9.396926e+000 -3.420201e+000 4.000000e-001
      vertex  9.848078e+000 -1.736482e+000 4.000000e-001
      vertex  -9.848078e+000 -1.736482e+000 4.000000e-001
    endloop
  endfacet
  facet normal 0.000000e+000 -0.000000e+000 1.000000e+000
    outer loop
      vertex  9.848078e+000 -1.736482e+000 4.000000e-001
      vertex  1.000000e+001 0.000000e+000 4.000000e-001
      vertex  -1.000000e+001 -1.224606e-015 4.000000e-001
    endloop
  endfacet
  facet normal -0.000000e+000 0.000000e+000 1.000000e+000
    outer loop
      vertex  -9.848078e+000 1.736482e+000 4.000000e-001
      vertex  1.000000e+001 0.000000e+000 4.000000e-001
      vertex  9.848078e+000 1.736482e+000 4.000000e-001
    endloop
  endfacet
  facet normal -0.000000e+000 0.000000e+000 1.000000e+000
    outer loop
      vertex  -9.396926e+000 3.420201e+000 4.000000e-001
      vertex  9.848078e+000 1.736482e+000 4.000000e-001
      vertex  9.396926e+000 3.420201e+000 4.000000e-001
    endloop
  endfacet
  facet normal -0.000000e+000 0.000000e+000 1.000000e+000
    outer loop
      vertex  -8.660254e+000 5.000000e+000 4.000000e-001
      vertex  9.396926e+000 3.420201e+000 4.000000e-001
      vertex  8.660254e+000 5.000000e+000 4.000000e-001
    endloop
  endfacet
  facet normal 0.000000e+000 0.000000e+000 -1.000000e+000
    outer loop
      vertex  1.736482e+000 -9.848078e+000 0.000000e+000
      vertex  -1.736482e+000 -9.848078e+000 0.000000e+000
      vertex  3.420201e+000 -9.396926e+000 0.000000e+000
    endloop
  endfacet
  facet normal -0.000000e+000 0.000000e+000 -1.000000e+000
    outer loop
      vertex  1.736482e+000 -9.848078e+000 0.000000e+000
      vertex  -1.836910e-015 -1.000000e+001 0.000000e+000
      vertex  -1.736482e+000 -9.848078e+000 0.000000e+000
    endloop
  endfacet
  facet normal 0.000000e+000 0.000000e+000 -1.000000e+000
    outer loop
      vertex  3.420201e+000 -9.396926e+000 0.000000e+000
      vertex  -3.420201e+000 -9.396926e+000 0.000000e+000
      vertex  5.000000e+000 -8.660254e+000 0.000000e+000
    endloop
  endfacet
  facet normal -0.000000e+000 0.000000e+000 -1.000000e+000
    outer loop
      vertex  3.420201e+000 -9.396926e+000 0.000000e+000
      vertex  -1.736482e+000 -9.848078e+000 0.000000e+000
      vertex  -3.420201e+000 -9.396926e+000 0.000000e+000
    endloop
  endfacet
  facet normal 0.000000e+000 0.000000e+000 -1.000000e+000
    outer loop
      vertex  5.000000e+000 -8.660254e+000 0.000000e+000
      vertex  -5.000000e+000 -8.660254e+000 0.000000e+000
      vertex  6.427876e+000 -7.660444e+000 0.000000e+000
    endloop
  endfacet
  facet normal -0.000000e+000 0.000000e+000 -1.000000e+000
    outer loop
      vertex  5.000000e+000 -8.660254e+000 0.000000e+000
      vertex  -3.420201e+000 -9.396926e+000 0.000000e+000
      vertex  -5.000000e+000 -8.660254e+000 0.000000e+000
    endloop
  endfacet
  facet normal 0.000000e+000 0.000000e+000 -1.000000e+000
    outer loop
      vertex  6.427876e+000 -7.660444e+000 0.000000e+000
      vertex  -6.427876e+000 -7.660444e+000 0.000000e+000
      vertex  7.660444e+000 -6.427876e+000 0.000000e+000
    endloop
  endfacet
  facet normal -0.000000e+000 0.000000e+000 -1.000000e+000
    outer loop
      vertex  6.427876e+000 -7.660444e+000 0.000000e+000
      vertex  -5.000000e+000 -8.660254e+000 0.000000e+000
      vertex  -6.427876e+000 -7.660444e+000 0.000000e+000
    endloop
  endfacet
  facet normal 0.000000e+000 0.000000e+000 -1.000000e+000
    outer loop
      vertex  -6.427876e+000 -7.660444e+000 0.000000e+000
      vertex  -7.660444e+000 -6.427876e+000 0.000000e+000
      vertex  7.660444e+000 -6.427876e+000 0.000000e+000
    endloop
  endfacet
  facet normal 0.000000e+000 0.000000e+000 -1.000000e+000
    outer loop
      vertex  7.660444e+000 -6.427876e+000 0.000000e+000
      vertex  -7.660444e+000 -6.427876e+000 0.000000e+000
      vertex  8.660254e+000 -5.000000e+000 0.000000e+000
    endloop
  endfacet
  facet normal -0.000000e+000 0.000000e+000 -1.000000e+000
    outer loop
      vertex  8.660254e+000 -5.000000e+000 0.000000e+000
      vertex  -7.660444e+000 -6.427876e+000 0.000000e+000
      vertex  -8.660254e+000 -5.000000e+000 0.000000e+000
    endloop
  endfacet
  facet normal -0.000000e+000 0.000000e+000 -1.000000e+000
    outer loop
      vertex  9.396926e+000 -3.420201e+000 0.000000e+000
      vertex  -8.660254e+000 -5.000000e+000 0.000000e+000
      vertex  -9.396926e+000 -3.420201e+000 0.000000e+000
    endloop
  endfacet
  facet normal -0.000000e+000 0.000000e+000 -1.000000e+000
    outer loop
      vertex  9.848078e+000 -1.736482e+000 0.000000e+000
      vertex  -9.396926e+000 -3.420201e+000 0.000000e+000
      vertex  -9.848078e+000 -1.736482e+000 0.000000e+000
    endloop
  endfacet
  facet normal -0.000000e+000 0.000000e+000 -1.000000e+000
    outer loop
      vertex  1.000000e+001 0.000000e+000 0.000000e+000
      vertex  -9.848078e+000 -1.736482e+000 0.000000e+000
      vertex  -1.000000e+001 1.224606e-015 0.000000e+000
    endloop
  endfacet
  facet normal -0.000000e+000 0.000000e+000 -1.000000e+000
    outer loop
      vertex  9.848078e+000 1.736482e+000 0.000000e+000
      vertex  -1.000000e+001 1.224606e-015 0.000000e+000
      vertex  -9.848078e+000 1.736482e+000 0.000000e+000
    endloop
  endfacet
  facet normal -0.000000e+000 0.000000e+000 -1.000000e+000
    outer loop
      vertex  9.396926e+000 3.420201e+000 0.000000e+000
      vertex  -9.848078e+000 1.736482e+000 0.000000e+000
      vertex  -9.396926e+000 3.420201e+000 0.000000e+000
    endloop
  endfacet
  facet normal -0.000000e+000 0.000000e+000 -1.000000e+000
    outer loop
      vertex  8.660254e+000 5.000000e+000 0.000000e+000
      vertex  -9.396926e+000 3.420201e+000 0.000000e+000
      vertex  -8.660254e+000 5.000000e+000 0.000000e+000
    endloop
  endfacet
  facet normal -0.000000e+000 0.000000e+000 -1.000000e+000
    outer loop
      vertex  7.660444e+000 6.427876e+000 0.000000e+000
      vertex  -8.660254e+000 5.000000e+000 0.000000e+000
      vertex  -7.660444e+000 6.427876e+000 0.000000e+000
    endloop
  endfacet
  facet normal -0.000000e+000 0.000000e+000 -1.000000e+000
    outer loop
      vertex  6.427876e+000 7.660444e+000 0.000000e+000
      vertex  -7.660444e+000 6.427876e+000 0.000000e+000
      vertex  -6.427876e+000 7.660444e+000 0.000000e+000
    endloop
  endfacet
  facet normal -0.000000e+000 0.000000e+000 -1.000000e+000
    outer loop
      vertex  5.000000e+000 8.660254e+000 0.000000e+000
      vertex  -6.427876e+000 7.660444e+000 0.000000e+000
      vertex  -5.000000e+000 8.660254e+000 0.000000e+000
    endloop
  endfacet
  facet normal -0.000000e+000 0.000000e+000 -1.000000e+000
    outer loop
      vertex  3.420201e+000 9.396926e+000 0.000000e+000
      vertex  -5.000000e+000 8.660254e+000 0.000000e+000
      vertex  -3.420201e+000 9.396926e+000 0.000000e+000
    endloop
  endfacet
  facet normal -0.000000e+000 0.000000e+000 -1.000000e+000
    outer loop
      vertex  1.736482e+000 9.848078e+000 0.000000e+000
      vertex  -3.420201e+000 9.396926e+000 0.000000e+000
      vertex  -1.736482e+000 9.848078e+000 0.000000e+000
    endloop
  endfacet
  facet normal 0.000000e+000 -0.000000e+000 -1.000000e+000
    outer loop
      vertex  6.123032e-016 1.000000e+001 0.000000e+000
      vertex  1.736482e+000 9.848078e+000 0.000000e+000
      vertex  -1.736482e+000 9.848078e+000 0.000000e+000
    endloop
  endfacet
  facet normal 0.000000e+000 -0.000000e+000 -1.000000e+000
    outer loop
      vertex  1.736482e+000 9.848078e+000 0.000000e+000
      vertex  3.420201e+000 9.396926e+000 0.000000e+000
      vertex  -3.420201e+000 9.396926e+000 0.000000e+000
    endloop
  endfacet
  facet normal 0.000000e+000 -0.000000e+000 -1.000000e+000
    outer loop
      vertex  3.420201e+000 9.396926e+000 0.000000e+000
      vertex  5.000000e+000 8.660254e+000 0.000000e+000
      vertex  -5.000000e+000 8.660254e+000 0.000000e+000
    endloop
  endfacet
  facet normal 0.000000e+000 -0.000000e+000 -1.000000e+000
    outer loop
      vertex  5.000000e+000 8.660254e+000 0.000000e+000
      vertex  6.427876e+000 7.660444e+000 0.000000e+000
      vertex  -6.427876e+000 7.660444e+000 0.000000e+000
    endloop
  endfacet
  facet normal 0.000000e+000 -0.000000e+000 -1.000000e+000
    outer loop
      vertex  6.427876e+000 7.660444e+000 0.000000e+000
      vertex  7.660444e+000 6.427876e+000 0.000000e+000
      vertex  -7.660444e+000 6.427876e+000 0.000000e+000
    endloop
  endfacet
  facet normal 0.000000e+000 -0.000000e+000 -1.000000e+000
    outer loop
      vertex  7.660444e+000 6.427876e+000 0.000000e+000
      vertex  8.660254e+000 5.000000e+000 0.000000e+000
      vertex  -8.660254e+000 5.000000e+000 0.000000e+000
    endloop
  endfacet
  facet normal 0.000000e+000 -0.000000e+000 -1.000000e+000
    outer loop
      vertex  8.660254e+000 5.000000e+000 0.000000e+000
      vertex  9.396926e+000 3.420201e+000 0.000000e+000
      vertex  -9.396926e+000 3.420201e+000 0.000000e+000
    endloop
  endfacet
  facet normal 0.000000e+000 -0.000000e+000 -1.000000e+000
    outer loop
      vertex  9.396926e+000 3.420201e+000 0.000000e+000
      vertex  9.848078e+000 1.736482e+000 0.000000e+000
      vertex  -9.848078e+000 1.736482e+000 0.000000e+000
    endloop
  endfacet
  facet normal 0.000000e+000 -0.000000e+000 -1.000000e+000
    outer loop
      vertex  9.848078e+000 1.736482e+000 0.000000e+000
      vertex  1.000000e+001 0.000000e+000 0.000000e+000
      vertex  -1.000000e+001 1.224606e-015 0.000000e+000
    endloop
  endfacet
  facet normal 0.000000e+000 0.000000e+000 -1.000000e+000
    outer loop
      vertex  8.660254e+000 -5.000000e+000 0.000000e+000
      vertex  -8.660254e+000 -5.000000e+000 0.000000e+000
      vertex  9.396926e+000 -3.420201e+000 0.000000e+000
    endloop
  endfacet
  facet normal 0.000000e+000 0.000000e+000 -1.000000e+000
    outer loop
      vertex  9.396926e+000 -3.420201e+000 0.000000e+000
      vertex  -9.396926e+000 -3.420201e+000 0.000000e+000
      vertex  9.848078e+000 -1.736482e+000 0.000000e+000
    endloop
  endfacet
  facet normal 0.000000e+000 0.000000e+000 -1.000000e+000
    outer loop
      vertex  9.848078e+000 -1.736482e+000 0.000000e+000
      vertex  -9.848078e+000 -1.736482e+000 0.000000e+000
      vertex  1.000000e+001 0.000000e+000 0.000000e+000
    endloop
  endfacet
endsolid vcg
