solid ascii
  facet normal 9.961947e-001 -8.715574e-002 1.209529e-016
    outer loop
      vertex   9.848078e+000 -1.736482e+000 4.000000e-001
      vertex   9.848078e+000 -1.736482e+000 0.000000e+000
      vertex   1.000000e+001 0.000000e+000 4.000000e-001
    endloop
  endfacet
  facet normal 9.659258e-001 -2.588190e-001 3.731947e-016
    outer loop
      vertex   9.848078e+000 -1.736482e+000 4.000000e-001
      vertex   9.396926e+000 -3.420201e+000 0.000000e+000
      vertex   9.848078e+000 -1.736482e+000 0.000000e+000
    endloop
  endfacet
  facet normal 9.659258e-001 -2.588190e-001 -5.695361e-015
    outer loop
      vertex   9.848078e+000 -1.736482e+000 4.000000e-001
      vertex   9.396926e+000 -3.420201e+000 4.000000e-001
      vertex   9.396926e+000 -3.420201e+000 0.000000e+000
    endloop
  endfacet
  facet normal 9.063078e-001 -4.226183e-001 -1.851029e-015
    outer loop
      vertex   9.396926e+000 -3.420201e+000 0.000000e+000
      vertex   9.396926e+000 -3.420201e+000 4.000000e-001
      vertex   8.660254e+000 -5.000000e+000 0.000000e+000
    endloop
  endfacet
  facet normal 9.063078e-001 -4.226183e-001 7.463895e-016
    outer loop
      vertex   8.660254e+000 -5.000000e+000 0.000000e+000
      vertex   9.396926e+000 -3.420201e+000 4.000000e-001
      vertex   8.660254e+000 -5.000000e+000 4.000000e-001
    endloop
  endfacet
  facet normal 8.191520e-001 -5.735764e-001 -1.243982e-015
    outer loop
      vertex   7.660444e+000 -6.427876e+000 0.000000e+000
      vertex   8.660254e+000 -5.000000e+000 4.000000e-001
      vertex   7.660444e+000 -6.427876e+000 4.000000e-001
    endloop
  endfacet
  facet normal 7.071068e-001 -7.071068e-001 3.980744e-015
    outer loop
      vertex   6.427876e+000 -7.660444e+000 0.000000e+000
      vertex   7.660444e+000 -6.427876e+000 4.000000e-001
      vertex   6.427876e+000 -7.660444e+000 4.000000e-001
    endloop
  endfacet
  facet normal 5.735764e-001 -8.191520e-001 0.000000e+000
    outer loop
      vertex   5.000000e+000 -8.660254e+000 0.000000e+000
      vertex   6.427876e+000 -7.660444e+000 4.000000e-001
      vertex   5.000000e+000 -8.660254e+000 4.000000e-001
    endloop
  endfacet
  facet normal 4.226183e-001 -9.063078e-001 -1.990372e-015
    outer loop
      vertex   3.420201e+000 -9.396926e+000 0.000000e+000
      vertex   5.000000e+000 -8.660254e+000 4.000000e-001
      vertex   3.420201e+000 -9.396926e+000 4.000000e-001
    endloop
  endfacet
  facet normal 2.588190e-001 -9.659258e-001 2.487965e-015
    outer loop
      vertex   1.736482e+000 -9.848078e+000 0.000000e+000
      vertex   3.420201e+000 -9.396926e+000 4.000000e-001
      vertex   1.736482e+000 -9.848078e+000 4.000000e-001
    endloop
  endfacet
  facet normal 8.715574e-002 -9.961947e-001 -5.597921e-016
    outer loop
      vertex   -1.836910e-015 -1.000000e+001 0.000000e+000
      vertex   1.736482e+000 -9.848078e+000 4.000000e-001
      vertex   6.123032e-016 -1.000000e+001 4.000000e-001
    endloop
  endfacet
  facet normal -8.715574e-002 -9.961947e-001 0.000000e+000
    outer loop
      vertex   -1.736482e+000 -9.848078e+000 0.000000e+000
      vertex   6.123032e-016 -1.000000e+001 4.000000e-001
      vertex   -1.736482e+000 -9.848078e+000 4.000000e-001
    endloop
  endfacet
  facet normal -2.588190e-001 -9.659258e-001 -9.951860e-016
    outer loop
      vertex   -3.420201e+000 -9.396926e+000 0.000000e+000
      vertex   -1.736482e+000 -9.848078e+000 4.000000e-001
      vertex   -3.420201e+000 -9.396926e+000 4.000000e-001
    endloop
  endfacet
  facet normal -4.226183e-001 -9.063078e-001 1.990372e-015
    outer loop
      vertex   -5.000000e+000 -8.660254e+000 0.000000e+000
      vertex   -3.420201e+000 -9.396926e+000 4.000000e-001
      vertex   -5.000000e+000 -8.660254e+000 4.000000e-001
    endloop
  endfacet
  facet normal -5.735764e-001 -8.191520e-001 3.234354e-015
    outer loop
      vertex   -6.427876e+000 -7.660444e+000 0.000000e+000
      vertex   -5.000000e+000 -8.660254e+000 4.000000e-001
      vertex   -6.427876e+000 -7.660444e+000 4.000000e-001
    endloop
  endfacet
  facet normal -7.071068e-001 -7.071068e-001 -3.980744e-015
    outer loop
      vertex   -7.660444e+000 -6.427876e+000 0.000000e+000
      vertex   -6.427876e+000 -7.660444e+000 4.000000e-001
      vertex   -7.660444e+000 -6.427876e+000 4.000000e-001
    endloop
  endfacet
  facet normal -8.191520e-001 -5.735764e-001 1.243982e-015
    outer loop
      vertex   -8.660254e+000 -5.000000e+000 0.000000e+000
      vertex   -7.660444e+000 -6.427876e+000 4.000000e-001
      vertex   -8.660254e+000 -5.000000e+000 4.000000e-001
    endloop
  endfacet
  facet normal -9.063078e-001 -4.226183e-001 2.736761e-015
    outer loop
      vertex   -9.396926e+000 -3.420201e+000 0.000000e+000
      vertex   -8.660254e+000 -5.000000e+000 4.000000e-001
      vertex   -9.396926e+000 -3.420201e+000 4.000000e-001
    endloop
  endfacet
  facet normal -9.659258e-001 -2.588190e-001 1.119584e-015
    outer loop
      vertex   -9.848078e+000 -1.736482e+000 0.000000e+000
      vertex   -9.396926e+000 -3.420201e+000 4.000000e-001
      vertex   -9.848078e+000 -1.736482e+000 4.000000e-001
    endloop
  endfacet
  facet normal -9.961947e-001 -8.715574e-002 -4.975930e-016
    outer loop
      vertex   -1.000000e+001 1.224606e-015 0.000000e+000
      vertex   -9.848078e+000 -1.736482e+000 4.000000e-001
      vertex   -1.000000e+001 -1.224606e-015 4.000000e-001
    endloop
  endfacet
  facet normal -9.961947e-001 8.715574e-002 -4.042943e-015
    outer loop
      vertex   -9.848078e+000 1.736482e+000 0.000000e+000
      vertex   -1.000000e+001 -1.224606e-015 4.000000e-001
      vertex   -9.848078e+000 1.736482e+000 4.000000e-001
    endloop
  endfacet
  facet normal -9.659258e-001 2.588190e-001 -3.980744e-015
    outer loop
      vertex   -9.396926e+000 3.420201e+000 0.000000e+000
      vertex   -9.848078e+000 1.736482e+000 4.000000e-001
      vertex   -9.396926e+000 3.420201e+000 4.000000e-001
    endloop
  endfacet
  facet normal -9.063078e-001 4.226183e-001 -2.736761e-015
    outer loop
      vertex   -8.660254e+000 5.000000e+000 0.000000e+000
      vertex   -9.396926e+000 3.420201e+000 4.000000e-001
      vertex   -8.660254e+000 5.000000e+000 4.000000e-001
    endloop
  endfacet
  facet normal -8.191520e-001 5.735764e-001 3.234354e-015
    outer loop
      vertex   -7.660444e+000 6.427876e+000 0.000000e+000
      vertex   -8.660254e+000 5.000000e+000 4.000000e-001
      vertex   -7.660444e+000 6.427876e+000 4.000000e-001
    endloop
  endfacet
  facet normal -7.071068e-001 7.071068e-001 -3.980744e-015
    outer loop
      vertex   -6.427876e+000 7.660444e+000 0.000000e+000
      vertex   -7.660444e+000 6.427876e+000 4.000000e-001
      vertex   -6.427876e+000 7.660444e+000 4.000000e-001
    endloop
  endfacet
  facet normal -5.735764e-001 8.191520e-001 -4.975930e-015
    outer loop
      vertex   -5.000000e+000 8.660254e+000 0.000000e+000
      vertex   -6.427876e+000 7.660444e+000 4.000000e-001
      vertex   -5.000000e+000 8.660254e+000 4.000000e-001
    endloop
  endfacet
  facet normal -4.226183e-001 9.063078e-001 -1.990372e-015
    outer loop
      vertex   -3.420201e+000 9.396926e+000 0.000000e+000
      vertex   -5.000000e+000 8.660254e+000 4.000000e-001
      vertex   -3.420201e+000 9.396926e+000 4.000000e-001
    endloop
  endfacet
  facet normal -2.588190e-001 9.659258e-001 0.000000e+000
    outer loop
      vertex   -1.736482e+000 9.848078e+000 0.000000e+000
      vertex   -3.420201e+000 9.396926e+000 4.000000e-001
      vertex   -1.736482e+000 9.848078e+000 4.000000e-001
    endloop
  endfacet
  facet normal -8.715574e-002 9.961947e-001 -5.597921e-016
    outer loop
      vertex   6.123032e-016 1.000000e+001 0.000000e+000
      vertex   -1.736482e+000 9.848078e+000 4.000000e-001
      vertex   -1.836910e-015 1.000000e+001 4.000000e-001
    endloop
  endfacet
  facet normal 8.715574e-002 9.961947e-001 -4.540536e-015
    outer loop
      vertex   1.736482e+000 9.848078e+000 0.000000e+000
      vertex   -1.836910e-015 1.000000e+001 4.000000e-001
      vertex   1.736482e+000 9.848078e+000 4.000000e-001
    endloop
  endfacet
  facet normal 2.588190e-001 9.659258e-001 -1.119584e-015
    outer loop
      vertex   3.420201e+000 9.396926e+000 0.000000e+000
      vertex   1.736482e+000 9.848078e+000 4.000000e-001
      vertex   3.420201e+000 9.396926e+000 4.000000e-001
    endloop
  endfacet
  facet normal 4.226183e-001 9.063078e-001 0.000000e+000
    outer loop
      vertex   5.000000e+000 8.660254e+000 0.000000e+000
      vertex   3.420201e+000 9.396926e+000 4.000000e-001
      vertex   5.000000e+000 8.660254e+000 4.000000e-001
    endloop
  endfacet
  facet normal 5.735764e-001 8.191520e-001 -4.727133e-015
    outer loop
      vertex   6.427876e+000 7.660444e+000 0.000000e+000
      vertex   5.000000e+000 8.660254e+000 4.000000e-001
      vertex   6.427876e+000 7.660444e+000 4.000000e-001
    endloop
  endfacet
  facet normal 7.071068e-001 7.071068e-001 0.000000e+000
    outer loop
      vertex   7.660444e+000 6.427876e+000 0.000000e+000
      vertex   6.427876e+000 7.660444e+000 4.000000e-001
      vertex   7.660444e+000 6.427876e+000 4.000000e-001
    endloop
  endfacet
  facet normal 8.191520e-001 5.735764e-001 -3.483151e-015
    outer loop
      vertex   8.660254e+000 5.000000e+000 0.000000e+000
      vertex   7.660444e+000 6.427876e+000 4.000000e-001
      vertex   8.660254e+000 5.000000e+000 4.000000e-001
    endloop
  endfacet
  facet normal 9.063078e-001 4.226183e-001 1.741575e-015
    outer loop
      vertex   9.396926e+000 3.420201e+000 0.000000e+000
      vertex   8.660254e+000 5.000000e+000 4.000000e-001
      vertex   9.396926e+000 3.420201e+000 4.000000e-001
    endloop
  endfacet
  facet normal 9.659258e-001 2.588190e-001 -3.731947e-016
    outer loop
      vertex   9.848078e+000 1.736482e+000 0.000000e+000
      vertex   9.396926e+000 3.420201e+000 4.000000e-001
      vertex   9.848078e+000 1.736482e+000 4.000000e-001
    endloop
  endfacet
  facet normal 9.961947e-001 8.715574e-002 0.000000e+000
    outer loop
      vertex   1.000000e+001 0.000000e+000 0.000000e+000
      vertex   9.848078e+000 1.736482e+000 4.000000e-001
      vertex   1.000000e+001 0.000000e+000 4.000000e-001
    endloop
  endfacet
  facet normal 9.961947e-001 -8.715574e-002 0.000000e+000
    outer loop
      vertex   9.848078e+000 -1.736482e+000 0.000000e+000
      vertex   1.000000e+001 0.000000e+000 0.000000e+000
      vertex   1.000000e+001 0.000000e+000 4.000000e-001
    endloop
  endfacet
  facet normal 9.961947e-001 8.715574e-002 -1.209529e-016
    outer loop
      vertex   1.000000e+001 0.000000e+000 0.000000e+000
      vertex   9.848078e+000 1.736482e+000 0.000000e+000
      vertex   9.848078e+000 1.736482e+000 4.000000e-001
    endloop
  endfacet
  facet normal 9.659258e-001 2.588190e-001 5.695361e-015
    outer loop
      vertex   9.848078e+000 1.736482e+000 0.000000e+000
      vertex   9.396926e+000 3.420201e+000 0.000000e+000
      vertex   9.396926e+000 3.420201e+000 4.000000e-001
    endloop
  endfacet
  facet normal 9.063078e-001 4.226183e-001 -8.339877e-016
    outer loop
      vertex   9.396926e+000 3.420201e+000 0.000000e+000
      vertex   8.660254e+000 5.000000e+000 0.000000e+000
      vertex   8.660254e+000 5.000000e+000 4.000000e-001
    endloop
  endfacet
  facet normal 8.191520e-001 5.735764e-001 1.363218e-015
    outer loop
      vertex   8.660254e+000 5.000000e+000 0.000000e+000
      vertex   7.660444e+000 6.427876e+000 0.000000e+000
      vertex   7.660444e+000 6.427876e+000 4.000000e-001
    endloop
  endfacet
  facet normal 7.071068e-001 7.071068e-001 -3.925231e-015
    outer loop
      vertex   7.660444e+000 6.427876e+000 0.000000e+000
      vertex   6.427876e+000 7.660444e+000 0.000000e+000
      vertex   6.427876e+000 7.660444e+000 4.000000e-001
    endloop
  endfacet
  facet normal 5.735764e-001 8.191520e-001 -0.000000e+000
    outer loop
      vertex   6.427876e+000 7.660444e+000 0.000000e+000
      vertex   5.000000e+000 8.660254e+000 0.000000e+000
      vertex   5.000000e+000 8.660254e+000 4.000000e-001
    endloop
  endfacet
  facet normal 4.226183e-001 9.063078e-001 2.006989e-015
    outer loop
      vertex   5.000000e+000 8.660254e+000 0.000000e+000
      vertex   3.420201e+000 9.396926e+000 0.000000e+000
      vertex   3.420201e+000 9.396926e+000 4.000000e-001
    endloop
  endfacet
  facet normal 2.588190e-001 9.659258e-001 -2.488497e-015
    outer loop
      vertex   3.420201e+000 9.396926e+000 0.000000e+000
      vertex   1.736482e+000 9.848078e+000 0.000000e+000
      vertex   1.736482e+000 9.848078e+000 4.000000e-001
    endloop
  endfacet
  facet normal 8.715574e-002 9.961947e-001 5.336574e-016
    outer loop
      vertex   1.736482e+000 9.848078e+000 0.000000e+000
      vertex   6.123032e-016 1.000000e+001 0.000000e+000
      vertex   -1.836910e-015 1.000000e+001 4.000000e-001
    endloop
  endfacet
  facet normal -8.715574e-002 9.961947e-001 0.000000e+000
    outer loop
      vertex   6.123032e-016 1.000000e+001 0.000000e+000
      vertex   -1.736482e+000 9.848078e+000 0.000000e+000
      vertex   -1.736482e+000 9.848078e+000 4.000000e-001
    endloop
  endfacet
  facet normal -2.588190e-001 9.659258e-001 1.051763e-015
    outer loop
      vertex   -1.736482e+000 9.848078e+000 0.000000e+000
      vertex   -3.420201e+000 9.396926e+000 0.000000e+000
      vertex   -3.420201e+000 9.396926e+000 4.000000e-001
    endloop
  endfacet
  facet normal -4.226183e-001 9.063078e-001 -2.006989e-015
    outer loop
      vertex   -3.420201e+000 9.396926e+000 0.000000e+000
      vertex   -5.000000e+000 8.660254e+000 0.000000e+000
      vertex   -5.000000e+000 8.660254e+000 4.000000e-001
    endloop
  endfacet
  facet normal -5.735764e-001 8.191520e-001 -3.183989e-015
    outer loop
      vertex   -5.000000e+000 8.660254e+000 0.000000e+000
      vertex   -6.427876e+000 7.660444e+000 0.000000e+000
      vertex   -6.427876e+000 7.660444e+000 4.000000e-001
    endloop
  endfacet
  facet normal -7.071068e-001 7.071068e-001 3.925231e-015
    outer loop
      vertex   -6.427876e+000 7.660444e+000 0.000000e+000
      vertex   -7.660444e+000 6.427876e+000 0.000000e+000
      vertex   -7.660444e+000 6.427876e+000 4.000000e-001
    endloop
  endfacet
  facet normal -8.191520e-001 5.735764e-001 -1.363218e-015
    outer loop
      vertex   -7.660444e+000 6.427876e+000 0.000000e+000
      vertex   -8.660254e+000 5.000000e+000 0.000000e+000
      vertex   -8.660254e+000 5.000000e+000 4.000000e-001
    endloop
  endfacet
  facet normal -9.063078e-001 4.226183e-001 -2.685016e-015
    outer loop
      vertex   -8.660254e+000 5.000000e+000 0.000000e+000
      vertex   -9.396926e+000 3.420201e+000 0.000000e+000
      vertex   -9.396926e+000 3.420201e+000 4.000000e-001
    endloop
  endfacet
  facet normal -9.659258e-001 2.588190e-001 -1.051763e-015
    outer loop
      vertex   -9.396926e+000 3.420201e+000 0.000000e+000
      vertex   -9.848078e+000 1.736482e+000 0.000000e+000
      vertex   -9.848078e+000 1.736482e+000 4.000000e-001
    endloop
  endfacet
  facet normal -9.961947e-001 8.715574e-002 5.336574e-016
    outer loop
      vertex   -9.848078e+000 1.736482e+000 0.000000e+000
      vertex   -1.000000e+001 1.224606e-015 0.000000e+000
      vertex   -1.000000e+001 -1.224606e-015 4.000000e-001
    endloop
  endfacet
  facet normal -9.961947e-001 -8.715574e-002 4.078557e-015
    outer loop
      vertex   -1.000000e+001 1.224606e-015 0.000000e+000
      vertex   -9.848078e+000 -1.736482e+000 0.000000e+000
      vertex   -9.848078e+000 -1.736482e+000 4.000000e-001
    endloop
  endfacet
  facet normal -9.659258e-001 -2.588190e-001 3.925231e-015
    outer loop
      vertex   -9.848078e+000 -1.736482e+000 0.000000e+000
      vertex   -9.396926e+000 -3.420201e+000 0.000000e+000
      vertex   -9.396926e+000 -3.420201e+000 4.000000e-001
    endloop
  endfacet
  facet normal -9.063078e-001 -4.226183e-001 2.685016e-015
    outer loop
      vertex   -9.396926e+000 -3.420201e+000 0.000000e+000
      vertex   -8.660254e+000 -5.000000e+000 0.000000e+000
      vertex   -8.660254e+000 -5.000000e+000 4.000000e-001
    endloop
  endfacet
  facet normal -8.191520e-001 -5.735764e-001 -3.183989e-015
    outer loop
      vertex   -8.660254e+000 -5.000000e+000 0.000000e+000
      vertex   -7.660444e+000 -6.427876e+000 0.000000e+000
      vertex   -7.660444e+000 -6.427876e+000 4.000000e-001
    endloop
  endfacet
  facet normal -7.071068e-001 -7.071068e-001 3.925231e-015
    outer loop
      vertex   -7.660444e+000 -6.427876e+000 0.000000e+000
      vertex   -6.427876e+000 -7.660444e+000 0.000000e+000
      vertex   -6.427876e+000 -7.660444e+000 4.000000e-001
    endloop
  endfacet
  facet normal -5.735764e-001 -8.191520e-001 5.004759e-015
    outer loop
      vertex   -6.427876e+000 -7.660444e+000 0.000000e+000
      vertex   -5.000000e+000 -8.660254e+000 0.000000e+000
      vertex   -5.000000e+000 -8.660254e+000 4.000000e-001
    endloop
  endfacet
  facet normal -4.226183e-001 -9.063078e-001 2.006989e-015
    outer loop
      vertex   -5.000000e+000 -8.660254e+000 0.000000e+000
      vertex   -3.420201e+000 -9.396926e+000 0.000000e+000
      vertex   -3.420201e+000 -9.396926e+000 4.000000e-001
    endloop
  endfacet
  facet normal -2.588190e-001 -9.659258e-001 0.000000e+000
    outer loop
      vertex   -3.420201e+000 -9.396926e+000 0.000000e+000
      vertex   -1.736482e+000 -9.848078e+000 0.000000e+000
      vertex   -1.736482e+000 -9.848078e+000 4.000000e-001
    endloop
  endfacet
  facet normal -8.715574e-002 -9.961947e-001 5.336574e-016
    outer loop
      vertex   -1.736482e+000 -9.848078e+000 0.000000e+000
      vertex   -1.836910e-015 -1.000000e+001 0.000000e+000
      vertex   6.123032e-016 -1.000000e+001 4.000000e-001
    endloop
  endfacet
  facet normal 8.715574e-002 -9.961947e-001 4.562368e-015
    outer loop
      vertex   -1.836910e-015 -1.000000e+001 0.000000e+000
      vertex   1.736482e+000 -9.848078e+000 0.000000e+000
      vertex   1.736482e+000 -9.848078e+000 4.000000e-001
    endloop
  endfacet
  facet normal 2.588190e-001 -9.659258e-001 1.051763e-015
    outer loop
      vertex   1.736482e+000 -9.848078e+000 0.000000e+000
      vertex   3.420201e+000 -9.396926e+000 0.000000e+000
      vertex   3.420201e+000 -9.396926e+000 4.000000e-001
    endloop
  endfacet
  facet normal 4.226183e-001 -9.063078e-001 0.000000e+000
    outer loop
      vertex   3.420201e+000 -9.396926e+000 0.000000e+000
      vertex   5.000000e+000 -8.660254e+000 0.000000e+000
      vertex   5.000000e+000 -8.660254e+000 4.000000e-001
    endloop
  endfacet
  facet normal 5.735764e-001 -8.191520e-001 4.547207e-015
    outer loop
      vertex   5.000000e+000 -8.660254e+000 0.000000e+000
      vertex   6.427876e+000 -7.660444e+000 0.000000e+000
      vertex   6.427876e+000 -7.660444e+000 4.000000e-001
    endloop
  endfacet
  facet normal 7.071068e-001 -7.071068e-001 -7.071222e-030
    outer loop
      vertex   6.427876e+000 -7.660444e+000 0.000000e+000
      vertex   7.660444e+000 -6.427876e+000 0.000000e+000
      vertex   7.660444e+000 -6.427876e+000 4.000000e-001
    endloop
  endfacet
  facet normal 8.191520e-001 -5.735764e-001 3.412765e-015
    outer loop
      vertex   7.660444e+000 -6.427876e+000 0.000000e+000
      vertex   8.660254e+000 -5.000000e+000 0.000000e+000
      vertex   8.660254e+000 -5.000000e+000 4.000000e-001
    endloop
  endfacet
  facet normal 0.000000e+000 0.000000e+000 1.000000e+000
    outer loop
      vertex   1.736482e+000 9.848078e+000 4.000000e-001
      vertex   -1.736482e+000 9.848078e+000 4.000000e-001
      vertex   3.420201e+000 9.396926e+000 4.000000e-001
    endloop
  endfacet
  facet normal 0.000000e+000 0.000000e+000 1.000000e+000
    outer loop
      vertex   1.736482e+000 9.848078e+000 4.000000e-001
      vertex   -1.836910e-015 1.000000e+001 4.000000e-001
      vertex   -1.736482e+000 9.848078e+000 4.000000e-001
    endloop
  endfacet
  facet normal 0.000000e+000 0.000000e+000 1.000000e+000
    outer loop
      vertex   3.420201e+000 9.396926e+000 4.000000e-001
      vertex   -3.420201e+000 9.396926e+000 4.000000e-001
      vertex   5.000000e+000 8.660254e+000 4.000000e-001
    endloop
  endfacet
  facet normal 0.000000e+000 0.000000e+000 1.000000e+000
    outer loop
      vertex   3.420201e+000 9.396926e+000 4.000000e-001
      vertex   -1.736482e+000 9.848078e+000 4.000000e-001
      vertex   -3.420201e+000 9.396926e+000 4.000000e-001
    endloop
  endfacet
  facet normal 0.000000e+000 0.000000e+000 1.000000e+000
    outer loop
      vertex   5.000000e+000 8.660254e+000 4.000000e-001
      vertex   -5.000000e+000 8.660254e+000 4.000000e-001
      vertex   6.427876e+000 7.660444e+000 4.000000e-001
    endloop
  endfacet
  facet normal 0.000000e+000 0.000000e+000 1.000000e+000
    outer loop
      vertex   5.000000e+000 8.660254e+000 4.000000e-001
      vertex   -3.420201e+000 9.396926e+000 4.000000e-001
      vertex   -5.000000e+000 8.660254e+000 4.000000e-001
    endloop
  endfacet
  facet normal 0.000000e+000 0.000000e+000 1.000000e+000
    outer loop
      vertex   6.427876e+000 7.660444e+000 4.000000e-001
      vertex   -6.427876e+000 7.660444e+000 4.000000e-001
      vertex   7.660444e+000 6.427876e+000 4.000000e-001
    endloop
  endfacet
  facet normal 0.000000e+000 0.000000e+000 1.000000e+000
    outer loop
      vertex   6.427876e+000 7.660444e+000 4.000000e-001
      vertex   -5.000000e+000 8.660254e+000 4.000000e-001
      vertex   -6.427876e+000 7.660444e+000 4.000000e-001
    endloop
  endfacet
  facet normal -0.000000e+000 0.000000e+000 1.000000e+000
    outer loop
      vertex   -6.427876e+000 7.660444e+000 4.000000e-001
      vertex   -7.660444e+000 6.427876e+000 4.000000e-001
      vertex   7.660444e+000 6.427876e+000 4.000000e-001
    endloop
  endfacet
  facet normal 0.000000e+000 0.000000e+000 1.000000e+000
    outer loop
      vertex   7.660444e+000 6.427876e+000 4.000000e-001
      vertex   -7.660444e+000 6.427876e+000 4.000000e-001
      vertex   8.660254e+000 5.000000e+000 4.000000e-001
    endloop
  endfacet
  facet normal 0.000000e+000 0.000000e+000 1.000000e+000
    outer loop
      vertex   8.660254e+000 5.000000e+000 4.000000e-001
      vertex   -7.660444e+000 6.427876e+000 4.000000e-001
      vertex   -8.660254e+000 5.000000e+000 4.000000e-001
    endloop
  endfacet
  facet normal 0.000000e+000 0.000000e+000 1.000000e+000
    outer loop
      vertex   9.396926e+000 3.420201e+000 4.000000e-001
      vertex   -8.660254e+000 5.000000e+000 4.000000e-001
      vertex   -9.396926e+000 3.420201e+000 4.000000e-001
    endloop
  endfacet
  facet normal 0.000000e+000 0.000000e+000 1.000000e+000
    outer loop
      vertex   9.848078e+000 1.736482e+000 4.000000e-001
      vertex   -9.396926e+000 3.420201e+000 4.000000e-001
      vertex   -9.848078e+000 1.736482e+000 4.000000e-001
    endloop
  endfacet
  facet normal 0.000000e+000 0.000000e+000 1.000000e+000
    outer loop
      vertex   1.000000e+001 0.000000e+000 4.000000e-001
      vertex   -9.848078e+000 1.736482e+000 4.000000e-001
      vertex   -1.000000e+001 -1.224606e-015 4.000000e-001
    endloop
  endfacet
  facet normal 0.000000e+000 0.000000e+000 1.000000e+000
    outer loop
      vertex   9.848078e+000 -1.736482e+000 4.000000e-001
      vertex   -1.000000e+001 -1.224606e-015 4.000000e-001
      vertex   -9.848078e+000 -1.736482e+000 4.000000e-001
    endloop
  endfacet
  facet normal 0.000000e+000 0.000000e+000 1.000000e+000
    outer loop
      vertex   9.396926e+000 -3.420201e+000 4.000000e-001
      vertex   -9.848078e+000 -1.736482e+000 4.000000e-001
      vertex   -9.396926e+000 -3.420201e+000 4.000000e-001
    endloop
  endfacet
  facet normal 0.000000e+000 0.000000e+000 1.000000e+000
    outer loop
      vertex   8.660254e+000 -5.000000e+000 4.000000e-001
      vertex   -9.396926e+000 -3.420201e+000 4.000000e-001
      vertex   -8.660254e+000 -5.000000e+000 4.000000e-001
    endloop
  endfacet
  facet normal 0.000000e+000 0.000000e+000 1.000000e+000
    outer loop
      vertex   7.660444e+000 -6.427876e+000 4.000000e-001
      vertex   -8.660254e+000 -5.000000e+000 4.000000e-001
      vertex   -7.660444e+000 -6.427876e+000 4.000000e-001
    endloop
  endfacet
  facet normal 0.000000e+000 0.000000e+000 1.000000e+000
    outer loop
      vertex   6.427876e+000 -7.660444e+000 4.000000e-001
      vertex   -7.660444e+000 -6.427876e+000 4.000000e-001
      vertex   -6.427876e+000 -7.660444e+000 4.000000e-001
    endloop
  endfacet
  facet normal 0.000000e+000 0.000000e+000 1.000000e+000
    outer loop
      vertex   5.000000e+000 -8.660254e+000 4.000000e-001
      vertex   -6.427876e+000 -7.660444e+000 4.000000e-001
      vertex   -5.000000e+000 -8.660254e+000 4.000000e-001
    endloop
  endfacet
  facet normal 0.000000e+000 0.000000e+000 1.000000e+000
    outer loop
      vertex   3.420201e+000 -9.396926e+000 4.000000e-001
      vertex   -5.000000e+000 -8.660254e+000 4.000000e-001
      vertex   -3.420201e+000 -9.396926e+000 4.000000e-001
    endloop
  endfacet
  facet normal 0.000000e+000 0.000000e+000 1.000000e+000
    outer loop
      vertex   1.736482e+000 -9.848078e+000 4.000000e-001
      vertex   -3.420201e+000 -9.396926e+000 4.000000e-001
      vertex   -1.736482e+000 -9.848078e+000 4.000000e-001
    endloop
  endfacet
  facet normal 0.000000e+000 -0.000000e+000 1.000000e+000
    outer loop
      vertex   6.123032e-016 -1.000000e+001 4.000000e-001
      vertex   1.736482e+000 -9.848078e+000 4.000000e-001
      vertex   -1.736482e+000 -9.848078e+000 4.000000e-001
    endloop
  endfacet
  facet normal 0.000000e+000 -0.000000e+000 1.000000e+000
    outer loop
      vertex   1.736482e+000 -9.848078e+000 4.000000e-001
      vertex   3.420201e+000 -9.396926e+000 4.000000e-001
      vertex   -3.420201e+000 -9.396926e+000 4.000000e-001
    endloop
  endfacet
  facet normal 0.000000e+000 -0.000000e+000 1.000000e+000
    outer loop
      vertex   3.420201e+000 -9.396926e+000 4.000000e-001
      vertex   5.000000e+000 -8.660254e+000 4.000000e-001
      vertex   -5.000000e+000 -8.660254e+000 4.000000e-001
    endloop
  endfacet
  facet normal 0.000000e+000 -0.000000e+000 1.000000e+000
    outer loop
      vertex   5.000000e+000 -8.660254e+000 4.000000e-001
      vertex   6.427876e+000 -7.660444e+000 4.000000e-001
      vertex   -6.427876e+000 -7.660444e+000 4.000000e-001
    endloop
  endfacet
  facet normal 0.000000e+000 -0.000000e+000 1.000000e+000
    outer loop
      vertex   6.427876e+000 -7.660444e+000 4.000000e-001
      vertex   7.660444e+000 -6.427876e+000 4.000000e-001
      vertex   -7.660444e+000 -6.427876e+000 4.000000e-001
    endloop
  endfacet
  facet normal 0.000000e+000 -0.000000e+000 1.000000e+000
    outer loop
      vertex   7.660444e+000 -6.427876e+000 4.000000e-001
      vertex   8.660254e+000 -5.000000e+000 4.000000e-001
      vertex   -8.660254e+000 -5.000000e+000 4.000000e-001
    endloop
  endfacet
  facet normal 0.000000e+000 -0.000000e+000 1.000000e+000
    outer loop
      vertex   8.660254e+000 -5.000000e+000 4.000000e-001
      vertex   9.396926e+000 -3.420201e+000 4.000000e-001
      vertex   -9.396926e+000 -3.420201e+000 4.000000e-001
    endloop
  endfacet
  facet normal 0.000000e+000 -0.000000e+000 1.000000e+000
    outer loop
      vertex   9.396926e+000 -3.420201e+000 4.000000e-001
      vertex   9.848078e+000 -1.736482e+000 4.000000e-001
      vertex   -9.848078e+000 -1.736482e+000 4.000000e-001
    endloop
  endfacet
  facet normal 0.000000e+000 -0.000000e+000 1.000000e+000
    outer loop
      vertex   9.848078e+000 -1.736482e+000 4.000000e-001
      vertex   1.000000e+001 0.000000e+000 4.000000e-001
      vertex   -1.000000e+001 -1.224606e-015 4.000000e-001
    endloop
  endfacet
  facet normal -0.000000e+000 -0.000000e+000 1.000000e+000
    outer loop
      vertex   -9.848078e+000 1.736482e+000 4.000000e-001
      vertex   1.000000e+001 0.000000e+000 4.000000e-001
      vertex   9.848078e+000 1.736482e+000 4.000000e-001
    endloop
  endfacet
  facet normal -0.000000e+000 -0.000000e+000 1.000000e+000
    outer loop
      vertex   -9.396926e+000 3.420201e+000 4.000000e-001
      vertex   9.848078e+000 1.736482e+000 4.000000e-001
      vertex   9.396926e+000 3.420201e+000 4.000000e-001
    endloop
  endfacet
  facet normal -0.000000e+000 -0.000000e+000 1.000000e+000
    outer loop
      vertex   -8.660254e+000 5.000000e+000 4.000000e-001
      vertex   9.396926e+000 3.420201e+000 4.000000e-001
      vertex   8.660254e+000 5.000000e+000 4.000000e-001
    endloop
  endfacet
  facet normal 0.000000e+000 0.000000e+000 -1.000000e+000
    outer loop
      vertex   1.736482e+000 -9.848078e+000 0.000000e+000
      vertex   -1.736482e+000 -9.848078e+000 0.000000e+000
      vertex   3.420201e+000 -9.396926e+000 0.000000e+000
    endloop
  endfacet
  facet normal -0.000000e+000 0.000000e+000 -1.000000e+000
    outer loop
      vertex   1.736482e+000 -9.848078e+000 0.000000e+000
      vertex   -1.836910e-015 -1.000000e+001 0.000000e+000
      vertex   -1.736482e+000 -9.848078e+000 0.000000e+000
    endloop
  endfacet
  facet normal 0.000000e+000 0.000000e+000 -1.000000e+000
    outer loop
      vertex   3.420201e+000 -9.396926e+000 0.000000e+000
      vertex   -3.420201e+000 -9.396926e+000 0.000000e+000
      vertex   5.000000e+000 -8.660254e+000 0.000000e+000
    endloop
  endfacet
  facet normal -0.000000e+000 0.000000e+000 -1.000000e+000
    outer loop
      vertex   3.420201e+000 -9.396926e+000 0.000000e+000
      vertex   -1.736482e+000 -9.848078e+000 0.000000e+000
      vertex   -3.420201e+000 -9.396926e+000 0.000000e+000
    endloop
  endfacet
  facet normal 0.000000e+000 0.000000e+000 -1.000000e+000
    outer loop
      vertex   5.000000e+000 -8.660254e+000 0.000000e+000
      vertex   -5.000000e+000 -8.660254e+000 0.000000e+000
      vertex   6.427876e+000 -7.660444e+000 0.000000e+000
    endloop
  endfacet
  facet normal -0.000000e+000 0.000000e+000 -1.000000e+000
    outer loop
      vertex   5.000000e+000 -8.660254e+000 0.000000e+000
      vertex   -3.420201e+000 -9.396926e+000 0.000000e+000
      vertex   -5.000000e+000 -8.660254e+000 0.000000e+000
    endloop
  endfacet
  facet normal 0.000000e+000 0.000000e+000 -1.000000e+000
    outer loop
      vertex   6.427876e+000 -7.660444e+000 0.000000e+000
      vertex   -6.427876e+000 -7.660444e+000 0.000000e+000
      vertex   7.660444e+000 -6.427876e+000 0.000000e+000
    endloop
  endfacet
  facet normal -0.000000e+000 0.000000e+000 -1.000000e+000
    outer loop
      vertex   6.427876e+000 -7.660444e+000 0.000000e+000
      vertex   -5.000000e+000 -8.660254e+000 0.000000e+000
      vertex   -6.427876e+000 -7.660444e+000 0.000000e+000
    endloop
  endfacet
  facet normal 0.000000e+000 0.000000e+000 -1.000000e+000
    outer loop
      vertex   -6.427876e+000 -7.660444e+000 0.000000e+000
      vertex   -7.660444e+000 -6.427876e+000 0.000000e+000
      vertex   7.660444e+000 -6.427876e+000 0.000000e+000
    endloop
  endfacet
  facet normal 0.000000e+000 0.000000e+000 -1.000000e+000
    outer loop
      vertex   7.660444e+000 -6.427876e+000 0.000000e+000
      vertex   -7.660444e+000 -6.427876e+000 0.000000e+000
      vertex   8.660254e+000 -5.000000e+000 0.000000e+000
    endloop
  endfacet
  facet normal -0.000000e+000 0.000000e+000 -1.000000e+000
    outer loop
      vertex   8.660254e+000 -5.000000e+000 0.000000e+000
      vertex   -7.660444e+000 -6.427876e+000 0.000000e+000
      vertex   -8.660254e+000 -5.000000e+000 0.000000e+000
    endloop
  endfacet
  facet normal -0.000000e+000 0.000000e+000 -1.000000e+000
    outer loop
      vertex   9.396926e+000 -3.420201e+000 0.000000e+000
      vertex   -8.660254e+000 -5.000000e+000 0.000000e+000
      vertex   -9.396926e+000 -3.420201e+000 0.000000e+000
    endloop
  endfacet
  facet normal -0.000000e+000 0.000000e+000 -1.000000e+000
    outer loop
      vertex   9.848078e+000 -1.736482e+000 0.000000e+000
      vertex   -9.396926e+000 -3.420201e+000 0.000000e+000
      vertex   -9.848078e+000 -1.736482e+000 0.000000e+000
    endloop
  endfacet
  facet normal -0.000000e+000 0.000000e+000 -1.000000e+000
    outer loop
      vertex   1.000000e+001 0.000000e+000 0.000000e+000
      vertex   -9.848078e+000 -1.736482e+000 0.000000e+000
      vertex   -1.000000e+001 1.224606e-015 0.000000e+000
    endloop
  endfacet
  facet normal -0.000000e+000 0.000000e+000 -1.000000e+000
    outer loop
      vertex   9.848078e+000 1.736482e+000 0.000000e+000
      vertex   -1.000000e+001 1.224606e-015 0.000000e+000
      vertex   -9.848078e+000 1.736482e+000 0.000000e+000
    endloop
  endfacet
  facet normal -0.000000e+000 0.000000e+000 -1.000000e+000
    outer loop
      vertex   9.396926e+000 3.420201e+000 0.000000e+000
      vertex   -9.848078e+000 1.736482e+000 0.000000e+000
      vertex   -9.396926e+000 3.420201e+000 0.000000e+000
    endloop
  endfacet
  facet normal -0.000000e+000 0.000000e+000 -1.000000e+000
    outer loop
      vertex   8.660254e+000 5.000000e+000 0.000000e+000
      vertex   -9.396926e+000 3.420201e+000 0.000000e+000
      vertex   -8.660254e+000 5.000000e+000 0.000000e+000
    endloop
  endfacet
  facet normal -0.000000e+000 0.000000e+000 -1.000000e+000
    outer loop
      vertex   7.660444e+000 6.427876e+000 0.000000e+000
      vertex   -8.660254e+000 5.000000e+000 0.000000e+000
      vertex   -7.660444e+000 6.427876e+000 0.000000e+000
    endloop
  endfacet
  facet normal -0.000000e+000 0.000000e+000 -1.000000e+000
    outer loop
      vertex   6.427876e+000 7.660444e+000 0.000000e+000
      vertex   -7.660444e+000 6.427876e+000 0.000000e+000
      vertex   -6.427876e+000 7.660444e+000 0.000000e+000
    endloop
  endfacet
  facet normal -0.000000e+000 0.000000e+000 -1.000000e+000
    outer loop
      vertex   5.000000e+000 8.660254e+000 0.000000e+000
      vertex   -6.427876e+000 7.660444e+000 0.000000e+000
      vertex   -5.000000e+000 8.660254e+000 0.000000e+000
    endloop
  endfacet
  facet normal -0.000000e+000 0.000000e+000 -1.000000e+000
    outer loop
      vertex   3.420201e+000 9.396926e+000 0.000000e+000
      vertex   -5.000000e+000 8.660254e+000 0.000000e+000
      vertex   -3.420201e+000 9.396926e+000 0.000000e+000
    endloop
  endfacet
  facet normal -0.000000e+000 0.000000e+000 -1.000000e+000
    outer loop
      vertex   1.736482e+000 9.848078e+000 0.000000e+000
      vertex   -3.420201e+000 9.396926e+000 0.000000e+000
      vertex   -1.736482e+000 9.848078e+000 0.000000e+000
    endloop
  endfacet
  facet normal -0.000000e+000 -0.000000e+000 -1.000000e+000
    outer loop
      vertex   6.123032e-016 1.000000e+001 0.000000e+000
      vertex   1.736482e+000 9.848078e+000 0.000000e+000
      vertex   -1.736482e+000 9.848078e+000 0.000000e+000
    endloop
  endfacet
  facet normal -0.000000e+000 -0.000000e+000 -1.000000e+000
    outer loop
      vertex   1.736482e+000 9.848078e+000 0.000000e+000
      vertex   3.420201e+000 9.396926e+000 0.000000e+000
      vertex   -3.420201e+000 9.396926e+000 0.000000e+000
    endloop
  endfacet
  facet normal -0.000000e+000 -0.000000e+000 -1.000000e+000
    outer loop
      vertex   3.420201e+000 9.396926e+000 0.000000e+000
      vertex   5.000000e+000 8.660254e+000 0.000000e+000
      vertex   -5.000000e+000 8.660254e+000 0.000000e+000
    endloop
  endfacet
  facet normal -0.000000e+000 -0.000000e+000 -1.000000e+000
    outer loop
      vertex   5.000000e+000 8.660254e+000 0.000000e+000
      vertex   6.427876e+000 7.660444e+000 0.000000e+000
      vertex   -6.427876e+000 7.660444e+000 0.000000e+000
    endloop
  endfacet
  facet normal -0.000000e+000 -0.000000e+000 -1.000000e+000
    outer loop
      vertex   6.427876e+000 7.660444e+000 0.000000e+000
      vertex   7.660444e+000 6.427876e+000 0.000000e+000
      vertex   -7.660444e+000 6.427876e+000 0.000000e+000
    endloop
  endfacet
  facet normal -0.000000e+000 -0.000000e+000 -1.000000e+000
    outer loop
      vertex   7.660444e+000 6.427876e+000 0.000000e+000
      vertex   8.660254e+000 5.000000e+000 0.000000e+000
      vertex   -8.660254e+000 5.000000e+000 0.000000e+000
    endloop
  endfacet
  facet normal -0.000000e+000 -0.000000e+000 -1.000000e+000
    outer loop
      vertex   8.660254e+000 5.000000e+000 0.000000e+000
      vertex   9.396926e+000 3.420201e+000 0.000000e+000
      vertex   -9.396926e+000 3.420201e+000 0.000000e+000
    endloop
  endfacet
  facet normal -0.000000e+000 -0.000000e+000 -1.000000e+000
    outer loop
      vertex   9.396926e+000 3.420201e+000 0.000000e+000
      vertex   9.848078e+000 1.736482e+000 0.000000e+000
      vertex   -9.848078e+000 1.736482e+000 0.000000e+000
    endloop
  endfacet
  facet normal -0.000000e+000 -0.000000e+000 -1.000000e+000
    outer loop
      vertex   9.848078e+000 1.736482e+000 0.000000e+000
      vertex   1.000000e+001 0.000000e+000 0.000000e+000
      vertex   -1.000000e+001 1.224606e-015 0.000000e+000
    endloop
  endfacet
  facet normal 0.000000e+000 0.000000e+000 -1.000000e+000
    outer loop
      vertex   8.660254e+000 -5.000000e+000 0.000000e+000
      vertex   -8.660254e+000 -5.000000e+000 0.000000e+000
      vertex   9.396926e+000 -3.420201e+000 0.000000e+000
    endloop
  endfacet
  facet normal 0.000000e+000 0.000000e+000 -1.000000e+000
    outer loop
      vertex   9.396926e+000 -3.420201e+000 0.000000e+000
      vertex   -9.396926e+000 -3.420201e+000 0.000000e+000
      vertex   9.848078e+000 -1.736482e+000 0.000000e+000
    endloop
  endfacet
  facet normal 0.000000e+000 0.000000e+000 -1.000000e+000
    outer loop
      vertex   9.848078e+000 -1.736482e+000 0.000000e+000
      vertex   -9.848078e+000 -1.736482e+000 0.000000e+000
      vertex   1.000000e+001 0.000000e+000 0.000000e+000
    endloop
  endfacet
endsolid
