solid ascii
  facet normal 9.961947e-001 -8.715574e-002 4.838116e-016
    outer loop
      vertex   2.462019e+001 -4.341204e+000 2.000000e-001
      vertex   2.462019e+001 -4.341204e+000 0.000000e+000
      vertex   2.500000e+001 0.000000e+000 2.000000e-001
    endloop
  endfacet
  facet normal 9.659258e-001 -2.588190e-001 1.592298e-015
    outer loop
      vertex   2.462019e+001 -4.341204e+000 2.000000e-001
      vertex   2.349232e+001 -8.550504e+000 0.000000e+000
      vertex   2.462019e+001 -4.341204e+000 0.000000e+000
    endloop
  endfacet
  facet normal 9.659258e-001 -2.588190e-001 -3.991910e-014
    outer loop
      vertex   2.462019e+001 -4.341204e+000 2.000000e-001
      vertex   2.349232e+001 -8.550504e+000 2.000000e-001
      vertex   2.349232e+001 -8.550504e+000 0.000000e+000
    endloop
  endfacet
  facet normal 9.063078e-001 -4.226183e-001 -2.049018e-014
    outer loop
      vertex   2.349232e+001 -8.550504e+000 0.000000e+000
      vertex   2.349232e+001 -8.550504e+000 2.000000e-001
      vertex   2.165064e+001 -1.250000e+001 0.000000e+000
    endloop
  endfacet
  facet normal 9.063078e-001 -4.226183e-001 7.961488e-015
    outer loop
      vertex   2.165064e+001 -1.250000e+001 0.000000e+000
      vertex   2.349232e+001 -8.550504e+000 2.000000e-001
      vertex   2.165064e+001 -1.250000e+001 2.000000e-001
    endloop
  endfacet
  facet normal 8.191520e-001 -5.735764e-001 0.000000e+000
    outer loop
      vertex   1.915111e+001 -1.606969e+001 0.000000e+000
      vertex   2.165064e+001 -1.250000e+001 2.000000e-001
      vertex   1.915111e+001 -1.606969e+001 2.000000e-001
    endloop
  endfacet
  facet normal 7.071068e-001 -7.071068e-001 1.592298e-014
    outer loop
      vertex   1.606969e+001 -1.915111e+001 0.000000e+000
      vertex   1.915111e+001 -1.606969e+001 2.000000e-001
      vertex   1.606969e+001 -1.915111e+001 2.000000e-001
    endloop
  endfacet
  facet normal 5.735764e-001 -8.191520e-001 0.000000e+000
    outer loop
      vertex   1.250000e+001 -2.165064e+001 0.000000e+000
      vertex   1.606969e+001 -1.915111e+001 2.000000e-001
      vertex   1.250000e+001 -2.165064e+001 2.000000e-001
    endloop
  endfacet
  facet normal 4.226183e-001 -9.063078e-001 3.184595e-015
    outer loop
      vertex   8.550504e+000 -2.349232e+001 0.000000e+000
      vertex   1.250000e+001 -2.165064e+001 2.000000e-001
      vertex   8.550504e+000 -2.349232e+001 2.000000e-001
    endloop
  endfacet
  facet normal 2.588190e-001 -9.659258e-001 7.165339e-015
    outer loop
      vertex   4.341204e+000 -2.462019e+001 0.000000e+000
      vertex   8.550504e+000 -2.349232e+001 2.000000e-001
      vertex   4.341204e+000 -2.462019e+001 2.000000e-001
    endloop
  endfacet
  facet normal 8.715574e-002 -9.961947e-001 -2.388446e-015
    outer loop
      vertex   -4.592274e-015 -2.500000e+001 0.000000e+000
      vertex   4.341204e+000 -2.462019e+001 2.000000e-001
      vertex   1.530758e-015 -2.500000e+001 2.000000e-001
    endloop
  endfacet
  facet normal -8.715574e-002 -9.961947e-001 0.000000e+000
    outer loop
      vertex   -4.341204e+000 -2.462019e+001 0.000000e+000
      vertex   1.530758e-015 -2.500000e+001 2.000000e-001
      vertex   -4.341204e+000 -2.462019e+001 2.000000e-001
    endloop
  endfacet
  facet normal -2.588190e-001 -9.659258e-001 -2.149602e-014
    outer loop
      vertex   -8.550504e+000 -2.349232e+001 0.000000e+000
      vertex   -4.341204e+000 -2.462019e+001 2.000000e-001
      vertex   -8.550504e+000 -2.349232e+001 2.000000e-001
    endloop
  endfacet
  facet normal -4.226183e-001 -9.063078e-001 1.273838e-014
    outer loop
      vertex   -1.250000e+001 -2.165064e+001 0.000000e+000
      vertex   -8.550504e+000 -2.349232e+001 2.000000e-001
      vertex   -1.250000e+001 -2.165064e+001 2.000000e-001
    endloop
  endfacet
  facet normal -5.735764e-001 -8.191520e-001 1.910757e-014
    outer loop
      vertex   -1.606969e+001 -1.915111e+001 0.000000e+000
      vertex   -1.250000e+001 -2.165064e+001 2.000000e-001
      vertex   -1.606969e+001 -1.915111e+001 2.000000e-001
    endloop
  endfacet
  facet normal -7.071068e-001 -7.071068e-001 -2.388446e-014
    outer loop
      vertex   -1.915111e+001 -1.606969e+001 0.000000e+000
      vertex   -1.606969e+001 -1.915111e+001 2.000000e-001
      vertex   -1.915111e+001 -1.606969e+001 2.000000e-001
    endloop
  endfacet
  facet normal -8.191520e-001 -5.735764e-001 1.751527e-014
    outer loop
      vertex   -2.165064e+001 -1.250000e+001 0.000000e+000
      vertex   -1.915111e+001 -1.606969e+001 2.000000e-001
      vertex   -2.165064e+001 -1.250000e+001 2.000000e-001
    endloop
  endfacet
  facet normal -9.063078e-001 -4.226183e-001 2.866136e-014
    outer loop
      vertex   -2.349232e+001 -8.550504e+000 0.000000e+000
      vertex   -2.165064e+001 -1.250000e+001 2.000000e-001
      vertex   -2.349232e+001 -8.550504e+000 2.000000e-001
    endloop
  endfacet
  facet normal -9.659258e-001 -2.588190e-001 0.000000e+000
    outer loop
      vertex   -2.462019e+001 -4.341204e+000 0.000000e+000
      vertex   -2.349232e+001 -8.550504e+000 2.000000e-001
      vertex   -2.462019e+001 -4.341204e+000 2.000000e-001
    endloop
  endfacet
  facet normal -9.961947e-001 -8.715574e-002 -2.786521e-015
    outer loop
      vertex   -2.500000e+001 3.061516e-015 0.000000e+000
      vertex   -2.462019e+001 -4.341204e+000 2.000000e-001
      vertex   -2.500000e+001 -3.061516e-015 2.000000e-001
    endloop
  endfacet
  facet normal -9.961947e-001 8.715574e-002 -1.472875e-014
    outer loop
      vertex   -2.462019e+001 4.341204e+000 0.000000e+000
      vertex   -2.500000e+001 -3.061516e-015 2.000000e-001
      vertex   -2.462019e+001 4.341204e+000 2.000000e-001
    endloop
  endfacet
  facet normal -9.659258e-001 2.588190e-001 -3.582670e-014
    outer loop
      vertex   -2.349232e+001 8.550504e+000 0.000000e+000
      vertex   -2.462019e+001 4.341204e+000 2.000000e-001
      vertex   -2.349232e+001 8.550504e+000 2.000000e-001
    endloop
  endfacet
  facet normal -9.063078e-001 4.226183e-001 -2.706906e-014
    outer loop
      vertex   -2.165064e+001 1.250000e+001 0.000000e+000
      vertex   -2.349232e+001 8.550504e+000 2.000000e-001
      vertex   -2.165064e+001 1.250000e+001 2.000000e-001
    endloop
  endfacet
  facet normal -8.191520e-001 5.735764e-001 1.910757e-014
    outer loop
      vertex   -1.915111e+001 1.606969e+001 0.000000e+000
      vertex   -2.165064e+001 1.250000e+001 2.000000e-001
      vertex   -1.915111e+001 1.606969e+001 2.000000e-001
    endloop
  endfacet
  facet normal -7.071068e-001 7.071068e-001 -2.388446e-014
    outer loop
      vertex   -1.606969e+001 1.915111e+001 0.000000e+000
      vertex   -1.915111e+001 1.606969e+001 2.000000e-001
      vertex   -1.606969e+001 1.915111e+001 2.000000e-001
    endloop
  endfacet
  facet normal -5.735764e-001 8.191520e-001 -2.706906e-014
    outer loop
      vertex   -1.250000e+001 2.165064e+001 0.000000e+000
      vertex   -1.606969e+001 1.915111e+001 2.000000e-001
      vertex   -1.250000e+001 2.165064e+001 2.000000e-001
    endloop
  endfacet
  facet normal -4.226183e-001 9.063078e-001 4.776893e-015
    outer loop
      vertex   -8.550504e+000 2.349232e+001 0.000000e+000
      vertex   -1.250000e+001 2.165064e+001 2.000000e-001
      vertex   -8.550504e+000 2.349232e+001 2.000000e-001
    endloop
  endfacet
  facet normal -2.588190e-001 9.659258e-001 0.000000e+000
    outer loop
      vertex   -4.341204e+000 2.462019e+001 0.000000e+000
      vertex   -8.550504e+000 2.349232e+001 2.000000e-001
      vertex   -4.341204e+000 2.462019e+001 2.000000e-001
    endloop
  endfacet
  facet normal -8.715574e-002 9.961947e-001 -2.388446e-015
    outer loop
      vertex   1.530758e-015 2.500000e+001 0.000000e+000
      vertex   -4.341204e+000 2.462019e+001 2.000000e-001
      vertex   -4.592274e-015 2.500000e+001 2.000000e-001
    endloop
  endfacet
  facet normal 8.715574e-002 9.961947e-001 -1.711720e-014
    outer loop
      vertex   4.341204e+000 2.462019e+001 0.000000e+000
      vertex   -4.592274e-015 2.500000e+001 2.000000e-001
      vertex   4.341204e+000 2.462019e+001 2.000000e-001
    endloop
  endfacet
  facet normal 2.588190e-001 9.659258e-001 -1.990372e-014
    outer loop
      vertex   8.550504e+000 2.349232e+001 0.000000e+000
      vertex   4.341204e+000 2.462019e+001 2.000000e-001
      vertex   8.550504e+000 2.349232e+001 2.000000e-001
    endloop
  endfacet
  facet normal 4.226183e-001 9.063078e-001 0.000000e+000
    outer loop
      vertex   1.250000e+001 2.165064e+001 0.000000e+000
      vertex   8.550504e+000 2.349232e+001 2.000000e-001
      vertex   1.250000e+001 2.165064e+001 2.000000e-001
    endloop
  endfacet
  facet normal 5.735764e-001 8.191520e-001 -1.751527e-014
    outer loop
      vertex   1.606969e+001 1.915111e+001 0.000000e+000
      vertex   1.250000e+001 2.165064e+001 2.000000e-001
      vertex   1.606969e+001 1.915111e+001 2.000000e-001
    endloop
  endfacet
  facet normal 7.071068e-001 7.071068e-001 -7.961488e-015
    outer loop
      vertex   1.915111e+001 1.606969e+001 0.000000e+000
      vertex   1.606969e+001 1.915111e+001 2.000000e-001
      vertex   1.915111e+001 1.606969e+001 2.000000e-001
    endloop
  endfacet
  facet normal 8.191520e-001 5.735764e-001 -1.910757e-014
    outer loop
      vertex   2.165064e+001 1.250000e+001 0.000000e+000
      vertex   1.915111e+001 1.606969e+001 2.000000e-001
      vertex   2.165064e+001 1.250000e+001 2.000000e-001
    endloop
  endfacet
  facet normal 9.063078e-001 4.226183e-001 2.069987e-014
    outer loop
      vertex   2.349232e+001 8.550504e+000 0.000000e+000
      vertex   2.165064e+001 1.250000e+001 2.000000e-001
      vertex   2.349232e+001 8.550504e+000 2.000000e-001
    endloop
  endfacet
  facet normal 9.659258e-001 2.588190e-001 -1.592298e-015
    outer loop
      vertex   2.462019e+001 4.341204e+000 0.000000e+000
      vertex   2.349232e+001 8.550504e+000 2.000000e-001
      vertex   2.462019e+001 4.341204e+000 2.000000e-001
    endloop
  endfacet
  facet normal 9.961947e-001 8.715574e-002 0.000000e+000
    outer loop
      vertex   2.500000e+001 0.000000e+000 0.000000e+000
      vertex   2.462019e+001 4.341204e+000 2.000000e-001
      vertex   2.500000e+001 0.000000e+000 2.000000e-001
    endloop
  endfacet
  facet normal 9.961947e-001 -8.715574e-002 0.000000e+000
    outer loop
      vertex   2.462019e+001 -4.341204e+000 0.000000e+000
      vertex   2.500000e+001 0.000000e+000 0.000000e+000
      vertex   2.500000e+001 0.000000e+000 2.000000e-001
    endloop
  endfacet
  facet normal 9.961947e-001 8.715574e-002 -4.838116e-016
    outer loop
      vertex   2.500000e+001 0.000000e+000 0.000000e+000
      vertex   2.462019e+001 4.341204e+000 0.000000e+000
      vertex   2.462019e+001 4.341204e+000 2.000000e-001
    endloop
  endfacet
  facet normal 9.659258e-001 2.588190e-001 3.991910e-014
    outer loop
      vertex   2.462019e+001 4.341204e+000 0.000000e+000
      vertex   2.349232e+001 8.550504e+000 0.000000e+000
      vertex   2.349232e+001 8.550504e+000 2.000000e-001
    endloop
  endfacet
  facet normal 9.063078e-001 4.226183e-001 -8.027956e-015
    outer loop
      vertex   2.349232e+001 8.550504e+000 0.000000e+000
      vertex   2.165064e+001 1.250000e+001 0.000000e+000
      vertex   2.165064e+001 1.250000e+001 2.000000e-001
    endloop
  endfacet
  facet normal 8.191520e-001 5.735764e-001 -9.151038e-016
    outer loop
      vertex   2.165064e+001 1.250000e+001 0.000000e+000
      vertex   1.915111e+001 1.606969e+001 0.000000e+000
      vertex   1.915111e+001 1.606969e+001 2.000000e-001
    endloop
  endfacet
  facet normal 7.071068e-001 7.071068e-001 -1.570092e-014
    outer loop
      vertex   1.915111e+001 1.606969e+001 0.000000e+000
      vertex   1.606969e+001 1.915111e+001 0.000000e+000
      vertex   1.606969e+001 1.915111e+001 2.000000e-001
    endloop
  endfacet
  facet normal 5.735764e-001 8.191520e-001 -0.000000e+000
    outer loop
      vertex   1.606969e+001 1.915111e+001 0.000000e+000
      vertex   1.250000e+001 2.165064e+001 0.000000e+000
      vertex   1.250000e+001 2.165064e+001 2.000000e-001
    endloop
  endfacet
  facet normal 4.226183e-001 9.063078e-001 -2.712109e-015
    outer loop
      vertex   1.250000e+001 2.165064e+001 0.000000e+000
      vertex   8.550504e+000 2.349232e+001 0.000000e+000
      vertex   8.550504e+000 2.349232e+001 2.000000e-001
    endloop
  endfacet
  facet normal 2.588190e-001 9.659258e-001 -7.080519e-015
    outer loop
      vertex   8.550504e+000 2.349232e+001 0.000000e+000
      vertex   4.341204e+000 2.462019e+001 0.000000e+000
      vertex   4.341204e+000 2.462019e+001 2.000000e-001
    endloop
  endfacet
  facet normal 8.715574e-002 9.961947e-001 2.668287e-015
    outer loop
      vertex   4.341204e+000 2.462019e+001 0.000000e+000
      vertex   1.530758e-015 2.500000e+001 0.000000e+000
      vertex   -4.592274e-015 2.500000e+001 2.000000e-001
    endloop
  endfacet
  facet normal -8.715574e-002 9.961947e-001 0.000000e+000
    outer loop
      vertex   1.530758e-015 2.500000e+001 0.000000e+000
      vertex   -4.341204e+000 2.462019e+001 0.000000e+000
      vertex   -4.341204e+000 2.462019e+001 2.000000e-001
    endloop
  endfacet
  facet normal -2.588190e-001 9.659258e-001 2.134471e-014
    outer loop
      vertex   -4.341204e+000 2.462019e+001 0.000000e+000
      vertex   -8.550504e+000 2.349232e+001 0.000000e+000
      vertex   -8.550504e+000 2.349232e+001 2.000000e-001
    endloop
  endfacet
  facet normal -4.226183e-001 9.063078e-001 -1.271996e-014
    outer loop
      vertex   -8.550504e+000 2.349232e+001 0.000000e+000
      vertex   -1.250000e+001 2.165064e+001 0.000000e+000
      vertex   -1.250000e+001 2.165064e+001 2.000000e-001
    endloop
  endfacet
  facet normal -5.735764e-001 8.191520e-001 -1.910393e-014
    outer loop
      vertex   -1.250000e+001 2.165064e+001 0.000000e+000
      vertex   -1.606969e+001 1.915111e+001 0.000000e+000
      vertex   -1.606969e+001 1.915111e+001 2.000000e-001
    endloop
  endfacet
  facet normal -7.071068e-001 7.071068e-001 2.355139e-014
    outer loop
      vertex   -1.606969e+001 1.915111e+001 0.000000e+000
      vertex   -1.915111e+001 1.606969e+001 0.000000e+000
      vertex   -1.915111e+001 1.606969e+001 2.000000e-001
    endloop
  endfacet
  facet normal -8.191520e-001 5.735764e-001 -1.727373e-014
    outer loop
      vertex   -1.915111e+001 1.606969e+001 0.000000e+000
      vertex   -2.165064e+001 1.250000e+001 0.000000e+000
      vertex   -2.165064e+001 1.250000e+001 2.000000e-001
    endloop
  endfacet
  facet normal -9.063078e-001 4.226183e-001 -2.851814e-014
    outer loop
      vertex   -2.165064e+001 1.250000e+001 0.000000e+000
      vertex   -2.349232e+001 8.550504e+000 0.000000e+000
      vertex   -2.349232e+001 8.550504e+000 2.000000e-001
    endloop
  endfacet
  facet normal -9.659258e-001 2.588190e-001 1.031529e-016
    outer loop
      vertex   -2.349232e+001 8.550504e+000 0.000000e+000
      vertex   -2.462019e+001 4.341204e+000 0.000000e+000
      vertex   -2.462019e+001 4.341204e+000 2.000000e-001
    endloop
  endfacet
  facet normal -9.961947e-001 8.715574e-002 2.668287e-015
    outer loop
      vertex   -2.462019e+001 4.341204e+000 0.000000e+000
      vertex   -2.500000e+001 3.061516e-015 0.000000e+000
      vertex   -2.500000e+001 -3.061516e-015 2.000000e-001
    endloop
  endfacet
  facet normal -9.961947e-001 -8.715574e-002 1.486279e-014
    outer loop
      vertex   -2.500000e+001 3.061516e-015 0.000000e+000
      vertex   -2.462019e+001 -4.341204e+000 0.000000e+000
      vertex   -2.462019e+001 -4.341204e+000 2.000000e-001
    endloop
  endfacet
  facet normal -9.659258e-001 -2.588190e-001 3.571205e-014
    outer loop
      vertex   -2.462019e+001 -4.341204e+000 0.000000e+000
      vertex   -2.349232e+001 -8.550504e+000 0.000000e+000
      vertex   -2.349232e+001 -8.550504e+000 2.000000e-001
    endloop
  endfacet
  facet normal -9.063078e-001 -4.226183e-001 2.617214e-014
    outer loop
      vertex   -2.349232e+001 -8.550504e+000 0.000000e+000
      vertex   -2.165064e+001 -1.250000e+001 0.000000e+000
      vertex   -2.165064e+001 -1.250000e+001 2.000000e-001
    endloop
  endfacet
  facet normal -8.191520e-001 -5.735764e-001 -1.910393e-014
    outer loop
      vertex   -2.165064e+001 -1.250000e+001 0.000000e+000
      vertex   -1.915111e+001 -1.606969e+001 0.000000e+000
      vertex   -1.915111e+001 -1.606969e+001 2.000000e-001
    endloop
  endfacet
  facet normal -7.071068e-001 -7.071068e-001 2.355139e-014
    outer loop
      vertex   -1.915111e+001 -1.606969e+001 0.000000e+000
      vertex   -1.606969e+001 -1.915111e+001 0.000000e+000
      vertex   -1.606969e+001 -1.915111e+001 2.000000e-001
    endloop
  endfacet
  facet normal -5.735764e-001 -8.191520e-001 2.638701e-014
    outer loop
      vertex   -1.606969e+001 -1.915111e+001 0.000000e+000
      vertex   -1.250000e+001 -2.165064e+001 0.000000e+000
      vertex   -1.250000e+001 -2.165064e+001 2.000000e-001
    endloop
  endfacet
  facet normal -4.226183e-001 -9.063078e-001 -5.058112e-015
    outer loop
      vertex   -1.250000e+001 -2.165064e+001 0.000000e+000
      vertex   -8.550504e+000 -2.349232e+001 0.000000e+000
      vertex   -8.550504e+000 -2.349232e+001 2.000000e-001
    endloop
  endfacet
  facet normal -2.588190e-001 -9.659258e-001 0.000000e+000
    outer loop
      vertex   -8.550504e+000 -2.349232e+001 0.000000e+000
      vertex   -4.341204e+000 -2.462019e+001 0.000000e+000
      vertex   -4.341204e+000 -2.462019e+001 2.000000e-001
    endloop
  endfacet
  facet normal -8.715574e-002 -9.961947e-001 2.668287e-015
    outer loop
      vertex   -4.341204e+000 -2.462019e+001 0.000000e+000
      vertex   -4.592274e-015 -2.500000e+001 0.000000e+000
      vertex   1.530758e-015 -2.500000e+001 2.000000e-001
    endloop
  endfacet
  facet normal 8.715574e-002 -9.961947e-001 1.728185e-014
    outer loop
      vertex   -4.592274e-015 -2.500000e+001 0.000000e+000
      vertex   4.341204e+000 -2.462019e+001 0.000000e+000
      vertex   4.341204e+000 -2.462019e+001 2.000000e-001
    endloop
  endfacet
  facet normal 2.588190e-001 -9.659258e-001 1.990797e-014
    outer loop
      vertex   4.341204e+000 -2.462019e+001 0.000000e+000
      vertex   8.550504e+000 -2.349232e+001 0.000000e+000
      vertex   8.550504e+000 -2.349232e+001 2.000000e-001
    endloop
  endfacet
  facet normal 4.226183e-001 -9.063078e-001 0.000000e+000
    outer loop
      vertex   8.550504e+000 -2.349232e+001 0.000000e+000
      vertex   1.250000e+001 -2.165064e+001 0.000000e+000
      vertex   1.250000e+001 -2.165064e+001 2.000000e-001
    endloop
  endfacet
  facet normal 5.735764e-001 -8.191520e-001 1.818883e-014
    outer loop
      vertex   1.250000e+001 -2.165064e+001 0.000000e+000
      vertex   1.606969e+001 -1.915111e+001 0.000000e+000
      vertex   1.606969e+001 -1.915111e+001 2.000000e-001
    endloop
  endfacet
  facet normal 7.071068e-001 -7.071068e-001 7.850462e-015
    outer loop
      vertex   1.606969e+001 -1.915111e+001 0.000000e+000
      vertex   1.915111e+001 -1.606969e+001 0.000000e+000
      vertex   1.915111e+001 -1.606969e+001 2.000000e-001
    endloop
  endfacet
  facet normal 8.191520e-001 -5.735764e-001 2.001904e-014
    outer loop
      vertex   1.915111e+001 -1.606969e+001 0.000000e+000
      vertex   2.165064e+001 -1.250000e+001 0.000000e+000
      vertex   2.165064e+001 -1.250000e+001 2.000000e-001
    endloop
  endfacet
  facet normal 0.000000e+000 0.000000e+000 1.000000e+000
    outer loop
      vertex   4.341204e+000 2.462019e+001 2.000000e-001
      vertex   -4.341204e+000 2.462019e+001 2.000000e-001
      vertex   8.550504e+000 2.349232e+001 2.000000e-001
    endloop
  endfacet
  facet normal 0.000000e+000 0.000000e+000 1.000000e+000
    outer loop
      vertex   4.341204e+000 2.462019e+001 2.000000e-001
      vertex   -4.592274e-015 2.500000e+001 2.000000e-001
      vertex   -4.341204e+000 2.462019e+001 2.000000e-001
    endloop
  endfacet
  facet normal 0.000000e+000 0.000000e+000 1.000000e+000
    outer loop
      vertex   8.550504e+000 2.349232e+001 2.000000e-001
      vertex   -8.550504e+000 2.349232e+001 2.000000e-001
      vertex   1.250000e+001 2.165064e+001 2.000000e-001
    endloop
  endfacet
  facet normal 0.000000e+000 0.000000e+000 1.000000e+000
    outer loop
      vertex   8.550504e+000 2.349232e+001 2.000000e-001
      vertex   -4.341204e+000 2.462019e+001 2.000000e-001
      vertex   -8.550504e+000 2.349232e+001 2.000000e-001
    endloop
  endfacet
  facet normal 0.000000e+000 0.000000e+000 1.000000e+000
    outer loop
      vertex   1.250000e+001 2.165064e+001 2.000000e-001
      vertex   -1.250000e+001 2.165064e+001 2.000000e-001
      vertex   1.606969e+001 1.915111e+001 2.000000e-001
    endloop
  endfacet
  facet normal 0.000000e+000 0.000000e+000 1.000000e+000
    outer loop
      vertex   1.250000e+001 2.165064e+001 2.000000e-001
      vertex   -8.550504e+000 2.349232e+001 2.000000e-001
      vertex   -1.250000e+001 2.165064e+001 2.000000e-001
    endloop
  endfacet
  facet normal 0.000000e+000 0.000000e+000 1.000000e+000
    outer loop
      vertex   1.606969e+001 1.915111e+001 2.000000e-001
      vertex   -1.606969e+001 1.915111e+001 2.000000e-001
      vertex   1.915111e+001 1.606969e+001 2.000000e-001
    endloop
  endfacet
  facet normal 0.000000e+000 0.000000e+000 1.000000e+000
    outer loop
      vertex   1.606969e+001 1.915111e+001 2.000000e-001
      vertex   -1.250000e+001 2.165064e+001 2.000000e-001
      vertex   -1.606969e+001 1.915111e+001 2.000000e-001
    endloop
  endfacet
  facet normal -0.000000e+000 0.000000e+000 1.000000e+000
    outer loop
      vertex   -1.606969e+001 1.915111e+001 2.000000e-001
      vertex   -1.915111e+001 1.606969e+001 2.000000e-001
      vertex   1.915111e+001 1.606969e+001 2.000000e-001
    endloop
  endfacet
  facet normal 0.000000e+000 0.000000e+000 1.000000e+000
    outer loop
      vertex   1.915111e+001 1.606969e+001 2.000000e-001
      vertex   -1.915111e+001 1.606969e+001 2.000000e-001
      vertex   2.165064e+001 1.250000e+001 2.000000e-001
    endloop
  endfacet
  facet normal 0.000000e+000 0.000000e+000 1.000000e+000
    outer loop
      vertex   2.165064e+001 1.250000e+001 2.000000e-001
      vertex   -1.915111e+001 1.606969e+001 2.000000e-001
      vertex   -2.165064e+001 1.250000e+001 2.000000e-001
    endloop
  endfacet
  facet normal 0.000000e+000 0.000000e+000 1.000000e+000
    outer loop
      vertex   2.349232e+001 8.550504e+000 2.000000e-001
      vertex   -2.165064e+001 1.250000e+001 2.000000e-001
      vertex   -2.349232e+001 8.550504e+000 2.000000e-001
    endloop
  endfacet
  facet normal 0.000000e+000 0.000000e+000 1.000000e+000
    outer loop
      vertex   2.462019e+001 4.341204e+000 2.000000e-001
      vertex   -2.349232e+001 8.550504e+000 2.000000e-001
      vertex   -2.462019e+001 4.341204e+000 2.000000e-001
    endloop
  endfacet
  facet normal 0.000000e+000 0.000000e+000 1.000000e+000
    outer loop
      vertex   2.500000e+001 0.000000e+000 2.000000e-001
      vertex   -2.462019e+001 4.341204e+000 2.000000e-001
      vertex   -2.500000e+001 -3.061516e-015 2.000000e-001
    endloop
  endfacet
  facet normal 0.000000e+000 0.000000e+000 1.000000e+000
    outer loop
      vertex   2.462019e+001 -4.341204e+000 2.000000e-001
      vertex   -2.500000e+001 -3.061516e-015 2.000000e-001
      vertex   -2.462019e+001 -4.341204e+000 2.000000e-001
    endloop
  endfacet
  facet normal 0.000000e+000 0.000000e+000 1.000000e+000
    outer loop
      vertex   2.349232e+001 -8.550504e+000 2.000000e-001
      vertex   -2.462019e+001 -4.341204e+000 2.000000e-001
      vertex   -2.349232e+001 -8.550504e+000 2.000000e-001
    endloop
  endfacet
  facet normal 0.000000e+000 0.000000e+000 1.000000e+000
    outer loop
      vertex   2.165064e+001 -1.250000e+001 2.000000e-001
      vertex   -2.349232e+001 -8.550504e+000 2.000000e-001
      vertex   -2.165064e+001 -1.250000e+001 2.000000e-001
    endloop
  endfacet
  facet normal 0.000000e+000 0.000000e+000 1.000000e+000
    outer loop
      vertex   1.915111e+001 -1.606969e+001 2.000000e-001
      vertex   -2.165064e+001 -1.250000e+001 2.000000e-001
      vertex   -1.915111e+001 -1.606969e+001 2.000000e-001
    endloop
  endfacet
  facet normal 0.000000e+000 0.000000e+000 1.000000e+000
    outer loop
      vertex   1.606969e+001 -1.915111e+001 2.000000e-001
      vertex   -1.915111e+001 -1.606969e+001 2.000000e-001
      vertex   -1.606969e+001 -1.915111e+001 2.000000e-001
    endloop
  endfacet
  facet normal 0.000000e+000 0.000000e+000 1.000000e+000
    outer loop
      vertex   1.250000e+001 -2.165064e+001 2.000000e-001
      vertex   -1.606969e+001 -1.915111e+001 2.000000e-001
      vertex   -1.250000e+001 -2.165064e+001 2.000000e-001
    endloop
  endfacet
  facet normal 0.000000e+000 0.000000e+000 1.000000e+000
    outer loop
      vertex   8.550504e+000 -2.349232e+001 2.000000e-001
      vertex   -1.250000e+001 -2.165064e+001 2.000000e-001
      vertex   -8.550504e+000 -2.349232e+001 2.000000e-001
    endloop
  endfacet
  facet normal 0.000000e+000 0.000000e+000 1.000000e+000
    outer loop
      vertex   4.341204e+000 -2.462019e+001 2.000000e-001
      vertex   -8.550504e+000 -2.349232e+001 2.000000e-001
      vertex   -4.341204e+000 -2.462019e+001 2.000000e-001
    endloop
  endfacet
  facet normal 0.000000e+000 -0.000000e+000 1.000000e+000
    outer loop
      vertex   1.530758e-015 -2.500000e+001 2.000000e-001
      vertex   4.341204e+000 -2.462019e+001 2.000000e-001
      vertex   -4.341204e+000 -2.462019e+001 2.000000e-001
    endloop
  endfacet
  facet normal 0.000000e+000 -0.000000e+000 1.000000e+000
    outer loop
      vertex   4.341204e+000 -2.462019e+001 2.000000e-001
      vertex   8.550504e+000 -2.349232e+001 2.000000e-001
      vertex   -8.550504e+000 -2.349232e+001 2.000000e-001
    endloop
  endfacet
  facet normal 0.000000e+000 -0.000000e+000 1.000000e+000
    outer loop
      vertex   8.550504e+000 -2.349232e+001 2.000000e-001
      vertex   1.250000e+001 -2.165064e+001 2.000000e-001
      vertex   -1.250000e+001 -2.165064e+001 2.000000e-001
    endloop
  endfacet
  facet normal 0.000000e+000 -0.000000e+000 1.000000e+000
    outer loop
      vertex   1.250000e+001 -2.165064e+001 2.000000e-001
      vertex   1.606969e+001 -1.915111e+001 2.000000e-001
      vertex   -1.606969e+001 -1.915111e+001 2.000000e-001
    endloop
  endfacet
  facet normal 0.000000e+000 -0.000000e+000 1.000000e+000
    outer loop
      vertex   1.606969e+001 -1.915111e+001 2.000000e-001
      vertex   1.915111e+001 -1.606969e+001 2.000000e-001
      vertex   -1.915111e+001 -1.606969e+001 2.000000e-001
    endloop
  endfacet
  facet normal 0.000000e+000 -0.000000e+000 1.000000e+000
    outer loop
      vertex   1.915111e+001 -1.606969e+001 2.000000e-001
      vertex   2.165064e+001 -1.250000e+001 2.000000e-001
      vertex   -2.165064e+001 -1.250000e+001 2.000000e-001
    endloop
  endfacet
  facet normal 0.000000e+000 -0.000000e+000 1.000000e+000
    outer loop
      vertex   2.165064e+001 -1.250000e+001 2.000000e-001
      vertex   2.349232e+001 -8.550504e+000 2.000000e-001
      vertex   -2.349232e+001 -8.550504e+000 2.000000e-001
    endloop
  endfacet
  facet normal 0.000000e+000 -0.000000e+000 1.000000e+000
    outer loop
      vertex   2.349232e+001 -8.550504e+000 2.000000e-001
      vertex   2.462019e+001 -4.341204e+000 2.000000e-001
      vertex   -2.462019e+001 -4.341204e+000 2.000000e-001
    endloop
  endfacet
  facet normal 0.000000e+000 -0.000000e+000 1.000000e+000
    outer loop
      vertex   2.462019e+001 -4.341204e+000 2.000000e-001
      vertex   2.500000e+001 0.000000e+000 2.000000e-001
      vertex   -2.500000e+001 -3.061516e-015 2.000000e-001
    endloop
  endfacet
  facet normal -0.000000e+000 -0.000000e+000 1.000000e+000
    outer loop
      vertex   -2.462019e+001 4.341204e+000 2.000000e-001
      vertex   2.500000e+001 0.000000e+000 2.000000e-001
      vertex   2.462019e+001 4.341204e+000 2.000000e-001
    endloop
  endfacet
  facet normal -0.000000e+000 -0.000000e+000 1.000000e+000
    outer loop
      vertex   -2.349232e+001 8.550504e+000 2.000000e-001
      vertex   2.462019e+001 4.341204e+000 2.000000e-001
      vertex   2.349232e+001 8.550504e+000 2.000000e-001
    endloop
  endfacet
  facet normal -0.000000e+000 -0.000000e+000 1.000000e+000
    outer loop
      vertex   -2.165064e+001 1.250000e+001 2.000000e-001
      vertex   2.349232e+001 8.550504e+000 2.000000e-001
      vertex   2.165064e+001 1.250000e+001 2.000000e-001
    endloop
  endfacet
  facet normal 0.000000e+000 0.000000e+000 -1.000000e+000
    outer loop
      vertex   4.341204e+000 -2.462019e+001 0.000000e+000
      vertex   -4.341204e+000 -2.462019e+001 0.000000e+000
      vertex   8.550504e+000 -2.349232e+001 0.000000e+000
    endloop
  endfacet
  facet normal -0.000000e+000 0.000000e+000 -1.000000e+000
    outer loop
      vertex   4.341204e+000 -2.462019e+001 0.000000e+000
      vertex   -4.592274e-015 -2.500000e+001 0.000000e+000
      vertex   -4.341204e+000 -2.462019e+001 0.000000e+000
    endloop
  endfacet
  facet normal 0.000000e+000 0.000000e+000 -1.000000e+000
    outer loop
      vertex   8.550504e+000 -2.349232e+001 0.000000e+000
      vertex   -8.550504e+000 -2.349232e+001 0.000000e+000
      vertex   1.250000e+001 -2.165064e+001 0.000000e+000
    endloop
  endfacet
  facet normal -0.000000e+000 0.000000e+000 -1.000000e+000
    outer loop
      vertex   8.550504e+000 -2.349232e+001 0.000000e+000
      vertex   -4.341204e+000 -2.462019e+001 0.000000e+000
      vertex   -8.550504e+000 -2.349232e+001 0.000000e+000
    endloop
  endfacet
  facet normal 0.000000e+000 0.000000e+000 -1.000000e+000
    outer loop
      vertex   1.250000e+001 -2.165064e+001 0.000000e+000
      vertex   -1.250000e+001 -2.165064e+001 0.000000e+000
      vertex   1.606969e+001 -1.915111e+001 0.000000e+000
    endloop
  endfacet
  facet normal -0.000000e+000 0.000000e+000 -1.000000e+000
    outer loop
      vertex   1.250000e+001 -2.165064e+001 0.000000e+000
      vertex   -8.550504e+000 -2.349232e+001 0.000000e+000
      vertex   -1.250000e+001 -2.165064e+001 0.000000e+000
    endloop
  endfacet
  facet normal 0.000000e+000 0.000000e+000 -1.000000e+000
    outer loop
      vertex   1.606969e+001 -1.915111e+001 0.000000e+000
      vertex   -1.606969e+001 -1.915111e+001 0.000000e+000
      vertex   1.915111e+001 -1.606969e+001 0.000000e+000
    endloop
  endfacet
  facet normal -0.000000e+000 0.000000e+000 -1.000000e+000
    outer loop
      vertex   1.606969e+001 -1.915111e+001 0.000000e+000
      vertex   -1.250000e+001 -2.165064e+001 0.000000e+000
      vertex   -1.606969e+001 -1.915111e+001 0.000000e+000
    endloop
  endfacet
  facet normal 0.000000e+000 0.000000e+000 -1.000000e+000
    outer loop
      vertex   -1.606969e+001 -1.915111e+001 0.000000e+000
      vertex   -1.915111e+001 -1.606969e+001 0.000000e+000
      vertex   1.915111e+001 -1.606969e+001 0.000000e+000
    endloop
  endfacet
  facet normal 0.000000e+000 0.000000e+000 -1.000000e+000
    outer loop
      vertex   1.915111e+001 -1.606969e+001 0.000000e+000
      vertex   -1.915111e+001 -1.606969e+001 0.000000e+000
      vertex   2.165064e+001 -1.250000e+001 0.000000e+000
    endloop
  endfacet
  facet normal -0.000000e+000 0.000000e+000 -1.000000e+000
    outer loop
      vertex   2.165064e+001 -1.250000e+001 0.000000e+000
      vertex   -1.915111e+001 -1.606969e+001 0.000000e+000
      vertex   -2.165064e+001 -1.250000e+001 0.000000e+000
    endloop
  endfacet
  facet normal -0.000000e+000 0.000000e+000 -1.000000e+000
    outer loop
      vertex   2.349232e+001 -8.550504e+000 0.000000e+000
      vertex   -2.165064e+001 -1.250000e+001 0.000000e+000
      vertex   -2.349232e+001 -8.550504e+000 0.000000e+000
    endloop
  endfacet
  facet normal -0.000000e+000 0.000000e+000 -1.000000e+000
    outer loop
      vertex   2.462019e+001 -4.341204e+000 0.000000e+000
      vertex   -2.349232e+001 -8.550504e+000 0.000000e+000
      vertex   -2.462019e+001 -4.341204e+000 0.000000e+000
    endloop
  endfacet
  facet normal -0.000000e+000 0.000000e+000 -1.000000e+000
    outer loop
      vertex   2.500000e+001 0.000000e+000 0.000000e+000
      vertex   -2.462019e+001 -4.341204e+000 0.000000e+000
      vertex   -2.500000e+001 3.061516e-015 0.000000e+000
    endloop
  endfacet
  facet normal -0.000000e+000 0.000000e+000 -1.000000e+000
    outer loop
      vertex   2.462019e+001 4.341204e+000 0.000000e+000
      vertex   -2.500000e+001 3.061516e-015 0.000000e+000
      vertex   -2.462019e+001 4.341204e+000 0.000000e+000
    endloop
  endfacet
  facet normal -0.000000e+000 0.000000e+000 -1.000000e+000
    outer loop
      vertex   2.349232e+001 8.550504e+000 0.000000e+000
      vertex   -2.462019e+001 4.341204e+000 0.000000e+000
      vertex   -2.349232e+001 8.550504e+000 0.000000e+000
    endloop
  endfacet
  facet normal -0.000000e+000 0.000000e+000 -1.000000e+000
    outer loop
      vertex   2.165064e+001 1.250000e+001 0.000000e+000
      vertex   -2.349232e+001 8.550504e+000 0.000000e+000
      vertex   -2.165064e+001 1.250000e+001 0.000000e+000
    endloop
  endfacet
  facet normal -0.000000e+000 0.000000e+000 -1.000000e+000
    outer loop
      vertex   1.915111e+001 1.606969e+001 0.000000e+000
      vertex   -2.165064e+001 1.250000e+001 0.000000e+000
      vertex   -1.915111e+001 1.606969e+001 0.000000e+000
    endloop
  endfacet
  facet normal -0.000000e+000 0.000000e+000 -1.000000e+000
    outer loop
      vertex   1.606969e+001 1.915111e+001 0.000000e+000
      vertex   -1.915111e+001 1.606969e+001 0.000000e+000
      vertex   -1.606969e+001 1.915111e+001 0.000000e+000
    endloop
  endfacet
  facet normal -0.000000e+000 0.000000e+000 -1.000000e+000
    outer loop
      vertex   1.250000e+001 2.165064e+001 0.000000e+000
      vertex   -1.606969e+001 1.915111e+001 0.000000e+000
      vertex   -1.250000e+001 2.165064e+001 0.000000e+000
    endloop
  endfacet
  facet normal -0.000000e+000 0.000000e+000 -1.000000e+000
    outer loop
      vertex   8.550504e+000 2.349232e+001 0.000000e+000
      vertex   -1.250000e+001 2.165064e+001 0.000000e+000
      vertex   -8.550504e+000 2.349232e+001 0.000000e+000
    endloop
  endfacet
  facet normal -0.000000e+000 0.000000e+000 -1.000000e+000
    outer loop
      vertex   4.341204e+000 2.462019e+001 0.000000e+000
      vertex   -8.550504e+000 2.349232e+001 0.000000e+000
      vertex   -4.341204e+000 2.462019e+001 0.000000e+000
    endloop
  endfacet
  facet normal -0.000000e+000 -0.000000e+000 -1.000000e+000
    outer loop
      vertex   1.530758e-015 2.500000e+001 0.000000e+000
      vertex   4.341204e+000 2.462019e+001 0.000000e+000
      vertex   -4.341204e+000 2.462019e+001 0.000000e+000
    endloop
  endfacet
  facet normal -0.000000e+000 -0.000000e+000 -1.000000e+000
    outer loop
      vertex   4.341204e+000 2.462019e+001 0.000000e+000
      vertex   8.550504e+000 2.349232e+001 0.000000e+000
      vertex   -8.550504e+000 2.349232e+001 0.000000e+000
    endloop
  endfacet
  facet normal -0.000000e+000 -0.000000e+000 -1.000000e+000
    outer loop
      vertex   8.550504e+000 2.349232e+001 0.000000e+000
      vertex   1.250000e+001 2.165064e+001 0.000000e+000
      vertex   -1.250000e+001 2.165064e+001 0.000000e+000
    endloop
  endfacet
  facet normal -0.000000e+000 -0.000000e+000 -1.000000e+000
    outer loop
      vertex   1.250000e+001 2.165064e+001 0.000000e+000
      vertex   1.606969e+001 1.915111e+001 0.000000e+000
      vertex   -1.606969e+001 1.915111e+001 0.000000e+000
    endloop
  endfacet
  facet normal -0.000000e+000 -0.000000e+000 -1.000000e+000
    outer loop
      vertex   1.606969e+001 1.915111e+001 0.000000e+000
      vertex   1.915111e+001 1.606969e+001 0.000000e+000
      vertex   -1.915111e+001 1.606969e+001 0.000000e+000
    endloop
  endfacet
  facet normal -0.000000e+000 -0.000000e+000 -1.000000e+000
    outer loop
      vertex   1.915111e+001 1.606969e+001 0.000000e+000
      vertex   2.165064e+001 1.250000e+001 0.000000e+000
      vertex   -2.165064e+001 1.250000e+001 0.000000e+000
    endloop
  endfacet
  facet normal -0.000000e+000 -0.000000e+000 -1.000000e+000
    outer loop
      vertex   2.165064e+001 1.250000e+001 0.000000e+000
      vertex   2.349232e+001 8.550504e+000 0.000000e+000
      vertex   -2.349232e+001 8.550504e+000 0.000000e+000
    endloop
  endfacet
  facet normal -0.000000e+000 -0.000000e+000 -1.000000e+000
    outer loop
      vertex   2.349232e+001 8.550504e+000 0.000000e+000
      vertex   2.462019e+001 4.341204e+000 0.000000e+000
      vertex   -2.462019e+001 4.341204e+000 0.000000e+000
    endloop
  endfacet
  facet normal -0.000000e+000 -0.000000e+000 -1.000000e+000
    outer loop
      vertex   2.462019e+001 4.341204e+000 0.000000e+000
      vertex   2.500000e+001 0.000000e+000 0.000000e+000
      vertex   -2.500000e+001 3.061516e-015 0.000000e+000
    endloop
  endfacet
  facet normal 0.000000e+000 0.000000e+000 -1.000000e+000
    outer loop
      vertex   2.165064e+001 -1.250000e+001 0.000000e+000
      vertex   -2.165064e+001 -1.250000e+001 0.000000e+000
      vertex   2.349232e+001 -8.550504e+000 0.000000e+000
    endloop
  endfacet
  facet normal 0.000000e+000 0.000000e+000 -1.000000e+000
    outer loop
      vertex   2.349232e+001 -8.550504e+000 0.000000e+000
      vertex   -2.349232e+001 -8.550504e+000 0.000000e+000
      vertex   2.462019e+001 -4.341204e+000 0.000000e+000
    endloop
  endfacet
  facet normal 0.000000e+000 0.000000e+000 -1.000000e+000
    outer loop
      vertex   2.462019e+001 -4.341204e+000 0.000000e+000
      vertex   -2.462019e+001 -4.341204e+000 0.000000e+000
      vertex   2.500000e+001 0.000000e+000 0.000000e+000
    endloop
  endfacet
endsolid
