solid ascii
  facet normal 9.961947e-001 -8.715574e-002 9.676231e-016
    outer loop
      vertex   2.462019e+001 -4.341204e+000 1.000000e-001
      vertex   2.462019e+001 -4.341204e+000 0.000000e+000
      vertex   2.500000e+001 0.000000e+000 1.000000e-001
    endloop
  endfacet
  facet normal 9.659258e-001 -2.588190e-001 3.184595e-015
    outer loop
      vertex   2.462019e+001 -4.341204e+000 1.000000e-001
      vertex   2.349232e+001 -8.550504e+000 0.000000e+000
      vertex   2.462019e+001 -4.341204e+000 0.000000e+000
    endloop
  endfacet
  facet normal 9.659258e-001 -2.588190e-001 -7.983820e-014
    outer loop
      vertex   2.462019e+001 -4.341204e+000 1.000000e-001
      vertex   2.349232e+001 -8.550504e+000 1.000000e-001
      vertex   2.349232e+001 -8.550504e+000 0.000000e+000
    endloop
  endfacet
  facet normal 9.063078e-001 -4.226183e-001 -4.098036e-014
    outer loop
      vertex   2.349232e+001 -8.550504e+000 0.000000e+000
      vertex   2.349232e+001 -8.550504e+000 1.000000e-001
      vertex   2.165064e+001 -1.250000e+001 0.000000e+000
    endloop
  endfacet
  facet normal 9.063078e-001 -4.226183e-001 1.592298e-014
    outer loop
      vertex   2.165064e+001 -1.250000e+001 0.000000e+000
      vertex   2.349232e+001 -8.550504e+000 1.000000e-001
      vertex   2.165064e+001 -1.250000e+001 1.000000e-001
    endloop
  endfacet
  facet normal 8.191520e-001 -5.735764e-001 0.000000e+000
    outer loop
      vertex   1.915111e+001 -1.606969e+001 0.000000e+000
      vertex   2.165064e+001 -1.250000e+001 1.000000e-001
      vertex   1.915111e+001 -1.606969e+001 1.000000e-001
    endloop
  endfacet
  facet normal 7.071068e-001 -7.071068e-001 3.184595e-014
    outer loop
      vertex   1.606969e+001 -1.915111e+001 0.000000e+000
      vertex   1.915111e+001 -1.606969e+001 1.000000e-001
      vertex   1.606969e+001 -1.915111e+001 1.000000e-001
    endloop
  endfacet
  facet normal 5.735764e-001 -8.191520e-001 0.000000e+000
    outer loop
      vertex   1.250000e+001 -2.165064e+001 0.000000e+000
      vertex   1.606969e+001 -1.915111e+001 1.000000e-001
      vertex   1.250000e+001 -2.165064e+001 1.000000e-001
    endloop
  endfacet
  facet normal 4.226183e-001 -9.063078e-001 6.369190e-015
    outer loop
      vertex   8.550504e+000 -2.349232e+001 0.000000e+000
      vertex   1.250000e+001 -2.165064e+001 1.000000e-001
      vertex   8.550504e+000 -2.349232e+001 1.000000e-001
    endloop
  endfacet
  facet normal 2.588190e-001 -9.659258e-001 1.433068e-014
    outer loop
      vertex   4.341204e+000 -2.462019e+001 0.000000e+000
      vertex   8.550504e+000 -2.349232e+001 1.000000e-001
      vertex   4.341204e+000 -2.462019e+001 1.000000e-001
    endloop
  endfacet
  facet normal 8.715574e-002 -9.961947e-001 -4.776893e-015
    outer loop
      vertex   -4.592274e-015 -2.500000e+001 0.000000e+000
      vertex   4.341204e+000 -2.462019e+001 1.000000e-001
      vertex   1.530758e-015 -2.500000e+001 1.000000e-001
    endloop
  endfacet
  facet normal -8.715574e-002 -9.961947e-001 0.000000e+000
    outer loop
      vertex   -4.341204e+000 -2.462019e+001 0.000000e+000
      vertex   1.530758e-015 -2.500000e+001 1.000000e-001
      vertex   -4.341204e+000 -2.462019e+001 1.000000e-001
    endloop
  endfacet
  facet normal -2.588190e-001 -9.659258e-001 -4.299203e-014
    outer loop
      vertex   -8.550504e+000 -2.349232e+001 0.000000e+000
      vertex   -4.341204e+000 -2.462019e+001 1.000000e-001
      vertex   -8.550504e+000 -2.349232e+001 1.000000e-001
    endloop
  endfacet
  facet normal -4.226183e-001 -9.063078e-001 2.547676e-014
    outer loop
      vertex   -1.250000e+001 -2.165064e+001 0.000000e+000
      vertex   -8.550504e+000 -2.349232e+001 1.000000e-001
      vertex   -1.250000e+001 -2.165064e+001 1.000000e-001
    endloop
  endfacet
  facet normal -5.735764e-001 -8.191520e-001 3.821514e-014
    outer loop
      vertex   -1.606969e+001 -1.915111e+001 0.000000e+000
      vertex   -1.250000e+001 -2.165064e+001 1.000000e-001
      vertex   -1.606969e+001 -1.915111e+001 1.000000e-001
    endloop
  endfacet
  facet normal -7.071068e-001 -7.071068e-001 -4.776893e-014
    outer loop
      vertex   -1.915111e+001 -1.606969e+001 0.000000e+000
      vertex   -1.606969e+001 -1.915111e+001 1.000000e-001
      vertex   -1.915111e+001 -1.606969e+001 1.000000e-001
    endloop
  endfacet
  facet normal -8.191520e-001 -5.735764e-001 3.503055e-014
    outer loop
      vertex   -2.165064e+001 -1.250000e+001 0.000000e+000
      vertex   -1.915111e+001 -1.606969e+001 1.000000e-001
      vertex   -2.165064e+001 -1.250000e+001 1.000000e-001
    endloop
  endfacet
  facet normal -9.063078e-001 -4.226183e-001 5.732271e-014
    outer loop
      vertex   -2.349232e+001 -8.550504e+000 0.000000e+000
      vertex   -2.165064e+001 -1.250000e+001 1.000000e-001
      vertex   -2.349232e+001 -8.550504e+000 1.000000e-001
    endloop
  endfacet
  facet normal -9.659258e-001 -2.588190e-001 0.000000e+000
    outer loop
      vertex   -2.462019e+001 -4.341204e+000 0.000000e+000
      vertex   -2.349232e+001 -8.550504e+000 1.000000e-001
      vertex   -2.462019e+001 -4.341204e+000 1.000000e-001
    endloop
  endfacet
  facet normal -9.961947e-001 -8.715574e-002 -5.573042e-015
    outer loop
      vertex   -2.500000e+001 3.061516e-015 0.000000e+000
      vertex   -2.462019e+001 -4.341204e+000 1.000000e-001
      vertex   -2.500000e+001 -3.061516e-015 1.000000e-001
    endloop
  endfacet
  facet normal -9.961947e-001 8.715574e-002 -2.945751e-014
    outer loop
      vertex   -2.462019e+001 4.341204e+000 0.000000e+000
      vertex   -2.500000e+001 -3.061516e-015 1.000000e-001
      vertex   -2.462019e+001 4.341204e+000 1.000000e-001
    endloop
  endfacet
  facet normal -9.659258e-001 2.588190e-001 -7.165339e-014
    outer loop
      vertex   -2.349232e+001 8.550504e+000 0.000000e+000
      vertex   -2.462019e+001 4.341204e+000 1.000000e-001
      vertex   -2.349232e+001 8.550504e+000 1.000000e-001
    endloop
  endfacet
  facet normal -9.063078e-001 4.226183e-001 -5.413812e-014
    outer loop
      vertex   -2.165064e+001 1.250000e+001 0.000000e+000
      vertex   -2.349232e+001 8.550504e+000 1.000000e-001
      vertex   -2.165064e+001 1.250000e+001 1.000000e-001
    endloop
  endfacet
  facet normal -8.191520e-001 5.735764e-001 3.821514e-014
    outer loop
      vertex   -1.915111e+001 1.606969e+001 0.000000e+000
      vertex   -2.165064e+001 1.250000e+001 1.000000e-001
      vertex   -1.915111e+001 1.606969e+001 1.000000e-001
    endloop
  endfacet
  facet normal -7.071068e-001 7.071068e-001 -4.776893e-014
    outer loop
      vertex   -1.606969e+001 1.915111e+001 0.000000e+000
      vertex   -1.915111e+001 1.606969e+001 1.000000e-001
      vertex   -1.606969e+001 1.915111e+001 1.000000e-001
    endloop
  endfacet
  facet normal -5.735764e-001 8.191520e-001 -5.413812e-014
    outer loop
      vertex   -1.250000e+001 2.165064e+001 0.000000e+000
      vertex   -1.606969e+001 1.915111e+001 1.000000e-001
      vertex   -1.250000e+001 2.165064e+001 1.000000e-001
    endloop
  endfacet
  facet normal -4.226183e-001 9.063078e-001 9.553785e-015
    outer loop
      vertex   -8.550504e+000 2.349232e+001 0.000000e+000
      vertex   -1.250000e+001 2.165064e+001 1.000000e-001
      vertex   -8.550504e+000 2.349232e+001 1.000000e-001
    endloop
  endfacet
  facet normal -2.588190e-001 9.659258e-001 0.000000e+000
    outer loop
      vertex   -4.341204e+000 2.462019e+001 0.000000e+000
      vertex   -8.550504e+000 2.349232e+001 1.000000e-001
      vertex   -4.341204e+000 2.462019e+001 1.000000e-001
    endloop
  endfacet
  facet normal -8.715574e-002 9.961947e-001 -4.776893e-015
    outer loop
      vertex   1.530758e-015 2.500000e+001 0.000000e+000
      vertex   -4.341204e+000 2.462019e+001 1.000000e-001
      vertex   -4.592274e-015 2.500000e+001 1.000000e-001
    endloop
  endfacet
  facet normal 8.715574e-002 9.961947e-001 -3.423440e-014
    outer loop
      vertex   4.341204e+000 2.462019e+001 0.000000e+000
      vertex   -4.592274e-015 2.500000e+001 1.000000e-001
      vertex   4.341204e+000 2.462019e+001 1.000000e-001
    endloop
  endfacet
  facet normal 2.588190e-001 9.659258e-001 -3.980744e-014
    outer loop
      vertex   8.550504e+000 2.349232e+001 0.000000e+000
      vertex   4.341204e+000 2.462019e+001 1.000000e-001
      vertex   8.550504e+000 2.349232e+001 1.000000e-001
    endloop
  endfacet
  facet normal 4.226183e-001 9.063078e-001 0.000000e+000
    outer loop
      vertex   1.250000e+001 2.165064e+001 0.000000e+000
      vertex   8.550504e+000 2.349232e+001 1.000000e-001
      vertex   1.250000e+001 2.165064e+001 1.000000e-001
    endloop
  endfacet
  facet normal 5.735764e-001 8.191520e-001 -3.503055e-014
    outer loop
      vertex   1.606969e+001 1.915111e+001 0.000000e+000
      vertex   1.250000e+001 2.165064e+001 1.000000e-001
      vertex   1.606969e+001 1.915111e+001 1.000000e-001
    endloop
  endfacet
  facet normal 7.071068e-001 7.071068e-001 -1.592298e-014
    outer loop
      vertex   1.915111e+001 1.606969e+001 0.000000e+000
      vertex   1.606969e+001 1.915111e+001 1.000000e-001
      vertex   1.915111e+001 1.606969e+001 1.000000e-001
    endloop
  endfacet
  facet normal 8.191520e-001 5.735764e-001 -3.821514e-014
    outer loop
      vertex   2.165064e+001 1.250000e+001 0.000000e+000
      vertex   1.915111e+001 1.606969e+001 1.000000e-001
      vertex   2.165064e+001 1.250000e+001 1.000000e-001
    endloop
  endfacet
  facet normal 9.063078e-001 4.226183e-001 4.139974e-014
    outer loop
      vertex   2.349232e+001 8.550504e+000 0.000000e+000
      vertex   2.165064e+001 1.250000e+001 1.000000e-001
      vertex   2.349232e+001 8.550504e+000 1.000000e-001
    endloop
  endfacet
  facet normal 9.659258e-001 2.588190e-001 -3.184595e-015
    outer loop
      vertex   2.462019e+001 4.341204e+000 0.000000e+000
      vertex   2.349232e+001 8.550504e+000 1.000000e-001
      vertex   2.462019e+001 4.341204e+000 1.000000e-001
    endloop
  endfacet
  facet normal 9.961947e-001 8.715574e-002 0.000000e+000
    outer loop
      vertex   2.500000e+001 0.000000e+000 0.000000e+000
      vertex   2.462019e+001 4.341204e+000 1.000000e-001
      vertex   2.500000e+001 0.000000e+000 1.000000e-001
    endloop
  endfacet
  facet normal 9.961947e-001 -8.715574e-002 0.000000e+000
    outer loop
      vertex   2.462019e+001 -4.341204e+000 0.000000e+000
      vertex   2.500000e+001 0.000000e+000 0.000000e+000
      vertex   2.500000e+001 0.000000e+000 1.000000e-001
    endloop
  endfacet
  facet normal 9.961947e-001 8.715574e-002 -9.676231e-016
    outer loop
      vertex   2.500000e+001 0.000000e+000 0.000000e+000
      vertex   2.462019e+001 4.341204e+000 0.000000e+000
      vertex   2.462019e+001 4.341204e+000 1.000000e-001
    endloop
  endfacet
  facet normal 9.659258e-001 2.588190e-001 7.983820e-014
    outer loop
      vertex   2.462019e+001 4.341204e+000 0.000000e+000
      vertex   2.349232e+001 8.550504e+000 0.000000e+000
      vertex   2.349232e+001 8.550504e+000 1.000000e-001
    endloop
  endfacet
  facet normal 9.063078e-001 4.226183e-001 -1.605591e-014
    outer loop
      vertex   2.349232e+001 8.550504e+000 0.000000e+000
      vertex   2.165064e+001 1.250000e+001 0.000000e+000
      vertex   2.165064e+001 1.250000e+001 1.000000e-001
    endloop
  endfacet
  facet normal 8.191520e-001 5.735764e-001 -1.830208e-015
    outer loop
      vertex   2.165064e+001 1.250000e+001 0.000000e+000
      vertex   1.915111e+001 1.606969e+001 0.000000e+000
      vertex   1.915111e+001 1.606969e+001 1.000000e-001
    endloop
  endfacet
  facet normal 7.071068e-001 7.071068e-001 -3.140185e-014
    outer loop
      vertex   1.915111e+001 1.606969e+001 0.000000e+000
      vertex   1.606969e+001 1.915111e+001 0.000000e+000
      vertex   1.606969e+001 1.915111e+001 1.000000e-001
    endloop
  endfacet
  facet normal 5.735764e-001 8.191520e-001 -0.000000e+000
    outer loop
      vertex   1.606969e+001 1.915111e+001 0.000000e+000
      vertex   1.250000e+001 2.165064e+001 0.000000e+000
      vertex   1.250000e+001 2.165064e+001 1.000000e-001
    endloop
  endfacet
  facet normal 4.226183e-001 9.063078e-001 -5.424218e-015
    outer loop
      vertex   1.250000e+001 2.165064e+001 0.000000e+000
      vertex   8.550504e+000 2.349232e+001 0.000000e+000
      vertex   8.550504e+000 2.349232e+001 1.000000e-001
    endloop
  endfacet
  facet normal 2.588190e-001 9.659258e-001 -1.416104e-014
    outer loop
      vertex   8.550504e+000 2.349232e+001 0.000000e+000
      vertex   4.341204e+000 2.462019e+001 0.000000e+000
      vertex   4.341204e+000 2.462019e+001 1.000000e-001
    endloop
  endfacet
  facet normal 8.715574e-002 9.961947e-001 5.336574e-015
    outer loop
      vertex   4.341204e+000 2.462019e+001 0.000000e+000
      vertex   1.530758e-015 2.500000e+001 0.000000e+000
      vertex   -4.592274e-015 2.500000e+001 1.000000e-001
    endloop
  endfacet
  facet normal -8.715574e-002 9.961947e-001 0.000000e+000
    outer loop
      vertex   1.530758e-015 2.500000e+001 0.000000e+000
      vertex   -4.341204e+000 2.462019e+001 0.000000e+000
      vertex   -4.341204e+000 2.462019e+001 1.000000e-001
    endloop
  endfacet
  facet normal -2.588190e-001 9.659258e-001 4.268942e-014
    outer loop
      vertex   -4.341204e+000 2.462019e+001 0.000000e+000
      vertex   -8.550504e+000 2.349232e+001 0.000000e+000
      vertex   -8.550504e+000 2.349232e+001 1.000000e-001
    endloop
  endfacet
  facet normal -4.226183e-001 9.063078e-001 -2.543992e-014
    outer loop
      vertex   -8.550504e+000 2.349232e+001 0.000000e+000
      vertex   -1.250000e+001 2.165064e+001 0.000000e+000
      vertex   -1.250000e+001 2.165064e+001 1.000000e-001
    endloop
  endfacet
  facet normal -5.735764e-001 8.191520e-001 -3.820787e-014
    outer loop
      vertex   -1.250000e+001 2.165064e+001 0.000000e+000
      vertex   -1.606969e+001 1.915111e+001 0.000000e+000
      vertex   -1.606969e+001 1.915111e+001 1.000000e-001
    endloop
  endfacet
  facet normal -7.071068e-001 7.071068e-001 4.710277e-014
    outer loop
      vertex   -1.606969e+001 1.915111e+001 0.000000e+000
      vertex   -1.915111e+001 1.606969e+001 0.000000e+000
      vertex   -1.915111e+001 1.606969e+001 1.000000e-001
    endloop
  endfacet
  facet normal -8.191520e-001 5.735764e-001 -3.454745e-014
    outer loop
      vertex   -1.915111e+001 1.606969e+001 0.000000e+000
      vertex   -2.165064e+001 1.250000e+001 0.000000e+000
      vertex   -2.165064e+001 1.250000e+001 1.000000e-001
    endloop
  endfacet
  facet normal -9.063078e-001 4.226183e-001 -5.703628e-014
    outer loop
      vertex   -2.165064e+001 1.250000e+001 0.000000e+000
      vertex   -2.349232e+001 8.550504e+000 0.000000e+000
      vertex   -2.349232e+001 8.550504e+000 1.000000e-001
    endloop
  endfacet
  facet normal -9.659258e-001 2.588190e-001 2.063058e-016
    outer loop
      vertex   -2.349232e+001 8.550504e+000 0.000000e+000
      vertex   -2.462019e+001 4.341204e+000 0.000000e+000
      vertex   -2.462019e+001 4.341204e+000 1.000000e-001
    endloop
  endfacet
  facet normal -9.961947e-001 8.715574e-002 5.336574e-015
    outer loop
      vertex   -2.462019e+001 4.341204e+000 0.000000e+000
      vertex   -2.500000e+001 3.061516e-015 0.000000e+000
      vertex   -2.500000e+001 -3.061516e-015 1.000000e-001
    endloop
  endfacet
  facet normal -9.961947e-001 -8.715574e-002 2.972558e-014
    outer loop
      vertex   -2.500000e+001 3.061516e-015 0.000000e+000
      vertex   -2.462019e+001 -4.341204e+000 0.000000e+000
      vertex   -2.462019e+001 -4.341204e+000 1.000000e-001
    endloop
  endfacet
  facet normal -9.659258e-001 -2.588190e-001 7.142410e-014
    outer loop
      vertex   -2.462019e+001 -4.341204e+000 0.000000e+000
      vertex   -2.349232e+001 -8.550504e+000 0.000000e+000
      vertex   -2.349232e+001 -8.550504e+000 1.000000e-001
    endloop
  endfacet
  facet normal -9.063078e-001 -4.226183e-001 5.234427e-014
    outer loop
      vertex   -2.349232e+001 -8.550504e+000 0.000000e+000
      vertex   -2.165064e+001 -1.250000e+001 0.000000e+000
      vertex   -2.165064e+001 -1.250000e+001 1.000000e-001
    endloop
  endfacet
  facet normal -8.191520e-001 -5.735764e-001 -3.820787e-014
    outer loop
      vertex   -2.165064e+001 -1.250000e+001 0.000000e+000
      vertex   -1.915111e+001 -1.606969e+001 0.000000e+000
      vertex   -1.915111e+001 -1.606969e+001 1.000000e-001
    endloop
  endfacet
  facet normal -7.071068e-001 -7.071068e-001 4.710277e-014
    outer loop
      vertex   -1.915111e+001 -1.606969e+001 0.000000e+000
      vertex   -1.606969e+001 -1.915111e+001 0.000000e+000
      vertex   -1.606969e+001 -1.915111e+001 1.000000e-001
    endloop
  endfacet
  facet normal -5.735764e-001 -8.191520e-001 5.277403e-014
    outer loop
      vertex   -1.606969e+001 -1.915111e+001 0.000000e+000
      vertex   -1.250000e+001 -2.165064e+001 0.000000e+000
      vertex   -1.250000e+001 -2.165064e+001 1.000000e-001
    endloop
  endfacet
  facet normal -4.226183e-001 -9.063078e-001 -1.011622e-014
    outer loop
      vertex   -1.250000e+001 -2.165064e+001 0.000000e+000
      vertex   -8.550504e+000 -2.349232e+001 0.000000e+000
      vertex   -8.550504e+000 -2.349232e+001 1.000000e-001
    endloop
  endfacet
  facet normal -2.588190e-001 -9.659258e-001 0.000000e+000
    outer loop
      vertex   -8.550504e+000 -2.349232e+001 0.000000e+000
      vertex   -4.341204e+000 -2.462019e+001 0.000000e+000
      vertex   -4.341204e+000 -2.462019e+001 1.000000e-001
    endloop
  endfacet
  facet normal -8.715574e-002 -9.961947e-001 5.336574e-015
    outer loop
      vertex   -4.341204e+000 -2.462019e+001 0.000000e+000
      vertex   -4.592274e-015 -2.500000e+001 0.000000e+000
      vertex   1.530758e-015 -2.500000e+001 1.000000e-001
    endloop
  endfacet
  facet normal 8.715574e-002 -9.961947e-001 3.456370e-014
    outer loop
      vertex   -4.592274e-015 -2.500000e+001 0.000000e+000
      vertex   4.341204e+000 -2.462019e+001 0.000000e+000
      vertex   4.341204e+000 -2.462019e+001 1.000000e-001
    endloop
  endfacet
  facet normal 2.588190e-001 -9.659258e-001 3.981595e-014
    outer loop
      vertex   4.341204e+000 -2.462019e+001 0.000000e+000
      vertex   8.550504e+000 -2.349232e+001 0.000000e+000
      vertex   8.550504e+000 -2.349232e+001 1.000000e-001
    endloop
  endfacet
  facet normal 4.226183e-001 -9.063078e-001 0.000000e+000
    outer loop
      vertex   8.550504e+000 -2.349232e+001 0.000000e+000
      vertex   1.250000e+001 -2.165064e+001 0.000000e+000
      vertex   1.250000e+001 -2.165064e+001 1.000000e-001
    endloop
  endfacet
  facet normal 5.735764e-001 -8.191520e-001 3.637766e-014
    outer loop
      vertex   1.250000e+001 -2.165064e+001 0.000000e+000
      vertex   1.606969e+001 -1.915111e+001 0.000000e+000
      vertex   1.606969e+001 -1.915111e+001 1.000000e-001
    endloop
  endfacet
  facet normal 7.071068e-001 -7.071068e-001 1.570092e-014
    outer loop
      vertex   1.606969e+001 -1.915111e+001 0.000000e+000
      vertex   1.915111e+001 -1.606969e+001 0.000000e+000
      vertex   1.915111e+001 -1.606969e+001 1.000000e-001
    endloop
  endfacet
  facet normal 8.191520e-001 -5.735764e-001 4.003807e-014
    outer loop
      vertex   1.915111e+001 -1.606969e+001 0.000000e+000
      vertex   2.165064e+001 -1.250000e+001 0.000000e+000
      vertex   2.165064e+001 -1.250000e+001 1.000000e-001
    endloop
  endfacet
  facet normal 0.000000e+000 0.000000e+000 1.000000e+000
    outer loop
      vertex   4.341204e+000 2.462019e+001 1.000000e-001
      vertex   -4.341204e+000 2.462019e+001 1.000000e-001
      vertex   8.550504e+000 2.349232e+001 1.000000e-001
    endloop
  endfacet
  facet normal 0.000000e+000 0.000000e+000 1.000000e+000
    outer loop
      vertex   4.341204e+000 2.462019e+001 1.000000e-001
      vertex   -4.592274e-015 2.500000e+001 1.000000e-001
      vertex   -4.341204e+000 2.462019e+001 1.000000e-001
    endloop
  endfacet
  facet normal 0.000000e+000 0.000000e+000 1.000000e+000
    outer loop
      vertex   8.550504e+000 2.349232e+001 1.000000e-001
      vertex   -8.550504e+000 2.349232e+001 1.000000e-001
      vertex   1.250000e+001 2.165064e+001 1.000000e-001
    endloop
  endfacet
  facet normal 0.000000e+000 0.000000e+000 1.000000e+000
    outer loop
      vertex   8.550504e+000 2.349232e+001 1.000000e-001
      vertex   -4.341204e+000 2.462019e+001 1.000000e-001
      vertex   -8.550504e+000 2.349232e+001 1.000000e-001
    endloop
  endfacet
  facet normal 0.000000e+000 0.000000e+000 1.000000e+000
    outer loop
      vertex   1.250000e+001 2.165064e+001 1.000000e-001
      vertex   -1.250000e+001 2.165064e+001 1.000000e-001
      vertex   1.606969e+001 1.915111e+001 1.000000e-001
    endloop
  endfacet
  facet normal 0.000000e+000 0.000000e+000 1.000000e+000
    outer loop
      vertex   1.250000e+001 2.165064e+001 1.000000e-001
      vertex   -8.550504e+000 2.349232e+001 1.000000e-001
      vertex   -1.250000e+001 2.165064e+001 1.000000e-001
    endloop
  endfacet
  facet normal 0.000000e+000 0.000000e+000 1.000000e+000
    outer loop
      vertex   1.606969e+001 1.915111e+001 1.000000e-001
      vertex   -1.606969e+001 1.915111e+001 1.000000e-001
      vertex   1.915111e+001 1.606969e+001 1.000000e-001
    endloop
  endfacet
  facet normal 0.000000e+000 0.000000e+000 1.000000e+000
    outer loop
      vertex   1.606969e+001 1.915111e+001 1.000000e-001
      vertex   -1.250000e+001 2.165064e+001 1.000000e-001
      vertex   -1.606969e+001 1.915111e+001 1.000000e-001
    endloop
  endfacet
  facet normal -0.000000e+000 0.000000e+000 1.000000e+000
    outer loop
      vertex   -1.606969e+001 1.915111e+001 1.000000e-001
      vertex   -1.915111e+001 1.606969e+001 1.000000e-001
      vertex   1.915111e+001 1.606969e+001 1.000000e-001
    endloop
  endfacet
  facet normal 0.000000e+000 0.000000e+000 1.000000e+000
    outer loop
      vertex   1.915111e+001 1.606969e+001 1.000000e-001
      vertex   -1.915111e+001 1.606969e+001 1.000000e-001
      vertex   2.165064e+001 1.250000e+001 1.000000e-001
    endloop
  endfacet
  facet normal 0.000000e+000 0.000000e+000 1.000000e+000
    outer loop
      vertex   2.165064e+001 1.250000e+001 1.000000e-001
      vertex   -1.915111e+001 1.606969e+001 1.000000e-001
      vertex   -2.165064e+001 1.250000e+001 1.000000e-001
    endloop
  endfacet
  facet normal 0.000000e+000 0.000000e+000 1.000000e+000
    outer loop
      vertex   2.349232e+001 8.550504e+000 1.000000e-001
      vertex   -2.165064e+001 1.250000e+001 1.000000e-001
      vertex   -2.349232e+001 8.550504e+000 1.000000e-001
    endloop
  endfacet
  facet normal 0.000000e+000 0.000000e+000 1.000000e+000
    outer loop
      vertex   2.462019e+001 4.341204e+000 1.000000e-001
      vertex   -2.349232e+001 8.550504e+000 1.000000e-001
      vertex   -2.462019e+001 4.341204e+000 1.000000e-001
    endloop
  endfacet
  facet normal 0.000000e+000 0.000000e+000 1.000000e+000
    outer loop
      vertex   2.500000e+001 0.000000e+000 1.000000e-001
      vertex   -2.462019e+001 4.341204e+000 1.000000e-001
      vertex   -2.500000e+001 -3.061516e-015 1.000000e-001
    endloop
  endfacet
  facet normal 0.000000e+000 0.000000e+000 1.000000e+000
    outer loop
      vertex   2.462019e+001 -4.341204e+000 1.000000e-001
      vertex   -2.500000e+001 -3.061516e-015 1.000000e-001
      vertex   -2.462019e+001 -4.341204e+000 1.000000e-001
    endloop
  endfacet
  facet normal 0.000000e+000 0.000000e+000 1.000000e+000
    outer loop
      vertex   2.349232e+001 -8.550504e+000 1.000000e-001
      vertex   -2.462019e+001 -4.341204e+000 1.000000e-001
      vertex   -2.349232e+001 -8.550504e+000 1.000000e-001
    endloop
  endfacet
  facet normal 0.000000e+000 0.000000e+000 1.000000e+000
    outer loop
      vertex   2.165064e+001 -1.250000e+001 1.000000e-001
      vertex   -2.349232e+001 -8.550504e+000 1.000000e-001
      vertex   -2.165064e+001 -1.250000e+001 1.000000e-001
    endloop
  endfacet
  facet normal 0.000000e+000 0.000000e+000 1.000000e+000
    outer loop
      vertex   1.915111e+001 -1.606969e+001 1.000000e-001
      vertex   -2.165064e+001 -1.250000e+001 1.000000e-001
      vertex   -1.915111e+001 -1.606969e+001 1.000000e-001
    endloop
  endfacet
  facet normal 0.000000e+000 0.000000e+000 1.000000e+000
    outer loop
      vertex   1.606969e+001 -1.915111e+001 1.000000e-001
      vertex   -1.915111e+001 -1.606969e+001 1.000000e-001
      vertex   -1.606969e+001 -1.915111e+001 1.000000e-001
    endloop
  endfacet
  facet normal 0.000000e+000 0.000000e+000 1.000000e+000
    outer loop
      vertex   1.250000e+001 -2.165064e+001 1.000000e-001
      vertex   -1.606969e+001 -1.915111e+001 1.000000e-001
      vertex   -1.250000e+001 -2.165064e+001 1.000000e-001
    endloop
  endfacet
  facet normal 0.000000e+000 0.000000e+000 1.000000e+000
    outer loop
      vertex   8.550504e+000 -2.349232e+001 1.000000e-001
      vertex   -1.250000e+001 -2.165064e+001 1.000000e-001
      vertex   -8.550504e+000 -2.349232e+001 1.000000e-001
    endloop
  endfacet
  facet normal 0.000000e+000 0.000000e+000 1.000000e+000
    outer loop
      vertex   4.341204e+000 -2.462019e+001 1.000000e-001
      vertex   -8.550504e+000 -2.349232e+001 1.000000e-001
      vertex   -4.341204e+000 -2.462019e+001 1.000000e-001
    endloop
  endfacet
  facet normal 0.000000e+000 -0.000000e+000 1.000000e+000
    outer loop
      vertex   1.530758e-015 -2.500000e+001 1.000000e-001
      vertex   4.341204e+000 -2.462019e+001 1.000000e-001
      vertex   -4.341204e+000 -2.462019e+001 1.000000e-001
    endloop
  endfacet
  facet normal 0.000000e+000 -0.000000e+000 1.000000e+000
    outer loop
      vertex   4.341204e+000 -2.462019e+001 1.000000e-001
      vertex   8.550504e+000 -2.349232e+001 1.000000e-001
      vertex   -8.550504e+000 -2.349232e+001 1.000000e-001
    endloop
  endfacet
  facet normal 0.000000e+000 -0.000000e+000 1.000000e+000
    outer loop
      vertex   8.550504e+000 -2.349232e+001 1.000000e-001
      vertex   1.250000e+001 -2.165064e+001 1.000000e-001
      vertex   -1.250000e+001 -2.165064e+001 1.000000e-001
    endloop
  endfacet
  facet normal 0.000000e+000 -0.000000e+000 1.000000e+000
    outer loop
      vertex   1.250000e+001 -2.165064e+001 1.000000e-001
      vertex   1.606969e+001 -1.915111e+001 1.000000e-001
      vertex   -1.606969e+001 -1.915111e+001 1.000000e-001
    endloop
  endfacet
  facet normal 0.000000e+000 -0.000000e+000 1.000000e+000
    outer loop
      vertex   1.606969e+001 -1.915111e+001 1.000000e-001
      vertex   1.915111e+001 -1.606969e+001 1.000000e-001
      vertex   -1.915111e+001 -1.606969e+001 1.000000e-001
    endloop
  endfacet
  facet normal 0.000000e+000 -0.000000e+000 1.000000e+000
    outer loop
      vertex   1.915111e+001 -1.606969e+001 1.000000e-001
      vertex   2.165064e+001 -1.250000e+001 1.000000e-001
      vertex   -2.165064e+001 -1.250000e+001 1.000000e-001
    endloop
  endfacet
  facet normal 0.000000e+000 -0.000000e+000 1.000000e+000
    outer loop
      vertex   2.165064e+001 -1.250000e+001 1.000000e-001
      vertex   2.349232e+001 -8.550504e+000 1.000000e-001
      vertex   -2.349232e+001 -8.550504e+000 1.000000e-001
    endloop
  endfacet
  facet normal 0.000000e+000 -0.000000e+000 1.000000e+000
    outer loop
      vertex   2.349232e+001 -8.550504e+000 1.000000e-001
      vertex   2.462019e+001 -4.341204e+000 1.000000e-001
      vertex   -2.462019e+001 -4.341204e+000 1.000000e-001
    endloop
  endfacet
  facet normal 0.000000e+000 -0.000000e+000 1.000000e+000
    outer loop
      vertex   2.462019e+001 -4.341204e+000 1.000000e-001
      vertex   2.500000e+001 0.000000e+000 1.000000e-001
      vertex   -2.500000e+001 -3.061516e-015 1.000000e-001
    endloop
  endfacet
  facet normal -0.000000e+000 -0.000000e+000 1.000000e+000
    outer loop
      vertex   -2.462019e+001 4.341204e+000 1.000000e-001
      vertex   2.500000e+001 0.000000e+000 1.000000e-001
      vertex   2.462019e+001 4.341204e+000 1.000000e-001
    endloop
  endfacet
  facet normal -0.000000e+000 -0.000000e+000 1.000000e+000
    outer loop
      vertex   -2.349232e+001 8.550504e+000 1.000000e-001
      vertex   2.462019e+001 4.341204e+000 1.000000e-001
      vertex   2.349232e+001 8.550504e+000 1.000000e-001
    endloop
  endfacet
  facet normal -0.000000e+000 -0.000000e+000 1.000000e+000
    outer loop
      vertex   -2.165064e+001 1.250000e+001 1.000000e-001
      vertex   2.349232e+001 8.550504e+000 1.000000e-001
      vertex   2.165064e+001 1.250000e+001 1.000000e-001
    endloop
  endfacet
  facet normal 0.000000e+000 0.000000e+000 -1.000000e+000
    outer loop
      vertex   4.341204e+000 -2.462019e+001 0.000000e+000
      vertex   -4.341204e+000 -2.462019e+001 0.000000e+000
      vertex   8.550504e+000 -2.349232e+001 0.000000e+000
    endloop
  endfacet
  facet normal -0.000000e+000 0.000000e+000 -1.000000e+000
    outer loop
      vertex   4.341204e+000 -2.462019e+001 0.000000e+000
      vertex   -4.592274e-015 -2.500000e+001 0.000000e+000
      vertex   -4.341204e+000 -2.462019e+001 0.000000e+000
    endloop
  endfacet
  facet normal 0.000000e+000 0.000000e+000 -1.000000e+000
    outer loop
      vertex   8.550504e+000 -2.349232e+001 0.000000e+000
      vertex   -8.550504e+000 -2.349232e+001 0.000000e+000
      vertex   1.250000e+001 -2.165064e+001 0.000000e+000
    endloop
  endfacet
  facet normal -0.000000e+000 0.000000e+000 -1.000000e+000
    outer loop
      vertex   8.550504e+000 -2.349232e+001 0.000000e+000
      vertex   -4.341204e+000 -2.462019e+001 0.000000e+000
      vertex   -8.550504e+000 -2.349232e+001 0.000000e+000
    endloop
  endfacet
  facet normal 0.000000e+000 0.000000e+000 -1.000000e+000
    outer loop
      vertex   1.250000e+001 -2.165064e+001 0.000000e+000
      vertex   -1.250000e+001 -2.165064e+001 0.000000e+000
      vertex   1.606969e+001 -1.915111e+001 0.000000e+000
    endloop
  endfacet
  facet normal -0.000000e+000 0.000000e+000 -1.000000e+000
    outer loop
      vertex   1.250000e+001 -2.165064e+001 0.000000e+000
      vertex   -8.550504e+000 -2.349232e+001 0.000000e+000
      vertex   -1.250000e+001 -2.165064e+001 0.000000e+000
    endloop
  endfacet
  facet normal 0.000000e+000 0.000000e+000 -1.000000e+000
    outer loop
      vertex   1.606969e+001 -1.915111e+001 0.000000e+000
      vertex   -1.606969e+001 -1.915111e+001 0.000000e+000
      vertex   1.915111e+001 -1.606969e+001 0.000000e+000
    endloop
  endfacet
  facet normal -0.000000e+000 0.000000e+000 -1.000000e+000
    outer loop
      vertex   1.606969e+001 -1.915111e+001 0.000000e+000
      vertex   -1.250000e+001 -2.165064e+001 0.000000e+000
      vertex   -1.606969e+001 -1.915111e+001 0.000000e+000
    endloop
  endfacet
  facet normal 0.000000e+000 0.000000e+000 -1.000000e+000
    outer loop
      vertex   -1.606969e+001 -1.915111e+001 0.000000e+000
      vertex   -1.915111e+001 -1.606969e+001 0.000000e+000
      vertex   1.915111e+001 -1.606969e+001 0.000000e+000
    endloop
  endfacet
  facet normal 0.000000e+000 0.000000e+000 -1.000000e+000
    outer loop
      vertex   1.915111e+001 -1.606969e+001 0.000000e+000
      vertex   -1.915111e+001 -1.606969e+001 0.000000e+000
      vertex   2.165064e+001 -1.250000e+001 0.000000e+000
    endloop
  endfacet
  facet normal -0.000000e+000 0.000000e+000 -1.000000e+000
    outer loop
      vertex   2.165064e+001 -1.250000e+001 0.000000e+000
      vertex   -1.915111e+001 -1.606969e+001 0.000000e+000
      vertex   -2.165064e+001 -1.250000e+001 0.000000e+000
    endloop
  endfacet
  facet normal -0.000000e+000 0.000000e+000 -1.000000e+000
    outer loop
      vertex   2.349232e+001 -8.550504e+000 0.000000e+000
      vertex   -2.165064e+001 -1.250000e+001 0.000000e+000
      vertex   -2.349232e+001 -8.550504e+000 0.000000e+000
    endloop
  endfacet
  facet normal -0.000000e+000 0.000000e+000 -1.000000e+000
    outer loop
      vertex   2.462019e+001 -4.341204e+000 0.000000e+000
      vertex   -2.349232e+001 -8.550504e+000 0.000000e+000
      vertex   -2.462019e+001 -4.341204e+000 0.000000e+000
    endloop
  endfacet
  facet normal -0.000000e+000 0.000000e+000 -1.000000e+000
    outer loop
      vertex   2.500000e+001 0.000000e+000 0.000000e+000
      vertex   -2.462019e+001 -4.341204e+000 0.000000e+000
      vertex   -2.500000e+001 3.061516e-015 0.000000e+000
    endloop
  endfacet
  facet normal -0.000000e+000 0.000000e+000 -1.000000e+000
    outer loop
      vertex   2.462019e+001 4.341204e+000 0.000000e+000
      vertex   -2.500000e+001 3.061516e-015 0.000000e+000
      vertex   -2.462019e+001 4.341204e+000 0.000000e+000
    endloop
  endfacet
  facet normal -0.000000e+000 0.000000e+000 -1.000000e+000
    outer loop
      vertex   2.349232e+001 8.550504e+000 0.000000e+000
      vertex   -2.462019e+001 4.341204e+000 0.000000e+000
      vertex   -2.349232e+001 8.550504e+000 0.000000e+000
    endloop
  endfacet
  facet normal -0.000000e+000 0.000000e+000 -1.000000e+000
    outer loop
      vertex   2.165064e+001 1.250000e+001 0.000000e+000
      vertex   -2.349232e+001 8.550504e+000 0.000000e+000
      vertex   -2.165064e+001 1.250000e+001 0.000000e+000
    endloop
  endfacet
  facet normal -0.000000e+000 0.000000e+000 -1.000000e+000
    outer loop
      vertex   1.915111e+001 1.606969e+001 0.000000e+000
      vertex   -2.165064e+001 1.250000e+001 0.000000e+000
      vertex   -1.915111e+001 1.606969e+001 0.000000e+000
    endloop
  endfacet
  facet normal -0.000000e+000 0.000000e+000 -1.000000e+000
    outer loop
      vertex   1.606969e+001 1.915111e+001 0.000000e+000
      vertex   -1.915111e+001 1.606969e+001 0.000000e+000
      vertex   -1.606969e+001 1.915111e+001 0.000000e+000
    endloop
  endfacet
  facet normal -0.000000e+000 0.000000e+000 -1.000000e+000
    outer loop
      vertex   1.250000e+001 2.165064e+001 0.000000e+000
      vertex   -1.606969e+001 1.915111e+001 0.000000e+000
      vertex   -1.250000e+001 2.165064e+001 0.000000e+000
    endloop
  endfacet
  facet normal -0.000000e+000 0.000000e+000 -1.000000e+000
    outer loop
      vertex   8.550504e+000 2.349232e+001 0.000000e+000
      vertex   -1.250000e+001 2.165064e+001 0.000000e+000
      vertex   -8.550504e+000 2.349232e+001 0.000000e+000
    endloop
  endfacet
  facet normal -0.000000e+000 0.000000e+000 -1.000000e+000
    outer loop
      vertex   4.341204e+000 2.462019e+001 0.000000e+000
      vertex   -8.550504e+000 2.349232e+001 0.000000e+000
      vertex   -4.341204e+000 2.462019e+001 0.000000e+000
    endloop
  endfacet
  facet normal -0.000000e+000 -0.000000e+000 -1.000000e+000
    outer loop
      vertex   1.530758e-015 2.500000e+001 0.000000e+000
      vertex   4.341204e+000 2.462019e+001 0.000000e+000
      vertex   -4.341204e+000 2.462019e+001 0.000000e+000
    endloop
  endfacet
  facet normal -0.000000e+000 -0.000000e+000 -1.000000e+000
    outer loop
      vertex   4.341204e+000 2.462019e+001 0.000000e+000
      vertex   8.550504e+000 2.349232e+001 0.000000e+000
      vertex   -8.550504e+000 2.349232e+001 0.000000e+000
    endloop
  endfacet
  facet normal -0.000000e+000 -0.000000e+000 -1.000000e+000
    outer loop
      vertex   8.550504e+000 2.349232e+001 0.000000e+000
      vertex   1.250000e+001 2.165064e+001 0.000000e+000
      vertex   -1.250000e+001 2.165064e+001 0.000000e+000
    endloop
  endfacet
  facet normal -0.000000e+000 -0.000000e+000 -1.000000e+000
    outer loop
      vertex   1.250000e+001 2.165064e+001 0.000000e+000
      vertex   1.606969e+001 1.915111e+001 0.000000e+000
      vertex   -1.606969e+001 1.915111e+001 0.000000e+000
    endloop
  endfacet
  facet normal -0.000000e+000 -0.000000e+000 -1.000000e+000
    outer loop
      vertex   1.606969e+001 1.915111e+001 0.000000e+000
      vertex   1.915111e+001 1.606969e+001 0.000000e+000
      vertex   -1.915111e+001 1.606969e+001 0.000000e+000
    endloop
  endfacet
  facet normal -0.000000e+000 -0.000000e+000 -1.000000e+000
    outer loop
      vertex   1.915111e+001 1.606969e+001 0.000000e+000
      vertex   2.165064e+001 1.250000e+001 0.000000e+000
      vertex   -2.165064e+001 1.250000e+001 0.000000e+000
    endloop
  endfacet
  facet normal -0.000000e+000 -0.000000e+000 -1.000000e+000
    outer loop
      vertex   2.165064e+001 1.250000e+001 0.000000e+000
      vertex   2.349232e+001 8.550504e+000 0.000000e+000
      vertex   -2.349232e+001 8.550504e+000 0.000000e+000
    endloop
  endfacet
  facet normal -0.000000e+000 -0.000000e+000 -1.000000e+000
    outer loop
      vertex   2.349232e+001 8.550504e+000 0.000000e+000
      vertex   2.462019e+001 4.341204e+000 0.000000e+000
      vertex   -2.462019e+001 4.341204e+000 0.000000e+000
    endloop
  endfacet
  facet normal -0.000000e+000 -0.000000e+000 -1.000000e+000
    outer loop
      vertex   2.462019e+001 4.341204e+000 0.000000e+000
      vertex   2.500000e+001 0.000000e+000 0.000000e+000
      vertex   -2.500000e+001 3.061516e-015 0.000000e+000
    endloop
  endfacet
  facet normal 0.000000e+000 0.000000e+000 -1.000000e+000
    outer loop
      vertex   2.165064e+001 -1.250000e+001 0.000000e+000
      vertex   -2.165064e+001 -1.250000e+001 0.000000e+000
      vertex   2.349232e+001 -8.550504e+000 0.000000e+000
    endloop
  endfacet
  facet normal 0.000000e+000 0.000000e+000 -1.000000e+000
    outer loop
      vertex   2.349232e+001 -8.550504e+000 0.000000e+000
      vertex   -2.349232e+001 -8.550504e+000 0.000000e+000
      vertex   2.462019e+001 -4.341204e+000 0.000000e+000
    endloop
  endfacet
  facet normal 0.000000e+000 0.000000e+000 -1.000000e+000
    outer loop
      vertex   2.462019e+001 -4.341204e+000 0.000000e+000
      vertex   -2.462019e+001 -4.341204e+000 0.000000e+000
      vertex   2.500000e+001 0.000000e+000 0.000000e+000
    endloop
  endfacet
endsolid
