solid vcg
  facet normal 9.961947e-001 -8.715670e-002 0.000000e+000
    outer loop
      vertex  2.462019e+001 -4.341204e+000 1.000000e-001
      vertex  2.462019e+001 -4.341204e+000 0.000000e+000
      vertex  2.500000e+001 0.000000e+000 1.000000e-001
    endloop
  endfacet
  facet normal 9.659263e-001 -2.588174e-001 0.000000e+000
    outer loop
      vertex  2.462019e+001 -4.341204e+000 1.000000e-001
      vertex  2.349232e+001 -8.550504e+000 0.000000e+000
      vertex  2.462019e+001 -4.341204e+000 0.000000e+000
    endloop
  endfacet
  facet normal 9.659263e-001 -2.588174e-001 0.000000e+000
    outer loop
      vertex  2.462019e+001 -4.341204e+000 1.000000e-001
      vertex  2.349232e+001 -8.550504e+000 1.000000e-001
      vertex  2.349232e+001 -8.550504e+000 0.000000e+000
    endloop
  endfacet
  facet normal 9.063079e-001 -4.226179e-001 0.000000e+000
    outer loop
      vertex  2.349232e+001 -8.550504e+000 0.000000e+000
      vertex  2.349232e+001 -8.550504e+000 1.000000e-001
      vertex  2.165064e+001 -1.250000e+001 0.000000e+000
    endloop
  endfacet
  facet normal 9.063079e-001 -4.226179e-001 0.000000e+000
    outer loop
      vertex  2.165064e+001 -1.250000e+001 0.000000e+000
      vertex  2.349232e+001 -8.550504e+000 1.000000e-001
      vertex  2.165064e+001 -1.250000e+001 1.000000e-001
    endloop
  endfacet
  facet normal 8.191513e-001 -5.735774e-001 0.000000e+000
    outer loop
      vertex  1.915111e+001 -1.606969e+001 0.000000e+000
      vertex  2.165064e+001 -1.250000e+001 1.000000e-001
      vertex  1.915111e+001 -1.606969e+001 1.000000e-001
    endloop
  endfacet
  facet normal 7.071068e-001 -7.071068e-001 0.000000e+000
    outer loop
      vertex  1.606969e+001 -1.915111e+001 0.000000e+000
      vertex  1.915111e+001 -1.606969e+001 1.000000e-001
      vertex  1.606969e+001 -1.915111e+001 1.000000e-001
    endloop
  endfacet
  facet normal 5.735774e-001 -8.191513e-001 0.000000e+000
    outer loop
      vertex  1.250000e+001 -2.165064e+001 0.000000e+000
      vertex  1.606969e+001 -1.915111e+001 1.000000e-001
      vertex  1.250000e+001 -2.165064e+001 1.000000e-001
    endloop
  endfacet
  facet normal 4.226179e-001 -9.063079e-001 0.000000e+000
    outer loop
      vertex  8.550504e+000 -2.349232e+001 0.000000e+000
      vertex  1.250000e+001 -2.165064e+001 1.000000e-001
      vertex  8.550504e+000 -2.349232e+001 1.000000e-001
    endloop
  endfacet
  facet normal 2.588174e-001 -9.659263e-001 0.000000e+000
    outer loop
      vertex  4.341204e+000 -2.462019e+001 0.000000e+000
      vertex  8.550504e+000 -2.349232e+001 1.000000e-001
      vertex  4.341204e+000 -2.462019e+001 1.000000e-001
    endloop
  endfacet
  facet normal 8.715670e-002 -9.961947e-001 -5.336632e-015
    outer loop
      vertex  -4.592274e-015 -2.500000e+001 0.000000e+000
      vertex  4.341204e+000 -2.462019e+001 1.000000e-001
      vertex  1.530758e-015 -2.500000e+001 1.000000e-001
    endloop
  endfacet
  facet normal -8.715670e-002 -9.961947e-001 0.000000e+000
    outer loop
      vertex  -4.341204e+000 -2.462019e+001 0.000000e+000
      vertex  1.530758e-015 -2.500000e+001 1.000000e-001
      vertex  -4.341204e+000 -2.462019e+001 1.000000e-001
    endloop
  endfacet
  facet normal -2.588174e-001 -9.659263e-001 0.000000e+000
    outer loop
      vertex  -8.550504e+000 -2.349232e+001 0.000000e+000
      vertex  -4.341204e+000 -2.462019e+001 1.000000e-001
      vertex  -8.550504e+000 -2.349232e+001 1.000000e-001
    endloop
  endfacet
  facet normal -4.226179e-001 -9.063079e-001 0.000000e+000
    outer loop
      vertex  -1.250000e+001 -2.165064e+001 0.000000e+000
      vertex  -8.550504e+000 -2.349232e+001 1.000000e-001
      vertex  -1.250000e+001 -2.165064e+001 1.000000e-001
    endloop
  endfacet
  facet normal -5.735774e-001 -8.191513e-001 0.000000e+000
    outer loop
      vertex  -1.606969e+001 -1.915111e+001 0.000000e+000
      vertex  -1.250000e+001 -2.165064e+001 1.000000e-001
      vertex  -1.606969e+001 -1.915111e+001 1.000000e-001
    endloop
  endfacet
  facet normal -7.071068e-001 -7.071068e-001 0.000000e+000
    outer loop
      vertex  -1.915111e+001 -1.606969e+001 0.000000e+000
      vertex  -1.606969e+001 -1.915111e+001 1.000000e-001
      vertex  -1.915111e+001 -1.606969e+001 1.000000e-001
    endloop
  endfacet
  facet normal -8.191513e-001 -5.735774e-001 0.000000e+000
    outer loop
      vertex  -2.165064e+001 -1.250000e+001 0.000000e+000
      vertex  -1.915111e+001 -1.606969e+001 1.000000e-001
      vertex  -2.165064e+001 -1.250000e+001 1.000000e-001
    endloop
  endfacet
  facet normal -9.063079e-001 -4.226179e-001 0.000000e+000
    outer loop
      vertex  -2.349232e+001 -8.550504e+000 0.000000e+000
      vertex  -2.165064e+001 -1.250000e+001 1.000000e-001
      vertex  -2.349232e+001 -8.550504e+000 1.000000e-001
    endloop
  endfacet
  facet normal -9.659263e-001 -2.588174e-001 0.000000e+000
    outer loop
      vertex  -2.462019e+001 -4.341204e+000 0.000000e+000
      vertex  -2.349232e+001 -8.550504e+000 1.000000e-001
      vertex  -2.462019e+001 -4.341204e+000 1.000000e-001
    endloop
  endfacet
  facet normal -9.961947e-001 -8.715670e-002 -5.336633e-015
    outer loop
      vertex  -2.500000e+001 3.061516e-015 0.000000e+000
      vertex  -2.462019e+001 -4.341204e+000 1.000000e-001
      vertex  -2.500000e+001 -3.061516e-015 1.000000e-001
    endloop
  endfacet
  facet normal -9.961947e-001 8.715670e-002 0.000000e+000
    outer loop
      vertex  -2.462019e+001 4.341204e+000 0.000000e+000
      vertex  -2.500000e+001 -3.061516e-015 1.000000e-001
      vertex  -2.462019e+001 4.341204e+000 1.000000e-001
    endloop
  endfacet
  facet normal -9.659263e-001 2.588174e-001 0.000000e+000
    outer loop
      vertex  -2.349232e+001 8.550504e+000 0.000000e+000
      vertex  -2.462019e+001 4.341204e+000 1.000000e-001
      vertex  -2.349232e+001 8.550504e+000 1.000000e-001
    endloop
  endfacet
  facet normal -9.063079e-001 4.226179e-001 0.000000e+000
    outer loop
      vertex  -2.165064e+001 1.250000e+001 0.000000e+000
      vertex  -2.349232e+001 8.550504e+000 1.000000e-001
      vertex  -2.165064e+001 1.250000e+001 1.000000e-001
    endloop
  endfacet
  facet normal -8.191513e-001 5.735774e-001 0.000000e+000
    outer loop
      vertex  -1.915111e+001 1.606969e+001 0.000000e+000
      vertex  -2.165064e+001 1.250000e+001 1.000000e-001
      vertex  -1.915111e+001 1.606969e+001 1.000000e-001
    endloop
  endfacet
  facet normal -7.071068e-001 7.071068e-001 0.000000e+000
    outer loop
      vertex  -1.606969e+001 1.915111e+001 0.000000e+000
      vertex  -1.915111e+001 1.606969e+001 1.000000e-001
      vertex  -1.606969e+001 1.915111e+001 1.000000e-001
    endloop
  endfacet
  facet normal -5.735774e-001 8.191513e-001 0.000000e+000
    outer loop
      vertex  -1.250000e+001 2.165064e+001 0.000000e+000
      vertex  -1.606969e+001 1.915111e+001 1.000000e-001
      vertex  -1.250000e+001 2.165064e+001 1.000000e-001
    endloop
  endfacet
  facet normal -4.226179e-001 9.063079e-001 0.000000e+000
    outer loop
      vertex  -8.550504e+000 2.349232e+001 0.000000e+000
      vertex  -1.250000e+001 2.165064e+001 1.000000e-001
      vertex  -8.550504e+000 2.349232e+001 1.000000e-001
    endloop
  endfacet
  facet normal -2.588174e-001 9.659263e-001 0.000000e+000
    outer loop
      vertex  -4.341204e+000 2.462019e+001 0.000000e+000
      vertex  -8.550504e+000 2.349232e+001 1.000000e-001
      vertex  -4.341204e+000 2.462019e+001 1.000000e-001
    endloop
  endfacet
  facet normal -8.715670e-002 9.961947e-001 -5.336632e-015
    outer loop
      vertex  1.530758e-015 2.500000e+001 0.000000e+000
      vertex  -4.341204e+000 2.462019e+001 1.000000e-001
      vertex  -4.592274e-015 2.500000e+001 1.000000e-001
    endloop
  endfacet
  facet normal 8.715670e-002 9.961947e-001 -0.000000e+000
    outer loop
      vertex  4.341204e+000 2.462019e+001 0.000000e+000
      vertex  -4.592274e-015 2.500000e+001 1.000000e-001
      vertex  4.341204e+000 2.462019e+001 1.000000e-001
    endloop
  endfacet
  facet normal 2.588174e-001 9.659263e-001 -0.000000e+000
    outer loop
      vertex  8.550504e+000 2.349232e+001 0.000000e+000
      vertex  4.341204e+000 2.462019e+001 1.000000e-001
      vertex  8.550504e+000 2.349232e+001 1.000000e-001
    endloop
  endfacet
  facet normal 4.226179e-001 9.063079e-001 -0.000000e+000
    outer loop
      vertex  1.250000e+001 2.165064e+001 0.000000e+000
      vertex  8.550504e+000 2.349232e+001 1.000000e-001
      vertex  1.250000e+001 2.165064e+001 1.000000e-001
    endloop
  endfacet
  facet normal 5.735774e-001 8.191513e-001 -0.000000e+000
    outer loop
      vertex  1.606969e+001 1.915111e+001 0.000000e+000
      vertex  1.250000e+001 2.165064e+001 1.000000e-001
      vertex  1.606969e+001 1.915111e+001 1.000000e-001
    endloop
  endfacet
  facet normal 7.071068e-001 7.071068e-001 -0.000000e+000
    outer loop
      vertex  1.915111e+001 1.606969e+001 0.000000e+000
      vertex  1.606969e+001 1.915111e+001 1.000000e-001
      vertex  1.915111e+001 1.606969e+001 1.000000e-001
    endloop
  endfacet
  facet normal 8.191513e-001 5.735774e-001 -0.000000e+000
    outer loop
      vertex  2.165064e+001 1.250000e+001 0.000000e+000
      vertex  1.915111e+001 1.606969e+001 1.000000e-001
      vertex  2.165064e+001 1.250000e+001 1.000000e-001
    endloop
  endfacet
  facet normal 9.063079e-001 4.226179e-001 -0.000000e+000
    outer loop
      vertex  2.349232e+001 8.550504e+000 0.000000e+000
      vertex  2.165064e+001 1.250000e+001 1.000000e-001
      vertex  2.349232e+001 8.550504e+000 1.000000e-001
    endloop
  endfacet
  facet normal 9.659263e-001 2.588174e-001 -0.000000e+000
    outer loop
      vertex  2.462019e+001 4.341204e+000 0.000000e+000
      vertex  2.349232e+001 8.550504e+000 1.000000e-001
      vertex  2.462019e+001 4.341204e+000 1.000000e-001
    endloop
  endfacet
  facet normal 9.961947e-001 8.715670e-002 -0.000000e+000
    outer loop
      vertex  2.500000e+001 0.000000e+000 0.000000e+000
      vertex  2.462019e+001 4.341204e+000 1.000000e-001
      vertex  2.500000e+001 0.000000e+000 1.000000e-001
    endloop
  endfacet
  facet normal 9.961947e-001 -8.715670e-002 0.000000e+000
    outer loop
      vertex  2.462019e+001 -4.341204e+000 0.000000e+000
      vertex  2.500000e+001 0.000000e+000 0.000000e+000
      vertex  2.500000e+001 0.000000e+000 1.000000e-001
    endloop
  endfacet
  facet normal 9.961947e-001 8.715670e-002 0.000000e+000
    outer loop
      vertex  2.500000e+001 0.000000e+000 0.000000e+000
      vertex  2.462019e+001 4.341204e+000 0.000000e+000
      vertex  2.462019e+001 4.341204e+000 1.000000e-001
    endloop
  endfacet
  facet normal 9.659263e-001 2.588174e-001 0.000000e+000
    outer loop
      vertex  2.462019e+001 4.341204e+000 0.000000e+000
      vertex  2.349232e+001 8.550504e+000 0.000000e+000
      vertex  2.349232e+001 8.550504e+000 1.000000e-001
    endloop
  endfacet
  facet normal 9.063079e-001 4.226179e-001 0.000000e+000
    outer loop
      vertex  2.349232e+001 8.550504e+000 0.000000e+000
      vertex  2.165064e+001 1.250000e+001 0.000000e+000
      vertex  2.165064e+001 1.250000e+001 1.000000e-001
    endloop
  endfacet
  facet normal 8.191513e-001 5.735774e-001 0.000000e+000
    outer loop
      vertex  2.165064e+001 1.250000e+001 0.000000e+000
      vertex  1.915111e+001 1.606969e+001 0.000000e+000
      vertex  1.915111e+001 1.606969e+001 1.000000e-001
    endloop
  endfacet
  facet normal 7.071068e-001 7.071068e-001 0.000000e+000
    outer loop
      vertex  1.915111e+001 1.606969e+001 0.000000e+000
      vertex  1.606969e+001 1.915111e+001 0.000000e+000
      vertex  1.606969e+001 1.915111e+001 1.000000e-001
    endloop
  endfacet
  facet normal 5.735774e-001 8.191513e-001 0.000000e+000
    outer loop
      vertex  1.606969e+001 1.915111e+001 0.000000e+000
      vertex  1.250000e+001 2.165064e+001 0.000000e+000
      vertex  1.250000e+001 2.165064e+001 1.000000e-001
    endloop
  endfacet
  facet normal 4.226179e-001 9.063079e-001 0.000000e+000
    outer loop
      vertex  1.250000e+001 2.165064e+001 0.000000e+000
      vertex  8.550504e+000 2.349232e+001 0.000000e+000
      vertex  8.550504e+000 2.349232e+001 1.000000e-001
    endloop
  endfacet
  facet normal 2.588174e-001 9.659263e-001 0.000000e+000
    outer loop
      vertex  8.550504e+000 2.349232e+001 0.000000e+000
      vertex  4.341204e+000 2.462019e+001 0.000000e+000
      vertex  4.341204e+000 2.462019e+001 1.000000e-001
    endloop
  endfacet
  facet normal 8.715670e-002 9.961947e-001 0.000000e+000
    outer loop
      vertex  4.341204e+000 2.462019e+001 0.000000e+000
      vertex  1.530758e-015 2.500000e+001 0.000000e+000
      vertex  -4.592274e-015 2.500000e+001 1.000000e-001
    endloop
  endfacet
  facet normal -8.715670e-002 9.961947e-001 0.000000e+000
    outer loop
      vertex  1.530758e-015 2.500000e+001 0.000000e+000
      vertex  -4.341204e+000 2.462019e+001 0.000000e+000
      vertex  -4.341204e+000 2.462019e+001 1.000000e-001
    endloop
  endfacet
  facet normal -2.588174e-001 9.659263e-001 0.000000e+000
    outer loop
      vertex  -4.341204e+000 2.462019e+001 0.000000e+000
      vertex  -8.550504e+000 2.349232e+001 0.000000e+000
      vertex  -8.550504e+000 2.349232e+001 1.000000e-001
    endloop
  endfacet
  facet normal -4.226179e-001 9.063079e-001 0.000000e+000
    outer loop
      vertex  -8.550504e+000 2.349232e+001 0.000000e+000
      vertex  -1.250000e+001 2.165064e+001 0.000000e+000
      vertex  -1.250000e+001 2.165064e+001 1.000000e-001
    endloop
  endfacet
  facet normal -5.735774e-001 8.191513e-001 0.000000e+000
    outer loop
      vertex  -1.250000e+001 2.165064e+001 0.000000e+000
      vertex  -1.606969e+001 1.915111e+001 0.000000e+000
      vertex  -1.606969e+001 1.915111e+001 1.000000e-001
    endloop
  endfacet
  facet normal -7.071068e-001 7.071068e-001 0.000000e+000
    outer loop
      vertex  -1.606969e+001 1.915111e+001 0.000000e+000
      vertex  -1.915111e+001 1.606969e+001 0.000000e+000
      vertex  -1.915111e+001 1.606969e+001 1.000000e-001
    endloop
  endfacet
  facet normal -8.191513e-001 5.735774e-001 0.000000e+000
    outer loop
      vertex  -1.915111e+001 1.606969e+001 0.000000e+000
      vertex  -2.165064e+001 1.250000e+001 0.000000e+000
      vertex  -2.165064e+001 1.250000e+001 1.000000e-001
    endloop
  endfacet
  facet normal -9.063079e-001 4.226179e-001 0.000000e+000
    outer loop
      vertex  -2.165064e+001 1.250000e+001 0.000000e+000
      vertex  -2.349232e+001 8.550504e+000 0.000000e+000
      vertex  -2.349232e+001 8.550504e+000 1.000000e-001
    endloop
  endfacet
  facet normal -9.659263e-001 2.588174e-001 0.000000e+000
    outer loop
      vertex  -2.349232e+001 8.550504e+000 0.000000e+000
      vertex  -2.462019e+001 4.341204e+000 0.000000e+000
      vertex  -2.462019e+001 4.341204e+000 1.000000e-001
    endloop
  endfacet
  facet normal -9.961947e-001 8.715670e-002 0.000000e+000
    outer loop
      vertex  -2.462019e+001 4.341204e+000 0.000000e+000
      vertex  -2.500000e+001 3.061516e-015 0.000000e+000
      vertex  -2.500000e+001 -3.061516e-015 1.000000e-001
    endloop
  endfacet
  facet normal -9.961947e-001 -8.715670e-002 0.000000e+000
    outer loop
      vertex  -2.500000e+001 3.061516e-015 0.000000e+000
      vertex  -2.462019e+001 -4.341204e+000 0.000000e+000
      vertex  -2.462019e+001 -4.341204e+000 1.000000e-001
    endloop
  endfacet
  facet normal -9.659263e-001 -2.588174e-001 0.000000e+000
    outer loop
      vertex  -2.462019e+001 -4.341204e+000 0.000000e+000
      vertex  -2.349232e+001 -8.550504e+000 0.000000e+000
      vertex  -2.349232e+001 -8.550504e+000 1.000000e-001
    endloop
  endfacet
  facet normal -9.063079e-001 -4.226179e-001 0.000000e+000
    outer loop
      vertex  -2.349232e+001 -8.550504e+000 0.000000e+000
      vertex  -2.165064e+001 -1.250000e+001 0.000000e+000
      vertex  -2.165064e+001 -1.250000e+001 1.000000e-001
    endloop
  endfacet
  facet normal -8.191513e-001 -5.735774e-001 0.000000e+000
    outer loop
      vertex  -2.165064e+001 -1.250000e+001 0.000000e+000
      vertex  -1.915111e+001 -1.606969e+001 0.000000e+000
      vertex  -1.915111e+001 -1.606969e+001 1.000000e-001
    endloop
  endfacet
  facet normal -7.071068e-001 -7.071068e-001 0.000000e+000
    outer loop
      vertex  -1.915111e+001 -1.606969e+001 0.000000e+000
      vertex  -1.606969e+001 -1.915111e+001 0.000000e+000
      vertex  -1.606969e+001 -1.915111e+001 1.000000e-001
    endloop
  endfacet
  facet normal -5.735774e-001 -8.191513e-001 0.000000e+000
    outer loop
      vertex  -1.606969e+001 -1.915111e+001 0.000000e+000
      vertex  -1.250000e+001 -2.165064e+001 0.000000e+000
      vertex  -1.250000e+001 -2.165064e+001 1.000000e-001
    endloop
  endfacet
  facet normal -4.226179e-001 -9.063079e-001 0.000000e+000
    outer loop
      vertex  -1.250000e+001 -2.165064e+001 0.000000e+000
      vertex  -8.550504e+000 -2.349232e+001 0.000000e+000
      vertex  -8.550504e+000 -2.349232e+001 1.000000e-001
    endloop
  endfacet
  facet normal -2.588174e-001 -9.659263e-001 0.000000e+000
    outer loop
      vertex  -8.550504e+000 -2.349232e+001 0.000000e+000
      vertex  -4.341204e+000 -2.462019e+001 0.000000e+000
      vertex  -4.341204e+000 -2.462019e+001 1.000000e-001
    endloop
  endfacet
  facet normal -8.715670e-002 -9.961947e-001 0.000000e+000
    outer loop
      vertex  -4.341204e+000 -2.462019e+001 0.000000e+000
      vertex  -4.592274e-015 -2.500000e+001 0.000000e+000
      vertex  1.530758e-015 -2.500000e+001 1.000000e-001
    endloop
  endfacet
  facet normal 8.715670e-002 -9.961947e-001 0.000000e+000
    outer loop
      vertex  -4.592274e-015 -2.500000e+001 0.000000e+000
      vertex  4.341204e+000 -2.462019e+001 0.000000e+000
      vertex  4.341204e+000 -2.462019e+001 1.000000e-001
    endloop
  endfacet
  facet normal 2.588174e-001 -9.659263e-001 0.000000e+000
    outer loop
      vertex  4.341204e+000 -2.462019e+001 0.000000e+000
      vertex  8.550504e+000 -2.349232e+001 0.000000e+000
      vertex  8.550504e+000 -2.349232e+001 1.000000e-001
    endloop
  endfacet
  facet normal 4.226179e-001 -9.063079e-001 0.000000e+000
    outer loop
      vertex  8.550504e+000 -2.349232e+001 0.000000e+000
      vertex  1.250000e+001 -2.165064e+001 0.000000e+000
      vertex  1.250000e+001 -2.165064e+001 1.000000e-001
    endloop
  endfacet
  facet normal 5.735774e-001 -8.191513e-001 0.000000e+000
    outer loop
      vertex  1.250000e+001 -2.165064e+001 0.000000e+000
      vertex  1.606969e+001 -1.915111e+001 0.000000e+000
      vertex  1.606969e+001 -1.915111e+001 1.000000e-001
    endloop
  endfacet
  facet normal 7.071068e-001 -7.071068e-001 0.000000e+000
    outer loop
      vertex  1.606969e+001 -1.915111e+001 0.000000e+000
      vertex  1.915111e+001 -1.606969e+001 0.000000e+000
      vertex  1.915111e+001 -1.606969e+001 1.000000e-001
    endloop
  endfacet
  facet normal 8.191513e-001 -5.735774e-001 0.000000e+000
    outer loop
      vertex  1.915111e+001 -1.606969e+001 0.000000e+000
      vertex  2.165064e+001 -1.250000e+001 0.000000e+000
      vertex  2.165064e+001 -1.250000e+001 1.000000e-001
    endloop
  endfacet
  facet normal 0.000000e+000 0.000000e+000 1.000000e+000
    outer loop
      vertex  4.341204e+000 2.462019e+001 1.000000e-001
      vertex  -4.341204e+000 2.462019e+001 1.000000e-001
      vertex  8.550504e+000 2.349232e+001 1.000000e-001
    endloop
  endfacet
  facet normal 0.000000e+000 0.000000e+000 1.000000e+000
    outer loop
      vertex  4.341204e+000 2.462019e+001 1.000000e-001
      vertex  -4.592274e-015 2.500000e+001 1.000000e-001
      vertex  -4.341204e+000 2.462019e+001 1.000000e-001
    endloop
  endfacet
  facet normal 0.000000e+000 0.000000e+000 1.000000e+000
    outer loop
      vertex  8.550504e+000 2.349232e+001 1.000000e-001
      vertex  -8.550504e+000 2.349232e+001 1.000000e-001
      vertex  1.250000e+001 2.165064e+001 1.000000e-001
    endloop
  endfacet
  facet normal 0.000000e+000 0.000000e+000 1.000000e+000
    outer loop
      vertex  8.550504e+000 2.349232e+001 1.000000e-001
      vertex  -4.341204e+000 2.462019e+001 1.000000e-001
      vertex  -8.550504e+000 2.349232e+001 1.000000e-001
    endloop
  endfacet
  facet normal 0.000000e+000 0.000000e+000 1.000000e+000
    outer loop
      vertex  1.250000e+001 2.165064e+001 1.000000e-001
      vertex  -1.250000e+001 2.165064e+001 1.000000e-001
      vertex  1.606969e+001 1.915111e+001 1.000000e-001
    endloop
  endfacet
  facet normal 0.000000e+000 0.000000e+000 1.000000e+000
    outer loop
      vertex  1.250000e+001 2.165064e+001 1.000000e-001
      vertex  -8.550504e+000 2.349232e+001 1.000000e-001
      vertex  -1.250000e+001 2.165064e+001 1.000000e-001
    endloop
  endfacet
  facet normal 0.000000e+000 0.000000e+000 1.000000e+000
    outer loop
      vertex  1.606969e+001 1.915111e+001 1.000000e-001
      vertex  -1.606969e+001 1.915111e+001 1.000000e-001
      vertex  1.915111e+001 1.606969e+001 1.000000e-001
    endloop
  endfacet
  facet normal 0.000000e+000 0.000000e+000 1.000000e+000
    outer loop
      vertex  1.606969e+001 1.915111e+001 1.000000e-001
      vertex  -1.250000e+001 2.165064e+001 1.000000e-001
      vertex  -1.606969e+001 1.915111e+001 1.000000e-001
    endloop
  endfacet
  facet normal 0.000000e+000 0.000000e+000 1.000000e+000
    outer loop
      vertex  -1.606969e+001 1.915111e+001 1.000000e-001
      vertex  -1.915111e+001 1.606969e+001 1.000000e-001
      vertex  1.915111e+001 1.606969e+001 1.000000e-001
    endloop
  endfacet
  facet normal 0.000000e+000 0.000000e+000 1.000000e+000
    outer loop
      vertex  1.915111e+001 1.606969e+001 1.000000e-001
      vertex  -1.915111e+001 1.606969e+001 1.000000e-001
      vertex  2.165064e+001 1.250000e+001 1.000000e-001
    endloop
  endfacet
  facet normal 0.000000e+000 0.000000e+000 1.000000e+000
    outer loop
      vertex  2.165064e+001 1.250000e+001 1.000000e-001
      vertex  -1.915111e+001 1.606969e+001 1.000000e-001
      vertex  -2.165064e+001 1.250000e+001 1.000000e-001
    endloop
  endfacet
  facet normal 0.000000e+000 0.000000e+000 1.000000e+000
    outer loop
      vertex  2.349232e+001 8.550504e+000 1.000000e-001
      vertex  -2.165064e+001 1.250000e+001 1.000000e-001
      vertex  -2.349232e+001 8.550504e+000 1.000000e-001
    endloop
  endfacet
  facet normal 0.000000e+000 0.000000e+000 1.000000e+000
    outer loop
      vertex  2.462019e+001 4.341204e+000 1.000000e-001
      vertex  -2.349232e+001 8.550504e+000 1.000000e-001
      vertex  -2.462019e+001 4.341204e+000 1.000000e-001
    endloop
  endfacet
  facet normal 0.000000e+000 0.000000e+000 1.000000e+000
    outer loop
      vertex  2.500000e+001 0.000000e+000 1.000000e-001
      vertex  -2.462019e+001 4.341204e+000 1.000000e-001
      vertex  -2.500000e+001 -3.061516e-015 1.000000e-001
    endloop
  endfacet
  facet normal 0.000000e+000 0.000000e+000 1.000000e+000
    outer loop
      vertex  2.462019e+001 -4.341204e+000 1.000000e-001
      vertex  -2.500000e+001 -3.061516e-015 1.000000e-001
      vertex  -2.462019e+001 -4.341204e+000 1.000000e-001
    endloop
  endfacet
  facet normal 0.000000e+000 0.000000e+000 1.000000e+000
    outer loop
      vertex  2.349232e+001 -8.550504e+000 1.000000e-001
      vertex  -2.462019e+001 -4.341204e+000 1.000000e-001
      vertex  -2.349232e+001 -8.550504e+000 1.000000e-001
    endloop
  endfacet
  facet normal 0.000000e+000 0.000000e+000 1.000000e+000
    outer loop
      vertex  2.165064e+001 -1.250000e+001 1.000000e-001
      vertex  -2.349232e+001 -8.550504e+000 1.000000e-001
      vertex  -2.165064e+001 -1.250000e+001 1.000000e-001
    endloop
  endfacet
  facet normal 0.000000e+000 0.000000e+000 1.000000e+000
    outer loop
      vertex  1.915111e+001 -1.606969e+001 1.000000e-001
      vertex  -2.165064e+001 -1.250000e+001 1.000000e-001
      vertex  -1.915111e+001 -1.606969e+001 1.000000e-001
    endloop
  endfacet
  facet normal 0.000000e+000 0.000000e+000 1.000000e+000
    outer loop
      vertex  1.606969e+001 -1.915111e+001 1.000000e-001
      vertex  -1.915111e+001 -1.606969e+001 1.000000e-001
      vertex  -1.606969e+001 -1.915111e+001 1.000000e-001
    endloop
  endfacet
  facet normal 0.000000e+000 0.000000e+000 1.000000e+000
    outer loop
      vertex  1.250000e+001 -2.165064e+001 1.000000e-001
      vertex  -1.606969e+001 -1.915111e+001 1.000000e-001
      vertex  -1.250000e+001 -2.165064e+001 1.000000e-001
    endloop
  endfacet
  facet normal 0.000000e+000 0.000000e+000 1.000000e+000
    outer loop
      vertex  8.550504e+000 -2.349232e+001 1.000000e-001
      vertex  -1.250000e+001 -2.165064e+001 1.000000e-001
      vertex  -8.550504e+000 -2.349232e+001 1.000000e-001
    endloop
  endfacet
  facet normal 0.000000e+000 0.000000e+000 1.000000e+000
    outer loop
      vertex  4.341204e+000 -2.462019e+001 1.000000e-001
      vertex  -8.550504e+000 -2.349232e+001 1.000000e-001
      vertex  -4.341204e+000 -2.462019e+001 1.000000e-001
    endloop
  endfacet
  facet normal 0.000000e+000 -0.000000e+000 1.000000e+000
    outer loop
      vertex  1.530758e-015 -2.500000e+001 1.000000e-001
      vertex  4.341204e+000 -2.462019e+001 1.000000e-001
      vertex  -4.341204e+000 -2.462019e+001 1.000000e-001
    endloop
  endfacet
  facet normal 0.000000e+000 -0.000000e+000 1.000000e+000
    outer loop
      vertex  4.341204e+000 -2.462019e+001 1.000000e-001
      vertex  8.550504e+000 -2.349232e+001 1.000000e-001
      vertex  -8.550504e+000 -2.349232e+001 1.000000e-001
    endloop
  endfacet
  facet normal 0.000000e+000 -0.000000e+000 1.000000e+000
    outer loop
      vertex  8.550504e+000 -2.349232e+001 1.000000e-001
      vertex  1.250000e+001 -2.165064e+001 1.000000e-001
      vertex  -1.250000e+001 -2.165064e+001 1.000000e-001
    endloop
  endfacet
  facet normal 0.000000e+000 -0.000000e+000 1.000000e+000
    outer loop
      vertex  1.250000e+001 -2.165064e+001 1.000000e-001
      vertex  1.606969e+001 -1.915111e+001 1.000000e-001
      vertex  -1.606969e+001 -1.915111e+001 1.000000e-001
    endloop
  endfacet
  facet normal 0.000000e+000 -0.000000e+000 1.000000e+000
    outer loop
      vertex  1.606969e+001 -1.915111e+001 1.000000e-001
      vertex  1.915111e+001 -1.606969e+001 1.000000e-001
      vertex  -1.915111e+001 -1.606969e+001 1.000000e-001
    endloop
  endfacet
  facet normal 0.000000e+000 -0.000000e+000 1.000000e+000
    outer loop
      vertex  1.915111e+001 -1.606969e+001 1.000000e-001
      vertex  2.165064e+001 -1.250000e+001 1.000000e-001
      vertex  -2.165064e+001 -1.250000e+001 1.000000e-001
    endloop
  endfacet
  facet normal 0.000000e+000 -0.000000e+000 1.000000e+000
    outer loop
      vertex  2.165064e+001 -1.250000e+001 1.000000e-001
      vertex  2.349232e+001 -8.550504e+000 1.000000e-001
      vertex  -2.349232e+001 -8.550504e+000 1.000000e-001
    endloop
  endfacet
  facet normal 0.000000e+000 -0.000000e+000 1.000000e+000
    outer loop
      vertex  2.349232e+001 -8.550504e+000 1.000000e-001
      vertex  2.462019e+001 -4.341204e+000 1.000000e-001
      vertex  -2.462019e+001 -4.341204e+000 1.000000e-001
    endloop
  endfacet
  facet normal 0.000000e+000 -0.000000e+000 1.000000e+000
    outer loop
      vertex  2.462019e+001 -4.341204e+000 1.000000e-001
      vertex  2.500000e+001 0.000000e+000 1.000000e-001
      vertex  -2.500000e+001 -3.061516e-015 1.000000e-001
    endloop
  endfacet
  facet normal -0.000000e+000 0.000000e+000 1.000000e+000
    outer loop
      vertex  -2.462019e+001 4.341204e+000 1.000000e-001
      vertex  2.500000e+001 0.000000e+000 1.000000e-001
      vertex  2.462019e+001 4.341204e+000 1.000000e-001
    endloop
  endfacet
  facet normal -0.000000e+000 0.000000e+000 1.000000e+000
    outer loop
      vertex  -2.349232e+001 8.550504e+000 1.000000e-001
      vertex  2.462019e+001 4.341204e+000 1.000000e-001
      vertex  2.349232e+001 8.550504e+000 1.000000e-001
    endloop
  endfacet
  facet normal -0.000000e+000 0.000000e+000 1.000000e+000
    outer loop
      vertex  -2.165064e+001 1.250000e+001 1.000000e-001
      vertex  2.349232e+001 8.550504e+000 1.000000e-001
      vertex  2.165064e+001 1.250000e+001 1.000000e-001
    endloop
  endfacet
  facet normal 0.000000e+000 0.000000e+000 -1.000000e+000
    outer loop
      vertex  4.341204e+000 -2.462019e+001 0.000000e+000
      vertex  -4.341204e+000 -2.462019e+001 0.000000e+000
      vertex  8.550504e+000 -2.349232e+001 0.000000e+000
    endloop
  endfacet
  facet normal -0.000000e+000 0.000000e+000 -1.000000e+000
    outer loop
      vertex  4.341204e+000 -2.462019e+001 0.000000e+000
      vertex  -4.592274e-015 -2.500000e+001 0.000000e+000
      vertex  -4.341204e+000 -2.462019e+001 0.000000e+000
    endloop
  endfacet
  facet normal 0.000000e+000 0.000000e+000 -1.000000e+000
    outer loop
      vertex  8.550504e+000 -2.349232e+001 0.000000e+000
      vertex  -8.550504e+000 -2.349232e+001 0.000000e+000
      vertex  1.250000e+001 -2.165064e+001 0.000000e+000
    endloop
  endfacet
  facet normal -0.000000e+000 0.000000e+000 -1.000000e+000
    outer loop
      vertex  8.550504e+000 -2.349232e+001 0.000000e+000
      vertex  -4.341204e+000 -2.462019e+001 0.000000e+000
      vertex  -8.550504e+000 -2.349232e+001 0.000000e+000
    endloop
  endfacet
  facet normal 0.000000e+000 0.000000e+000 -1.000000e+000
    outer loop
      vertex  1.250000e+001 -2.165064e+001 0.000000e+000
      vertex  -1.250000e+001 -2.165064e+001 0.000000e+000
      vertex  1.606969e+001 -1.915111e+001 0.000000e+000
    endloop
  endfacet
  facet normal -0.000000e+000 0.000000e+000 -1.000000e+000
    outer loop
      vertex  1.250000e+001 -2.165064e+001 0.000000e+000
      vertex  -8.550504e+000 -2.349232e+001 0.000000e+000
      vertex  -1.250000e+001 -2.165064e+001 0.000000e+000
    endloop
  endfacet
  facet normal 0.000000e+000 0.000000e+000 -1.000000e+000
    outer loop
      vertex  1.606969e+001 -1.915111e+001 0.000000e+000
      vertex  -1.606969e+001 -1.915111e+001 0.000000e+000
      vertex  1.915111e+001 -1.606969e+001 0.000000e+000
    endloop
  endfacet
  facet normal -0.000000e+000 0.000000e+000 -1.000000e+000
    outer loop
      vertex  1.606969e+001 -1.915111e+001 0.000000e+000
      vertex  -1.250000e+001 -2.165064e+001 0.000000e+000
      vertex  -1.606969e+001 -1.915111e+001 0.000000e+000
    endloop
  endfacet
  facet normal 0.000000e+000 0.000000e+000 -1.000000e+000
    outer loop
      vertex  -1.606969e+001 -1.915111e+001 0.000000e+000
      vertex  -1.915111e+001 -1.606969e+001 0.000000e+000
      vertex  1.915111e+001 -1.606969e+001 0.000000e+000
    endloop
  endfacet
  facet normal 0.000000e+000 0.000000e+000 -1.000000e+000
    outer loop
      vertex  1.915111e+001 -1.606969e+001 0.000000e+000
      vertex  -1.915111e+001 -1.606969e+001 0.000000e+000
      vertex  2.165064e+001 -1.250000e+001 0.000000e+000
    endloop
  endfacet
  facet normal -0.000000e+000 0.000000e+000 -1.000000e+000
    outer loop
      vertex  2.165064e+001 -1.250000e+001 0.000000e+000
      vertex  -1.915111e+001 -1.606969e+001 0.000000e+000
      vertex  -2.165064e+001 -1.250000e+001 0.000000e+000
    endloop
  endfacet
  facet normal -0.000000e+000 0.000000e+000 -1.000000e+000
    outer loop
      vertex  2.349232e+001 -8.550504e+000 0.000000e+000
      vertex  -2.165064e+001 -1.250000e+001 0.000000e+000
      vertex  -2.349232e+001 -8.550504e+000 0.000000e+000
    endloop
  endfacet
  facet normal -0.000000e+000 0.000000e+000 -1.000000e+000
    outer loop
      vertex  2.462019e+001 -4.341204e+000 0.000000e+000
      vertex  -2.349232e+001 -8.550504e+000 0.000000e+000
      vertex  -2.462019e+001 -4.341204e+000 0.000000e+000
    endloop
  endfacet
  facet normal -0.000000e+000 0.000000e+000 -1.000000e+000
    outer loop
      vertex  2.500000e+001 0.000000e+000 0.000000e+000
      vertex  -2.462019e+001 -4.341204e+000 0.000000e+000
      vertex  -2.500000e+001 3.061516e-015 0.000000e+000
    endloop
  endfacet
  facet normal -0.000000e+000 0.000000e+000 -1.000000e+000
    outer loop
      vertex  2.462019e+001 4.341204e+000 0.000000e+000
      vertex  -2.500000e+001 3.061516e-015 0.000000e+000
      vertex  -2.462019e+001 4.341204e+000 0.000000e+000
    endloop
  endfacet
  facet normal -0.000000e+000 0.000000e+000 -1.000000e+000
    outer loop
      vertex  2.349232e+001 8.550504e+000 0.000000e+000
      vertex  -2.462019e+001 4.341204e+000 0.000000e+000
      vertex  -2.349232e+001 8.550504e+000 0.000000e+000
    endloop
  endfacet
  facet normal -0.000000e+000 0.000000e+000 -1.000000e+000
    outer loop
      vertex  2.165064e+001 1.250000e+001 0.000000e+000
      vertex  -2.349232e+001 8.550504e+000 0.000000e+000
      vertex  -2.165064e+001 1.250000e+001 0.000000e+000
    endloop
  endfacet
  facet normal -0.000000e+000 0.000000e+000 -1.000000e+000
    outer loop
      vertex  1.915111e+001 1.606969e+001 0.000000e+000
      vertex  -2.165064e+001 1.250000e+001 0.000000e+000
      vertex  -1.915111e+001 1.606969e+001 0.000000e+000
    endloop
  endfacet
  facet normal -0.000000e+000 0.000000e+000 -1.000000e+000
    outer loop
      vertex  1.606969e+001 1.915111e+001 0.000000e+000
      vertex  -1.915111e+001 1.606969e+001 0.000000e+000
      vertex  -1.606969e+001 1.915111e+001 0.000000e+000
    endloop
  endfacet
  facet normal -0.000000e+000 0.000000e+000 -1.000000e+000
    outer loop
      vertex  1.250000e+001 2.165064e+001 0.000000e+000
      vertex  -1.606969e+001 1.915111e+001 0.000000e+000
      vertex  -1.250000e+001 2.165064e+001 0.000000e+000
    endloop
  endfacet
  facet normal -0.000000e+000 0.000000e+000 -1.000000e+000
    outer loop
      vertex  8.550504e+000 2.349232e+001 0.000000e+000
      vertex  -1.250000e+001 2.165064e+001 0.000000e+000
      vertex  -8.550504e+000 2.349232e+001 0.000000e+000
    endloop
  endfacet
  facet normal -0.000000e+000 0.000000e+000 -1.000000e+000
    outer loop
      vertex  4.341204e+000 2.462019e+001 0.000000e+000
      vertex  -8.550504e+000 2.349232e+001 0.000000e+000
      vertex  -4.341204e+000 2.462019e+001 0.000000e+000
    endloop
  endfacet
  facet normal 0.000000e+000 -0.000000e+000 -1.000000e+000
    outer loop
      vertex  1.530758e-015 2.500000e+001 0.000000e+000
      vertex  4.341204e+000 2.462019e+001 0.000000e+000
      vertex  -4.341204e+000 2.462019e+001 0.000000e+000
    endloop
  endfacet
  facet normal 0.000000e+000 -0.000000e+000 -1.000000e+000
    outer loop
      vertex  4.341204e+000 2.462019e+001 0.000000e+000
      vertex  8.550504e+000 2.349232e+001 0.000000e+000
      vertex  -8.550504e+000 2.349232e+001 0.000000e+000
    endloop
  endfacet
  facet normal 0.000000e+000 -0.000000e+000 -1.000000e+000
    outer loop
      vertex  8.550504e+000 2.349232e+001 0.000000e+000
      vertex  1.250000e+001 2.165064e+001 0.000000e+000
      vertex  -1.250000e+001 2.165064e+001 0.000000e+000
    endloop
  endfacet
  facet normal 0.000000e+000 -0.000000e+000 -1.000000e+000
    outer loop
      vertex  1.250000e+001 2.165064e+001 0.000000e+000
      vertex  1.606969e+001 1.915111e+001 0.000000e+000
      vertex  -1.606969e+001 1.915111e+001 0.000000e+000
    endloop
  endfacet
  facet normal 0.000000e+000 -0.000000e+000 -1.000000e+000
    outer loop
      vertex  1.606969e+001 1.915111e+001 0.000000e+000
      vertex  1.915111e+001 1.606969e+001 0.000000e+000
      vertex  -1.915111e+001 1.606969e+001 0.000000e+000
    endloop
  endfacet
  facet normal 0.000000e+000 -0.000000e+000 -1.000000e+000
    outer loop
      vertex  1.915111e+001 1.606969e+001 0.000000e+000
      vertex  2.165064e+001 1.250000e+001 0.000000e+000
      vertex  -2.165064e+001 1.250000e+001 0.000000e+000
    endloop
  endfacet
  facet normal 0.000000e+000 -0.000000e+000 -1.000000e+000
    outer loop
      vertex  2.165064e+001 1.250000e+001 0.000000e+000
      vertex  2.349232e+001 8.550504e+000 0.000000e+000
      vertex  -2.349232e+001 8.550504e+000 0.000000e+000
    endloop
  endfacet
  facet normal 0.000000e+000 -0.000000e+000 -1.000000e+000
    outer loop
      vertex  2.349232e+001 8.550504e+000 0.000000e+000
      vertex  2.462019e+001 4.341204e+000 0.000000e+000
      vertex  -2.462019e+001 4.341204e+000 0.000000e+000
    endloop
  endfacet
  facet normal 0.000000e+000 -0.000000e+000 -1.000000e+000
    outer loop
      vertex  2.462019e+001 4.341204e+000 0.000000e+000
      vertex  2.500000e+001 0.000000e+000 0.000000e+000
      vertex  -2.500000e+001 3.061516e-015 0.000000e+000
    endloop
  endfacet
  facet normal 0.000000e+000 0.000000e+000 -1.000000e+000
    outer loop
      vertex  2.165064e+001 -1.250000e+001 0.000000e+000
      vertex  -2.165064e+001 -1.250000e+001 0.000000e+000
      vertex  2.349232e+001 -8.550504e+000 0.000000e+000
    endloop
  endfacet
  facet normal 0.000000e+000 0.000000e+000 -1.000000e+000
    outer loop
      vertex  2.349232e+001 -8.550504e+000 0.000000e+000
      vertex  -2.349232e+001 -8.550504e+000 0.000000e+000
      vertex  2.462019e+001 -4.341204e+000 0.000000e+000
    endloop
  endfacet
  facet normal 0.000000e+000 0.000000e+000 -1.000000e+000
    outer loop
      vertex  2.462019e+001 -4.341204e+000 0.000000e+000
      vertex  -2.462019e+001 -4.341204e+000 0.000000e+000
      vertex  2.500000e+001 0.000000e+000 0.000000e+000
    endloop
  endfacet
endsolid vcg
