solid ascii
  facet normal 9.961947e-001 -8.715574e-002 2.419058e-016
    outer loop
      vertex   2.462019e+001 -4.341204e+000 4.000000e-001
      vertex   2.462019e+001 -4.341204e+000 0.000000e+000
      vertex   2.500000e+001 0.000000e+000 4.000000e-001
    endloop
  endfacet
  facet normal 9.659258e-001 -2.588190e-001 7.961488e-016
    outer loop
      vertex   2.462019e+001 -4.341204e+000 4.000000e-001
      vertex   2.349232e+001 -8.550504e+000 0.000000e+000
      vertex   2.462019e+001 -4.341204e+000 0.000000e+000
    endloop
  endfacet
  facet normal 9.659258e-001 -2.588190e-001 -1.995955e-014
    outer loop
      vertex   2.462019e+001 -4.341204e+000 4.000000e-001
      vertex   2.349232e+001 -8.550504e+000 4.000000e-001
      vertex   2.349232e+001 -8.550504e+000 0.000000e+000
    endloop
  endfacet
  facet normal 9.063078e-001 -4.226183e-001 -1.024509e-014
    outer loop
      vertex   2.349232e+001 -8.550504e+000 0.000000e+000
      vertex   2.349232e+001 -8.550504e+000 4.000000e-001
      vertex   2.165064e+001 -1.250000e+001 0.000000e+000
    endloop
  endfacet
  facet normal 9.063078e-001 -4.226183e-001 3.980744e-015
    outer loop
      vertex   2.165064e+001 -1.250000e+001 0.000000e+000
      vertex   2.349232e+001 -8.550504e+000 4.000000e-001
      vertex   2.165064e+001 -1.250000e+001 4.000000e-001
    endloop
  endfacet
  facet normal 8.191520e-001 -5.735764e-001 0.000000e+000
    outer loop
      vertex   1.915111e+001 -1.606969e+001 0.000000e+000
      vertex   2.165064e+001 -1.250000e+001 4.000000e-001
      vertex   1.915111e+001 -1.606969e+001 4.000000e-001
    endloop
  endfacet
  facet normal 7.071068e-001 -7.071068e-001 7.961488e-015
    outer loop
      vertex   1.606969e+001 -1.915111e+001 0.000000e+000
      vertex   1.915111e+001 -1.606969e+001 4.000000e-001
      vertex   1.606969e+001 -1.915111e+001 4.000000e-001
    endloop
  endfacet
  facet normal 5.735764e-001 -8.191520e-001 0.000000e+000
    outer loop
      vertex   1.250000e+001 -2.165064e+001 0.000000e+000
      vertex   1.606969e+001 -1.915111e+001 4.000000e-001
      vertex   1.250000e+001 -2.165064e+001 4.000000e-001
    endloop
  endfacet
  facet normal 4.226183e-001 -9.063078e-001 1.592298e-015
    outer loop
      vertex   8.550504e+000 -2.349232e+001 0.000000e+000
      vertex   1.250000e+001 -2.165064e+001 4.000000e-001
      vertex   8.550504e+000 -2.349232e+001 4.000000e-001
    endloop
  endfacet
  facet normal 2.588190e-001 -9.659258e-001 3.582670e-015
    outer loop
      vertex   4.341204e+000 -2.462019e+001 0.000000e+000
      vertex   8.550504e+000 -2.349232e+001 4.000000e-001
      vertex   4.341204e+000 -2.462019e+001 4.000000e-001
    endloop
  endfacet
  facet normal 8.715574e-002 -9.961947e-001 -1.194223e-015
    outer loop
      vertex   -4.592274e-015 -2.500000e+001 0.000000e+000
      vertex   4.341204e+000 -2.462019e+001 4.000000e-001
      vertex   1.530758e-015 -2.500000e+001 4.000000e-001
    endloop
  endfacet
  facet normal -8.715574e-002 -9.961947e-001 0.000000e+000
    outer loop
      vertex   -4.341204e+000 -2.462019e+001 0.000000e+000
      vertex   1.530758e-015 -2.500000e+001 4.000000e-001
      vertex   -4.341204e+000 -2.462019e+001 4.000000e-001
    endloop
  endfacet
  facet normal -2.588190e-001 -9.659258e-001 -1.074801e-014
    outer loop
      vertex   -8.550504e+000 -2.349232e+001 0.000000e+000
      vertex   -4.341204e+000 -2.462019e+001 4.000000e-001
      vertex   -8.550504e+000 -2.349232e+001 4.000000e-001
    endloop
  endfacet
  facet normal -4.226183e-001 -9.063078e-001 6.369190e-015
    outer loop
      vertex   -1.250000e+001 -2.165064e+001 0.000000e+000
      vertex   -8.550504e+000 -2.349232e+001 4.000000e-001
      vertex   -1.250000e+001 -2.165064e+001 4.000000e-001
    endloop
  endfacet
  facet normal -5.735764e-001 -8.191520e-001 9.553785e-015
    outer loop
      vertex   -1.606969e+001 -1.915111e+001 0.000000e+000
      vertex   -1.250000e+001 -2.165064e+001 4.000000e-001
      vertex   -1.606969e+001 -1.915111e+001 4.000000e-001
    endloop
  endfacet
  facet normal -7.071068e-001 -7.071068e-001 -1.194223e-014
    outer loop
      vertex   -1.915111e+001 -1.606969e+001 0.000000e+000
      vertex   -1.606969e+001 -1.915111e+001 4.000000e-001
      vertex   -1.915111e+001 -1.606969e+001 4.000000e-001
    endloop
  endfacet
  facet normal -8.191520e-001 -5.735764e-001 8.757637e-015
    outer loop
      vertex   -2.165064e+001 -1.250000e+001 0.000000e+000
      vertex   -1.915111e+001 -1.606969e+001 4.000000e-001
      vertex   -2.165064e+001 -1.250000e+001 4.000000e-001
    endloop
  endfacet
  facet normal -9.063078e-001 -4.226183e-001 1.433068e-014
    outer loop
      vertex   -2.349232e+001 -8.550504e+000 0.000000e+000
      vertex   -2.165064e+001 -1.250000e+001 4.000000e-001
      vertex   -2.349232e+001 -8.550504e+000 4.000000e-001
    endloop
  endfacet
  facet normal -9.659258e-001 -2.588190e-001 0.000000e+000
    outer loop
      vertex   -2.462019e+001 -4.341204e+000 0.000000e+000
      vertex   -2.349232e+001 -8.550504e+000 4.000000e-001
      vertex   -2.462019e+001 -4.341204e+000 4.000000e-001
    endloop
  endfacet
  facet normal -9.961947e-001 -8.715574e-002 -1.393260e-015
    outer loop
      vertex   -2.500000e+001 3.061516e-015 0.000000e+000
      vertex   -2.462019e+001 -4.341204e+000 4.000000e-001
      vertex   -2.500000e+001 -3.061516e-015 4.000000e-001
    endloop
  endfacet
  facet normal -9.961947e-001 8.715574e-002 -7.364376e-015
    outer loop
      vertex   -2.462019e+001 4.341204e+000 0.000000e+000
      vertex   -2.500000e+001 -3.061516e-015 4.000000e-001
      vertex   -2.462019e+001 4.341204e+000 4.000000e-001
    endloop
  endfacet
  facet normal -9.659258e-001 2.588190e-001 -1.791335e-014
    outer loop
      vertex   -2.349232e+001 8.550504e+000 0.000000e+000
      vertex   -2.462019e+001 4.341204e+000 4.000000e-001
      vertex   -2.349232e+001 8.550504e+000 4.000000e-001
    endloop
  endfacet
  facet normal -9.063078e-001 4.226183e-001 -1.353453e-014
    outer loop
      vertex   -2.165064e+001 1.250000e+001 0.000000e+000
      vertex   -2.349232e+001 8.550504e+000 4.000000e-001
      vertex   -2.165064e+001 1.250000e+001 4.000000e-001
    endloop
  endfacet
  facet normal -8.191520e-001 5.735764e-001 9.553785e-015
    outer loop
      vertex   -1.915111e+001 1.606969e+001 0.000000e+000
      vertex   -2.165064e+001 1.250000e+001 4.000000e-001
      vertex   -1.915111e+001 1.606969e+001 4.000000e-001
    endloop
  endfacet
  facet normal -7.071068e-001 7.071068e-001 -1.194223e-014
    outer loop
      vertex   -1.606969e+001 1.915111e+001 0.000000e+000
      vertex   -1.915111e+001 1.606969e+001 4.000000e-001
      vertex   -1.606969e+001 1.915111e+001 4.000000e-001
    endloop
  endfacet
  facet normal -5.735764e-001 8.191520e-001 -1.353453e-014
    outer loop
      vertex   -1.250000e+001 2.165064e+001 0.000000e+000
      vertex   -1.606969e+001 1.915111e+001 4.000000e-001
      vertex   -1.250000e+001 2.165064e+001 4.000000e-001
    endloop
  endfacet
  facet normal -4.226183e-001 9.063078e-001 2.388446e-015
    outer loop
      vertex   -8.550504e+000 2.349232e+001 0.000000e+000
      vertex   -1.250000e+001 2.165064e+001 4.000000e-001
      vertex   -8.550504e+000 2.349232e+001 4.000000e-001
    endloop
  endfacet
  facet normal -2.588190e-001 9.659258e-001 0.000000e+000
    outer loop
      vertex   -4.341204e+000 2.462019e+001 0.000000e+000
      vertex   -8.550504e+000 2.349232e+001 4.000000e-001
      vertex   -4.341204e+000 2.462019e+001 4.000000e-001
    endloop
  endfacet
  facet normal -8.715574e-002 9.961947e-001 -1.194223e-015
    outer loop
      vertex   1.530758e-015 2.500000e+001 0.000000e+000
      vertex   -4.341204e+000 2.462019e+001 4.000000e-001
      vertex   -4.592274e-015 2.500000e+001 4.000000e-001
    endloop
  endfacet
  facet normal 8.715574e-002 9.961947e-001 -8.558599e-015
    outer loop
      vertex   4.341204e+000 2.462019e+001 0.000000e+000
      vertex   -4.592274e-015 2.500000e+001 4.000000e-001
      vertex   4.341204e+000 2.462019e+001 4.000000e-001
    endloop
  endfacet
  facet normal 2.588190e-001 9.659258e-001 -9.951860e-015
    outer loop
      vertex   8.550504e+000 2.349232e+001 0.000000e+000
      vertex   4.341204e+000 2.462019e+001 4.000000e-001
      vertex   8.550504e+000 2.349232e+001 4.000000e-001
    endloop
  endfacet
  facet normal 4.226183e-001 9.063078e-001 0.000000e+000
    outer loop
      vertex   1.250000e+001 2.165064e+001 0.000000e+000
      vertex   8.550504e+000 2.349232e+001 4.000000e-001
      vertex   1.250000e+001 2.165064e+001 4.000000e-001
    endloop
  endfacet
  facet normal 5.735764e-001 8.191520e-001 -8.757637e-015
    outer loop
      vertex   1.606969e+001 1.915111e+001 0.000000e+000
      vertex   1.250000e+001 2.165064e+001 4.000000e-001
      vertex   1.606969e+001 1.915111e+001 4.000000e-001
    endloop
  endfacet
  facet normal 7.071068e-001 7.071068e-001 -3.980744e-015
    outer loop
      vertex   1.915111e+001 1.606969e+001 0.000000e+000
      vertex   1.606969e+001 1.915111e+001 4.000000e-001
      vertex   1.915111e+001 1.606969e+001 4.000000e-001
    endloop
  endfacet
  facet normal 8.191520e-001 5.735764e-001 -9.553785e-015
    outer loop
      vertex   2.165064e+001 1.250000e+001 0.000000e+000
      vertex   1.915111e+001 1.606969e+001 4.000000e-001
      vertex   2.165064e+001 1.250000e+001 4.000000e-001
    endloop
  endfacet
  facet normal 9.063078e-001 4.226183e-001 1.034993e-014
    outer loop
      vertex   2.349232e+001 8.550504e+000 0.000000e+000
      vertex   2.165064e+001 1.250000e+001 4.000000e-001
      vertex   2.349232e+001 8.550504e+000 4.000000e-001
    endloop
  endfacet
  facet normal 9.659258e-001 2.588190e-001 -7.961488e-016
    outer loop
      vertex   2.462019e+001 4.341204e+000 0.000000e+000
      vertex   2.349232e+001 8.550504e+000 4.000000e-001
      vertex   2.462019e+001 4.341204e+000 4.000000e-001
    endloop
  endfacet
  facet normal 9.961947e-001 8.715574e-002 0.000000e+000
    outer loop
      vertex   2.500000e+001 0.000000e+000 0.000000e+000
      vertex   2.462019e+001 4.341204e+000 4.000000e-001
      vertex   2.500000e+001 0.000000e+000 4.000000e-001
    endloop
  endfacet
  facet normal 9.961947e-001 -8.715574e-002 0.000000e+000
    outer loop
      vertex   2.462019e+001 -4.341204e+000 0.000000e+000
      vertex   2.500000e+001 0.000000e+000 0.000000e+000
      vertex   2.500000e+001 0.000000e+000 4.000000e-001
    endloop
  endfacet
  facet normal 9.961947e-001 8.715574e-002 -2.419058e-016
    outer loop
      vertex   2.500000e+001 0.000000e+000 0.000000e+000
      vertex   2.462019e+001 4.341204e+000 0.000000e+000
      vertex   2.462019e+001 4.341204e+000 4.000000e-001
    endloop
  endfacet
  facet normal 9.659258e-001 2.588190e-001 1.995955e-014
    outer loop
      vertex   2.462019e+001 4.341204e+000 0.000000e+000
      vertex   2.349232e+001 8.550504e+000 0.000000e+000
      vertex   2.349232e+001 8.550504e+000 4.000000e-001
    endloop
  endfacet
  facet normal 9.063078e-001 4.226183e-001 -4.013978e-015
    outer loop
      vertex   2.349232e+001 8.550504e+000 0.000000e+000
      vertex   2.165064e+001 1.250000e+001 0.000000e+000
      vertex   2.165064e+001 1.250000e+001 4.000000e-001
    endloop
  endfacet
  facet normal 8.191520e-001 5.735764e-001 -4.575519e-016
    outer loop
      vertex   2.165064e+001 1.250000e+001 0.000000e+000
      vertex   1.915111e+001 1.606969e+001 0.000000e+000
      vertex   1.915111e+001 1.606969e+001 4.000000e-001
    endloop
  endfacet
  facet normal 7.071068e-001 7.071068e-001 -7.850462e-015
    outer loop
      vertex   1.915111e+001 1.606969e+001 0.000000e+000
      vertex   1.606969e+001 1.915111e+001 0.000000e+000
      vertex   1.606969e+001 1.915111e+001 4.000000e-001
    endloop
  endfacet
  facet normal 5.735764e-001 8.191520e-001 -0.000000e+000
    outer loop
      vertex   1.606969e+001 1.915111e+001 0.000000e+000
      vertex   1.250000e+001 2.165064e+001 0.000000e+000
      vertex   1.250000e+001 2.165064e+001 4.000000e-001
    endloop
  endfacet
  facet normal 4.226183e-001 9.063078e-001 -1.356054e-015
    outer loop
      vertex   1.250000e+001 2.165064e+001 0.000000e+000
      vertex   8.550504e+000 2.349232e+001 0.000000e+000
      vertex   8.550504e+000 2.349232e+001 4.000000e-001
    endloop
  endfacet
  facet normal 2.588190e-001 9.659258e-001 -3.540259e-015
    outer loop
      vertex   8.550504e+000 2.349232e+001 0.000000e+000
      vertex   4.341204e+000 2.462019e+001 0.000000e+000
      vertex   4.341204e+000 2.462019e+001 4.000000e-001
    endloop
  endfacet
  facet normal 8.715574e-002 9.961947e-001 1.334143e-015
    outer loop
      vertex   4.341204e+000 2.462019e+001 0.000000e+000
      vertex   1.530758e-015 2.500000e+001 0.000000e+000
      vertex   -4.592274e-015 2.500000e+001 4.000000e-001
    endloop
  endfacet
  facet normal -8.715574e-002 9.961947e-001 0.000000e+000
    outer loop
      vertex   1.530758e-015 2.500000e+001 0.000000e+000
      vertex   -4.341204e+000 2.462019e+001 0.000000e+000
      vertex   -4.341204e+000 2.462019e+001 4.000000e-001
    endloop
  endfacet
  facet normal -2.588190e-001 9.659258e-001 1.067235e-014
    outer loop
      vertex   -4.341204e+000 2.462019e+001 0.000000e+000
      vertex   -8.550504e+000 2.349232e+001 0.000000e+000
      vertex   -8.550504e+000 2.349232e+001 4.000000e-001
    endloop
  endfacet
  facet normal -4.226183e-001 9.063078e-001 -6.359981e-015
    outer loop
      vertex   -8.550504e+000 2.349232e+001 0.000000e+000
      vertex   -1.250000e+001 2.165064e+001 0.000000e+000
      vertex   -1.250000e+001 2.165064e+001 4.000000e-001
    endloop
  endfacet
  facet normal -5.735764e-001 8.191520e-001 -9.551966e-015
    outer loop
      vertex   -1.250000e+001 2.165064e+001 0.000000e+000
      vertex   -1.606969e+001 1.915111e+001 0.000000e+000
      vertex   -1.606969e+001 1.915111e+001 4.000000e-001
    endloop
  endfacet
  facet normal -7.071068e-001 7.071068e-001 1.177569e-014
    outer loop
      vertex   -1.606969e+001 1.915111e+001 0.000000e+000
      vertex   -1.915111e+001 1.606969e+001 0.000000e+000
      vertex   -1.915111e+001 1.606969e+001 4.000000e-001
    endloop
  endfacet
  facet normal -8.191520e-001 5.735764e-001 -8.636863e-015
    outer loop
      vertex   -1.915111e+001 1.606969e+001 0.000000e+000
      vertex   -2.165064e+001 1.250000e+001 0.000000e+000
      vertex   -2.165064e+001 1.250000e+001 4.000000e-001
    endloop
  endfacet
  facet normal -9.063078e-001 4.226183e-001 -1.425907e-014
    outer loop
      vertex   -2.165064e+001 1.250000e+001 0.000000e+000
      vertex   -2.349232e+001 8.550504e+000 0.000000e+000
      vertex   -2.349232e+001 8.550504e+000 4.000000e-001
    endloop
  endfacet
  facet normal -9.659258e-001 2.588190e-001 5.157644e-017
    outer loop
      vertex   -2.349232e+001 8.550504e+000 0.000000e+000
      vertex   -2.462019e+001 4.341204e+000 0.000000e+000
      vertex   -2.462019e+001 4.341204e+000 4.000000e-001
    endloop
  endfacet
  facet normal -9.961947e-001 8.715574e-002 1.334143e-015
    outer loop
      vertex   -2.462019e+001 4.341204e+000 0.000000e+000
      vertex   -2.500000e+001 3.061516e-015 0.000000e+000
      vertex   -2.500000e+001 -3.061516e-015 4.000000e-001
    endloop
  endfacet
  facet normal -9.961947e-001 -8.715574e-002 7.431396e-015
    outer loop
      vertex   -2.500000e+001 3.061516e-015 0.000000e+000
      vertex   -2.462019e+001 -4.341204e+000 0.000000e+000
      vertex   -2.462019e+001 -4.341204e+000 4.000000e-001
    endloop
  endfacet
  facet normal -9.659258e-001 -2.588190e-001 1.785603e-014
    outer loop
      vertex   -2.462019e+001 -4.341204e+000 0.000000e+000
      vertex   -2.349232e+001 -8.550504e+000 0.000000e+000
      vertex   -2.349232e+001 -8.550504e+000 4.000000e-001
    endloop
  endfacet
  facet normal -9.063078e-001 -4.226183e-001 1.308607e-014
    outer loop
      vertex   -2.349232e+001 -8.550504e+000 0.000000e+000
      vertex   -2.165064e+001 -1.250000e+001 0.000000e+000
      vertex   -2.165064e+001 -1.250000e+001 4.000000e-001
    endloop
  endfacet
  facet normal -8.191520e-001 -5.735764e-001 -9.551966e-015
    outer loop
      vertex   -2.165064e+001 -1.250000e+001 0.000000e+000
      vertex   -1.915111e+001 -1.606969e+001 0.000000e+000
      vertex   -1.915111e+001 -1.606969e+001 4.000000e-001
    endloop
  endfacet
  facet normal -7.071068e-001 -7.071068e-001 1.177569e-014
    outer loop
      vertex   -1.915111e+001 -1.606969e+001 0.000000e+000
      vertex   -1.606969e+001 -1.915111e+001 0.000000e+000
      vertex   -1.606969e+001 -1.915111e+001 4.000000e-001
    endloop
  endfacet
  facet normal -5.735764e-001 -8.191520e-001 1.319351e-014
    outer loop
      vertex   -1.606969e+001 -1.915111e+001 0.000000e+000
      vertex   -1.250000e+001 -2.165064e+001 0.000000e+000
      vertex   -1.250000e+001 -2.165064e+001 4.000000e-001
    endloop
  endfacet
  facet normal -4.226183e-001 -9.063078e-001 -2.529056e-015
    outer loop
      vertex   -1.250000e+001 -2.165064e+001 0.000000e+000
      vertex   -8.550504e+000 -2.349232e+001 0.000000e+000
      vertex   -8.550504e+000 -2.349232e+001 4.000000e-001
    endloop
  endfacet
  facet normal -2.588190e-001 -9.659258e-001 0.000000e+000
    outer loop
      vertex   -8.550504e+000 -2.349232e+001 0.000000e+000
      vertex   -4.341204e+000 -2.462019e+001 0.000000e+000
      vertex   -4.341204e+000 -2.462019e+001 4.000000e-001
    endloop
  endfacet
  facet normal -8.715574e-002 -9.961947e-001 1.334143e-015
    outer loop
      vertex   -4.341204e+000 -2.462019e+001 0.000000e+000
      vertex   -4.592274e-015 -2.500000e+001 0.000000e+000
      vertex   1.530758e-015 -2.500000e+001 4.000000e-001
    endloop
  endfacet
  facet normal 8.715574e-002 -9.961947e-001 8.640925e-015
    outer loop
      vertex   -4.592274e-015 -2.500000e+001 0.000000e+000
      vertex   4.341204e+000 -2.462019e+001 0.000000e+000
      vertex   4.341204e+000 -2.462019e+001 4.000000e-001
    endloop
  endfacet
  facet normal 2.588190e-001 -9.659258e-001 9.953987e-015
    outer loop
      vertex   4.341204e+000 -2.462019e+001 0.000000e+000
      vertex   8.550504e+000 -2.349232e+001 0.000000e+000
      vertex   8.550504e+000 -2.349232e+001 4.000000e-001
    endloop
  endfacet
  facet normal 4.226183e-001 -9.063078e-001 0.000000e+000
    outer loop
      vertex   8.550504e+000 -2.349232e+001 0.000000e+000
      vertex   1.250000e+001 -2.165064e+001 0.000000e+000
      vertex   1.250000e+001 -2.165064e+001 4.000000e-001
    endloop
  endfacet
  facet normal 5.735764e-001 -8.191520e-001 9.094415e-015
    outer loop
      vertex   1.250000e+001 -2.165064e+001 0.000000e+000
      vertex   1.606969e+001 -1.915111e+001 0.000000e+000
      vertex   1.606969e+001 -1.915111e+001 4.000000e-001
    endloop
  endfacet
  facet normal 7.071068e-001 -7.071068e-001 3.925231e-015
    outer loop
      vertex   1.606969e+001 -1.915111e+001 0.000000e+000
      vertex   1.915111e+001 -1.606969e+001 0.000000e+000
      vertex   1.915111e+001 -1.606969e+001 4.000000e-001
    endloop
  endfacet
  facet normal 8.191520e-001 -5.735764e-001 1.000952e-014
    outer loop
      vertex   1.915111e+001 -1.606969e+001 0.000000e+000
      vertex   2.165064e+001 -1.250000e+001 0.000000e+000
      vertex   2.165064e+001 -1.250000e+001 4.000000e-001
    endloop
  endfacet
  facet normal 0.000000e+000 0.000000e+000 1.000000e+000
    outer loop
      vertex   4.341204e+000 2.462019e+001 4.000000e-001
      vertex   -4.341204e+000 2.462019e+001 4.000000e-001
      vertex   8.550504e+000 2.349232e+001 4.000000e-001
    endloop
  endfacet
  facet normal 0.000000e+000 0.000000e+000 1.000000e+000
    outer loop
      vertex   4.341204e+000 2.462019e+001 4.000000e-001
      vertex   -4.592274e-015 2.500000e+001 4.000000e-001
      vertex   -4.341204e+000 2.462019e+001 4.000000e-001
    endloop
  endfacet
  facet normal 0.000000e+000 0.000000e+000 1.000000e+000
    outer loop
      vertex   8.550504e+000 2.349232e+001 4.000000e-001
      vertex   -8.550504e+000 2.349232e+001 4.000000e-001
      vertex   1.250000e+001 2.165064e+001 4.000000e-001
    endloop
  endfacet
  facet normal 0.000000e+000 0.000000e+000 1.000000e+000
    outer loop
      vertex   8.550504e+000 2.349232e+001 4.000000e-001
      vertex   -4.341204e+000 2.462019e+001 4.000000e-001
      vertex   -8.550504e+000 2.349232e+001 4.000000e-001
    endloop
  endfacet
  facet normal 0.000000e+000 0.000000e+000 1.000000e+000
    outer loop
      vertex   1.250000e+001 2.165064e+001 4.000000e-001
      vertex   -1.250000e+001 2.165064e+001 4.000000e-001
      vertex   1.606969e+001 1.915111e+001 4.000000e-001
    endloop
  endfacet
  facet normal 0.000000e+000 0.000000e+000 1.000000e+000
    outer loop
      vertex   1.250000e+001 2.165064e+001 4.000000e-001
      vertex   -8.550504e+000 2.349232e+001 4.000000e-001
      vertex   -1.250000e+001 2.165064e+001 4.000000e-001
    endloop
  endfacet
  facet normal 0.000000e+000 0.000000e+000 1.000000e+000
    outer loop
      vertex   1.606969e+001 1.915111e+001 4.000000e-001
      vertex   -1.606969e+001 1.915111e+001 4.000000e-001
      vertex   1.915111e+001 1.606969e+001 4.000000e-001
    endloop
  endfacet
  facet normal 0.000000e+000 0.000000e+000 1.000000e+000
    outer loop
      vertex   1.606969e+001 1.915111e+001 4.000000e-001
      vertex   -1.250000e+001 2.165064e+001 4.000000e-001
      vertex   -1.606969e+001 1.915111e+001 4.000000e-001
    endloop
  endfacet
  facet normal -0.000000e+000 0.000000e+000 1.000000e+000
    outer loop
      vertex   -1.606969e+001 1.915111e+001 4.000000e-001
      vertex   -1.915111e+001 1.606969e+001 4.000000e-001
      vertex   1.915111e+001 1.606969e+001 4.000000e-001
    endloop
  endfacet
  facet normal 0.000000e+000 0.000000e+000 1.000000e+000
    outer loop
      vertex   1.915111e+001 1.606969e+001 4.000000e-001
      vertex   -1.915111e+001 1.606969e+001 4.000000e-001
      vertex   2.165064e+001 1.250000e+001 4.000000e-001
    endloop
  endfacet
  facet normal 0.000000e+000 0.000000e+000 1.000000e+000
    outer loop
      vertex   2.165064e+001 1.250000e+001 4.000000e-001
      vertex   -1.915111e+001 1.606969e+001 4.000000e-001
      vertex   -2.165064e+001 1.250000e+001 4.000000e-001
    endloop
  endfacet
  facet normal 0.000000e+000 0.000000e+000 1.000000e+000
    outer loop
      vertex   2.349232e+001 8.550504e+000 4.000000e-001
      vertex   -2.165064e+001 1.250000e+001 4.000000e-001
      vertex   -2.349232e+001 8.550504e+000 4.000000e-001
    endloop
  endfacet
  facet normal 0.000000e+000 0.000000e+000 1.000000e+000
    outer loop
      vertex   2.462019e+001 4.341204e+000 4.000000e-001
      vertex   -2.349232e+001 8.550504e+000 4.000000e-001
      vertex   -2.462019e+001 4.341204e+000 4.000000e-001
    endloop
  endfacet
  facet normal 0.000000e+000 0.000000e+000 1.000000e+000
    outer loop
      vertex   2.500000e+001 0.000000e+000 4.000000e-001
      vertex   -2.462019e+001 4.341204e+000 4.000000e-001
      vertex   -2.500000e+001 -3.061516e-015 4.000000e-001
    endloop
  endfacet
  facet normal 0.000000e+000 0.000000e+000 1.000000e+000
    outer loop
      vertex   2.462019e+001 -4.341204e+000 4.000000e-001
      vertex   -2.500000e+001 -3.061516e-015 4.000000e-001
      vertex   -2.462019e+001 -4.341204e+000 4.000000e-001
    endloop
  endfacet
  facet normal 0.000000e+000 0.000000e+000 1.000000e+000
    outer loop
      vertex   2.349232e+001 -8.550504e+000 4.000000e-001
      vertex   -2.462019e+001 -4.341204e+000 4.000000e-001
      vertex   -2.349232e+001 -8.550504e+000 4.000000e-001
    endloop
  endfacet
  facet normal 0.000000e+000 0.000000e+000 1.000000e+000
    outer loop
      vertex   2.165064e+001 -1.250000e+001 4.000000e-001
      vertex   -2.349232e+001 -8.550504e+000 4.000000e-001
      vertex   -2.165064e+001 -1.250000e+001 4.000000e-001
    endloop
  endfacet
  facet normal 0.000000e+000 0.000000e+000 1.000000e+000
    outer loop
      vertex   1.915111e+001 -1.606969e+001 4.000000e-001
      vertex   -2.165064e+001 -1.250000e+001 4.000000e-001
      vertex   -1.915111e+001 -1.606969e+001 4.000000e-001
    endloop
  endfacet
  facet normal 0.000000e+000 0.000000e+000 1.000000e+000
    outer loop
      vertex   1.606969e+001 -1.915111e+001 4.000000e-001
      vertex   -1.915111e+001 -1.606969e+001 4.000000e-001
      vertex   -1.606969e+001 -1.915111e+001 4.000000e-001
    endloop
  endfacet
  facet normal 0.000000e+000 0.000000e+000 1.000000e+000
    outer loop
      vertex   1.250000e+001 -2.165064e+001 4.000000e-001
      vertex   -1.606969e+001 -1.915111e+001 4.000000e-001
      vertex   -1.250000e+001 -2.165064e+001 4.000000e-001
    endloop
  endfacet
  facet normal 0.000000e+000 0.000000e+000 1.000000e+000
    outer loop
      vertex   8.550504e+000 -2.349232e+001 4.000000e-001
      vertex   -1.250000e+001 -2.165064e+001 4.000000e-001
      vertex   -8.550504e+000 -2.349232e+001 4.000000e-001
    endloop
  endfacet
  facet normal 0.000000e+000 0.000000e+000 1.000000e+000
    outer loop
      vertex   4.341204e+000 -2.462019e+001 4.000000e-001
      vertex   -8.550504e+000 -2.349232e+001 4.000000e-001
      vertex   -4.341204e+000 -2.462019e+001 4.000000e-001
    endloop
  endfacet
  facet normal 0.000000e+000 -0.000000e+000 1.000000e+000
    outer loop
      vertex   1.530758e-015 -2.500000e+001 4.000000e-001
      vertex   4.341204e+000 -2.462019e+001 4.000000e-001
      vertex   -4.341204e+000 -2.462019e+001 4.000000e-001
    endloop
  endfacet
  facet normal 0.000000e+000 -0.000000e+000 1.000000e+000
    outer loop
      vertex   4.341204e+000 -2.462019e+001 4.000000e-001
      vertex   8.550504e+000 -2.349232e+001 4.000000e-001
      vertex   -8.550504e+000 -2.349232e+001 4.000000e-001
    endloop
  endfacet
  facet normal 0.000000e+000 -0.000000e+000 1.000000e+000
    outer loop
      vertex   8.550504e+000 -2.349232e+001 4.000000e-001
      vertex   1.250000e+001 -2.165064e+001 4.000000e-001
      vertex   -1.250000e+001 -2.165064e+001 4.000000e-001
    endloop
  endfacet
  facet normal 0.000000e+000 -0.000000e+000 1.000000e+000
    outer loop
      vertex   1.250000e+001 -2.165064e+001 4.000000e-001
      vertex   1.606969e+001 -1.915111e+001 4.000000e-001
      vertex   -1.606969e+001 -1.915111e+001 4.000000e-001
    endloop
  endfacet
  facet normal 0.000000e+000 -0.000000e+000 1.000000e+000
    outer loop
      vertex   1.606969e+001 -1.915111e+001 4.000000e-001
      vertex   1.915111e+001 -1.606969e+001 4.000000e-001
      vertex   -1.915111e+001 -1.606969e+001 4.000000e-001
    endloop
  endfacet
  facet normal 0.000000e+000 -0.000000e+000 1.000000e+000
    outer loop
      vertex   1.915111e+001 -1.606969e+001 4.000000e-001
      vertex   2.165064e+001 -1.250000e+001 4.000000e-001
      vertex   -2.165064e+001 -1.250000e+001 4.000000e-001
    endloop
  endfacet
  facet normal 0.000000e+000 -0.000000e+000 1.000000e+000
    outer loop
      vertex   2.165064e+001 -1.250000e+001 4.000000e-001
      vertex   2.349232e+001 -8.550504e+000 4.000000e-001
      vertex   -2.349232e+001 -8.550504e+000 4.000000e-001
    endloop
  endfacet
  facet normal 0.000000e+000 -0.000000e+000 1.000000e+000
    outer loop
      vertex   2.349232e+001 -8.550504e+000 4.000000e-001
      vertex   2.462019e+001 -4.341204e+000 4.000000e-001
      vertex   -2.462019e+001 -4.341204e+000 4.000000e-001
    endloop
  endfacet
  facet normal 0.000000e+000 -0.000000e+000 1.000000e+000
    outer loop
      vertex   2.462019e+001 -4.341204e+000 4.000000e-001
      vertex   2.500000e+001 0.000000e+000 4.000000e-001
      vertex   -2.500000e+001 -3.061516e-015 4.000000e-001
    endloop
  endfacet
  facet normal -0.000000e+000 -0.000000e+000 1.000000e+000
    outer loop
      vertex   -2.462019e+001 4.341204e+000 4.000000e-001
      vertex   2.500000e+001 0.000000e+000 4.000000e-001
      vertex   2.462019e+001 4.341204e+000 4.000000e-001
    endloop
  endfacet
  facet normal -0.000000e+000 -0.000000e+000 1.000000e+000
    outer loop
      vertex   -2.349232e+001 8.550504e+000 4.000000e-001
      vertex   2.462019e+001 4.341204e+000 4.000000e-001
      vertex   2.349232e+001 8.550504e+000 4.000000e-001
    endloop
  endfacet
  facet normal -0.000000e+000 -0.000000e+000 1.000000e+000
    outer loop
      vertex   -2.165064e+001 1.250000e+001 4.000000e-001
      vertex   2.349232e+001 8.550504e+000 4.000000e-001
      vertex   2.165064e+001 1.250000e+001 4.000000e-001
    endloop
  endfacet
  facet normal 0.000000e+000 0.000000e+000 -1.000000e+000
    outer loop
      vertex   4.341204e+000 -2.462019e+001 0.000000e+000
      vertex   -4.341204e+000 -2.462019e+001 0.000000e+000
      vertex   8.550504e+000 -2.349232e+001 0.000000e+000
    endloop
  endfacet
  facet normal -0.000000e+000 0.000000e+000 -1.000000e+000
    outer loop
      vertex   4.341204e+000 -2.462019e+001 0.000000e+000
      vertex   -4.592274e-015 -2.500000e+001 0.000000e+000
      vertex   -4.341204e+000 -2.462019e+001 0.000000e+000
    endloop
  endfacet
  facet normal 0.000000e+000 0.000000e+000 -1.000000e+000
    outer loop
      vertex   8.550504e+000 -2.349232e+001 0.000000e+000
      vertex   -8.550504e+000 -2.349232e+001 0.000000e+000
      vertex   1.250000e+001 -2.165064e+001 0.000000e+000
    endloop
  endfacet
  facet normal -0.000000e+000 0.000000e+000 -1.000000e+000
    outer loop
      vertex   8.550504e+000 -2.349232e+001 0.000000e+000
      vertex   -4.341204e+000 -2.462019e+001 0.000000e+000
      vertex   -8.550504e+000 -2.349232e+001 0.000000e+000
    endloop
  endfacet
  facet normal 0.000000e+000 0.000000e+000 -1.000000e+000
    outer loop
      vertex   1.250000e+001 -2.165064e+001 0.000000e+000
      vertex   -1.250000e+001 -2.165064e+001 0.000000e+000
      vertex   1.606969e+001 -1.915111e+001 0.000000e+000
    endloop
  endfacet
  facet normal -0.000000e+000 0.000000e+000 -1.000000e+000
    outer loop
      vertex   1.250000e+001 -2.165064e+001 0.000000e+000
      vertex   -8.550504e+000 -2.349232e+001 0.000000e+000
      vertex   -1.250000e+001 -2.165064e+001 0.000000e+000
    endloop
  endfacet
  facet normal 0.000000e+000 0.000000e+000 -1.000000e+000
    outer loop
      vertex   1.606969e+001 -1.915111e+001 0.000000e+000
      vertex   -1.606969e+001 -1.915111e+001 0.000000e+000
      vertex   1.915111e+001 -1.606969e+001 0.000000e+000
    endloop
  endfacet
  facet normal -0.000000e+000 0.000000e+000 -1.000000e+000
    outer loop
      vertex   1.606969e+001 -1.915111e+001 0.000000e+000
      vertex   -1.250000e+001 -2.165064e+001 0.000000e+000
      vertex   -1.606969e+001 -1.915111e+001 0.000000e+000
    endloop
  endfacet
  facet normal 0.000000e+000 0.000000e+000 -1.000000e+000
    outer loop
      vertex   -1.606969e+001 -1.915111e+001 0.000000e+000
      vertex   -1.915111e+001 -1.606969e+001 0.000000e+000
      vertex   1.915111e+001 -1.606969e+001 0.000000e+000
    endloop
  endfacet
  facet normal 0.000000e+000 0.000000e+000 -1.000000e+000
    outer loop
      vertex   1.915111e+001 -1.606969e+001 0.000000e+000
      vertex   -1.915111e+001 -1.606969e+001 0.000000e+000
      vertex   2.165064e+001 -1.250000e+001 0.000000e+000
    endloop
  endfacet
  facet normal -0.000000e+000 0.000000e+000 -1.000000e+000
    outer loop
      vertex   2.165064e+001 -1.250000e+001 0.000000e+000
      vertex   -1.915111e+001 -1.606969e+001 0.000000e+000
      vertex   -2.165064e+001 -1.250000e+001 0.000000e+000
    endloop
  endfacet
  facet normal -0.000000e+000 0.000000e+000 -1.000000e+000
    outer loop
      vertex   2.349232e+001 -8.550504e+000 0.000000e+000
      vertex   -2.165064e+001 -1.250000e+001 0.000000e+000
      vertex   -2.349232e+001 -8.550504e+000 0.000000e+000
    endloop
  endfacet
  facet normal -0.000000e+000 0.000000e+000 -1.000000e+000
    outer loop
      vertex   2.462019e+001 -4.341204e+000 0.000000e+000
      vertex   -2.349232e+001 -8.550504e+000 0.000000e+000
      vertex   -2.462019e+001 -4.341204e+000 0.000000e+000
    endloop
  endfacet
  facet normal -0.000000e+000 0.000000e+000 -1.000000e+000
    outer loop
      vertex   2.500000e+001 0.000000e+000 0.000000e+000
      vertex   -2.462019e+001 -4.341204e+000 0.000000e+000
      vertex   -2.500000e+001 3.061516e-015 0.000000e+000
    endloop
  endfacet
  facet normal -0.000000e+000 0.000000e+000 -1.000000e+000
    outer loop
      vertex   2.462019e+001 4.341204e+000 0.000000e+000
      vertex   -2.500000e+001 3.061516e-015 0.000000e+000
      vertex   -2.462019e+001 4.341204e+000 0.000000e+000
    endloop
  endfacet
  facet normal -0.000000e+000 0.000000e+000 -1.000000e+000
    outer loop
      vertex   2.349232e+001 8.550504e+000 0.000000e+000
      vertex   -2.462019e+001 4.341204e+000 0.000000e+000
      vertex   -2.349232e+001 8.550504e+000 0.000000e+000
    endloop
  endfacet
  facet normal -0.000000e+000 0.000000e+000 -1.000000e+000
    outer loop
      vertex   2.165064e+001 1.250000e+001 0.000000e+000
      vertex   -2.349232e+001 8.550504e+000 0.000000e+000
      vertex   -2.165064e+001 1.250000e+001 0.000000e+000
    endloop
  endfacet
  facet normal -0.000000e+000 0.000000e+000 -1.000000e+000
    outer loop
      vertex   1.915111e+001 1.606969e+001 0.000000e+000
      vertex   -2.165064e+001 1.250000e+001 0.000000e+000
      vertex   -1.915111e+001 1.606969e+001 0.000000e+000
    endloop
  endfacet
  facet normal -0.000000e+000 0.000000e+000 -1.000000e+000
    outer loop
      vertex   1.606969e+001 1.915111e+001 0.000000e+000
      vertex   -1.915111e+001 1.606969e+001 0.000000e+000
      vertex   -1.606969e+001 1.915111e+001 0.000000e+000
    endloop
  endfacet
  facet normal -0.000000e+000 0.000000e+000 -1.000000e+000
    outer loop
      vertex   1.250000e+001 2.165064e+001 0.000000e+000
      vertex   -1.606969e+001 1.915111e+001 0.000000e+000
      vertex   -1.250000e+001 2.165064e+001 0.000000e+000
    endloop
  endfacet
  facet normal -0.000000e+000 0.000000e+000 -1.000000e+000
    outer loop
      vertex   8.550504e+000 2.349232e+001 0.000000e+000
      vertex   -1.250000e+001 2.165064e+001 0.000000e+000
      vertex   -8.550504e+000 2.349232e+001 0.000000e+000
    endloop
  endfacet
  facet normal -0.000000e+000 0.000000e+000 -1.000000e+000
    outer loop
      vertex   4.341204e+000 2.462019e+001 0.000000e+000
      vertex   -8.550504e+000 2.349232e+001 0.000000e+000
      vertex   -4.341204e+000 2.462019e+001 0.000000e+000
    endloop
  endfacet
  facet normal -0.000000e+000 -0.000000e+000 -1.000000e+000
    outer loop
      vertex   1.530758e-015 2.500000e+001 0.000000e+000
      vertex   4.341204e+000 2.462019e+001 0.000000e+000
      vertex   -4.341204e+000 2.462019e+001 0.000000e+000
    endloop
  endfacet
  facet normal -0.000000e+000 -0.000000e+000 -1.000000e+000
    outer loop
      vertex   4.341204e+000 2.462019e+001 0.000000e+000
      vertex   8.550504e+000 2.349232e+001 0.000000e+000
      vertex   -8.550504e+000 2.349232e+001 0.000000e+000
    endloop
  endfacet
  facet normal -0.000000e+000 -0.000000e+000 -1.000000e+000
    outer loop
      vertex   8.550504e+000 2.349232e+001 0.000000e+000
      vertex   1.250000e+001 2.165064e+001 0.000000e+000
      vertex   -1.250000e+001 2.165064e+001 0.000000e+000
    endloop
  endfacet
  facet normal -0.000000e+000 -0.000000e+000 -1.000000e+000
    outer loop
      vertex   1.250000e+001 2.165064e+001 0.000000e+000
      vertex   1.606969e+001 1.915111e+001 0.000000e+000
      vertex   -1.606969e+001 1.915111e+001 0.000000e+000
    endloop
  endfacet
  facet normal -0.000000e+000 -0.000000e+000 -1.000000e+000
    outer loop
      vertex   1.606969e+001 1.915111e+001 0.000000e+000
      vertex   1.915111e+001 1.606969e+001 0.000000e+000
      vertex   -1.915111e+001 1.606969e+001 0.000000e+000
    endloop
  endfacet
  facet normal -0.000000e+000 -0.000000e+000 -1.000000e+000
    outer loop
      vertex   1.915111e+001 1.606969e+001 0.000000e+000
      vertex   2.165064e+001 1.250000e+001 0.000000e+000
      vertex   -2.165064e+001 1.250000e+001 0.000000e+000
    endloop
  endfacet
  facet normal -0.000000e+000 -0.000000e+000 -1.000000e+000
    outer loop
      vertex   2.165064e+001 1.250000e+001 0.000000e+000
      vertex   2.349232e+001 8.550504e+000 0.000000e+000
      vertex   -2.349232e+001 8.550504e+000 0.000000e+000
    endloop
  endfacet
  facet normal -0.000000e+000 -0.000000e+000 -1.000000e+000
    outer loop
      vertex   2.349232e+001 8.550504e+000 0.000000e+000
      vertex   2.462019e+001 4.341204e+000 0.000000e+000
      vertex   -2.462019e+001 4.341204e+000 0.000000e+000
    endloop
  endfacet
  facet normal -0.000000e+000 -0.000000e+000 -1.000000e+000
    outer loop
      vertex   2.462019e+001 4.341204e+000 0.000000e+000
      vertex   2.500000e+001 0.000000e+000 0.000000e+000
      vertex   -2.500000e+001 3.061516e-015 0.000000e+000
    endloop
  endfacet
  facet normal 0.000000e+000 0.000000e+000 -1.000000e+000
    outer loop
      vertex   2.165064e+001 -1.250000e+001 0.000000e+000
      vertex   -2.165064e+001 -1.250000e+001 0.000000e+000
      vertex   2.349232e+001 -8.550504e+000 0.000000e+000
    endloop
  endfacet
  facet normal 0.000000e+000 0.000000e+000 -1.000000e+000
    outer loop
      vertex   2.349232e+001 -8.550504e+000 0.000000e+000
      vertex   -2.349232e+001 -8.550504e+000 0.000000e+000
      vertex   2.462019e+001 -4.341204e+000 0.000000e+000
    endloop
  endfacet
  facet normal 0.000000e+000 0.000000e+000 -1.000000e+000
    outer loop
      vertex   2.462019e+001 -4.341204e+000 0.000000e+000
      vertex   -2.462019e+001 -4.341204e+000 0.000000e+000
      vertex   2.500000e+001 0.000000e+000 0.000000e+000
    endloop
  endfacet
endsolid
