solid OpenSCAD_Model
  facet normal 0.994522 0.104529 0
    outer loop
      vertex 60 65.5 2.5
      vertex 59.9563 65.9158 -2.5
      vertex 59.9563 65.9158 2.5
    endloop
  endfacet
  facet normal 0.994522 0.104529 0
    outer loop
      vertex 59.9563 65.9158 -2.5
      vertex 60 65.5 2.5
      vertex 60 65.5 -2.5
    endloop
  endfacet
  facet normal -1 0 0
    outer loop
      vertex -60 -65.5 -2.5
      vertex -60 65.5 2.5
      vertex -60 65.5 -2.5
    endloop
  endfacet
  facet normal -1 -0 0
    outer loop
      vertex -60 65.5 2.5
      vertex -60 -65.5 -2.5
      vertex -60 -65.5 2.5
    endloop
  endfacet
  facet normal 0 1 -0
    outer loop
      vertex -18 67.489 -56.2091
      vertex -23 67.489 -2.5
      vertex -18 67.489 -2.5
    endloop
  endfacet
  facet normal 0 1 0
    outer loop
      vertex -23 67.489 -2.5
      vertex -18 67.489 -56.2091
      vertex -23 67.489 -56.2091
    endloop
  endfacet
  facet normal 0 1 -0
    outer loop
      vertex 23 67.489 -56.2091
      vertex 18 67.489 -2.5
      vertex 23 67.489 -2.5
    endloop
  endfacet
  facet normal 0 1 0
    outer loop
      vertex 18 67.489 -2.5
      vertex 23 67.489 -56.2091
      vertex 18 67.489 -56.2091
    endloop
  endfacet
  facet normal 0 1 0
    outer loop
      vertex 23 67.489 -2.5
      vertex 58.2091 67.489 2.5
      vertex 58.2091 67.489 -2.5
    endloop
  endfacet
  facet normal 0 1 0
    outer loop
      vertex 18 67.489 -2.5
      vertex 58.2091 67.489 2.5
      vertex 23 67.489 -2.5
    endloop
  endfacet
  facet normal 0 1 0
    outer loop
      vertex 58.2091 67.489 2.5
      vertex 18 67.489 -2.5
      vertex -58.2091 67.489 2.5
    endloop
  endfacet
  facet normal 0 1 -0
    outer loop
      vertex -18 67.489 -2.5
      vertex -58.2091 67.489 2.5
      vertex 18 67.489 -2.5
    endloop
  endfacet
  facet normal 0 1 -0
    outer loop
      vertex -23 67.489 -2.5
      vertex -58.2091 67.489 2.5
      vertex -18 67.489 -2.5
    endloop
  endfacet
  facet normal 0 1 0
    outer loop
      vertex -58.2091 67.489 2.5
      vertex -23 67.489 -2.5
      vertex -58.2091 67.489 -2.5
    endloop
  endfacet
  facet normal 0 0 1
    outer loop
      vertex 58.2091 67.489 2.5
      vertex 60 65.5 2.5
      vertex 59.9563 65.9158 2.5
    endloop
  endfacet
  facet normal 0 0 1
    outer loop
      vertex 60 65.5 2.5
      vertex 15.5 42.5 2.5
      vertex 60 -65.5 2.5
    endloop
  endfacet
  facet normal 0 0 1
    outer loop
      vertex 58.2091 67.489 2.5
      vertex 59.9563 65.9158 2.5
      vertex 59.8271 66.3135 2.5
    endloop
  endfacet
  facet normal -0 0 1
    outer loop
      vertex 15.5 -42.5 2.5
      vertex 60 -65.5 2.5
      vertex 15.5 42.5 2.5
    endloop
  endfacet
  facet normal 0 0 1
    outer loop
      vertex 58.2091 67.489 2.5
      vertex 59.8271 66.3135 2.5
      vertex 59.618 66.6756 2.5
    endloop
  endfacet
  facet normal -0 0 1
    outer loop
      vertex 15.4126 -43.3316 2.5
      vertex 60 -65.5 2.5
      vertex 15.5 -42.5 2.5
    endloop
  endfacet
  facet normal 0 0 1
    outer loop
      vertex 58.2091 67.489 2.5
      vertex 59.618 66.6756 2.5
      vertex 59.3383 66.9863 2.5
    endloop
  endfacet
  facet normal 0 -0 1
    outer loop
      vertex 58.2091 -67.489 2.5
      vertex 60 -65.5 2.5
      vertex 15.4126 -43.3316 2.5
    endloop
  endfacet
  facet normal 0 0 1
    outer loop
      vertex 58.2091 67.489 2.5
      vertex 59.3383 66.9863 2.5
      vertex 59 67.232 2.5
    endloop
  endfacet
  facet normal 0 0 1
    outer loop
      vertex 59.9563 -65.9158 2.5
      vertex 58.2091 -67.489 2.5
      vertex 59.8271 -66.3135 2.5
    endloop
  endfacet
  facet normal 0 0 1
    outer loop
      vertex 58.2091 67.489 2.5
      vertex 59 67.232 2.5
      vertex 58.618 67.4021 2.5
    endloop
  endfacet
  facet normal 0 0 1
    outer loop
      vertex 59.8271 -66.3135 2.5
      vertex 58.2091 -67.489 2.5
      vertex 59.618 -66.6756 2.5
    endloop
  endfacet
  facet normal 0 0 1
    outer loop
      vertex 60 65.5 2.5
      vertex 58.2091 67.489 2.5
      vertex 15.4126 43.3316 2.5
    endloop
  endfacet
  facet normal 0 0 1
    outer loop
      vertex 59.618 -66.6756 2.5
      vertex 58.2091 -67.489 2.5
      vertex 59.3383 -66.9863 2.5
    endloop
  endfacet
  facet normal 0 0 1
    outer loop
      vertex 59.3383 -66.9863 2.5
      vertex 58.2091 -67.489 2.5
      vertex 59 -67.232 2.5
    endloop
  endfacet
  facet normal 0 0 1
    outer loop
      vertex 60 65.5 2.5
      vertex 15.4126 43.3316 2.5
      vertex 15.5 42.5 2.5
    endloop
  endfacet
  facet normal 0 0 1
    outer loop
      vertex 58.2091 67.489 2.5
      vertex 15.1542 44.1269 2.5
      vertex 15.4126 43.3316 2.5
    endloop
  endfacet
  facet normal 0 0 1
    outer loop
      vertex 58.2091 67.489 2.5
      vertex 14.7361 44.8511 2.5
      vertex 15.1542 44.1269 2.5
    endloop
  endfacet
  facet normal 0 0 1
    outer loop
      vertex 58.2091 67.489 2.5
      vertex 14.1765 45.4726 2.5
      vertex 14.7361 44.8511 2.5
    endloop
  endfacet
  facet normal 0 0 1
    outer loop
      vertex 58.2091 67.489 2.5
      vertex 13.5 45.9641 2.5
      vertex 14.1765 45.4726 2.5
    endloop
  endfacet
  facet normal 0 0 1
    outer loop
      vertex 58.2091 67.489 2.5
      vertex 12.7361 46.3042 2.5
      vertex 13.5 45.9641 2.5
    endloop
  endfacet
  facet normal 0 0 1
    outer loop
      vertex 58.2091 67.489 2.5
      vertex 11.9181 46.4781 2.5
      vertex 12.7361 46.3042 2.5
    endloop
  endfacet
  facet normal 0 0 1
    outer loop
      vertex 58.2091 67.489 2.5
      vertex -11.9181 46.4781 2.5
      vertex 11.9181 46.4781 2.5
    endloop
  endfacet
  facet normal -0 0 1
    outer loop
      vertex -58.2091 67.489 2.5
      vertex -11.9181 46.4781 2.5
      vertex 58.2091 67.489 2.5
    endloop
  endfacet
  facet normal 0 0 1
    outer loop
      vertex -15.4126 43.3316 2.5
      vertex -60 65.5 2.5
      vertex -15.5 42.5 2.5
    endloop
  endfacet
  facet normal -0 0 1
    outer loop
      vertex -60 65.5 2.5
      vertex -15.4126 43.3316 2.5
      vertex -58.2091 67.489 2.5
    endloop
  endfacet
  facet normal 0 0 1
    outer loop
      vertex -15.1542 44.1269 2.5
      vertex -58.2091 67.489 2.5
      vertex -15.4126 43.3316 2.5
    endloop
  endfacet
  facet normal 0 0 1
    outer loop
      vertex -14.7361 44.8511 2.5
      vertex -58.2091 67.489 2.5
      vertex -15.1542 44.1269 2.5
    endloop
  endfacet
  facet normal 0 0 1
    outer loop
      vertex -14.1765 45.4726 2.5
      vertex -58.2091 67.489 2.5
      vertex -14.7361 44.8511 2.5
    endloop
  endfacet
  facet normal 0 0 1
    outer loop
      vertex -13.5 45.9641 2.5
      vertex -58.2091 67.489 2.5
      vertex -14.1765 45.4726 2.5
    endloop
  endfacet
  facet normal 0 0 1
    outer loop
      vertex -12.7361 46.3042 2.5
      vertex -58.2091 67.489 2.5
      vertex -13.5 45.9641 2.5
    endloop
  endfacet
  facet normal 0 0 1
    outer loop
      vertex -11.9181 46.4781 2.5
      vertex -58.2091 67.489 2.5
      vertex -12.7361 46.3042 2.5
    endloop
  endfacet
  facet normal 0 0 1
    outer loop
      vertex 59 -67.232 2.5
      vertex 58.2091 -67.489 2.5
      vertex 58.618 -67.4021 2.5
    endloop
  endfacet
  facet normal 0 0 1
    outer loop
      vertex 60 -65.5 2.5
      vertex 58.2091 -67.489 2.5
      vertex 59.9563 -65.9158 2.5
    endloop
  endfacet
  facet normal -0 0 1
    outer loop
      vertex 15.1542 -44.1269 2.5
      vertex 58.2091 -67.489 2.5
      vertex 15.4126 -43.3316 2.5
    endloop
  endfacet
  facet normal -0 0 1
    outer loop
      vertex 14.7361 -44.8511 2.5
      vertex 58.2091 -67.489 2.5
      vertex 15.1542 -44.1269 2.5
    endloop
  endfacet
  facet normal -0 0 1
    outer loop
      vertex 14.1765 -45.4726 2.5
      vertex 58.2091 -67.489 2.5
      vertex 14.7361 -44.8511 2.5
    endloop
  endfacet
  facet normal -0 0 1
    outer loop
      vertex 13.5 -45.9641 2.5
      vertex 58.2091 -67.489 2.5
      vertex 14.1765 -45.4726 2.5
    endloop
  endfacet
  facet normal -0 0 1
    outer loop
      vertex 12.7361 -46.3042 2.5
      vertex 58.2091 -67.489 2.5
      vertex 13.5 -45.9641 2.5
    endloop
  endfacet
  facet normal -0 0 1
    outer loop
      vertex 11.9181 -46.4781 2.5
      vertex 58.2091 -67.489 2.5
      vertex 12.7361 -46.3042 2.5
    endloop
  endfacet
  facet normal -0 0 1
    outer loop
      vertex -11.9181 -46.4781 2.5
      vertex 58.2091 -67.489 2.5
      vertex 11.9181 -46.4781 2.5
    endloop
  endfacet
  facet normal 0 0 1
    outer loop
      vertex -58.2091 -67.489 2.5
      vertex -11.9181 -46.4781 2.5
      vertex -12.7361 -46.3042 2.5
    endloop
  endfacet
  facet normal 0 0 1
    outer loop
      vertex -15.5 42.5 2.5
      vertex -60 65.5 2.5
      vertex -15.5 -42.5 2.5
    endloop
  endfacet
  facet normal 0 0 1
    outer loop
      vertex -60 -65.5 2.5
      vertex -15.5 -42.5 2.5
      vertex -60 65.5 2.5
    endloop
  endfacet
  facet normal 0 0 1
    outer loop
      vertex -11.9181 -46.4781 2.5
      vertex -58.2091 -67.489 2.5
      vertex 58.2091 -67.489 2.5
    endloop
  endfacet
  facet normal 0 0 1
    outer loop
      vertex -13.5 -45.9641 2.5
      vertex -58.2091 -67.489 2.5
      vertex -12.7361 -46.3042 2.5
    endloop
  endfacet
  facet normal 0 0 1
    outer loop
      vertex -14.1765 -45.4726 2.5
      vertex -58.2091 -67.489 2.5
      vertex -13.5 -45.9641 2.5
    endloop
  endfacet
  facet normal 0 0 1
    outer loop
      vertex -14.7361 -44.8511 2.5
      vertex -58.2091 -67.489 2.5
      vertex -14.1765 -45.4726 2.5
    endloop
  endfacet
  facet normal 0 0 1
    outer loop
      vertex -15.1542 -44.1269 2.5
      vertex -58.2091 -67.489 2.5
      vertex -14.7361 -44.8511 2.5
    endloop
  endfacet
  facet normal 0 0 1
    outer loop
      vertex -15.5 -42.5 2.5
      vertex -60 -65.5 2.5
      vertex -15.4126 -43.3316 2.5
    endloop
  endfacet
  facet normal 0 0 1
    outer loop
      vertex -60 65.5 2.5
      vertex -58.2091 67.489 2.5
      vertex -58.618 67.4021 2.5
    endloop
  endfacet
  facet normal 0 -0 1
    outer loop
      vertex -58.2091 -67.489 2.5
      vertex -15.4126 -43.3316 2.5
      vertex -60 -65.5 2.5
    endloop
  endfacet
  facet normal 0 0 1
    outer loop
      vertex -60 65.5 2.5
      vertex -58.618 67.4021 2.5
      vertex -59 67.232 2.5
    endloop
  endfacet
  facet normal 0 0 1
    outer loop
      vertex -15.4126 -43.3316 2.5
      vertex -58.2091 -67.489 2.5
      vertex -15.1542 -44.1269 2.5
    endloop
  endfacet
  facet normal 0 0 1
    outer loop
      vertex -60 65.5 2.5
      vertex -59 67.232 2.5
      vertex -59.3383 66.9863 2.5
    endloop
  endfacet
  facet normal 0 0 1
    outer loop
      vertex -58.2091 -67.489 2.5
      vertex -60 -65.5 2.5
      vertex -58.618 -67.4021 2.5
    endloop
  endfacet
  facet normal 0 0 1
    outer loop
      vertex -60 65.5 2.5
      vertex -59.3383 66.9863 2.5
      vertex -59.618 66.6756 2.5
    endloop
  endfacet
  facet normal 0 0 1
    outer loop
      vertex -58.618 -67.4021 2.5
      vertex -60 -65.5 2.5
      vertex -59 -67.232 2.5
    endloop
  endfacet
  facet normal 0 0 1
    outer loop
      vertex -60 65.5 2.5
      vertex -59.618 66.6756 2.5
      vertex -59.8271 66.3135 2.5
    endloop
  endfacet
  facet normal 0 0 1
    outer loop
      vertex -59 -67.232 2.5
      vertex -60 -65.5 2.5
      vertex -59.3383 -66.9863 2.5
    endloop
  endfacet
  facet normal 0 0 1
    outer loop
      vertex -60 65.5 2.5
      vertex -59.8271 66.3135 2.5
      vertex -59.9563 65.9158 2.5
    endloop
  endfacet
  facet normal 0 0 1
    outer loop
      vertex -59.3383 -66.9863 2.5
      vertex -60 -65.5 2.5
      vertex -59.618 -66.6756 2.5
    endloop
  endfacet
  facet normal 0 0 1
    outer loop
      vertex -59.618 -66.6756 2.5
      vertex -60 -65.5 2.5
      vertex -59.8271 -66.3135 2.5
    endloop
  endfacet
  facet normal 0 0 1
    outer loop
      vertex -59.8271 -66.3135 2.5
      vertex -60 -65.5 2.5
      vertex -59.9563 -65.9158 2.5
    endloop
  endfacet
  facet normal 0.207908 -0.978148 0
    outer loop
      vertex 58.2091 -67.489 -2.5
      vertex 58.618 -67.4021 2.5
      vertex 58.2091 -67.489 2.5
    endloop
  endfacet
  facet normal 0.207908 -0.978148 0
    outer loop
      vertex 58.618 -67.4021 2.5
      vertex 58.2091 -67.489 -2.5
      vertex 58.618 -67.4021 -2.5
    endloop
  endfacet
  facet normal -0.866022 0.500006 0
    outer loop
      vertex -59.8271 66.3135 -2.5
      vertex -59.618 66.6756 2.5
      vertex -59.618 66.6756 -2.5
    endloop
  endfacet
  facet normal -0.866022 0.500006 0
    outer loop
      vertex -59.618 66.6756 2.5
      vertex -59.8271 66.3135 -2.5
      vertex -59.8271 66.3135 2.5
    endloop
  endfacet
  facet normal 1 -0 0
    outer loop
      vertex 60 -65.5 2.5
      vertex 60 65.5 -2.5
      vertex 60 65.5 2.5
    endloop
  endfacet
  facet normal 1 0 0
    outer loop
      vertex 60 65.5 -2.5
      vertex 60 -65.5 2.5
      vertex 60 -65.5 -2.5
    endloop
  endfacet
  facet normal 0.951057 -0.309015 0
    outer loop
      vertex 59.8271 -66.3135 2.5
      vertex 59.9563 -65.9158 -2.5
      vertex 59.9563 -65.9158 2.5
    endloop
  endfacet
  facet normal 0.951057 -0.309015 0
    outer loop
      vertex 59.9563 -65.9158 -2.5
      vertex 59.8271 -66.3135 2.5
      vertex 59.8271 -66.3135 -2.5
    endloop
  endfacet
  facet normal 0 -1 0
    outer loop
      vertex 18 -67.489 -56.2091
      vertex 23 -67.489 -2.5
      vertex 18 -67.489 -2.5
    endloop
  endfacet
  facet normal 0 -1 -0
    outer loop
      vertex 23 -67.489 -2.5
      vertex 18 -67.489 -56.2091
      vertex 23 -67.489 -56.2091
    endloop
  endfacet
  facet normal 0 -1 0
    outer loop
      vertex -23 -67.489 -56.2091
      vertex -18 -67.489 -2.5
      vertex -23 -67.489 -2.5
    endloop
  endfacet
  facet normal 0 -1 -0
    outer loop
      vertex -18 -67.489 -2.5
      vertex -23 -67.489 -56.2091
      vertex -18 -67.489 -56.2091
    endloop
  endfacet
  facet normal 0 -1 0
    outer loop
      vertex -23 -67.489 -2.5
      vertex -58.2091 -67.489 2.5
      vertex -58.2091 -67.489 -2.5
    endloop
  endfacet
  facet normal 0 -1 0
    outer loop
      vertex -18 -67.489 -2.5
      vertex -58.2091 -67.489 2.5
      vertex -23 -67.489 -2.5
    endloop
  endfacet
  facet normal 0 -1 0
    outer loop
      vertex -58.2091 -67.489 2.5
      vertex -18 -67.489 -2.5
      vertex 58.2091 -67.489 2.5
    endloop
  endfacet
  facet normal 0 -1 0
    outer loop
      vertex 18 -67.489 -2.5
      vertex 58.2091 -67.489 2.5
      vertex -18 -67.489 -2.5
    endloop
  endfacet
  facet normal 0 -1 0
    outer loop
      vertex 23 -67.489 -2.5
      vertex 58.2091 -67.489 2.5
      vertex 18 -67.489 -2.5
    endloop
  endfacet
  facet normal 0 -1 -0
    outer loop
      vertex 58.2091 -67.489 2.5
      vertex 23 -67.489 -2.5
      vertex 58.2091 -67.489 -2.5
    endloop
  endfacet
  facet normal 0.743147 0.669128 0
    outer loop
      vertex 59.618 66.6756 2.5
      vertex 59.3383 66.9863 -2.5
      vertex 59.3383 66.9863 2.5
    endloop
  endfacet
  facet normal 0.743147 0.669128 0
    outer loop
      vertex 59.3383 66.9863 -2.5
      vertex 59.618 66.6756 2.5
      vertex 59.618 66.6756 -2.5
    endloop
  endfacet
  facet normal 0.587781 0.80902 -0
    outer loop
      vertex 59.3383 66.9863 -2.5
      vertex 59 67.232 2.5
      vertex 59.3383 66.9863 2.5
    endloop
  endfacet
  facet normal 0.587781 0.80902 0
    outer loop
      vertex 59 67.232 2.5
      vertex 59.3383 66.9863 -2.5
      vertex 59 67.232 -2.5
    endloop
  endfacet
  facet normal 0.207908 0.978148 -0
    outer loop
      vertex 58.618 67.4021 -2.5
      vertex 58.2091 67.489 2.5
      vertex 58.618 67.4021 2.5
    endloop
  endfacet
  facet normal 0.207908 0.978148 0
    outer loop
      vertex 58.2091 67.489 2.5
      vertex 58.618 67.4021 -2.5
      vertex 58.2091 67.489 -2.5
    endloop
  endfacet
  facet normal -0.207908 0.978148 0
    outer loop
      vertex -58.2091 67.489 -2.5
      vertex -58.618 67.4021 2.5
      vertex -58.2091 67.489 2.5
    endloop
  endfacet
  facet normal -0.207908 0.978148 0
    outer loop
      vertex -58.618 67.4021 2.5
      vertex -58.2091 67.489 -2.5
      vertex -58.618 67.4021 -2.5
    endloop
  endfacet
  facet normal -0.951057 0.309015 0
    outer loop
      vertex -59.9563 65.9158 -2.5
      vertex -59.8271 66.3135 2.5
      vertex -59.8271 66.3135 -2.5
    endloop
  endfacet
  facet normal -0.951057 0.309015 0
    outer loop
      vertex -59.8271 66.3135 2.5
      vertex -59.9563 65.9158 -2.5
      vertex -59.9563 65.9158 2.5
    endloop
  endfacet
  facet normal -0.743147 0.669128 0
    outer loop
      vertex -59.618 66.6756 -2.5
      vertex -59.3383 66.9863 2.5
      vertex -59.3383 66.9863 -2.5
    endloop
  endfacet
  facet normal -0.743147 0.669128 0
    outer loop
      vertex -59.3383 66.9863 2.5
      vertex -59.618 66.6756 -2.5
      vertex -59.618 66.6756 2.5
    endloop
  endfacet
  facet normal -0.994522 0.104529 0
    outer loop
      vertex -60 65.5 -2.5
      vertex -59.9563 65.9158 2.5
      vertex -59.9563 65.9158 -2.5
    endloop
  endfacet
  facet normal -0.994522 0.104529 0
    outer loop
      vertex -59.9563 65.9158 2.5
      vertex -60 65.5 -2.5
      vertex -60 65.5 2.5
    endloop
  endfacet
  facet normal 0.743147 -0.669128 0
    outer loop
      vertex 59.3383 -66.9863 2.5
      vertex 59.618 -66.6756 -2.5
      vertex 59.618 -66.6756 2.5
    endloop
  endfacet
  facet normal 0.743147 -0.669128 0
    outer loop
      vertex 59.618 -66.6756 -2.5
      vertex 59.3383 -66.9863 2.5
      vertex 59.3383 -66.9863 -2.5
    endloop
  endfacet
  facet normal 0.866022 -0.500006 0
    outer loop
      vertex 59.618 -66.6756 2.5
      vertex 59.8271 -66.3135 -2.5
      vertex 59.8271 -66.3135 2.5
    endloop
  endfacet
  facet normal 0.866022 -0.500006 0
    outer loop
      vertex 59.8271 -66.3135 -2.5
      vertex 59.618 -66.6756 2.5
      vertex 59.618 -66.6756 -2.5
    endloop
  endfacet
  facet normal 0.406746 -0.913541 0
    outer loop
      vertex 58.618 -67.4021 -2.5
      vertex 59 -67.232 2.5
      vertex 58.618 -67.4021 2.5
    endloop
  endfacet
  facet normal 0.406746 -0.913541 0
    outer loop
      vertex 59 -67.232 2.5
      vertex 58.618 -67.4021 -2.5
      vertex 59 -67.232 -2.5
    endloop
  endfacet
  facet normal -0.994522 -0.104529 0
    outer loop
      vertex -59.9563 -65.9158 -2.5
      vertex -60 -65.5 2.5
      vertex -60 -65.5 -2.5
    endloop
  endfacet
  facet normal -0.994522 -0.104529 0
    outer loop
      vertex -60 -65.5 2.5
      vertex -59.9563 -65.9158 -2.5
      vertex -59.9563 -65.9158 2.5
    endloop
  endfacet
  facet normal 0 0 -1
    outer loop
      vertex 58.2091 -67.489 -2.5
      vertex 60 -65.5 -2.5
      vertex 59.9563 -65.9158 -2.5
    endloop
  endfacet
  facet normal -0 0 -1
    outer loop
      vertex 60 -65.5 -2.5
      vertex 23 -65.6538 -2.5
      vertex 60 65.5 -2.5
    endloop
  endfacet
  facet normal 0 0 -1
    outer loop
      vertex 58.2091 -67.489 -2.5
      vertex 59.9563 -65.9158 -2.5
      vertex 59.8271 -66.3135 -2.5
    endloop
  endfacet
  facet normal 0 0 -1
    outer loop
      vertex 23 65.6538 -2.5
      vertex 60 65.5 -2.5
      vertex 23 -65.6538 -2.5
    endloop
  endfacet
  facet normal 0 0 -1
    outer loop
      vertex 58.2091 -67.489 -2.5
      vertex 59.8271 -66.3135 -2.5
      vertex 59.618 -66.6756 -2.5
    endloop
  endfacet
  facet normal 0 -0 -1
    outer loop
      vertex 58.2091 67.489 -2.5
      vertex 60 65.5 -2.5
      vertex 23 65.6538 -2.5
    endloop
  endfacet
  facet normal 0 0 -1
    outer loop
      vertex 58.2091 -67.489 -2.5
      vertex 59.618 -66.6756 -2.5
      vertex 59.3383 -66.9863 -2.5
    endloop
  endfacet
  facet normal 0 0 -1
    outer loop
      vertex 60 65.5 -2.5
      vertex 58.2091 67.489 -2.5
      vertex 59.9563 65.9158 -2.5
    endloop
  endfacet
  facet normal 0 0 -1
    outer loop
      vertex 58.2091 -67.489 -2.5
      vertex 59.3383 -66.9863 -2.5
      vertex 59 -67.232 -2.5
    endloop
  endfacet
  facet normal 0 0 -1
    outer loop
      vertex 59.9563 65.9158 -2.5
      vertex 58.2091 67.489 -2.5
      vertex 59.8271 66.3135 -2.5
    endloop
  endfacet
  facet normal 0 0 -1
    outer loop
      vertex 58.2091 -67.489 -2.5
      vertex 59 -67.232 -2.5
      vertex 58.618 -67.4021 -2.5
    endloop
  endfacet
  facet normal 0 0 -1
    outer loop
      vertex 60 -65.5 -2.5
      vertex 58.2091 -67.489 -2.5
      vertex 23 -65.6538 -2.5
    endloop
  endfacet
  facet normal 0 0 -1
    outer loop
      vertex 59.8271 66.3135 -2.5
      vertex 58.2091 67.489 -2.5
      vertex 59.618 66.6756 -2.5
    endloop
  endfacet
  facet normal 0 0 -1
    outer loop
      vertex 59 67.232 -2.5
      vertex 58.2091 67.489 -2.5
      vertex 58.618 67.4021 -2.5
    endloop
  endfacet
  facet normal 0 0 -1
    outer loop
      vertex 23 -67.4069 -2.5
      vertex 58.2091 -67.489 -2.5
      vertex 23 -67.489 -2.5
    endloop
  endfacet
  facet normal 0 0 -1
    outer loop
      vertex 23 -67.2478 -2.5
      vertex 58.2091 -67.489 -2.5
      vertex 23 -67.4069 -2.5
    endloop
  endfacet
  facet normal 0 0 -1
    outer loop
      vertex 23 -67.0198 -2.5
      vertex 58.2091 -67.489 -2.5
      vertex 23 -67.2478 -2.5
    endloop
  endfacet
  facet normal 0 0 -1
    outer loop
      vertex 23 -66.7335 -2.5
      vertex 58.2091 -67.489 -2.5
      vertex 23 -67.0198 -2.5
    endloop
  endfacet
  facet normal 0 0 -1
    outer loop
      vertex 23 -66.4011 -2.5
      vertex 58.2091 -67.489 -2.5
      vertex 23 -66.7335 -2.5
    endloop
  endfacet
  facet normal 0 0 -1
    outer loop
      vertex 23 -66.0364 -2.5
      vertex 58.2091 -67.489 -2.5
      vertex 23 -66.4011 -2.5
    endloop
  endfacet
  facet normal 0 0 -1
    outer loop
      vertex 23 -65.6538 -2.5
      vertex 58.2091 -67.489 -2.5
      vertex 23 -66.0364 -2.5
    endloop
  endfacet
  facet normal 0 0 -1
    outer loop
      vertex 59.618 66.6756 -2.5
      vertex 58.2091 67.489 -2.5
      vertex 59.3383 66.9863 -2.5
    endloop
  endfacet
  facet normal 0 0 -1
    outer loop
      vertex 59.3383 66.9863 -2.5
      vertex 58.2091 67.489 -2.5
      vertex 59 67.232 -2.5
    endloop
  endfacet
  facet normal 0 0 -1
    outer loop
      vertex 23 66.0364 -2.5
      vertex 58.2091 67.489 -2.5
      vertex 23 65.6538 -2.5
    endloop
  endfacet
  facet normal 0 0 -1
    outer loop
      vertex 23 66.4011 -2.5
      vertex 58.2091 67.489 -2.5
      vertex 23 66.0364 -2.5
    endloop
  endfacet
  facet normal 0 0 -1
    outer loop
      vertex 23 66.7335 -2.5
      vertex 58.2091 67.489 -2.5
      vertex 23 66.4011 -2.5
    endloop
  endfacet
  facet normal 0 0 -1
    outer loop
      vertex 23 67.0198 -2.5
      vertex 58.2091 67.489 -2.5
      vertex 23 66.7335 -2.5
    endloop
  endfacet
  facet normal 0 0 -1
    outer loop
      vertex 23 67.2478 -2.5
      vertex 58.2091 67.489 -2.5
      vertex 23 67.0198 -2.5
    endloop
  endfacet
  facet normal 0 0 -1
    outer loop
      vertex 23 67.4069 -2.5
      vertex 58.2091 67.489 -2.5
      vertex 23 67.2478 -2.5
    endloop
  endfacet
  facet normal -0 0 -1
    outer loop
      vertex 58.2091 67.489 -2.5
      vertex 23 67.4069 -2.5
      vertex 23 67.489 -2.5
    endloop
  endfacet
  facet normal 0 0 0
    outer loop
      vertex -23 -67.489 -2.5
      vertex -23 -67.2478 -2.5
      vertex -23 -67.4069 -2.5
    endloop
  endfacet
  facet normal 0 0 -1
    outer loop
      vertex -58.2091 -67.489 -2.5
      vertex -23 -67.2478 -2.5
      vertex -23 -67.489 -2.5
    endloop
  endfacet
  facet normal -0 0 -1
    outer loop
      vertex -23 -67.2478 -2.5
      vertex -58.2091 -67.489 -2.5
      vertex -23 -67.0198 -2.5
    endloop
  endfacet
  facet normal -0 0 -1
    outer loop
      vertex -23 -67.0198 -2.5
      vertex -58.2091 -67.489 -2.5
      vertex -23 -66.7335 -2.5
    endloop
  endfacet
  facet normal -0 0 -1
    outer loop
      vertex -23 -66.7335 -2.5
      vertex -58.2091 -67.489 -2.5
      vertex -23 -66.4011 -2.5
    endloop
  endfacet
  facet normal -0 0 -1
    outer loop
      vertex -23 -66.4011 -2.5
      vertex -58.2091 -67.489 -2.5
      vertex -23 -66.0364 -2.5
    endloop
  endfacet
  facet normal -0 0 -1
    outer loop
      vertex -23 -66.0364 -2.5
      vertex -58.2091 -67.489 -2.5
      vertex -23 -65.6538 -2.5
    endloop
  endfacet
  facet normal 0 0 -1
    outer loop
      vertex -23 -65.6538 -2.5
      vertex -60 -65.5 -2.5
      vertex -23 65.6538 -2.5
    endloop
  endfacet
  facet normal 0 0 -1
    outer loop
      vertex -60 65.5 -2.5
      vertex -23 65.6538 -2.5
      vertex -60 -65.5 -2.5
    endloop
  endfacet
  facet normal 0 -0 -1
    outer loop
      vertex -58.2091 67.489 -2.5
      vertex -23 65.6538 -2.5
      vertex -60 65.5 -2.5
    endloop
  endfacet
  facet normal 0 0 -1
    outer loop
      vertex -23 65.6538 -2.5
      vertex -58.2091 67.489 -2.5
      vertex -23 66.0364 -2.5
    endloop
  endfacet
  facet normal 0 0 -1
    outer loop
      vertex -23 66.0364 -2.5
      vertex -58.2091 67.489 -2.5
      vertex -23 66.4011 -2.5
    endloop
  endfacet
  facet normal 0 0 -1
    outer loop
      vertex -23 66.4011 -2.5
      vertex -58.2091 67.489 -2.5
      vertex -23 66.7335 -2.5
    endloop
  endfacet
  facet normal 0 0 -1
    outer loop
      vertex -23 66.7335 -2.5
      vertex -58.2091 67.489 -2.5
      vertex -23 67.0198 -2.5
    endloop
  endfacet
  facet normal -0 0 -1
    outer loop
      vertex -23 -65.6538 -2.5
      vertex -58.2091 -67.489 -2.5
      vertex -60 -65.5 -2.5
    endloop
  endfacet
  facet normal 0 0 -1
    outer loop
      vertex -23 67.0198 -2.5
      vertex -58.2091 67.489 -2.5
      vertex -23 67.2478 -2.5
    endloop
  endfacet
  facet normal 0 0 -1
    outer loop
      vertex -60 -65.5 -2.5
      vertex -58.2091 -67.489 -2.5
      vertex -58.618 -67.4021 -2.5
    endloop
  endfacet
  facet normal 0 0 -1
    outer loop
      vertex -23 67.2478 -2.5
      vertex -58.2091 67.489 -2.5
      vertex -23 67.4069 -2.5
    endloop
  endfacet
  facet normal 0 0 -1
    outer loop
      vertex -60 -65.5 -2.5
      vertex -58.618 -67.4021 -2.5
      vertex -59 -67.232 -2.5
    endloop
  endfacet
  facet normal 0 0 -1
    outer loop
      vertex -23 67.4069 -2.5
      vertex -58.2091 67.489 -2.5
      vertex -23 67.489 -2.5
    endloop
  endfacet
  facet normal 0 0 -1
    outer loop
      vertex -60 -65.5 -2.5
      vertex -59 -67.232 -2.5
      vertex -59.3383 -66.9863 -2.5
    endloop
  endfacet
  facet normal 0 0 -1
    outer loop
      vertex -58.2091 67.489 -2.5
      vertex -60 65.5 -2.5
      vertex -58.618 67.4021 -2.5
    endloop
  endfacet
  facet normal 0 0 -1
    outer loop
      vertex -60 -65.5 -2.5
      vertex -59.3383 -66.9863 -2.5
      vertex -59.618 -66.6756 -2.5
    endloop
  endfacet
  facet normal 0 0 -1
    outer loop
      vertex -58.618 67.4021 -2.5
      vertex -60 65.5 -2.5
      vertex -59 67.232 -2.5
    endloop
  endfacet
  facet normal 0 0 -1
    outer loop
      vertex -60 -65.5 -2.5
      vertex -59.618 -66.6756 -2.5
      vertex -59.8271 -66.3135 -2.5
    endloop
  endfacet
  facet normal 0 0 -1
    outer loop
      vertex -59 67.232 -2.5
      vertex -60 65.5 -2.5
      vertex -59.3383 66.9863 -2.5
    endloop
  endfacet
  facet normal 0 0 -1
    outer loop
      vertex -60 -65.5 -2.5
      vertex -59.8271 -66.3135 -2.5
      vertex -59.9563 -65.9158 -2.5
    endloop
  endfacet
  facet normal 0 0 -1
    outer loop
      vertex -59.3383 66.9863 -2.5
      vertex -60 65.5 -2.5
      vertex -59.618 66.6756 -2.5
    endloop
  endfacet
  facet normal 0 0 -1
    outer loop
      vertex -59.618 66.6756 -2.5
      vertex -60 65.5 -2.5
      vertex -59.8271 66.3135 -2.5
    endloop
  endfacet
  facet normal 0 0 -1
    outer loop
      vertex -59.8271 66.3135 -2.5
      vertex -60 65.5 -2.5
      vertex -59.9563 65.9158 -2.5
    endloop
  endfacet
  facet normal 0 0 0
    outer loop
      vertex 18 -67.489 -2.5
      vertex 18 -67.4769 -2.5
      vertex 18 -67.4849 -2.5
    endloop
  endfacet
  facet normal 0 0 0
    outer loop
      vertex 18 -67.489 -2.5
      vertex 18 -67.4654 -2.5
      vertex 18 -67.4769 -2.5
    endloop
  endfacet
  facet normal 0 0 0
    outer loop
      vertex 18 -67.489 -2.5
      vertex 18 -67.4509 -2.5
      vertex 18 -67.4654 -2.5
    endloop
  endfacet
  facet normal 0 0 0
    outer loop
      vertex 18 -67.489 -2.5
      vertex 18 -67.4342 -2.5
      vertex 18 -67.4509 -2.5
    endloop
  endfacet
  facet normal 0 0 0
    outer loop
      vertex 18 -67.489 -2.5
      vertex 18 -67.4158 -2.5
      vertex 18 -67.4342 -2.5
    endloop
  endfacet
  facet normal 0 0 0
    outer loop
      vertex 18 -67.489 -2.5
      vertex 18 -67.3965 -2.5
      vertex 18 -67.4158 -2.5
    endloop
  endfacet
  facet normal 0 0 -1
    outer loop
      vertex -18 -67.3965 -2.5
      vertex 18 -67.3965 -2.5
      vertex 18 -67.489 -2.5
    endloop
  endfacet
  facet normal 0 0 -1
    outer loop
      vertex 18 -67.3965 -2.5
      vertex 15.5 -42.5 -2.5
      vertex 18 67.3965 -2.5
    endloop
  endfacet
  facet normal 0 0 -1
    outer loop
      vertex 15.5 42.5 -2.5
      vertex 18 67.3965 -2.5
      vertex 15.5 -42.5 -2.5
    endloop
  endfacet
  facet normal 0 0 -1
    outer loop
      vertex 15.4126 43.3316 -2.5
      vertex 18 67.3965 -2.5
      vertex 15.5 42.5 -2.5
    endloop
  endfacet
  facet normal 0 0 -1
    outer loop
      vertex 15.1542 44.1269 -2.5
      vertex 18 67.3965 -2.5
      vertex 15.4126 43.3316 -2.5
    endloop
  endfacet
  facet normal 0 0 -1
    outer loop
      vertex 14.7361 44.8511 -2.5
      vertex 18 67.3965 -2.5
      vertex 15.1542 44.1269 -2.5
    endloop
  endfacet
  facet normal 0 0 -1
    outer loop
      vertex 14.1765 45.4726 -2.5
      vertex 18 67.3965 -2.5
      vertex 14.7361 44.8511 -2.5
    endloop
  endfacet
  facet normal 0 0 -1
    outer loop
      vertex 13.5 45.9641 -2.5
      vertex 18 67.3965 -2.5
      vertex 14.1765 45.4726 -2.5
    endloop
  endfacet
  facet normal 0 0 -1
    outer loop
      vertex 12.7361 46.3042 -2.5
      vertex 18 67.3965 -2.5
      vertex 13.5 45.9641 -2.5
    endloop
  endfacet
  facet normal 0 0 -1
    outer loop
      vertex 18 -67.3965 -2.5
      vertex 15.4126 -43.3316 -2.5
      vertex 15.5 -42.5 -2.5
    endloop
  endfacet
  facet normal 0 0 -1
    outer loop
      vertex 18 -67.3965 -2.5
      vertex 15.1542 -44.1269 -2.5
      vertex 15.4126 -43.3316 -2.5
    endloop
  endfacet
  facet normal 0 0 -1
    outer loop
      vertex 18 -67.3965 -2.5
      vertex 14.7361 -44.8511 -2.5
      vertex 15.1542 -44.1269 -2.5
    endloop
  endfacet
  facet normal 0 0 -1
    outer loop
      vertex 18 -67.3965 -2.5
      vertex 14.1765 -45.4726 -2.5
      vertex 14.7361 -44.8511 -2.5
    endloop
  endfacet
  facet normal 0 0 -1
    outer loop
      vertex 18 -67.3965 -2.5
      vertex 13.5 -45.9641 -2.5
      vertex 14.1765 -45.4726 -2.5
    endloop
  endfacet
  facet normal 0 0 -1
    outer loop
      vertex 18 -67.3965 -2.5
      vertex 12.7361 -46.3042 -2.5
      vertex 13.5 -45.9641 -2.5
    endloop
  endfacet
  facet normal 0 0 -1
    outer loop
      vertex 18 -67.3965 -2.5
      vertex 11.9181 -46.4781 -2.5
      vertex 12.7361 -46.3042 -2.5
    endloop
  endfacet
  facet normal 0 0 -1
    outer loop
      vertex 18 -67.3965 -2.5
      vertex -11.9181 -46.4781 -2.5
      vertex 11.9181 -46.4781 -2.5
    endloop
  endfacet
  facet normal 0 0 -1
    outer loop
      vertex 18 -67.3965 -2.5
      vertex -18 -67.3965 -2.5
      vertex -11.9181 -46.4781 -2.5
    endloop
  endfacet
  facet normal -0 0 -1
    outer loop
      vertex -11.9181 -46.4781 -2.5
      vertex -18 -67.3965 -2.5
      vertex -12.7361 -46.3042 -2.5
    endloop
  endfacet
  facet normal 0 0 -1
    outer loop
      vertex -18 -67.3965 -2.5
      vertex 18 -67.489 -2.5
      vertex -18 -67.4158 -2.5
    endloop
  endfacet
  facet normal 0 0 -1
    outer loop
      vertex -18 -67.4158 -2.5
      vertex 18 -67.489 -2.5
      vertex -18 -67.4342 -2.5
    endloop
  endfacet
  facet normal 0 0 -1
    outer loop
      vertex -18 -67.4342 -2.5
      vertex 18 -67.489 -2.5
      vertex -18 -67.4509 -2.5
    endloop
  endfacet
  facet normal 0 0 -1
    outer loop
      vertex -18 -67.4509 -2.5
      vertex 18 -67.489 -2.5
      vertex -18 -67.4654 -2.5
    endloop
  endfacet
  facet normal 0 0 -1
    outer loop
      vertex -18 -67.4654 -2.5
      vertex 18 -67.489 -2.5
      vertex -18 -67.4769 -2.5
    endloop
  endfacet
  facet normal 0 0 -1
    outer loop
      vertex -18 -67.4769 -2.5
      vertex 18 -67.489 -2.5
      vertex -18 -67.4849 -2.5
    endloop
  endfacet
  facet normal 0 0 -1
    outer loop
      vertex -18 -67.4849 -2.5
      vertex 18 -67.489 -2.5
      vertex -18 -67.489 -2.5
    endloop
  endfacet
  facet normal 0 0 -1
    outer loop
      vertex 11.9181 46.4781 -2.5
      vertex 18 67.3965 -2.5
      vertex 12.7361 46.3042 -2.5
    endloop
  endfacet
  facet normal 0 0 -1
    outer loop
      vertex -11.9181 46.4781 -2.5
      vertex 18 67.3965 -2.5
      vertex 11.9181 46.4781 -2.5
    endloop
  endfacet
  facet normal 0 0 -1
    outer loop
      vertex -18 67.3965 -2.5
      vertex 18 67.3965 -2.5
      vertex -11.9181 46.4781 -2.5
    endloop
  endfacet
  facet normal 0 0 -1
    outer loop
      vertex 18 67.3965 -2.5
      vertex -18 67.3965 -2.5
      vertex 18 67.4158 -2.5
    endloop
  endfacet
  facet normal -0 0 -1
    outer loop
      vertex 18 67.4158 -2.5
      vertex -18 67.3965 -2.5
      vertex 18 67.4342 -2.5
    endloop
  endfacet
  facet normal -0 0 -1
    outer loop
      vertex 18 67.4342 -2.5
      vertex -18 67.3965 -2.5
      vertex 18 67.4509 -2.5
    endloop
  endfacet
  facet normal -0 0 -1
    outer loop
      vertex 18 67.4509 -2.5
      vertex -18 67.3965 -2.5
      vertex 18 67.4654 -2.5
    endloop
  endfacet
  facet normal -0 0 -1
    outer loop
      vertex 18 67.4654 -2.5
      vertex -18 67.3965 -2.5
      vertex 18 67.4769 -2.5
    endloop
  endfacet
  facet normal -0 0 -1
    outer loop
      vertex 18 67.4769 -2.5
      vertex -18 67.3965 -2.5
      vertex 18 67.4849 -2.5
    endloop
  endfacet
  facet normal 0 0 -1
    outer loop
      vertex -18 67.3965 -2.5
      vertex -11.9181 46.4781 -2.5
      vertex -12.7361 46.3042 -2.5
    endloop
  endfacet
  facet normal 0 0 -1
    outer loop
      vertex -18 67.3965 -2.5
      vertex -12.7361 46.3042 -2.5
      vertex -13.5 45.9641 -2.5
    endloop
  endfacet
  facet normal -0 0 -1
    outer loop
      vertex -12.7361 -46.3042 -2.5
      vertex -18 -67.3965 -2.5
      vertex -13.5 -45.9641 -2.5
    endloop
  endfacet
  facet normal -0 0 -1
    outer loop
      vertex -13.5 -45.9641 -2.5
      vertex -18 -67.3965 -2.5
      vertex -14.1765 -45.4726 -2.5
    endloop
  endfacet
  facet normal -0 0 -1
    outer loop
      vertex -14.1765 -45.4726 -2.5
      vertex -18 -67.3965 -2.5
      vertex -14.7361 -44.8511 -2.5
    endloop
  endfacet
  facet normal -0 0 -1
    outer loop
      vertex -14.7361 -44.8511 -2.5
      vertex -18 -67.3965 -2.5
      vertex -15.1542 -44.1269 -2.5
    endloop
  endfacet
  facet normal -0 0 -1
    outer loop
      vertex -15.1542 -44.1269 -2.5
      vertex -18 -67.3965 -2.5
      vertex -15.4126 -43.3316 -2.5
    endloop
  endfacet
  facet normal -0 0 -1
    outer loop
      vertex -15.4126 -43.3316 -2.5
      vertex -18 -67.3965 -2.5
      vertex -15.5 -42.5 -2.5
    endloop
  endfacet
  facet normal -0 0 -1
    outer loop
      vertex -15.5 -42.5 -2.5
      vertex -18 -67.3965 -2.5
      vertex -15.5 42.5 -2.5
    endloop
  endfacet
  facet normal 0 0 -1
    outer loop
      vertex -18 67.3965 -2.5
      vertex -15.5 42.5 -2.5
      vertex -18 -67.3965 -2.5
    endloop
  endfacet
  facet normal 0 0 -1
    outer loop
      vertex -18 67.3965 -2.5
      vertex -15.4126 43.3316 -2.5
      vertex -15.5 42.5 -2.5
    endloop
  endfacet
  facet normal 0 0 -1
    outer loop
      vertex -18 67.3965 -2.5
      vertex -15.1542 44.1269 -2.5
      vertex -15.4126 43.3316 -2.5
    endloop
  endfacet
  facet normal 0 0 -1
    outer loop
      vertex -18 67.3965 -2.5
      vertex -14.7361 44.8511 -2.5
      vertex -15.1542 44.1269 -2.5
    endloop
  endfacet
  facet normal 0 0 -1
    outer loop
      vertex -18 67.3965 -2.5
      vertex -14.1765 45.4726 -2.5
      vertex -14.7361 44.8511 -2.5
    endloop
  endfacet
  facet normal 0 0 -1
    outer loop
      vertex -18 67.3965 -2.5
      vertex -13.5 45.9641 -2.5
      vertex -14.1765 45.4726 -2.5
    endloop
  endfacet
  facet normal -0 0 -1
    outer loop
      vertex 18 67.4849 -2.5
      vertex -18 67.3965 -2.5
      vertex 18 67.489 -2.5
    endloop
  endfacet
  facet normal 0 0 -1
    outer loop
      vertex -18 67.4158 -2.5
      vertex 18 67.489 -2.5
      vertex -18 67.3965 -2.5
    endloop
  endfacet
  facet normal 0 0 -1
    outer loop
      vertex -18 67.4342 -2.5
      vertex 18 67.489 -2.5
      vertex -18 67.4158 -2.5
    endloop
  endfacet
  facet normal 0 0 -1
    outer loop
      vertex -18 67.4509 -2.5
      vertex 18 67.489 -2.5
      vertex -18 67.4342 -2.5
    endloop
  endfacet
  facet normal 0 0 -1
    outer loop
      vertex -18 67.4654 -2.5
      vertex 18 67.489 -2.5
      vertex -18 67.4509 -2.5
    endloop
  endfacet
  facet normal 0 0 -1
    outer loop
      vertex -18 67.4769 -2.5
      vertex 18 67.489 -2.5
      vertex -18 67.4654 -2.5
    endloop
  endfacet
  facet normal 0 0 -1
    outer loop
      vertex -18 67.4849 -2.5
      vertex 18 67.489 -2.5
      vertex -18 67.4769 -2.5
    endloop
  endfacet
  facet normal -0 0 -1
    outer loop
      vertex 18 67.489 -2.5
      vertex -18 67.4849 -2.5
      vertex -18 67.489 -2.5
    endloop
  endfacet
  facet normal 0.951057 0.309015 0
    outer loop
      vertex 59.9563 65.9158 2.5
      vertex 59.8271 66.3135 -2.5
      vertex 59.8271 66.3135 2.5
    endloop
  endfacet
  facet normal 0.951057 0.309015 0
    outer loop
      vertex 59.8271 66.3135 -2.5
      vertex 59.9563 65.9158 2.5
      vertex 59.9563 65.9158 -2.5
    endloop
  endfacet
  facet normal 0.866022 0.500006 0
    outer loop
      vertex 59.8271 66.3135 2.5
      vertex 59.618 66.6756 -2.5
      vertex 59.618 66.6756 2.5
    endloop
  endfacet
  facet normal 0.866022 0.500006 0
    outer loop
      vertex 59.618 66.6756 -2.5
      vertex 59.8271 66.3135 2.5
      vertex 59.8271 66.3135 -2.5
    endloop
  endfacet
  facet normal 0.406746 0.913541 -0
    outer loop
      vertex 59 67.232 -2.5
      vertex 58.618 67.4021 2.5
      vertex 59 67.232 2.5
    endloop
  endfacet
  facet normal 0.406746 0.913541 0
    outer loop
      vertex 58.618 67.4021 2.5
      vertex 59 67.232 -2.5
      vertex 58.618 67.4021 -2.5
    endloop
  endfacet
  facet normal -0.587781 0.80902 0
    outer loop
      vertex -59 67.232 -2.5
      vertex -59.3383 66.9863 2.5
      vertex -59 67.232 2.5
    endloop
  endfacet
  facet normal -0.587781 0.80902 0
    outer loop
      vertex -59.3383 66.9863 2.5
      vertex -59 67.232 -2.5
      vertex -59.3383 66.9863 -2.5
    endloop
  endfacet
  facet normal 0.994522 -0.104529 0
    outer loop
      vertex 59.9563 -65.9158 2.5
      vertex 60 -65.5 -2.5
      vertex 60 -65.5 2.5
    endloop
  endfacet
  facet normal 0.994522 -0.104529 0
    outer loop
      vertex 60 -65.5 -2.5
      vertex 59.9563 -65.9158 2.5
      vertex 59.9563 -65.9158 -2.5
    endloop
  endfacet
  facet normal 0.587781 -0.80902 0
    outer loop
      vertex 59 -67.232 -2.5
      vertex 59.3383 -66.9863 2.5
      vertex 59 -67.232 2.5
    endloop
  endfacet
  facet normal 0.587781 -0.80902 0
    outer loop
      vertex 59.3383 -66.9863 2.5
      vertex 59 -67.232 -2.5
      vertex 59.3383 -66.9863 -2.5
    endloop
  endfacet
  facet normal -0.951057 -0.309015 0
    outer loop
      vertex -59.8271 -66.3135 -2.5
      vertex -59.9563 -65.9158 2.5
      vertex -59.9563 -65.9158 -2.5
    endloop
  endfacet
  facet normal -0.951057 -0.309015 0
    outer loop
      vertex -59.9563 -65.9158 2.5
      vertex -59.8271 -66.3135 -2.5
      vertex -59.8271 -66.3135 2.5
    endloop
  endfacet
  facet normal -0.406746 -0.913541 0
    outer loop
      vertex -59 -67.232 -2.5
      vertex -58.618 -67.4021 2.5
      vertex -59 -67.232 2.5
    endloop
  endfacet
  facet normal -0.406746 -0.913541 -0
    outer loop
      vertex -58.618 -67.4021 2.5
      vertex -59 -67.232 -2.5
      vertex -58.618 -67.4021 -2.5
    endloop
  endfacet
  facet normal -0.743147 -0.669128 0
    outer loop
      vertex -59.3383 -66.9863 -2.5
      vertex -59.618 -66.6756 2.5
      vertex -59.618 -66.6756 -2.5
    endloop
  endfacet
  facet normal -0.743147 -0.669128 0
    outer loop
      vertex -59.618 -66.6756 2.5
      vertex -59.3383 -66.9863 -2.5
      vertex -59.3383 -66.9863 2.5
    endloop
  endfacet
  facet normal -0.207908 -0.978148 0
    outer loop
      vertex -58.618 -67.4021 -2.5
      vertex -58.2091 -67.489 2.5
      vertex -58.618 -67.4021 2.5
    endloop
  endfacet
  facet normal -0.207908 -0.978148 -0
    outer loop
      vertex -58.2091 -67.489 2.5
      vertex -58.618 -67.4021 -2.5
      vertex -58.2091 -67.489 -2.5
    endloop
  endfacet
  facet normal -0.406746 0.913541 0
    outer loop
      vertex -58.618 67.4021 -2.5
      vertex -59 67.232 2.5
      vertex -58.618 67.4021 2.5
    endloop
  endfacet
  facet normal -0.406746 0.913541 0
    outer loop
      vertex -59 67.232 2.5
      vertex -58.618 67.4021 -2.5
      vertex -59 67.232 -2.5
    endloop
  endfacet
  facet normal -0.866022 -0.500006 0
    outer loop
      vertex -59.618 -66.6756 -2.5
      vertex -59.8271 -66.3135 2.5
      vertex -59.8271 -66.3135 -2.5
    endloop
  endfacet
  facet normal -0.866022 -0.500006 0
    outer loop
      vertex -59.8271 -66.3135 2.5
      vertex -59.618 -66.6756 -2.5
      vertex -59.618 -66.6756 2.5
    endloop
  endfacet
  facet normal -0.587781 -0.80902 0
    outer loop
      vertex -59.3383 -66.9863 -2.5
      vertex -59 -67.232 2.5
      vertex -59.3383 -66.9863 2.5
    endloop
  endfacet
  facet normal -0.587781 -0.80902 -0
    outer loop
      vertex -59 -67.232 2.5
      vertex -59.3383 -66.9863 -2.5
      vertex -59 -67.232 -2.5
    endloop
  endfacet
  facet normal -0.994522 -0.104529 0
    outer loop
      vertex 15.5 42.5 -2.5
      vertex 15.4126 43.3316 2.5
      vertex 15.4126 43.3316 -2.5
    endloop
  endfacet
  facet normal -0.994522 -0.104529 0
    outer loop
      vertex 15.4126 43.3316 2.5
      vertex 15.5 42.5 -2.5
      vertex 15.5 42.5 2.5
    endloop
  endfacet
  facet normal 1 -0 0
    outer loop
      vertex -15.5 -42.5 2.5
      vertex -15.5 42.5 -2.5
      vertex -15.5 42.5 2.5
    endloop
  endfacet
  facet normal 1 0 0
    outer loop
      vertex -15.5 42.5 -2.5
      vertex -15.5 -42.5 2.5
      vertex -15.5 -42.5 -2.5
    endloop
  endfacet
  facet normal 0.866026 -0.499998 0
    outer loop
      vertex -15.1542 44.1269 2.5
      vertex -14.7361 44.8511 -2.5
      vertex -14.7361 44.8511 2.5
    endloop
  endfacet
  facet normal 0.866026 -0.499998 0
    outer loop
      vertex -14.7361 44.8511 -2.5
      vertex -15.1542 44.1269 2.5
      vertex -15.1542 44.1269 -2.5
    endloop
  endfacet
  facet normal -0.866026 0.499998 0
    outer loop
      vertex 14.7361 -44.8511 -2.5
      vertex 15.1542 -44.1269 2.5
      vertex 15.1542 -44.1269 -2.5
    endloop
  endfacet
  facet normal -0.866026 0.499998 0
    outer loop
      vertex 15.1542 -44.1269 2.5
      vertex 14.7361 -44.8511 -2.5
      vertex 14.7361 -44.8511 2.5
    endloop
  endfacet
  facet normal 0.207913 0.978147 -0
    outer loop
      vertex -11.9181 -46.4781 -2.5
      vertex -12.7361 -46.3042 2.5
      vertex -11.9181 -46.4781 2.5
    endloop
  endfacet
  facet normal 0.207913 0.978147 0
    outer loop
      vertex -12.7361 -46.3042 2.5
      vertex -11.9181 -46.4781 -2.5
      vertex -12.7361 -46.3042 -2.5
    endloop
  endfacet
  facet normal -0.207913 -0.978147 0
    outer loop
      vertex 11.9181 46.4781 -2.5
      vertex 12.7361 46.3042 2.5
      vertex 11.9181 46.4781 2.5
    endloop
  endfacet
  facet normal -0.207913 -0.978147 -0
    outer loop
      vertex 12.7361 46.3042 2.5
      vertex 11.9181 46.4781 -2.5
      vertex 12.7361 46.3042 -2.5
    endloop
  endfacet
  facet normal 0 -1 0
    outer loop
      vertex -11.9181 46.4781 -2.5
      vertex 11.9181 46.4781 2.5
      vertex -11.9181 46.4781 2.5
    endloop
  endfacet
  facet normal 0 -1 -0
    outer loop
      vertex 11.9181 46.4781 2.5
      vertex -11.9181 46.4781 -2.5
      vertex 11.9181 46.4781 -2.5
    endloop
  endfacet
  facet normal 0.994522 -0.104529 0
    outer loop
      vertex -15.5 42.5 2.5
      vertex -15.4126 43.3316 -2.5
      vertex -15.4126 43.3316 2.5
    endloop
  endfacet
  facet normal 0.994522 -0.104529 0
    outer loop
      vertex -15.4126 43.3316 -2.5
      vertex -15.5 42.5 2.5
      vertex -15.5 42.5 -2.5
    endloop
  endfacet
  facet normal 0.951056 -0.309017 0
    outer loop
      vertex -15.4126 43.3316 2.5
      vertex -15.1542 44.1269 -2.5
      vertex -15.1542 44.1269 2.5
    endloop
  endfacet
  facet normal 0.951056 -0.309017 0
    outer loop
      vertex -15.1542 44.1269 -2.5
      vertex -15.4126 43.3316 2.5
      vertex -15.4126 43.3316 -2.5
    endloop
  endfacet
  facet normal -1 0 0
    outer loop
      vertex 15.5 -42.5 -2.5
      vertex 15.5 42.5 2.5
      vertex 15.5 42.5 -2.5
    endloop
  endfacet
  facet normal -1 -0 0
    outer loop
      vertex 15.5 42.5 2.5
      vertex 15.5 -42.5 -2.5
      vertex 15.5 -42.5 2.5
    endloop
  endfacet
  facet normal -0.951056 0.309017 0
    outer loop
      vertex 15.1542 -44.1269 -2.5
      vertex 15.4126 -43.3316 2.5
      vertex 15.4126 -43.3316 -2.5
    endloop
  endfacet
  facet normal -0.951056 0.309017 0
    outer loop
      vertex 15.4126 -43.3316 2.5
      vertex 15.1542 -44.1269 -2.5
      vertex 15.1542 -44.1269 2.5
    endloop
  endfacet
  facet normal 0 1 -0
    outer loop
      vertex 11.9181 -46.4781 -2.5
      vertex -11.9181 -46.4781 2.5
      vertex 11.9181 -46.4781 2.5
    endloop
  endfacet
  facet normal 0 1 0
    outer loop
      vertex -11.9181 -46.4781 2.5
      vertex 11.9181 -46.4781 -2.5
      vertex -11.9181 -46.4781 -2.5
    endloop
  endfacet
  facet normal -0.743144 -0.669131 0
    outer loop
      vertex 14.7361 44.8511 -2.5
      vertex 14.1765 45.4726 2.5
      vertex 14.1765 45.4726 -2.5
    endloop
  endfacet
  facet normal -0.743144 -0.669131 0
    outer loop
      vertex 14.1765 45.4726 2.5
      vertex 14.7361 44.8511 -2.5
      vertex 14.7361 44.8511 2.5
    endloop
  endfacet
  facet normal -0.994522 0.104529 0
    outer loop
      vertex 15.4126 -43.3316 -2.5
      vertex 15.5 -42.5 2.5
      vertex 15.5 -42.5 -2.5
    endloop
  endfacet
  facet normal -0.994522 0.104529 0
    outer loop
      vertex 15.5 -42.5 2.5
      vertex 15.4126 -43.3316 -2.5
      vertex 15.4126 -43.3316 2.5
    endloop
  endfacet
  facet normal -0.866026 -0.499998 0
    outer loop
      vertex 15.1542 44.1269 -2.5
      vertex 14.7361 44.8511 2.5
      vertex 14.7361 44.8511 -2.5
    endloop
  endfacet
  facet normal -0.866026 -0.499998 0
    outer loop
      vertex 14.7361 44.8511 2.5
      vertex 15.1542 44.1269 -2.5
      vertex 15.1542 44.1269 2.5
    endloop
  endfacet
  facet normal -0.951056 -0.309017 0
    outer loop
      vertex 15.4126 43.3316 -2.5
      vertex 15.1542 44.1269 2.5
      vertex 15.1542 44.1269 -2.5
    endloop
  endfacet
  facet normal -0.951056 -0.309017 0
    outer loop
      vertex 15.1542 44.1269 2.5
      vertex 15.4126 43.3316 -2.5
      vertex 15.4126 43.3316 2.5
    endloop
  endfacet
  facet normal -0.406738 -0.913545 0
    outer loop
      vertex 12.7361 46.3042 -2.5
      vertex 13.5 45.9641 2.5
      vertex 12.7361 46.3042 2.5
    endloop
  endfacet
  facet normal -0.406738 -0.913545 -0
    outer loop
      vertex 13.5 45.9641 2.5
      vertex 12.7361 46.3042 -2.5
      vertex 13.5 45.9641 -2.5
    endloop
  endfacet
  facet normal -0.587783 -0.809018 0
    outer loop
      vertex 13.5 45.9641 -2.5
      vertex 14.1765 45.4726 2.5
      vertex 13.5 45.9641 2.5
    endloop
  endfacet
  facet normal -0.587783 -0.809018 -0
    outer loop
      vertex 14.1765 45.4726 2.5
      vertex 13.5 45.9641 -2.5
      vertex 14.1765 45.4726 -2.5
    endloop
  endfacet
  facet normal 0.587783 -0.809018 0
    outer loop
      vertex -14.1765 45.4726 -2.5
      vertex -13.5 45.9641 2.5
      vertex -14.1765 45.4726 2.5
    endloop
  endfacet
  facet normal 0.587783 -0.809018 0
    outer loop
      vertex -13.5 45.9641 2.5
      vertex -14.1765 45.4726 -2.5
      vertex -13.5 45.9641 -2.5
    endloop
  endfacet
  facet normal 0.207913 -0.978147 0
    outer loop
      vertex -12.7361 46.3042 -2.5
      vertex -11.9181 46.4781 2.5
      vertex -12.7361 46.3042 2.5
    endloop
  endfacet
  facet normal 0.207913 -0.978147 0
    outer loop
      vertex -11.9181 46.4781 2.5
      vertex -12.7361 46.3042 -2.5
      vertex -11.9181 46.4781 -2.5
    endloop
  endfacet
  facet normal 0.743144 -0.669131 0
    outer loop
      vertex -14.7361 44.8511 2.5
      vertex -14.1765 45.4726 -2.5
      vertex -14.1765 45.4726 2.5
    endloop
  endfacet
  facet normal 0.743144 -0.669131 0
    outer loop
      vertex -14.1765 45.4726 -2.5
      vertex -14.7361 44.8511 2.5
      vertex -14.7361 44.8511 -2.5
    endloop
  endfacet
  facet normal -0.587783 0.809018 0
    outer loop
      vertex 14.1765 -45.4726 -2.5
      vertex 13.5 -45.9641 2.5
      vertex 14.1765 -45.4726 2.5
    endloop
  endfacet
  facet normal -0.587783 0.809018 0
    outer loop
      vertex 13.5 -45.9641 2.5
      vertex 14.1765 -45.4726 -2.5
      vertex 13.5 -45.9641 -2.5
    endloop
  endfacet
  facet normal -0.207913 0.978147 0
    outer loop
      vertex 12.7361 -46.3042 -2.5
      vertex 11.9181 -46.4781 2.5
      vertex 12.7361 -46.3042 2.5
    endloop
  endfacet
  facet normal -0.207913 0.978147 0
    outer loop
      vertex 11.9181 -46.4781 2.5
      vertex 12.7361 -46.3042 -2.5
      vertex 11.9181 -46.4781 -2.5
    endloop
  endfacet
  facet normal -0.743144 0.669131 0
    outer loop
      vertex 14.1765 -45.4726 -2.5
      vertex 14.7361 -44.8511 2.5
      vertex 14.7361 -44.8511 -2.5
    endloop
  endfacet
  facet normal -0.743144 0.669131 0
    outer loop
      vertex 14.7361 -44.8511 2.5
      vertex 14.1765 -45.4726 -2.5
      vertex 14.1765 -45.4726 2.5
    endloop
  endfacet
  facet normal 0.743144 0.669131 0
    outer loop
      vertex -14.1765 -45.4726 2.5
      vertex -14.7361 -44.8511 -2.5
      vertex -14.7361 -44.8511 2.5
    endloop
  endfacet
  facet normal 0.743144 0.669131 0
    outer loop
      vertex -14.7361 -44.8511 -2.5
      vertex -14.1765 -45.4726 2.5
      vertex -14.1765 -45.4726 -2.5
    endloop
  endfacet
  facet normal 0.406738 0.913545 -0
    outer loop
      vertex -12.7361 -46.3042 -2.5
      vertex -13.5 -45.9641 2.5
      vertex -12.7361 -46.3042 2.5
    endloop
  endfacet
  facet normal 0.406738 0.913545 0
    outer loop
      vertex -13.5 -45.9641 2.5
      vertex -12.7361 -46.3042 -2.5
      vertex -13.5 -45.9641 -2.5
    endloop
  endfacet
  facet normal 0.866026 0.499998 0
    outer loop
      vertex -14.7361 -44.8511 2.5
      vertex -15.1542 -44.1269 -2.5
      vertex -15.1542 -44.1269 2.5
    endloop
  endfacet
  facet normal 0.866026 0.499998 0
    outer loop
      vertex -15.1542 -44.1269 -2.5
      vertex -14.7361 -44.8511 2.5
      vertex -14.7361 -44.8511 -2.5
    endloop
  endfacet
  facet normal 0.994522 0.104529 0
    outer loop
      vertex -15.4126 -43.3316 2.5
      vertex -15.5 -42.5 -2.5
      vertex -15.5 -42.5 2.5
    endloop
  endfacet
  facet normal 0.994522 0.104529 0
    outer loop
      vertex -15.5 -42.5 -2.5
      vertex -15.4126 -43.3316 2.5
      vertex -15.4126 -43.3316 -2.5
    endloop
  endfacet
  facet normal 0.406738 -0.913545 0
    outer loop
      vertex -13.5 45.9641 -2.5
      vertex -12.7361 46.3042 2.5
      vertex -13.5 45.9641 2.5
    endloop
  endfacet
  facet normal 0.406738 -0.913545 0
    outer loop
      vertex -12.7361 46.3042 2.5
      vertex -13.5 45.9641 -2.5
      vertex -12.7361 46.3042 -2.5
    endloop
  endfacet
  facet normal -0.406738 0.913545 0
    outer loop
      vertex 13.5 -45.9641 -2.5
      vertex 12.7361 -46.3042 2.5
      vertex 13.5 -45.9641 2.5
    endloop
  endfacet
  facet normal -0.406738 0.913545 0
    outer loop
      vertex 12.7361 -46.3042 2.5
      vertex 13.5 -45.9641 -2.5
      vertex 12.7361 -46.3042 -2.5
    endloop
  endfacet
  facet normal 0.587783 0.809018 -0
    outer loop
      vertex -13.5 -45.9641 -2.5
      vertex -14.1765 -45.4726 2.5
      vertex -13.5 -45.9641 2.5
    endloop
  endfacet
  facet normal 0.587783 0.809018 0
    outer loop
      vertex -14.1765 -45.4726 2.5
      vertex -13.5 -45.9641 -2.5
      vertex -14.1765 -45.4726 -2.5
    endloop
  endfacet
  facet normal 0.951056 0.309017 0
    outer loop
      vertex -15.1542 -44.1269 2.5
      vertex -15.4126 -43.3316 -2.5
      vertex -15.4126 -43.3316 2.5
    endloop
  endfacet
  facet normal 0.951056 0.309017 0
    outer loop
      vertex -15.4126 -43.3316 -2.5
      vertex -15.1542 -44.1269 2.5
      vertex -15.1542 -44.1269 -2.5
    endloop
  endfacet
  facet normal 0 0.104529 -0.994522
    outer loop
      vertex 18 65.5 -58
      vertex 23 65.9158 -57.9563
      vertex 23 65.5 -58
    endloop
  endfacet
  facet normal 0 0.104529 -0.994522
    outer loop
      vertex 23 65.9158 -57.9563
      vertex 18 65.5 -58
      vertex 18 65.9158 -57.9563
    endloop
  endfacet
  facet normal -1 0 0
    outer loop
      vertex 18 -66.3135 -57.8271
      vertex 18 -67.4158 -2.5
      vertex 18 -65.9158 -57.9563
    endloop
  endfacet
  facet normal -1 -0 -0
    outer loop
      vertex 18 -67.4158 -2.5
      vertex 18 -66.3135 -57.8271
      vertex 18 -67.4342 -2.5
    endloop
  endfacet
  facet normal -1 0 0
    outer loop
      vertex 18 -65.9158 -57.9563
      vertex 18 -67.3965 -2.5
      vertex 18 -65.5 -58
    endloop
  endfacet
  facet normal -1 -0 -0
    outer loop
      vertex 18 -67.3965 -2.5
      vertex 18 -65.9158 -57.9563
      vertex 18 -67.4158 -2.5
    endloop
  endfacet
  facet normal 1 0 0
    outer loop
      vertex 23 67.489 -56.2091
      vertex 23 66.7335 -2.5
      vertex 23 66.4011 -2.5
    endloop
  endfacet
  facet normal -1 0 0
    outer loop
      vertex 18 67.489 -56.2091
      vertex 18 67.4849 -2.5
      vertex 18 67.489 -2.5
    endloop
  endfacet
  facet normal -1 0 -0
    outer loop
      vertex 18 67.4849 -2.5
      vertex 18 67.489 -56.2091
      vertex 18 67.4021 -56.618
    endloop
  endfacet
  facet normal 1 -0 0
    outer loop
      vertex 23 -65.6538 -2.5
      vertex 23 67.489 -56.2091
      vertex 23 65.6538 -2.5
    endloop
  endfacet
  facet normal 1 0 0
    outer loop
      vertex 23 67.489 -56.2091
      vertex 23 -65.6538 -2.5
      vertex 23 -67.489 -56.2091
    endloop
  endfacet
  facet normal -1 0 0
    outer loop
      vertex 18 -65.5 -58
      vertex 18 67.3965 -2.5
      vertex 18 65.5 -58
    endloop
  endfacet
  facet normal -1 -0 0
    outer loop
      vertex 18 67.3965 -2.5
      vertex 18 -65.5 -58
      vertex 18 -67.3965 -2.5
    endloop
  endfacet
  facet normal 1 0 -0
    outer loop
      vertex 23 67.489 -56.2091
      vertex 23 67.489 -2.5
      vertex 23 67.4069 -2.5
    endloop
  endfacet
  facet normal -1 0 0
    outer loop
      vertex 18 65.9158 -57.9563
      vertex 18 67.3965 -2.5
      vertex 18 67.4158 -2.5
    endloop
  endfacet
  facet normal -1 0 0
    outer loop
      vertex 18 67.3965 -2.5
      vertex 18 65.9158 -57.9563
      vertex 18 65.5 -58
    endloop
  endfacet
  facet normal 0 -0.309015 -0.951057
    outer loop
      vertex 18 -66.3135 -57.8271
      vertex 23 -65.9158 -57.9563
      vertex 23 -66.3135 -57.8271
    endloop
  endfacet
  facet normal -0 -0.309015 -0.951057
    outer loop
      vertex 23 -65.9158 -57.9563
      vertex 18 -66.3135 -57.8271
      vertex 18 -65.9158 -57.9563
    endloop
  endfacet
  facet normal 0 0 -1
    outer loop
      vertex 18 -65.5 -58
      vertex 23 65.5 -58
      vertex 23 -65.5 -58
    endloop
  endfacet
  facet normal -0 0 -1
    outer loop
      vertex 23 65.5 -58
      vertex 18 -65.5 -58
      vertex 18 65.5 -58
    endloop
  endfacet
  facet normal -1 0 0
    outer loop
      vertex 18 -67.4021 -56.618
      vertex 18 -67.4769 -2.5
      vertex 18 -67.232 -57
    endloop
  endfacet
  facet normal -1 -0 -0
    outer loop
      vertex 18 -67.4769 -2.5
      vertex 18 -67.4021 -56.618
      vertex 18 -67.4849 -2.5
    endloop
  endfacet
  facet normal -1 0 0
    outer loop
      vertex 18 67.232 -57
      vertex 18 67.4654 -2.5
      vertex 18 67.4769 -2.5
    endloop
  endfacet
  facet normal -1 0 0
    outer loop
      vertex 18 67.4654 -2.5
      vertex 18 67.232 -57
      vertex 18 66.9863 -57.3383
    endloop
  endfacet
  facet normal -1 0 0
    outer loop
      vertex 18 66.6756 -57.618
      vertex 18 67.4342 -2.5
      vertex 18 67.4509 -2.5
    endloop
  endfacet
  facet normal -1 0 0
    outer loop
      vertex 18 67.4342 -2.5
      vertex 18 66.6756 -57.618
      vertex 18 66.3135 -57.8271
    endloop
  endfacet
  facet normal -1 0 0
    outer loop
      vertex 18 67.4021 -56.618
      vertex 18 67.4769 -2.5
      vertex 18 67.4849 -2.5
    endloop
  endfacet
  facet normal -1 0 0
    outer loop
      vertex 18 67.4769 -2.5
      vertex 18 67.4021 -56.618
      vertex 18 67.232 -57
    endloop
  endfacet
  facet normal 1 0 0
    outer loop
      vertex 23 67.489 -56.2091
      vertex 23 67.232 -57
      vertex 23 67.4021 -56.618
    endloop
  endfacet
  facet normal 1 0 0
    outer loop
      vertex 23 67.489 -56.2091
      vertex 23 66.9863 -57.3383
      vertex 23 67.232 -57
    endloop
  endfacet
  facet normal 1 0 0
    outer loop
      vertex 23 67.489 -56.2091
      vertex 23 66.6756 -57.618
      vertex 23 66.9863 -57.3383
    endloop
  endfacet
  facet normal 1 0 0
    outer loop
      vertex 23 67.489 -56.2091
      vertex 23 66.3135 -57.8271
      vertex 23 66.6756 -57.618
    endloop
  endfacet
  facet normal 1 0 0
    outer loop
      vertex 23 67.489 -56.2091
      vertex 23 65.9158 -57.9563
      vertex 23 66.3135 -57.8271
    endloop
  endfacet
  facet normal 1 0 0
    outer loop
      vertex 23 67.489 -56.2091
      vertex 23 65.5 -58
      vertex 23 65.9158 -57.9563
    endloop
  endfacet
  facet normal 1 0 0
    outer loop
      vertex 23 67.489 -56.2091
      vertex 23 -65.5 -58
      vertex 23 65.5 -58
    endloop
  endfacet
  facet normal 1 -0 0
    outer loop
      vertex 23 -67.489 -56.2091
      vertex 23 -65.5 -58
      vertex 23 67.489 -56.2091
    endloop
  endfacet
  facet normal 1 0 0
    outer loop
      vertex 23 -65.5 -58
      vertex 23 -67.489 -56.2091
      vertex 23 -65.9158 -57.9563
    endloop
  endfacet
  facet normal 1 0 0
    outer loop
      vertex 23 -65.9158 -57.9563
      vertex 23 -67.489 -56.2091
      vertex 23 -66.3135 -57.8271
    endloop
  endfacet
  facet normal 1 0 0
    outer loop
      vertex 23 -66.3135 -57.8271
      vertex 23 -67.489 -56.2091
      vertex 23 -66.6756 -57.618
    endloop
  endfacet
  facet normal 1 0 0
    outer loop
      vertex 23 -66.6756 -57.618
      vertex 23 -67.489 -56.2091
      vertex 23 -66.9863 -57.3383
    endloop
  endfacet
  facet normal 1 0 0
    outer loop
      vertex 23 -66.9863 -57.3383
      vertex 23 -67.489 -56.2091
      vertex 23 -67.232 -57
    endloop
  endfacet
  facet normal 1 0 0
    outer loop
      vertex 23 -67.232 -57
      vertex 23 -67.489 -56.2091
      vertex 23 -67.4021 -56.618
    endloop
  endfacet
  facet normal 1 0 0
    outer loop
      vertex 23 67.489 -56.2091
      vertex 23 66.0364 -2.5
      vertex 23 65.6538 -2.5
    endloop
  endfacet
  facet normal 1 0 0
    outer loop
      vertex 23 67.489 -56.2091
      vertex 23 66.4011 -2.5
      vertex 23 66.0364 -2.5
    endloop
  endfacet
  facet normal -1 0 0
    outer loop
      vertex 18 66.9863 -57.3383
      vertex 18 67.4509 -2.5
      vertex 18 67.4654 -2.5
    endloop
  endfacet
  facet normal -1 0 0
    outer loop
      vertex 18 67.4509 -2.5
      vertex 18 66.9863 -57.3383
      vertex 18 66.6756 -57.618
    endloop
  endfacet
  facet normal -1 0 0
    outer loop
      vertex 18 66.3135 -57.8271
      vertex 18 67.4158 -2.5
      vertex 18 67.4342 -2.5
    endloop
  endfacet
  facet normal -1 0 0
    outer loop
      vertex 18 67.4158 -2.5
      vertex 18 66.3135 -57.8271
      vertex 18 65.9158 -57.9563
    endloop
  endfacet
  facet normal 0 -0.104529 -0.994522
    outer loop
      vertex 18 -65.9158 -57.9563
      vertex 23 -65.5 -58
      vertex 23 -65.9158 -57.9563
    endloop
  endfacet
  facet normal -0 -0.104529 -0.994522
    outer loop
      vertex 23 -65.5 -58
      vertex 18 -65.9158 -57.9563
      vertex 18 -65.5 -58
    endloop
  endfacet
  facet normal 1 0 0
    outer loop
      vertex 23 -67.0198 -2.5
      vertex 23 -67.2478 -2.5
      vertex 23 -67.489 -56.2091
    endloop
  endfacet
  facet normal 0 0.669128 -0.743147
    outer loop
      vertex 18 66.6756 -57.618
      vertex 23 66.9863 -57.3383
      vertex 23 66.6756 -57.618
    endloop
  endfacet
  facet normal 0 0.669128 -0.743147
    outer loop
      vertex 23 66.9863 -57.3383
      vertex 18 66.6756 -57.618
      vertex 18 66.9863 -57.3383
    endloop
  endfacet
  facet normal 0 0.80902 -0.587781
    outer loop
      vertex 23 66.9863 -57.3383
      vertex 18 67.232 -57
      vertex 23 67.232 -57
    endloop
  endfacet
  facet normal 0 0.80902 -0.587781
    outer loop
      vertex 18 67.232 -57
      vertex 23 66.9863 -57.3383
      vertex 18 66.9863 -57.3383
    endloop
  endfacet
  facet normal 0 0.309015 -0.951057
    outer loop
      vertex 18 65.9158 -57.9563
      vertex 23 66.3135 -57.8271
      vertex 23 65.9158 -57.9563
    endloop
  endfacet
  facet normal 0 0.309015 -0.951057
    outer loop
      vertex 23 66.3135 -57.8271
      vertex 18 65.9158 -57.9563
      vertex 18 66.3135 -57.8271
    endloop
  endfacet
  facet normal 0 -0.669128 -0.743147
    outer loop
      vertex 18 -66.9863 -57.3383
      vertex 23 -66.6756 -57.618
      vertex 23 -66.9863 -57.3383
    endloop
  endfacet
  facet normal -0 -0.669128 -0.743147
    outer loop
      vertex 23 -66.6756 -57.618
      vertex 18 -66.9863 -57.3383
      vertex 18 -66.6756 -57.618
    endloop
  endfacet
  facet normal -1 0 0
    outer loop
      vertex 18 -66.6756 -57.618
      vertex 18 -67.4342 -2.5
      vertex 18 -66.3135 -57.8271
    endloop
  endfacet
  facet normal -1 -0 -0
    outer loop
      vertex 18 -67.4342 -2.5
      vertex 18 -66.6756 -57.618
      vertex 18 -67.4509 -2.5
    endloop
  endfacet
  facet normal -1 0 0
    outer loop
      vertex 18 -66.9863 -57.3383
      vertex 18 -67.4509 -2.5
      vertex 18 -66.6756 -57.618
    endloop
  endfacet
  facet normal -1 -0 -0
    outer loop
      vertex 18 -67.4509 -2.5
      vertex 18 -66.9863 -57.3383
      vertex 18 -67.4654 -2.5
    endloop
  endfacet
  facet normal 0 -0.978148 -0.207908
    outer loop
      vertex 18 -67.4021 -56.618
      vertex 23 -67.489 -56.2091
      vertex 18 -67.489 -56.2091
    endloop
  endfacet
  facet normal 0 -0.978148 -0.207908
    outer loop
      vertex 23 -67.489 -56.2091
      vertex 18 -67.4021 -56.618
      vertex 23 -67.4021 -56.618
    endloop
  endfacet
  facet normal -1 0 0
    outer loop
      vertex 18 -67.489 -56.2091
      vertex 18 -67.4849 -2.5
      vertex 18 -67.4021 -56.618
    endloop
  endfacet
  facet normal -1 -0 0
    outer loop
      vertex 18 -67.4849 -2.5
      vertex 18 -67.489 -56.2091
      vertex 18 -67.489 -2.5
    endloop
  endfacet
  facet normal 1 0 0
    outer loop
      vertex 23 -66.7335 -2.5
      vertex 23 -67.0198 -2.5
      vertex 23 -67.489 -56.2091
    endloop
  endfacet
  facet normal 1 0 0
    outer loop
      vertex 23 -66.4011 -2.5
      vertex 23 -66.7335 -2.5
      vertex 23 -67.489 -56.2091
    endloop
  endfacet
  facet normal 1 0 0
    outer loop
      vertex 23 -65.6538 -2.5
      vertex 23 -66.0364 -2.5
      vertex 23 -67.489 -56.2091
    endloop
  endfacet
  facet normal 0 0.913541 -0.406746
    outer loop
      vertex 23 67.232 -57
      vertex 18 67.4021 -56.618
      vertex 23 67.4021 -56.618
    endloop
  endfacet
  facet normal 0 0.913541 -0.406746
    outer loop
      vertex 18 67.4021 -56.618
      vertex 23 67.232 -57
      vertex 18 67.232 -57
    endloop
  endfacet
  facet normal 0 0.978148 -0.207908
    outer loop
      vertex 23 67.4021 -56.618
      vertex 18 67.489 -56.2091
      vertex 23 67.489 -56.2091
    endloop
  endfacet
  facet normal 0 0.978148 -0.207908
    outer loop
      vertex 18 67.489 -56.2091
      vertex 23 67.4021 -56.618
      vertex 18 67.4021 -56.618
    endloop
  endfacet
  facet normal 1 0 0
    outer loop
      vertex 23 67.489 -56.2091
      vertex 23 67.0198 -2.5
      vertex 23 66.7335 -2.5
    endloop
  endfacet
  facet normal 1 0 0
    outer loop
      vertex 23 67.489 -56.2091
      vertex 23 67.2478 -2.5
      vertex 23 67.0198 -2.5
    endloop
  endfacet
  facet normal 1 0 0
    outer loop
      vertex 23 67.489 -56.2091
      vertex 23 67.4069 -2.5
      vertex 23 67.2478 -2.5
    endloop
  endfacet
  facet normal 0 0.500006 -0.866022
    outer loop
      vertex 18 66.3135 -57.8271
      vertex 23 66.6756 -57.618
      vertex 23 66.3135 -57.8271
    endloop
  endfacet
  facet normal 0 0.500006 -0.866022
    outer loop
      vertex 23 66.6756 -57.618
      vertex 18 66.3135 -57.8271
      vertex 18 66.6756 -57.618
    endloop
  endfacet
  facet normal 0 -0.80902 -0.587781
    outer loop
      vertex 18 -66.9863 -57.3383
      vertex 23 -67.232 -57
      vertex 18 -67.232 -57
    endloop
  endfacet
  facet normal 0 -0.80902 -0.587781
    outer loop
      vertex 23 -67.232 -57
      vertex 18 -66.9863 -57.3383
      vertex 23 -66.9863 -57.3383
    endloop
  endfacet
  facet normal -1 0 0
    outer loop
      vertex 18 -67.232 -57
      vertex 18 -67.4654 -2.5
      vertex 18 -66.9863 -57.3383
    endloop
  endfacet
  facet normal -1 -0 -0
    outer loop
      vertex 18 -67.4654 -2.5
      vertex 18 -67.232 -57
      vertex 18 -67.4769 -2.5
    endloop
  endfacet
  facet normal 0 -0.500006 -0.866022
    outer loop
      vertex 18 -66.6756 -57.618
      vertex 23 -66.3135 -57.8271
      vertex 23 -66.6756 -57.618
    endloop
  endfacet
  facet normal -0 -0.500006 -0.866022
    outer loop
      vertex 23 -66.3135 -57.8271
      vertex 18 -66.6756 -57.618
      vertex 18 -66.3135 -57.8271
    endloop
  endfacet
  facet normal 0 -0.913541 -0.406746
    outer loop
      vertex 18 -67.232 -57
      vertex 23 -67.4021 -56.618
      vertex 18 -67.4021 -56.618
    endloop
  endfacet
  facet normal 0 -0.913541 -0.406746
    outer loop
      vertex 23 -67.4021 -56.618
      vertex 18 -67.232 -57
      vertex 23 -67.232 -57
    endloop
  endfacet
  facet normal 1 0 0
    outer loop
      vertex 23 -67.4069 -2.5
      vertex 23 -67.489 -2.5
      vertex 23 -67.489 -56.2091
    endloop
  endfacet
  facet normal 1 0 0
    outer loop
      vertex 23 -67.2478 -2.5
      vertex 23 -67.4069 -2.5
      vertex 23 -67.489 -56.2091
    endloop
  endfacet
  facet normal 1 0 0
    outer loop
      vertex 23 -66.0364 -2.5
      vertex 23 -66.4011 -2.5
      vertex 23 -67.489 -56.2091
    endloop
  endfacet
  facet normal 0 0.104529 -0.994522
    outer loop
      vertex -23 65.5 -58
      vertex -18 65.9158 -57.9563
      vertex -18 65.5 -58
    endloop
  endfacet
  facet normal 0 0.104529 -0.994522
    outer loop
      vertex -18 65.9158 -57.9563
      vertex -23 65.5 -58
      vertex -23 65.9158 -57.9563
    endloop
  endfacet
  facet normal 1 0 0
    outer loop
      vertex -18 -67.4158 -2.5
      vertex -18 -66.3135 -57.8271
      vertex -18 -65.9158 -57.9563
    endloop
  endfacet
  facet normal 1 0 0
    outer loop
      vertex -18 -66.3135 -57.8271
      vertex -18 -67.4158 -2.5
      vertex -18 -67.4342 -2.5
    endloop
  endfacet
  facet normal 0 -0.104529 -0.994522
    outer loop
      vertex -23 -65.9158 -57.9563
      vertex -18 -65.5 -58
      vertex -18 -65.9158 -57.9563
    endloop
  endfacet
  facet normal -0 -0.104529 -0.994522
    outer loop
      vertex -18 -65.5 -58
      vertex -23 -65.9158 -57.9563
      vertex -23 -65.5 -58
    endloop
  endfacet
  facet normal 0 0 -1
    outer loop
      vertex -23 -65.5 -58
      vertex -18 65.5 -58
      vertex -18 -65.5 -58
    endloop
  endfacet
  facet normal -0 0 -1
    outer loop
      vertex -18 65.5 -58
      vertex -23 -65.5 -58
      vertex -23 65.5 -58
    endloop
  endfacet
  facet normal -1 -0 0
    outer loop
      vertex -23 -66.7335 -2.5
      vertex -23 -67.489 -56.2091
      vertex -23 -67.0198 -2.5
    endloop
  endfacet
  facet normal 0 0.978148 -0.207908
    outer loop
      vertex -18 67.4021 -56.618
      vertex -23 67.489 -56.2091
      vertex -18 67.489 -56.2091
    endloop
  endfacet
  facet normal 0 0.978148 -0.207908
    outer loop
      vertex -23 67.489 -56.2091
      vertex -18 67.4021 -56.618
      vertex -23 67.4021 -56.618
    endloop
  endfacet
  facet normal -1 -0 -0
    outer loop
      vertex -23 66.4011 -2.5
      vertex -23 67.489 -56.2091
      vertex -23 66.0364 -2.5
    endloop
  endfacet
  facet normal 1 -0 0
    outer loop
      vertex -18 67.4509 -2.5
      vertex -18 66.9863 -57.3383
      vertex -18 67.4654 -2.5
    endloop
  endfacet
  facet normal 1 0 -0
    outer loop
      vertex -18 66.9863 -57.3383
      vertex -18 67.4509 -2.5
      vertex -18 66.6756 -57.618
    endloop
  endfacet
  facet normal 1 -0 0
    outer loop
      vertex -18 67.4849 -2.5
      vertex -18 67.489 -56.2091
      vertex -18 67.489 -2.5
    endloop
  endfacet
  facet normal 1 0 0
    outer loop
      vertex -18 67.489 -56.2091
      vertex -18 67.4849 -2.5
      vertex -18 67.4021 -56.618
    endloop
  endfacet
  facet normal -1 -0 -0
    outer loop
      vertex -23 66.0364 -2.5
      vertex -23 67.489 -56.2091
      vertex -23 65.6538 -2.5
    endloop
  endfacet
  facet normal -1 -0 -0
    outer loop
      vertex -23 67.4069 -2.5
      vertex -23 67.489 -56.2091
      vertex -23 67.2478 -2.5
    endloop
  endfacet
  facet normal 0 0.913541 -0.406746
    outer loop
      vertex -18 67.232 -57
      vertex -23 67.4021 -56.618
      vertex -18 67.4021 -56.618
    endloop
  endfacet
  facet normal 0 0.913541 -0.406746
    outer loop
      vertex -23 67.4021 -56.618
      vertex -18 67.232 -57
      vertex -23 67.232 -57
    endloop
  endfacet
  facet normal 1 -0 0
    outer loop
      vertex -18 67.3965 -2.5
      vertex -18 65.9158 -57.9563
      vertex -18 67.4158 -2.5
    endloop
  endfacet
  facet normal 1 0 -0
    outer loop
      vertex -18 65.9158 -57.9563
      vertex -18 67.3965 -2.5
      vertex -18 65.5 -58
    endloop
  endfacet
  facet normal -1 -0 0
    outer loop
      vertex -23 -66.0364 -2.5
      vertex -23 -67.489 -56.2091
      vertex -23 -66.4011 -2.5
    endloop
  endfacet
  facet normal -1 0 0
    outer loop
      vertex -23 67.489 -56.2091
      vertex -23 -65.6538 -2.5
      vertex -23 65.6538 -2.5
    endloop
  endfacet
  facet normal -1 0 -0
    outer loop
      vertex -23 -65.6538 -2.5
      vertex -23 67.489 -56.2091
      vertex -23 -67.489 -56.2091
    endloop
  endfacet
  facet normal 1 0 0
    outer loop
      vertex -18 -67.3965 -2.5
      vertex -18 -65.9158 -57.9563
      vertex -18 -65.5 -58
    endloop
  endfacet
  facet normal 1 0 0
    outer loop
      vertex -18 -65.9158 -57.9563
      vertex -18 -67.3965 -2.5
      vertex -18 -67.4158 -2.5
    endloop
  endfacet
  facet normal 1 0 0
    outer loop
      vertex -18 67.3965 -2.5
      vertex -18 -65.5 -58
      vertex -18 65.5 -58
    endloop
  endfacet
  facet normal 1 0 -0
    outer loop
      vertex -18 -65.5 -58
      vertex -18 67.3965 -2.5
      vertex -18 -67.3965 -2.5
    endloop
  endfacet
  facet normal -1 -0 -0
    outer loop
      vertex -23 67.0198 -2.5
      vertex -23 67.489 -56.2091
      vertex -23 66.7335 -2.5
    endloop
  endfacet
  facet normal 0 0.80902 -0.587781
    outer loop
      vertex -18 66.9863 -57.3383
      vertex -23 67.232 -57
      vertex -18 67.232 -57
    endloop
  endfacet
  facet normal 0 0.80902 -0.587781
    outer loop
      vertex -23 67.232 -57
      vertex -18 66.9863 -57.3383
      vertex -23 66.9863 -57.3383
    endloop
  endfacet
  facet normal 0 0.669128 -0.743147
    outer loop
      vertex -23 66.6756 -57.618
      vertex -18 66.9863 -57.3383
      vertex -18 66.6756 -57.618
    endloop
  endfacet
  facet normal 0 0.669128 -0.743147
    outer loop
      vertex -18 66.9863 -57.3383
      vertex -23 66.6756 -57.618
      vertex -23 66.9863 -57.3383
    endloop
  endfacet
  facet normal 1 -0 0
    outer loop
      vertex -18 67.4342 -2.5
      vertex -18 66.6756 -57.618
      vertex -18 67.4509 -2.5
    endloop
  endfacet
  facet normal 1 0 -0
    outer loop
      vertex -18 66.6756 -57.618
      vertex -18 67.4342 -2.5
      vertex -18 66.3135 -57.8271
    endloop
  endfacet
  facet normal 1 -0 0
    outer loop
      vertex -18 67.4158 -2.5
      vertex -18 66.3135 -57.8271
      vertex -18 67.4342 -2.5
    endloop
  endfacet
  facet normal 1 0 -0
    outer loop
      vertex -18 66.3135 -57.8271
      vertex -18 67.4158 -2.5
      vertex -18 65.9158 -57.9563
    endloop
  endfacet
  facet normal 0 0.309015 -0.951057
    outer loop
      vertex -23 65.9158 -57.9563
      vertex -18 66.3135 -57.8271
      vertex -18 65.9158 -57.9563
    endloop
  endfacet
  facet normal 0 0.309015 -0.951057
    outer loop
      vertex -18 66.3135 -57.8271
      vertex -23 65.9158 -57.9563
      vertex -23 66.3135 -57.8271
    endloop
  endfacet
  facet normal 1 -0 0
    outer loop
      vertex -18 67.4769 -2.5
      vertex -18 67.4021 -56.618
      vertex -18 67.4849 -2.5
    endloop
  endfacet
  facet normal 1 0 -0
    outer loop
      vertex -18 67.4021 -56.618
      vertex -18 67.4769 -2.5
      vertex -18 67.232 -57
    endloop
  endfacet
  facet normal 1 -0 0
    outer loop
      vertex -18 67.4654 -2.5
      vertex -18 67.232 -57
      vertex -18 67.4769 -2.5
    endloop
  endfacet
  facet normal 1 0 -0
    outer loop
      vertex -18 67.232 -57
      vertex -18 67.4654 -2.5
      vertex -18 66.9863 -57.3383
    endloop
  endfacet
  facet normal 1 0 0
    outer loop
      vertex -18 -67.4342 -2.5
      vertex -18 -66.6756 -57.618
      vertex -18 -66.3135 -57.8271
    endloop
  endfacet
  facet normal 1 0 0
    outer loop
      vertex -18 -66.6756 -57.618
      vertex -18 -67.4342 -2.5
      vertex -18 -67.4509 -2.5
    endloop
  endfacet
  facet normal 0 -0.978148 -0.207908
    outer loop
      vertex -23 -67.4021 -56.618
      vertex -18 -67.489 -56.2091
      vertex -23 -67.489 -56.2091
    endloop
  endfacet
  facet normal 0 -0.978148 -0.207908
    outer loop
      vertex -18 -67.489 -56.2091
      vertex -23 -67.4021 -56.618
      vertex -18 -67.4021 -56.618
    endloop
  endfacet
  facet normal 0 -0.500006 -0.866022
    outer loop
      vertex -23 -66.6756 -57.618
      vertex -18 -66.3135 -57.8271
      vertex -18 -66.6756 -57.618
    endloop
  endfacet
  facet normal -0 -0.500006 -0.866022
    outer loop
      vertex -18 -66.3135 -57.8271
      vertex -23 -66.6756 -57.618
      vertex -23 -66.3135 -57.8271
    endloop
  endfacet
  facet normal -1 -0 0
    outer loop
      vertex -23 -65.6538 -2.5
      vertex -23 -67.489 -56.2091
      vertex -23 -66.0364 -2.5
    endloop
  endfacet
  facet normal -1 -0 -0
    outer loop
      vertex -23 67.489 -2.5
      vertex -23 67.489 -56.2091
      vertex -23 67.4069 -2.5
    endloop
  endfacet
  facet normal -1 -0 -0
    outer loop
      vertex -23 66.7335 -2.5
      vertex -23 67.489 -56.2091
      vertex -23 66.4011 -2.5
    endloop
  endfacet
  facet normal 0 0.500006 -0.866022
    outer loop
      vertex -23 66.3135 -57.8271
      vertex -18 66.6756 -57.618
      vertex -18 66.3135 -57.8271
    endloop
  endfacet
  facet normal 0 0.500006 -0.866022
    outer loop
      vertex -18 66.6756 -57.618
      vertex -23 66.3135 -57.8271
      vertex -23 66.6756 -57.618
    endloop
  endfacet
  facet normal 1 0 0
    outer loop
      vertex -18 -67.4509 -2.5
      vertex -18 -66.9863 -57.3383
      vertex -18 -66.6756 -57.618
    endloop
  endfacet
  facet normal 1 0 0
    outer loop
      vertex -18 -66.9863 -57.3383
      vertex -18 -67.4509 -2.5
      vertex -18 -67.4654 -2.5
    endloop
  endfacet
  facet normal 0 -0.913541 -0.406746
    outer loop
      vertex -23 -67.232 -57
      vertex -18 -67.4021 -56.618
      vertex -23 -67.4021 -56.618
    endloop
  endfacet
  facet normal 0 -0.913541 -0.406746
    outer loop
      vertex -18 -67.4021 -56.618
      vertex -23 -67.232 -57
      vertex -18 -67.232 -57
    endloop
  endfacet
  facet normal -1 -0 0
    outer loop
      vertex -23 -67.2478 -2.5
      vertex -23 -67.489 -56.2091
      vertex -23 -67.4069 -2.5
    endloop
  endfacet
  facet normal -1 -0 0
    outer loop
      vertex -23 -67.4069 -2.5
      vertex -23 -67.489 -56.2091
      vertex -23 -67.489 -2.5
    endloop
  endfacet
  facet normal -1 -0 0
    outer loop
      vertex -23 -66.4011 -2.5
      vertex -23 -67.489 -56.2091
      vertex -23 -66.7335 -2.5
    endloop
  endfacet
  facet normal -1 -0 -0
    outer loop
      vertex -23 67.2478 -2.5
      vertex -23 67.489 -56.2091
      vertex -23 67.0198 -2.5
    endloop
  endfacet
  facet normal 1 0 0
    outer loop
      vertex -18 -67.4654 -2.5
      vertex -18 -67.232 -57
      vertex -18 -66.9863 -57.3383
    endloop
  endfacet
  facet normal 1 0 0
    outer loop
      vertex -18 -67.232 -57
      vertex -18 -67.4654 -2.5
      vertex -18 -67.4769 -2.5
    endloop
  endfacet
  facet normal 1 0 0
    outer loop
      vertex -18 -67.4769 -2.5
      vertex -18 -67.4021 -56.618
      vertex -18 -67.232 -57
    endloop
  endfacet
  facet normal 1 0 0
    outer loop
      vertex -18 -67.4021 -56.618
      vertex -18 -67.4769 -2.5
      vertex -18 -67.4849 -2.5
    endloop
  endfacet
  facet normal 1 0 0
    outer loop
      vertex -18 -67.489 -56.2091
      vertex -18 -67.4849 -2.5
      vertex -18 -67.489 -2.5
    endloop
  endfacet
  facet normal 1 0 0
    outer loop
      vertex -18 -67.4849 -2.5
      vertex -18 -67.489 -56.2091
      vertex -18 -67.4021 -56.618
    endloop
  endfacet
  facet normal -1 -0 0
    outer loop
      vertex -23 -67.0198 -2.5
      vertex -23 -67.489 -56.2091
      vertex -23 -67.2478 -2.5
    endloop
  endfacet
  facet normal -1 0 0
    outer loop
      vertex -23 67.232 -57
      vertex -23 67.489 -56.2091
      vertex -23 67.4021 -56.618
    endloop
  endfacet
  facet normal -1 0 0
    outer loop
      vertex -23 66.9863 -57.3383
      vertex -23 67.489 -56.2091
      vertex -23 67.232 -57
    endloop
  endfacet
  facet normal -1 0 0
    outer loop
      vertex -23 66.6756 -57.618
      vertex -23 67.489 -56.2091
      vertex -23 66.9863 -57.3383
    endloop
  endfacet
  facet normal -1 0 0
    outer loop
      vertex -23 66.3135 -57.8271
      vertex -23 67.489 -56.2091
      vertex -23 66.6756 -57.618
    endloop
  endfacet
  facet normal -1 0 0
    outer loop
      vertex -23 65.9158 -57.9563
      vertex -23 67.489 -56.2091
      vertex -23 66.3135 -57.8271
    endloop
  endfacet
  facet normal -1 0 0
    outer loop
      vertex -23 65.5 -58
      vertex -23 67.489 -56.2091
      vertex -23 65.9158 -57.9563
    endloop
  endfacet
  facet normal -1 0 0
    outer loop
      vertex -23 -65.5 -58
      vertex -23 67.489 -56.2091
      vertex -23 65.5 -58
    endloop
  endfacet
  facet normal -1 0 0
    outer loop
      vertex -23 -67.489 -56.2091
      vertex -23 -65.5 -58
      vertex -23 -65.9158 -57.9563
    endloop
  endfacet
  facet normal -1 0 0
    outer loop
      vertex -23 -67.489 -56.2091
      vertex -23 -65.9158 -57.9563
      vertex -23 -66.3135 -57.8271
    endloop
  endfacet
  facet normal -1 0 0
    outer loop
      vertex -23 -67.489 -56.2091
      vertex -23 -66.3135 -57.8271
      vertex -23 -66.6756 -57.618
    endloop
  endfacet
  facet normal -1 0 0
    outer loop
      vertex -23 -67.489 -56.2091
      vertex -23 -66.6756 -57.618
      vertex -23 -66.9863 -57.3383
    endloop
  endfacet
  facet normal -1 0 0
    outer loop
      vertex -23 -67.489 -56.2091
      vertex -23 -66.9863 -57.3383
      vertex -23 -67.232 -57
    endloop
  endfacet
  facet normal -1 0 0
    outer loop
      vertex -23 -67.489 -56.2091
      vertex -23 -67.232 -57
      vertex -23 -67.4021 -56.618
    endloop
  endfacet
  facet normal -1 0 0
    outer loop
      vertex -23 -65.5 -58
      vertex -23 -67.489 -56.2091
      vertex -23 67.489 -56.2091
    endloop
  endfacet
  facet normal 0 -0.80902 -0.587781
    outer loop
      vertex -23 -66.9863 -57.3383
      vertex -18 -67.232 -57
      vertex -23 -67.232 -57
    endloop
  endfacet
  facet normal 0 -0.80902 -0.587781
    outer loop
      vertex -18 -67.232 -57
      vertex -23 -66.9863 -57.3383
      vertex -18 -66.9863 -57.3383
    endloop
  endfacet
  facet normal 0 -0.309015 -0.951057
    outer loop
      vertex -23 -66.3135 -57.8271
      vertex -18 -65.9158 -57.9563
      vertex -18 -66.3135 -57.8271
    endloop
  endfacet
  facet normal -0 -0.309015 -0.951057
    outer loop
      vertex -18 -65.9158 -57.9563
      vertex -23 -66.3135 -57.8271
      vertex -23 -65.9158 -57.9563
    endloop
  endfacet
  facet normal 0 -0.669128 -0.743147
    outer loop
      vertex -23 -66.9863 -57.3383
      vertex -18 -66.6756 -57.618
      vertex -18 -66.9863 -57.3383
    endloop
  endfacet
  facet normal -0 -0.669128 -0.743147
    outer loop
      vertex -18 -66.6756 -57.618
      vertex -23 -66.9863 -57.3383
      vertex -23 -66.6756 -57.618
    endloop
  endfacet
endsolid OpenSCAD_Model
