solid OpenSCAD_Model
  facet normal 0.994522 0.104529 0
    outer loop
      vertex 60 65.5 2.5
      vertex 59.9563 65.9158 -2.5
      vertex 59.9563 65.9158 2.5
    endloop
  endfacet
  facet normal 0.994522 0.104529 0
    outer loop
      vertex 59.9563 65.9158 -2.5
      vertex 60 65.5 2.5
      vertex 60 65.5 -2.5
    endloop
  endfacet
  facet normal -1 0 0
    outer loop
      vertex -60 -65.5 -2.5
      vertex -60 65.5 2.5
      vertex -60 65.5 -2.5
    endloop
  endfacet
  facet normal -1 -0 0
    outer loop
      vertex -60 65.5 2.5
      vertex -60 -65.5 -2.5
      vertex -60 -65.5 2.5
    endloop
  endfacet
  facet normal -0.587781 0.80902 0
    outer loop
      vertex -59 67.232 -2.5
      vertex -59.3383 66.9863 2.5
      vertex -59 67.232 2.5
    endloop
  endfacet
  facet normal -0.587781 0.80902 0
    outer loop
      vertex -59.3383 66.9863 2.5
      vertex -59 67.232 -2.5
      vertex -59.3383 66.9863 -2.5
    endloop
  endfacet
  facet normal 0 0 1
    outer loop
      vertex 58.2091 67.489 2.5
      vertex 60 65.5 2.5
      vertex 59.9563 65.9158 2.5
    endloop
  endfacet
  facet normal 0 0 1
    outer loop
      vertex 60 65.5 2.5
      vertex 25.5 0 2.5
      vertex 60 -65.5 2.5
    endloop
  endfacet
  facet normal 0 0 1
    outer loop
      vertex 58.2091 67.489 2.5
      vertex 59.9563 65.9158 2.5
      vertex 59.8271 66.3135 2.5
    endloop
  endfacet
  facet normal -0 0 1
    outer loop
      vertex 25.4126 -0.831646 2.5
      vertex 60 -65.5 2.5
      vertex 25.5 0 2.5
    endloop
  endfacet
  facet normal 0 0 1
    outer loop
      vertex 58.2091 67.489 2.5
      vertex 59.8271 66.3135 2.5
      vertex 59.618 66.6756 2.5
    endloop
  endfacet
  facet normal -0 0 1
    outer loop
      vertex 25.1542 -1.62695 2.5
      vertex 60 -65.5 2.5
      vertex 25.4126 -0.831646 2.5
    endloop
  endfacet
  facet normal 0 0 1
    outer loop
      vertex 58.2091 67.489 2.5
      vertex 59.618 66.6756 2.5
      vertex 59.3383 66.9863 2.5
    endloop
  endfacet
  facet normal -0 0 1
    outer loop
      vertex 14.1542 -28.1269 2.5
      vertex 60 -65.5 2.5
      vertex 25.1542 -1.62695 2.5
    endloop
  endfacet
  facet normal 0 0 1
    outer loop
      vertex 58.2091 67.489 2.5
      vertex 59.3383 66.9863 2.5
      vertex 59 67.232 2.5
    endloop
  endfacet
  facet normal -0 0 1
    outer loop
      vertex 13.7361 -28.8511 2.5
      vertex 60 -65.5 2.5
      vertex 14.1542 -28.1269 2.5
    endloop
  endfacet
  facet normal 0 0 1
    outer loop
      vertex 58.2091 67.489 2.5
      vertex 59 67.232 2.5
      vertex 58.618 67.4021 2.5
    endloop
  endfacet
  facet normal 0 -0 1
    outer loop
      vertex 58.2091 -67.489 2.5
      vertex 60 -65.5 2.5
      vertex 13.7361 -28.8511 2.5
    endloop
  endfacet
  facet normal 0 0 1
    outer loop
      vertex 60 65.5 2.5
      vertex 58.2091 67.489 2.5
      vertex 13.7361 28.8511 2.5
    endloop
  endfacet
  facet normal 0 0 1
    outer loop
      vertex 59.9563 -65.9158 2.5
      vertex 58.2091 -67.489 2.5
      vertex 59.8271 -66.3135 2.5
    endloop
  endfacet
  facet normal 0 0 1
    outer loop
      vertex 59.8271 -66.3135 2.5
      vertex 58.2091 -67.489 2.5
      vertex 59.618 -66.6756 2.5
    endloop
  endfacet
  facet normal 0 0 1
    outer loop
      vertex 60 65.5 2.5
      vertex 25.4126 0.831646 2.5
      vertex 25.5 0 2.5
    endloop
  endfacet
  facet normal 0 0 1
    outer loop
      vertex 60 65.5 2.5
      vertex 25.1542 1.62695 2.5
      vertex 25.4126 0.831646 2.5
    endloop
  endfacet
  facet normal 0 0 1
    outer loop
      vertex 60 65.5 2.5
      vertex 14.1542 28.1269 2.5
      vertex 25.1542 1.62695 2.5
    endloop
  endfacet
  facet normal 0 0 1
    outer loop
      vertex 60 65.5 2.5
      vertex 13.7361 28.8511 2.5
      vertex 14.1542 28.1269 2.5
    endloop
  endfacet
  facet normal 0 0 1
    outer loop
      vertex 58.2091 67.489 2.5
      vertex 13.1765 29.4726 2.5
      vertex 13.7361 28.8511 2.5
    endloop
  endfacet
  facet normal 0 0 1
    outer loop
      vertex 58.2091 67.489 2.5
      vertex 12.5 29.9641 2.5
      vertex 13.1765 29.4726 2.5
    endloop
  endfacet
  facet normal 0 0 1
    outer loop
      vertex 58.2091 67.489 2.5
      vertex 11.7361 30.3042 2.5
      vertex 12.5 29.9641 2.5
    endloop
  endfacet
  facet normal 0 0 1
    outer loop
      vertex 58.2091 67.489 2.5
      vertex 10.9181 30.4781 2.5
      vertex 11.7361 30.3042 2.5
    endloop
  endfacet
  facet normal 0 0 1
    outer loop
      vertex 58.2091 67.489 2.5
      vertex -10.9181 30.4781 2.5
      vertex 10.9181 30.4781 2.5
    endloop
  endfacet
  facet normal -0 0 1
    outer loop
      vertex -58.2091 67.489 2.5
      vertex -10.9181 30.4781 2.5
      vertex 58.2091 67.489 2.5
    endloop
  endfacet
  facet normal 0 0 1
    outer loop
      vertex -10.9181 30.4781 2.5
      vertex -58.2091 67.489 2.5
      vertex -11.7361 30.3042 2.5
    endloop
  endfacet
  facet normal 0 0 1
    outer loop
      vertex -25.1542 1.62695 2.5
      vertex -60 65.5 2.5
      vertex -25.4126 0.831646 2.5
    endloop
  endfacet
  facet normal 0 0 1
    outer loop
      vertex -14.1542 28.1269 2.5
      vertex -60 65.5 2.5
      vertex -25.1542 1.62695 2.5
    endloop
  endfacet
  facet normal 0 0 1
    outer loop
      vertex -13.7361 28.8511 2.5
      vertex -60 65.5 2.5
      vertex -14.1542 28.1269 2.5
    endloop
  endfacet
  facet normal -0 0 1
    outer loop
      vertex -60 65.5 2.5
      vertex -13.7361 28.8511 2.5
      vertex -58.2091 67.489 2.5
    endloop
  endfacet
  facet normal 0 0 1
    outer loop
      vertex -13.1765 29.4726 2.5
      vertex -58.2091 67.489 2.5
      vertex -13.7361 28.8511 2.5
    endloop
  endfacet
  facet normal 0 0 1
    outer loop
      vertex -12.5 29.9641 2.5
      vertex -58.2091 67.489 2.5
      vertex -13.1765 29.4726 2.5
    endloop
  endfacet
  facet normal 0 0 1
    outer loop
      vertex -11.7361 30.3042 2.5
      vertex -58.2091 67.489 2.5
      vertex -12.5 29.9641 2.5
    endloop
  endfacet
  facet normal 0 0 1
    outer loop
      vertex 59.618 -66.6756 2.5
      vertex 58.2091 -67.489 2.5
      vertex 59.3383 -66.9863 2.5
    endloop
  endfacet
  facet normal 0 0 1
    outer loop
      vertex 59.3383 -66.9863 2.5
      vertex 58.2091 -67.489 2.5
      vertex 59 -67.232 2.5
    endloop
  endfacet
  facet normal 0 0 1
    outer loop
      vertex 59 -67.232 2.5
      vertex 58.2091 -67.489 2.5
      vertex 58.618 -67.4021 2.5
    endloop
  endfacet
  facet normal 0 0 1
    outer loop
      vertex 60 -65.5 2.5
      vertex 58.2091 -67.489 2.5
      vertex 59.9563 -65.9158 2.5
    endloop
  endfacet
  facet normal -0 0 1
    outer loop
      vertex 13.1765 -29.4726 2.5
      vertex 58.2091 -67.489 2.5
      vertex 13.7361 -28.8511 2.5
    endloop
  endfacet
  facet normal -0 0 1
    outer loop
      vertex 12.5 -29.9641 2.5
      vertex 58.2091 -67.489 2.5
      vertex 13.1765 -29.4726 2.5
    endloop
  endfacet
  facet normal -0 0 1
    outer loop
      vertex 11.7361 -30.3042 2.5
      vertex 58.2091 -67.489 2.5
      vertex 12.5 -29.9641 2.5
    endloop
  endfacet
  facet normal -0 0 1
    outer loop
      vertex 10.9181 -30.4781 2.5
      vertex 58.2091 -67.489 2.5
      vertex 11.7361 -30.3042 2.5
    endloop
  endfacet
  facet normal -0 0 1
    outer loop
      vertex -10.9181 -30.4781 2.5
      vertex 58.2091 -67.489 2.5
      vertex 10.9181 -30.4781 2.5
    endloop
  endfacet
  facet normal 0 0 1
    outer loop
      vertex -58.2091 -67.489 2.5
      vertex -10.9181 -30.4781 2.5
      vertex -11.7361 -30.3042 2.5
    endloop
  endfacet
  facet normal 0 0 1
    outer loop
      vertex -58.2091 -67.489 2.5
      vertex -11.7361 -30.3042 2.5
      vertex -12.5 -29.9641 2.5
    endloop
  endfacet
  facet normal 0 0 1
    outer loop
      vertex -25.4126 0.831646 2.5
      vertex -60 65.5 2.5
      vertex -25.5 0 2.5
    endloop
  endfacet
  facet normal 0 0 1
    outer loop
      vertex -60 -65.5 2.5
      vertex -25.5 0 2.5
      vertex -60 65.5 2.5
    endloop
  endfacet
  facet normal 0 0 1
    outer loop
      vertex -25.5 0 2.5
      vertex -60 -65.5 2.5
      vertex -25.4126 -0.831646 2.5
    endloop
  endfacet
  facet normal 0 0 1
    outer loop
      vertex -10.9181 -30.4781 2.5
      vertex -58.2091 -67.489 2.5
      vertex 58.2091 -67.489 2.5
    endloop
  endfacet
  facet normal 0 0 1
    outer loop
      vertex -13.1765 -29.4726 2.5
      vertex -58.2091 -67.489 2.5
      vertex -12.5 -29.9641 2.5
    endloop
  endfacet
  facet normal 0 0 1
    outer loop
      vertex -13.7361 -28.8511 2.5
      vertex -58.2091 -67.489 2.5
      vertex -13.1765 -29.4726 2.5
    endloop
  endfacet
  facet normal 0 0 1
    outer loop
      vertex -60 -65.5 2.5
      vertex -13.7361 -28.8511 2.5
      vertex -14.1542 -28.1269 2.5
    endloop
  endfacet
  facet normal 0 0 1
    outer loop
      vertex -25.4126 -0.831646 2.5
      vertex -60 -65.5 2.5
      vertex -25.1542 -1.62695 2.5
    endloop
  endfacet
  facet normal 0 0 1
    outer loop
      vertex -60 65.5 2.5
      vertex -58.2091 67.489 2.5
      vertex -58.618 67.4021 2.5
    endloop
  endfacet
  facet normal 0 0 1
    outer loop
      vertex -25.1542 -1.62695 2.5
      vertex -60 -65.5 2.5
      vertex -14.1542 -28.1269 2.5
    endloop
  endfacet
  facet normal 0 0 1
    outer loop
      vertex -60 65.5 2.5
      vertex -58.618 67.4021 2.5
      vertex -59 67.232 2.5
    endloop
  endfacet
  facet normal 0 0 1
    outer loop
      vertex -13.7361 -28.8511 2.5
      vertex -60 -65.5 2.5
      vertex -58.2091 -67.489 2.5
    endloop
  endfacet
  facet normal 0 0 1
    outer loop
      vertex -60 65.5 2.5
      vertex -59 67.232 2.5
      vertex -59.3383 66.9863 2.5
    endloop
  endfacet
  facet normal 0 0 1
    outer loop
      vertex -58.2091 -67.489 2.5
      vertex -60 -65.5 2.5
      vertex -58.618 -67.4021 2.5
    endloop
  endfacet
  facet normal 0 0 1
    outer loop
      vertex -60 65.5 2.5
      vertex -59.3383 66.9863 2.5
      vertex -59.618 66.6756 2.5
    endloop
  endfacet
  facet normal 0 0 1
    outer loop
      vertex -58.618 -67.4021 2.5
      vertex -60 -65.5 2.5
      vertex -59 -67.232 2.5
    endloop
  endfacet
  facet normal 0 0 1
    outer loop
      vertex -60 65.5 2.5
      vertex -59.618 66.6756 2.5
      vertex -59.8271 66.3135 2.5
    endloop
  endfacet
  facet normal 0 0 1
    outer loop
      vertex -59 -67.232 2.5
      vertex -60 -65.5 2.5
      vertex -59.3383 -66.9863 2.5
    endloop
  endfacet
  facet normal 0 0 1
    outer loop
      vertex -60 65.5 2.5
      vertex -59.8271 66.3135 2.5
      vertex -59.9563 65.9158 2.5
    endloop
  endfacet
  facet normal 0 0 1
    outer loop
      vertex -59.3383 -66.9863 2.5
      vertex -60 -65.5 2.5
      vertex -59.618 -66.6756 2.5
    endloop
  endfacet
  facet normal 0 0 1
    outer loop
      vertex -59.618 -66.6756 2.5
      vertex -60 -65.5 2.5
      vertex -59.8271 -66.3135 2.5
    endloop
  endfacet
  facet normal 0 0 1
    outer loop
      vertex -59.8271 -66.3135 2.5
      vertex -60 -65.5 2.5
      vertex -59.9563 -65.9158 2.5
    endloop
  endfacet
  facet normal 0.587781 -0.80902 0
    outer loop
      vertex 59 -67.232 -2.5
      vertex 59.3383 -66.9863 2.5
      vertex 59 -67.232 2.5
    endloop
  endfacet
  facet normal 0.587781 -0.80902 0
    outer loop
      vertex 59.3383 -66.9863 2.5
      vertex 59 -67.232 -2.5
      vertex 59.3383 -66.9863 -2.5
    endloop
  endfacet
  facet normal 0.207908 0.978148 -0
    outer loop
      vertex 58.618 67.4021 -2.5
      vertex 58.2091 67.489 2.5
      vertex 58.618 67.4021 2.5
    endloop
  endfacet
  facet normal 0.207908 0.978148 0
    outer loop
      vertex 58.2091 67.489 2.5
      vertex 58.618 67.4021 -2.5
      vertex 58.2091 67.489 -2.5
    endloop
  endfacet
  facet normal 0 1 -0
    outer loop
      vertex 58.2091 67.489 -2.5
      vertex -58.2091 67.489 2.5
      vertex 58.2091 67.489 2.5
    endloop
  endfacet
  facet normal 0 1 0
    outer loop
      vertex -58.2091 67.489 2.5
      vertex 58.2091 67.489 -2.5
      vertex -58.2091 67.489 -2.5
    endloop
  endfacet
  facet normal -0.994522 0.104529 0
    outer loop
      vertex -60 65.5 -2.5
      vertex -59.9563 65.9158 2.5
      vertex -59.9563 65.9158 -2.5
    endloop
  endfacet
  facet normal -0.994522 0.104529 0
    outer loop
      vertex -59.9563 65.9158 2.5
      vertex -60 65.5 -2.5
      vertex -60 65.5 2.5
    endloop
  endfacet
  facet normal -0.866022 0.500006 0
    outer loop
      vertex -59.8271 66.3135 -2.5
      vertex -59.618 66.6756 2.5
      vertex -59.618 66.6756 -2.5
    endloop
  endfacet
  facet normal -0.866022 0.500006 0
    outer loop
      vertex -59.618 66.6756 2.5
      vertex -59.8271 66.3135 -2.5
      vertex -59.8271 66.3135 2.5
    endloop
  endfacet
  facet normal 1 -0 0
    outer loop
      vertex 60 -65.5 2.5
      vertex 60 65.5 -2.5
      vertex 60 65.5 2.5
    endloop
  endfacet
  facet normal 1 0 0
    outer loop
      vertex 60 65.5 -2.5
      vertex 60 -65.5 2.5
      vertex 60 -65.5 -2.5
    endloop
  endfacet
  facet normal 0.994522 -0.104529 0
    outer loop
      vertex 59.9563 -65.9158 2.5
      vertex 60 -65.5 -2.5
      vertex 60 -65.5 2.5
    endloop
  endfacet
  facet normal 0.994522 -0.104529 0
    outer loop
      vertex 60 -65.5 -2.5
      vertex 59.9563 -65.9158 2.5
      vertex 59.9563 -65.9158 -2.5
    endloop
  endfacet
  facet normal 0 -1 0
    outer loop
      vertex -58.2091 -67.489 -2.5
      vertex 58.2091 -67.489 2.5
      vertex -58.2091 -67.489 2.5
    endloop
  endfacet
  facet normal 0 -1 -0
    outer loop
      vertex 58.2091 -67.489 2.5
      vertex -58.2091 -67.489 -2.5
      vertex 58.2091 -67.489 -2.5
    endloop
  endfacet
  facet normal 0 0 -1
    outer loop
      vertex 58.2091 -67.489 -2.5
      vertex 60 -65.5 -2.5
      vertex 59.9563 -65.9158 -2.5
    endloop
  endfacet
  facet normal 0 0 -1
    outer loop
      vertex 60 -65.5 -2.5
      vertex 15.5 -21.5 -2.5
      vertex 60 65.5 -2.5
    endloop
  endfacet
  facet normal 0 0 -1
    outer loop
      vertex 58.2091 -67.489 -2.5
      vertex 59.9563 -65.9158 -2.5
      vertex 59.8271 -66.3135 -2.5
    endloop
  endfacet
  facet normal 0 0 -1
    outer loop
      vertex 15.5 21.5 -2.5
      vertex 60 65.5 -2.5
      vertex 15.5 -21.5 -2.5
    endloop
  endfacet
  facet normal 0 0 -1
    outer loop
      vertex 58.2091 -67.489 -2.5
      vertex 59.8271 -66.3135 -2.5
      vertex 59.618 -66.6756 -2.5
    endloop
  endfacet
  facet normal 0 0 -1
    outer loop
      vertex 15.4126 22.3316 -2.5
      vertex 60 65.5 -2.5
      vertex 15.5 21.5 -2.5
    endloop
  endfacet
  facet normal 0 0 -1
    outer loop
      vertex 58.2091 -67.489 -2.5
      vertex 59.618 -66.6756 -2.5
      vertex 59.3383 -66.9863 -2.5
    endloop
  endfacet
  facet normal 0 0 -1
    outer loop
      vertex 15.1542 23.1269 -2.5
      vertex 60 65.5 -2.5
      vertex 15.4126 22.3316 -2.5
    endloop
  endfacet
  facet normal 0 0 -1
    outer loop
      vertex 58.2091 -67.489 -2.5
      vertex 59.3383 -66.9863 -2.5
      vertex 59 -67.232 -2.5
    endloop
  endfacet
  facet normal 0 0 -1
    outer loop
      vertex 14.7361 23.8511 -2.5
      vertex 60 65.5 -2.5
      vertex 15.1542 23.1269 -2.5
    endloop
  endfacet
  facet normal 0 0 -1
    outer loop
      vertex 58.2091 -67.489 -2.5
      vertex 59 -67.232 -2.5
      vertex 58.618 -67.4021 -2.5
    endloop
  endfacet
  facet normal 0 0 -1
    outer loop
      vertex 14.1765 24.4726 -2.5
      vertex 60 65.5 -2.5
      vertex 14.7361 23.8511 -2.5
    endloop
  endfacet
  facet normal 0 0 -1
    outer loop
      vertex 14.1765 -24.4726 -2.5
      vertex 60 -65.5 -2.5
      vertex 58.2091 -67.489 -2.5
    endloop
  endfacet
  facet normal 0 0 -1
    outer loop
      vertex 60 65.5 -2.5
      vertex 58.2091 67.489 -2.5
      vertex 59.9563 65.9158 -2.5
    endloop
  endfacet
  facet normal 0 0 -1
    outer loop
      vertex 59.8271 66.3135 -2.5
      vertex 58.2091 67.489 -2.5
      vertex 59.618 66.6756 -2.5
    endloop
  endfacet
  facet normal 0 0 -1
    outer loop
      vertex 60 -65.5 -2.5
      vertex 15.4126 -22.3316 -2.5
      vertex 15.5 -21.5 -2.5
    endloop
  endfacet
  facet normal 0 0 -1
    outer loop
      vertex 60 -65.5 -2.5
      vertex 15.1542 -23.1269 -2.5
      vertex 15.4126 -22.3316 -2.5
    endloop
  endfacet
  facet normal 0 0 -1
    outer loop
      vertex 60 -65.5 -2.5
      vertex 14.7361 -23.8511 -2.5
      vertex 15.1542 -23.1269 -2.5
    endloop
  endfacet
  facet normal 0 0 -1
    outer loop
      vertex 60 -65.5 -2.5
      vertex 14.1765 -24.4726 -2.5
      vertex 14.7361 -23.8511 -2.5
    endloop
  endfacet
  facet normal 0 0 -1
    outer loop
      vertex 58.2091 -67.489 -2.5
      vertex 13.5 -24.9641 -2.5
      vertex 14.1765 -24.4726 -2.5
    endloop
  endfacet
  facet normal 0 0 -1
    outer loop
      vertex 58.2091 -67.489 -2.5
      vertex 12.7361 -25.3042 -2.5
      vertex 13.5 -24.9641 -2.5
    endloop
  endfacet
  facet normal 0 0 -1
    outer loop
      vertex 58.2091 -67.489 -2.5
      vertex 11.9181 -25.4781 -2.5
      vertex 12.7361 -25.3042 -2.5
    endloop
  endfacet
  facet normal 0 0 -1
    outer loop
      vertex 58.2091 -67.489 -2.5
      vertex -11.9181 -25.4781 -2.5
      vertex 11.9181 -25.4781 -2.5
    endloop
  endfacet
  facet normal 0 0 -1
    outer loop
      vertex -58.2091 -67.489 -2.5
      vertex -11.9181 -25.4781 -2.5
      vertex 58.2091 -67.489 -2.5
    endloop
  endfacet
  facet normal -0 0 -1
    outer loop
      vertex -11.9181 -25.4781 -2.5
      vertex -58.2091 -67.489 -2.5
      vertex -12.7361 -25.3042 -2.5
    endloop
  endfacet
  facet normal -0 0 -1
    outer loop
      vertex -15.4126 -22.3316 -2.5
      vertex -60 -65.5 -2.5
      vertex -15.5 -21.5 -2.5
    endloop
  endfacet
  facet normal -0 0 -1
    outer loop
      vertex -15.1542 -23.1269 -2.5
      vertex -60 -65.5 -2.5
      vertex -15.4126 -22.3316 -2.5
    endloop
  endfacet
  facet normal -0 0 -1
    outer loop
      vertex -14.7361 -23.8511 -2.5
      vertex -60 -65.5 -2.5
      vertex -15.1542 -23.1269 -2.5
    endloop
  endfacet
  facet normal -0 0 -1
    outer loop
      vertex -14.1765 -24.4726 -2.5
      vertex -60 -65.5 -2.5
      vertex -14.7361 -23.8511 -2.5
    endloop
  endfacet
  facet normal 0 0 -1
    outer loop
      vertex -60 -65.5 -2.5
      vertex -14.1765 -24.4726 -2.5
      vertex -58.2091 -67.489 -2.5
    endloop
  endfacet
  facet normal -0 0 -1
    outer loop
      vertex -13.5 -24.9641 -2.5
      vertex -58.2091 -67.489 -2.5
      vertex -14.1765 -24.4726 -2.5
    endloop
  endfacet
  facet normal -0 0 -1
    outer loop
      vertex -12.7361 -25.3042 -2.5
      vertex -58.2091 -67.489 -2.5
      vertex -13.5 -24.9641 -2.5
    endloop
  endfacet
  facet normal 0 0 -1
    outer loop
      vertex 59.618 66.6756 -2.5
      vertex 58.2091 67.489 -2.5
      vertex 59.3383 66.9863 -2.5
    endloop
  endfacet
  facet normal 0 0 -1
    outer loop
      vertex 59 67.232 -2.5
      vertex 58.2091 67.489 -2.5
      vertex 58.618 67.4021 -2.5
    endloop
  endfacet
  facet normal 0 0 -1
    outer loop
      vertex 59.3383 66.9863 -2.5
      vertex 58.2091 67.489 -2.5
      vertex 59 67.232 -2.5
    endloop
  endfacet
  facet normal 0 0 -1
    outer loop
      vertex 59.9563 65.9158 -2.5
      vertex 58.2091 67.489 -2.5
      vertex 59.8271 66.3135 -2.5
    endloop
  endfacet
  facet normal -0 0 -1
    outer loop
      vertex 60 65.5 -2.5
      vertex 14.1765 24.4726 -2.5
      vertex 58.2091 67.489 -2.5
    endloop
  endfacet
  facet normal 0 0 -1
    outer loop
      vertex 13.5 24.9641 -2.5
      vertex 58.2091 67.489 -2.5
      vertex 14.1765 24.4726 -2.5
    endloop
  endfacet
  facet normal 0 0 -1
    outer loop
      vertex 12.7361 25.3042 -2.5
      vertex 58.2091 67.489 -2.5
      vertex 13.5 24.9641 -2.5
    endloop
  endfacet
  facet normal 0 0 -1
    outer loop
      vertex 11.9181 25.4781 -2.5
      vertex 58.2091 67.489 -2.5
      vertex 12.7361 25.3042 -2.5
    endloop
  endfacet
  facet normal 0 0 -1
    outer loop
      vertex -11.9181 25.4781 -2.5
      vertex 58.2091 67.489 -2.5
      vertex 11.9181 25.4781 -2.5
    endloop
  endfacet
  facet normal 0 0 -1
    outer loop
      vertex -58.2091 67.489 -2.5
      vertex -11.9181 25.4781 -2.5
      vertex -12.7361 25.3042 -2.5
    endloop
  endfacet
  facet normal 0 0 -1
    outer loop
      vertex -58.2091 67.489 -2.5
      vertex -12.7361 25.3042 -2.5
      vertex -13.5 24.9641 -2.5
    endloop
  endfacet
  facet normal -0 0 -1
    outer loop
      vertex -15.5 -21.5 -2.5
      vertex -60 -65.5 -2.5
      vertex -15.5 21.5 -2.5
    endloop
  endfacet
  facet normal 0 0 -1
    outer loop
      vertex -60 65.5 -2.5
      vertex -15.5 21.5 -2.5
      vertex -60 -65.5 -2.5
    endloop
  endfacet
  facet normal 0 0 -1
    outer loop
      vertex -11.9181 25.4781 -2.5
      vertex -58.2091 67.489 -2.5
      vertex 58.2091 67.489 -2.5
    endloop
  endfacet
  facet normal 0 0 -1
    outer loop
      vertex -14.1765 24.4726 -2.5
      vertex -58.2091 67.489 -2.5
      vertex -13.5 24.9641 -2.5
    endloop
  endfacet
  facet normal 0 0 -1
    outer loop
      vertex -60 65.5 -2.5
      vertex -14.1765 24.4726 -2.5
      vertex -14.7361 23.8511 -2.5
    endloop
  endfacet
  facet normal 0 0 -1
    outer loop
      vertex -60 65.5 -2.5
      vertex -14.7361 23.8511 -2.5
      vertex -15.1542 23.1269 -2.5
    endloop
  endfacet
  facet normal 0 0 -1
    outer loop
      vertex -15.5 21.5 -2.5
      vertex -60 65.5 -2.5
      vertex -15.4126 22.3316 -2.5
    endloop
  endfacet
  facet normal 0 0 -1
    outer loop
      vertex -60 -65.5 -2.5
      vertex -58.2091 -67.489 -2.5
      vertex -58.618 -67.4021 -2.5
    endloop
  endfacet
  facet normal 0 0 -1
    outer loop
      vertex -15.4126 22.3316 -2.5
      vertex -60 65.5 -2.5
      vertex -15.1542 23.1269 -2.5
    endloop
  endfacet
  facet normal 0 0 -1
    outer loop
      vertex -60 -65.5 -2.5
      vertex -58.618 -67.4021 -2.5
      vertex -59 -67.232 -2.5
    endloop
  endfacet
  facet normal 0 0 -1
    outer loop
      vertex -14.1765 24.4726 -2.5
      vertex -60 65.5 -2.5
      vertex -58.2091 67.489 -2.5
    endloop
  endfacet
  facet normal 0 0 -1
    outer loop
      vertex -60 -65.5 -2.5
      vertex -59 -67.232 -2.5
      vertex -59.3383 -66.9863 -2.5
    endloop
  endfacet
  facet normal 0 0 -1
    outer loop
      vertex -58.2091 67.489 -2.5
      vertex -60 65.5 -2.5
      vertex -58.618 67.4021 -2.5
    endloop
  endfacet
  facet normal 0 0 -1
    outer loop
      vertex -60 -65.5 -2.5
      vertex -59.3383 -66.9863 -2.5
      vertex -59.618 -66.6756 -2.5
    endloop
  endfacet
  facet normal 0 0 -1
    outer loop
      vertex -58.618 67.4021 -2.5
      vertex -60 65.5 -2.5
      vertex -59 67.232 -2.5
    endloop
  endfacet
  facet normal 0 0 -1
    outer loop
      vertex -60 -65.5 -2.5
      vertex -59.618 -66.6756 -2.5
      vertex -59.8271 -66.3135 -2.5
    endloop
  endfacet
  facet normal 0 0 -1
    outer loop
      vertex -59 67.232 -2.5
      vertex -60 65.5 -2.5
      vertex -59.3383 66.9863 -2.5
    endloop
  endfacet
  facet normal 0 0 -1
    outer loop
      vertex -60 -65.5 -2.5
      vertex -59.8271 -66.3135 -2.5
      vertex -59.9563 -65.9158 -2.5
    endloop
  endfacet
  facet normal 0 0 -1
    outer loop
      vertex -59.3383 66.9863 -2.5
      vertex -60 65.5 -2.5
      vertex -59.618 66.6756 -2.5
    endloop
  endfacet
  facet normal 0 0 -1
    outer loop
      vertex -59.618 66.6756 -2.5
      vertex -60 65.5 -2.5
      vertex -59.8271 66.3135 -2.5
    endloop
  endfacet
  facet normal 0 0 -1
    outer loop
      vertex -59.8271 66.3135 -2.5
      vertex -60 65.5 -2.5
      vertex -59.9563 65.9158 -2.5
    endloop
  endfacet
  facet normal 0.743147 0.669128 0
    outer loop
      vertex 59.618 66.6756 2.5
      vertex 59.3383 66.9863 -2.5
      vertex 59.3383 66.9863 2.5
    endloop
  endfacet
  facet normal 0.743147 0.669128 0
    outer loop
      vertex 59.3383 66.9863 -2.5
      vertex 59.618 66.6756 2.5
      vertex 59.618 66.6756 -2.5
    endloop
  endfacet
  facet normal -0.207908 0.978148 0
    outer loop
      vertex -58.2091 67.489 -2.5
      vertex -58.618 67.4021 2.5
      vertex -58.2091 67.489 2.5
    endloop
  endfacet
  facet normal -0.207908 0.978148 0
    outer loop
      vertex -58.618 67.4021 2.5
      vertex -58.2091 67.489 -2.5
      vertex -58.618 67.4021 -2.5
    endloop
  endfacet
  facet normal -0.951057 0.309015 0
    outer loop
      vertex -59.9563 65.9158 -2.5
      vertex -59.8271 66.3135 2.5
      vertex -59.8271 66.3135 -2.5
    endloop
  endfacet
  facet normal -0.951057 0.309015 0
    outer loop
      vertex -59.8271 66.3135 2.5
      vertex -59.9563 65.9158 -2.5
      vertex -59.9563 65.9158 2.5
    endloop
  endfacet
  facet normal -0.743147 0.669128 0
    outer loop
      vertex -59.618 66.6756 -2.5
      vertex -59.3383 66.9863 2.5
      vertex -59.3383 66.9863 -2.5
    endloop
  endfacet
  facet normal -0.743147 0.669128 0
    outer loop
      vertex -59.3383 66.9863 2.5
      vertex -59.618 66.6756 -2.5
      vertex -59.618 66.6756 2.5
    endloop
  endfacet
  facet normal 0.743147 -0.669128 0
    outer loop
      vertex 59.3383 -66.9863 2.5
      vertex 59.618 -66.6756 -2.5
      vertex 59.618 -66.6756 2.5
    endloop
  endfacet
  facet normal 0.743147 -0.669128 0
    outer loop
      vertex 59.618 -66.6756 -2.5
      vertex 59.3383 -66.9863 2.5
      vertex 59.3383 -66.9863 -2.5
    endloop
  endfacet
  facet normal 0.951057 -0.309015 0
    outer loop
      vertex 59.8271 -66.3135 2.5
      vertex 59.9563 -65.9158 -2.5
      vertex 59.9563 -65.9158 2.5
    endloop
  endfacet
  facet normal 0.951057 -0.309015 0
    outer loop
      vertex 59.9563 -65.9158 -2.5
      vertex 59.8271 -66.3135 2.5
      vertex 59.8271 -66.3135 -2.5
    endloop
  endfacet
  facet normal 0.207908 -0.978148 0
    outer loop
      vertex 58.2091 -67.489 -2.5
      vertex 58.618 -67.4021 2.5
      vertex 58.2091 -67.489 2.5
    endloop
  endfacet
  facet normal 0.207908 -0.978148 0
    outer loop
      vertex 58.618 -67.4021 2.5
      vertex 58.2091 -67.489 -2.5
      vertex 58.618 -67.4021 -2.5
    endloop
  endfacet
  facet normal -0.994522 -0.104529 0
    outer loop
      vertex -59.9563 -65.9158 -2.5
      vertex -60 -65.5 2.5
      vertex -60 -65.5 -2.5
    endloop
  endfacet
  facet normal -0.994522 -0.104529 0
    outer loop
      vertex -60 -65.5 2.5
      vertex -59.9563 -65.9158 -2.5
      vertex -59.9563 -65.9158 2.5
    endloop
  endfacet
  facet normal 0.866022 0.500006 0
    outer loop
      vertex 59.8271 66.3135 2.5
      vertex 59.618 66.6756 -2.5
      vertex 59.618 66.6756 2.5
    endloop
  endfacet
  facet normal 0.866022 0.500006 0
    outer loop
      vertex 59.618 66.6756 -2.5
      vertex 59.8271 66.3135 2.5
      vertex 59.8271 66.3135 -2.5
    endloop
  endfacet
  facet normal 0.951057 0.309015 0
    outer loop
      vertex 59.9563 65.9158 2.5
      vertex 59.8271 66.3135 -2.5
      vertex 59.8271 66.3135 2.5
    endloop
  endfacet
  facet normal 0.951057 0.309015 0
    outer loop
      vertex 59.8271 66.3135 -2.5
      vertex 59.9563 65.9158 2.5
      vertex 59.9563 65.9158 -2.5
    endloop
  endfacet
  facet normal 0.406746 0.913541 -0
    outer loop
      vertex 59 67.232 -2.5
      vertex 58.618 67.4021 2.5
      vertex 59 67.232 2.5
    endloop
  endfacet
  facet normal 0.406746 0.913541 0
    outer loop
      vertex 58.618 67.4021 2.5
      vertex 59 67.232 -2.5
      vertex 58.618 67.4021 -2.5
    endloop
  endfacet
  facet normal 0.587781 0.80902 -0
    outer loop
      vertex 59.3383 66.9863 -2.5
      vertex 59 67.232 2.5
      vertex 59.3383 66.9863 2.5
    endloop
  endfacet
  facet normal 0.587781 0.80902 0
    outer loop
      vertex 59 67.232 2.5
      vertex 59.3383 66.9863 -2.5
      vertex 59 67.232 -2.5
    endloop
  endfacet
  facet normal -0.406746 0.913541 0
    outer loop
      vertex -58.618 67.4021 -2.5
      vertex -59 67.232 2.5
      vertex -58.618 67.4021 2.5
    endloop
  endfacet
  facet normal -0.406746 0.913541 0
    outer loop
      vertex -59 67.232 2.5
      vertex -58.618 67.4021 -2.5
      vertex -59 67.232 -2.5
    endloop
  endfacet
  facet normal 0.866022 -0.500006 0
    outer loop
      vertex 59.618 -66.6756 2.5
      vertex 59.8271 -66.3135 -2.5
      vertex 59.8271 -66.3135 2.5
    endloop
  endfacet
  facet normal 0.866022 -0.500006 0
    outer loop
      vertex 59.8271 -66.3135 -2.5
      vertex 59.618 -66.6756 2.5
      vertex 59.618 -66.6756 -2.5
    endloop
  endfacet
  facet normal 0.406746 -0.913541 0
    outer loop
      vertex 58.618 -67.4021 -2.5
      vertex 59 -67.232 2.5
      vertex 58.618 -67.4021 2.5
    endloop
  endfacet
  facet normal 0.406746 -0.913541 0
    outer loop
      vertex 59 -67.232 2.5
      vertex 58.618 -67.4021 -2.5
      vertex 59 -67.232 -2.5
    endloop
  endfacet
  facet normal -0.743147 -0.669128 0
    outer loop
      vertex -59.3383 -66.9863 -2.5
      vertex -59.618 -66.6756 2.5
      vertex -59.618 -66.6756 -2.5
    endloop
  endfacet
  facet normal -0.743147 -0.669128 0
    outer loop
      vertex -59.618 -66.6756 2.5
      vertex -59.3383 -66.9863 -2.5
      vertex -59.3383 -66.9863 2.5
    endloop
  endfacet
  facet normal -0.406746 -0.913541 0
    outer loop
      vertex -59 -67.232 -2.5
      vertex -58.618 -67.4021 2.5
      vertex -59 -67.232 2.5
    endloop
  endfacet
  facet normal -0.406746 -0.913541 -0
    outer loop
      vertex -58.618 -67.4021 2.5
      vertex -59 -67.232 -2.5
      vertex -58.618 -67.4021 -2.5
    endloop
  endfacet
  facet normal -0.951057 -0.309015 0
    outer loop
      vertex -59.8271 -66.3135 -2.5
      vertex -59.9563 -65.9158 2.5
      vertex -59.9563 -65.9158 -2.5
    endloop
  endfacet
  facet normal -0.951057 -0.309015 0
    outer loop
      vertex -59.9563 -65.9158 2.5
      vertex -59.8271 -66.3135 -2.5
      vertex -59.8271 -66.3135 2.5
    endloop
  endfacet
  facet normal -0.587781 -0.80902 0
    outer loop
      vertex -59.3383 -66.9863 -2.5
      vertex -59 -67.232 2.5
      vertex -59.3383 -66.9863 2.5
    endloop
  endfacet
  facet normal -0.587781 -0.80902 -0
    outer loop
      vertex -59 -67.232 2.5
      vertex -59.3383 -66.9863 -2.5
      vertex -59 -67.232 -2.5
    endloop
  endfacet
  facet normal -0.207908 -0.978148 0
    outer loop
      vertex -58.618 -67.4021 -2.5
      vertex -58.2091 -67.489 2.5
      vertex -58.618 -67.4021 2.5
    endloop
  endfacet
  facet normal -0.207908 -0.978148 -0
    outer loop
      vertex -58.2091 -67.489 2.5
      vertex -58.618 -67.4021 -2.5
      vertex -58.2091 -67.489 -2.5
    endloop
  endfacet
  facet normal -0.866022 -0.500006 0
    outer loop
      vertex -59.618 -66.6756 -2.5
      vertex -59.8271 -66.3135 2.5
      vertex -59.8271 -66.3135 -2.5
    endloop
  endfacet
  facet normal -0.866022 -0.500006 0
    outer loop
      vertex -59.8271 -66.3135 2.5
      vertex -59.618 -66.6756 -2.5
      vertex -59.618 -66.6756 2.5
    endloop
  endfacet
  facet normal 0.866026 0.499999 0
    outer loop
      vertex 14.1542 28.1269 3.3
      vertex 13.7361 28.8511 2.5
      vertex 13.7361 28.8511 3.3
    endloop
  endfacet
  facet normal 0.866026 0.499999 0
    outer loop
      vertex 13.7361 28.8511 2.5
      vertex 14.1542 28.1269 3.3
      vertex 14.1542 28.1269 2.5
    endloop
  endfacet
  facet normal 0.923592 0.383378 0
    outer loop
      vertex 25.1542 1.62695 3.3
      vertex 14.1542 28.1269 2.5
      vertex 14.1542 28.1269 3.3
    endloop
  endfacet
  facet normal 0.923592 0.383378 0
    outer loop
      vertex 14.1542 28.1269 2.5
      vertex 25.1542 1.62695 3.3
      vertex 25.1542 1.62695 2.5
    endloop
  endfacet
  facet normal 0.923592 -0.383378 0
    outer loop
      vertex 14.1542 -28.1269 3.3
      vertex 25.1542 -1.62695 2.5
      vertex 25.1542 -1.62695 3.3
    endloop
  endfacet
  facet normal 0.923592 -0.383378 0
    outer loop
      vertex 25.1542 -1.62695 2.5
      vertex 14.1542 -28.1269 3.3
      vertex 14.1542 -28.1269 2.5
    endloop
  endfacet
  facet normal -0.923592 0.383378 0
    outer loop
      vertex -25.1542 1.62695 2.5
      vertex -14.1542 28.1269 3.3
      vertex -14.1542 28.1269 2.5
    endloop
  endfacet
  facet normal -0.923592 0.383378 0
    outer loop
      vertex -14.1542 28.1269 3.3
      vertex -25.1542 1.62695 2.5
      vertex -25.1542 1.62695 3.3
    endloop
  endfacet
  facet normal -0.994522 0.104529 0
    outer loop
      vertex -25.5 0 2.5
      vertex -25.4126 0.831646 3.3
      vertex -25.4126 0.831646 2.5
    endloop
  endfacet
  facet normal -0.994522 0.104529 0
    outer loop
      vertex -25.4126 0.831646 3.3
      vertex -25.5 0 2.5
      vertex -25.5 0 3.3
    endloop
  endfacet
  facet normal -0.866026 0.499999 0
    outer loop
      vertex -14.1542 28.1269 2.5
      vertex -13.7361 28.8511 3.3
      vertex -13.7361 28.8511 2.5
    endloop
  endfacet
  facet normal -0.866026 0.499999 0
    outer loop
      vertex -13.7361 28.8511 3.3
      vertex -14.1542 28.1269 2.5
      vertex -14.1542 28.1269 3.3
    endloop
  endfacet
  facet normal 0 1 -0
    outer loop
      vertex 10.9181 30.4781 2.5
      vertex -10.9181 30.4781 3.3
      vertex 10.9181 30.4781 3.3
    endloop
  endfacet
  facet normal 0 1 0
    outer loop
      vertex -10.9181 30.4781 3.3
      vertex 10.9181 30.4781 2.5
      vertex -10.9181 30.4781 2.5
    endloop
  endfacet
  facet normal 0.743145 -0.66913 0
    outer loop
      vertex 13.1765 -29.4726 3.3
      vertex 13.7361 -28.8511 2.5
      vertex 13.7361 -28.8511 3.3
    endloop
  endfacet
  facet normal 0.743145 -0.66913 0
    outer loop
      vertex 13.7361 -28.8511 2.5
      vertex 13.1765 -29.4726 3.3
      vertex 13.1765 -29.4726 2.5
    endloop
  endfacet
  facet normal 0.951057 -0.309016 0
    outer loop
      vertex 25.1542 -1.62695 3.3
      vertex 25.4126 -0.831646 2.5
      vertex 25.4126 -0.831646 3.3
    endloop
  endfacet
  facet normal 0.951057 -0.309016 0
    outer loop
      vertex 25.4126 -0.831646 2.5
      vertex 25.1542 -1.62695 3.3
      vertex 25.1542 -1.62695 2.5
    endloop
  endfacet
  facet normal 0.994522 -0.104529 0
    outer loop
      vertex 25.4126 -0.831646 3.3
      vertex 25.5 0 2.5
      vertex 25.5 0 3.3
    endloop
  endfacet
  facet normal 0.994522 -0.104529 0
    outer loop
      vertex 25.5 0 2.5
      vertex 25.4126 -0.831646 3.3
      vertex 25.4126 -0.831646 2.5
    endloop
  endfacet
  facet normal -0.994522 -0.104529 0
    outer loop
      vertex -25.4126 -0.831646 2.5
      vertex -25.5 0 3.3
      vertex -25.5 0 2.5
    endloop
  endfacet
  facet normal -0.994522 -0.104529 0
    outer loop
      vertex -25.5 0 3.3
      vertex -25.4126 -0.831646 2.5
      vertex -25.4126 -0.831646 3.3
    endloop
  endfacet
  facet normal -0.923592 -0.383378 0
    outer loop
      vertex -14.1542 -28.1269 2.5
      vertex -25.1542 -1.62695 3.3
      vertex -25.1542 -1.62695 2.5
    endloop
  endfacet
  facet normal -0.923592 -0.383378 0
    outer loop
      vertex -25.1542 -1.62695 3.3
      vertex -14.1542 -28.1269 2.5
      vertex -14.1542 -28.1269 3.3
    endloop
  endfacet
  facet normal -0.951057 0.309016 0
    outer loop
      vertex -25.4126 0.831646 2.5
      vertex -25.1542 1.62695 3.3
      vertex -25.1542 1.62695 2.5
    endloop
  endfacet
  facet normal -0.951057 0.309016 0
    outer loop
      vertex -25.1542 1.62695 3.3
      vertex -25.4126 0.831646 2.5
      vertex -25.4126 0.831646 3.3
    endloop
  endfacet
  facet normal 0 0 1
    outer loop
      vertex 25.4126 0.831646 3.3
      vertex 25.4126 -0.831646 3.3
      vertex 25.5 0 3.3
    endloop
  endfacet
  facet normal 0 0 1
    outer loop
      vertex 25.1542 1.62695 3.3
      vertex 25.4126 -0.831646 3.3
      vertex 25.4126 0.831646 3.3
    endloop
  endfacet
  facet normal 0 0 1
    outer loop
      vertex 25.1542 1.62695 3.3
      vertex 25.1542 -1.62695 3.3
      vertex 25.4126 -0.831646 3.3
    endloop
  endfacet
  facet normal 0 0 1
    outer loop
      vertex 25.1542 1.62695 3.3
      vertex 15.5 21.5 3.3
      vertex 25.1542 -1.62695 3.3
    endloop
  endfacet
  facet normal 0 0 1
    outer loop
      vertex 25.1542 1.62695 3.3
      vertex 15.4126 22.3316 3.3
      vertex 15.5 21.5 3.3
    endloop
  endfacet
  facet normal 0 0 1
    outer loop
      vertex 14.1542 28.1269 3.3
      vertex 15.4126 22.3316 3.3
      vertex 25.1542 1.62695 3.3
    endloop
  endfacet
  facet normal 0 0 1
    outer loop
      vertex 15.4126 22.3316 3.3
      vertex 14.1542 28.1269 3.3
      vertex 15.1542 23.1269 3.3
    endloop
  endfacet
  facet normal 0 0 1
    outer loop
      vertex 14.1542 28.1269 3.3
      vertex 14.7361 23.8511 3.3
      vertex 15.1542 23.1269 3.3
    endloop
  endfacet
  facet normal 0 0 1
    outer loop
      vertex 14.1542 28.1269 3.3
      vertex 14.1765 24.4726 3.3
      vertex 14.7361 23.8511 3.3
    endloop
  endfacet
  facet normal 0 0 1
    outer loop
      vertex 11.9181 25.4781 3.3
      vertex 14.1542 28.1269 3.3
      vertex 13.7361 28.8511 3.3
    endloop
  endfacet
  facet normal 0 0 1
    outer loop
      vertex 14.1542 28.1269 3.3
      vertex 13.5 24.9641 3.3
      vertex 14.1765 24.4726 3.3
    endloop
  endfacet
  facet normal 0 0 1
    outer loop
      vertex 11.9181 25.4781 3.3
      vertex 13.7361 28.8511 3.3
      vertex 13.1765 29.4726 3.3
    endloop
  endfacet
  facet normal 0 0 1
    outer loop
      vertex 14.1542 28.1269 3.3
      vertex 12.7361 25.3042 3.3
      vertex 13.5 24.9641 3.3
    endloop
  endfacet
  facet normal 0 0 1
    outer loop
      vertex 11.9181 25.4781 3.3
      vertex 13.1765 29.4726 3.3
      vertex 12.5 29.9641 3.3
    endloop
  endfacet
  facet normal 0 0 1
    outer loop
      vertex 14.1542 28.1269 3.3
      vertex 11.9181 25.4781 3.3
      vertex 12.7361 25.3042 3.3
    endloop
  endfacet
  facet normal 0 0 1
    outer loop
      vertex 11.7361 30.3042 3.3
      vertex 11.9181 25.4781 3.3
      vertex 12.5 29.9641 3.3
    endloop
  endfacet
  facet normal 0 0 1
    outer loop
      vertex 10.9181 30.4781 3.3
      vertex 11.9181 25.4781 3.3
      vertex 11.7361 30.3042 3.3
    endloop
  endfacet
  facet normal -0 0 1
    outer loop
      vertex -10.9181 30.4781 3.3
      vertex 11.9181 25.4781 3.3
      vertex 10.9181 30.4781 3.3
    endloop
  endfacet
  facet normal 0 0 1
    outer loop
      vertex -11.9181 25.4781 3.3
      vertex -10.9181 30.4781 3.3
      vertex -11.7361 30.3042 3.3
    endloop
  endfacet
  facet normal 0 0 1
    outer loop
      vertex -10.9181 30.4781 3.3
      vertex -11.9181 25.4781 3.3
      vertex 11.9181 25.4781 3.3
    endloop
  endfacet
  facet normal -0 0 1
    outer loop
      vertex -12.5 29.9641 3.3
      vertex -11.9181 25.4781 3.3
      vertex -11.7361 30.3042 3.3
    endloop
  endfacet
  facet normal -0 0 1
    outer loop
      vertex -13.1765 29.4726 3.3
      vertex -11.9181 25.4781 3.3
      vertex -12.5 29.9641 3.3
    endloop
  endfacet
  facet normal -0 0 1
    outer loop
      vertex -13.7361 28.8511 3.3
      vertex -11.9181 25.4781 3.3
      vertex -13.1765 29.4726 3.3
    endloop
  endfacet
  facet normal -0 0 1
    outer loop
      vertex -14.1542 28.1269 3.3
      vertex -11.9181 25.4781 3.3
      vertex -13.7361 28.8511 3.3
    endloop
  endfacet
  facet normal 0 0 1
    outer loop
      vertex -11.9181 25.4781 3.3
      vertex -14.1542 28.1269 3.3
      vertex -12.7361 25.3042 3.3
    endloop
  endfacet
  facet normal 0 0 1
    outer loop
      vertex -12.7361 25.3042 3.3
      vertex -14.1542 28.1269 3.3
      vertex -13.5 24.9641 3.3
    endloop
  endfacet
  facet normal 0 0 1
    outer loop
      vertex -14.1542 28.1269 3.3
      vertex -14.1765 24.4726 3.3
      vertex -13.5 24.9641 3.3
    endloop
  endfacet
  facet normal 0 0 1
    outer loop
      vertex -14.1542 28.1269 3.3
      vertex -14.7361 23.8511 3.3
      vertex -14.1765 24.4726 3.3
    endloop
  endfacet
  facet normal 0 0 1
    outer loop
      vertex -14.1542 28.1269 3.3
      vertex -15.1542 23.1269 3.3
      vertex -14.7361 23.8511 3.3
    endloop
  endfacet
  facet normal 0 0 1
    outer loop
      vertex -14.1542 28.1269 3.3
      vertex -15.4126 22.3316 3.3
      vertex -15.1542 23.1269 3.3
    endloop
  endfacet
  facet normal 0 0 1
    outer loop
      vertex -15.5 21.5 3.3
      vertex -25.1542 1.62695 3.3
      vertex -15.5 -21.5 3.3
    endloop
  endfacet
  facet normal 0 0 1
    outer loop
      vertex -15.4126 22.3316 3.3
      vertex -25.1542 1.62695 3.3
      vertex -15.5 21.5 3.3
    endloop
  endfacet
  facet normal 0 0 1
    outer loop
      vertex -25.1542 1.62695 3.3
      vertex -15.4126 22.3316 3.3
      vertex -14.1542 28.1269 3.3
    endloop
  endfacet
  facet normal 0 0 1
    outer loop
      vertex 15.5 -21.5 3.3
      vertex 25.1542 -1.62695 3.3
      vertex 15.5 21.5 3.3
    endloop
  endfacet
  facet normal 0 0 1
    outer loop
      vertex 15.4126 -22.3316 3.3
      vertex 25.1542 -1.62695 3.3
      vertex 15.5 -21.5 3.3
    endloop
  endfacet
  facet normal 0 0 1
    outer loop
      vertex 14.1542 -28.1269 3.3
      vertex 15.4126 -22.3316 3.3
      vertex 15.1542 -23.1269 3.3
    endloop
  endfacet
  facet normal -0 0 1
    outer loop
      vertex 15.4126 -22.3316 3.3
      vertex 14.1542 -28.1269 3.3
      vertex 25.1542 -1.62695 3.3
    endloop
  endfacet
  facet normal -0 0 1
    outer loop
      vertex 14.7361 -23.8511 3.3
      vertex 14.1542 -28.1269 3.3
      vertex 15.1542 -23.1269 3.3
    endloop
  endfacet
  facet normal -0 0 1
    outer loop
      vertex 14.1765 -24.4726 3.3
      vertex 14.1542 -28.1269 3.3
      vertex 14.7361 -23.8511 3.3
    endloop
  endfacet
  facet normal -0 0 1
    outer loop
      vertex 13.5 -24.9641 3.3
      vertex 14.1542 -28.1269 3.3
      vertex 14.1765 -24.4726 3.3
    endloop
  endfacet
  facet normal -0 0 1
    outer loop
      vertex 12.7361 -25.3042 3.3
      vertex 14.1542 -28.1269 3.3
      vertex 13.5 -24.9641 3.3
    endloop
  endfacet
  facet normal -0 0 1
    outer loop
      vertex 11.9181 -25.4781 3.3
      vertex 14.1542 -28.1269 3.3
      vertex 12.7361 -25.3042 3.3
    endloop
  endfacet
  facet normal 0 0 1
    outer loop
      vertex 14.1542 -28.1269 3.3
      vertex 11.9181 -25.4781 3.3
      vertex 13.7361 -28.8511 3.3
    endloop
  endfacet
  facet normal 0 0 1
    outer loop
      vertex 13.7361 -28.8511 3.3
      vertex 11.9181 -25.4781 3.3
      vertex 13.1765 -29.4726 3.3
    endloop
  endfacet
  facet normal 0 0 1
    outer loop
      vertex 13.1765 -29.4726 3.3
      vertex 11.9181 -25.4781 3.3
      vertex 12.5 -29.9641 3.3
    endloop
  endfacet
  facet normal 0 0 1
    outer loop
      vertex 11.9181 -25.4781 3.3
      vertex 11.7361 -30.3042 3.3
      vertex 12.5 -29.9641 3.3
    endloop
  endfacet
  facet normal 0 0 1
    outer loop
      vertex 11.9181 -25.4781 3.3
      vertex 10.9181 -30.4781 3.3
      vertex 11.7361 -30.3042 3.3
    endloop
  endfacet
  facet normal 0 0 1
    outer loop
      vertex 11.9181 -25.4781 3.3
      vertex -10.9181 -30.4781 3.3
      vertex 10.9181 -30.4781 3.3
    endloop
  endfacet
  facet normal -0 0 1
    outer loop
      vertex -11.9181 -25.4781 3.3
      vertex -10.9181 -30.4781 3.3
      vertex 11.9181 -25.4781 3.3
    endloop
  endfacet
  facet normal 0 0 1
    outer loop
      vertex -10.9181 -30.4781 3.3
      vertex -11.9181 -25.4781 3.3
      vertex -11.7361 -30.3042 3.3
    endloop
  endfacet
  facet normal 0 0 1
    outer loop
      vertex -11.9181 -25.4781 3.3
      vertex -12.5 -29.9641 3.3
      vertex -11.7361 -30.3042 3.3
    endloop
  endfacet
  facet normal 0 0 1
    outer loop
      vertex -14.1542 -28.1269 3.3
      vertex -11.9181 -25.4781 3.3
      vertex -12.7361 -25.3042 3.3
    endloop
  endfacet
  facet normal 0 0 1
    outer loop
      vertex -11.9181 -25.4781 3.3
      vertex -13.1765 -29.4726 3.3
      vertex -12.5 -29.9641 3.3
    endloop
  endfacet
  facet normal 0 0 1
    outer loop
      vertex -14.1542 -28.1269 3.3
      vertex -12.7361 -25.3042 3.3
      vertex -13.5 -24.9641 3.3
    endloop
  endfacet
  facet normal 0 0 1
    outer loop
      vertex -11.9181 -25.4781 3.3
      vertex -13.7361 -28.8511 3.3
      vertex -13.1765 -29.4726 3.3
    endloop
  endfacet
  facet normal 0 0 1
    outer loop
      vertex -11.9181 -25.4781 3.3
      vertex -14.1542 -28.1269 3.3
      vertex -13.7361 -28.8511 3.3
    endloop
  endfacet
  facet normal 0 0 1
    outer loop
      vertex -14.1765 -24.4726 3.3
      vertex -14.1542 -28.1269 3.3
      vertex -13.5 -24.9641 3.3
    endloop
  endfacet
  facet normal 0 0 1
    outer loop
      vertex -14.7361 -23.8511 3.3
      vertex -14.1542 -28.1269 3.3
      vertex -14.1765 -24.4726 3.3
    endloop
  endfacet
  facet normal 0 0 1
    outer loop
      vertex -15.1542 -23.1269 3.3
      vertex -14.1542 -28.1269 3.3
      vertex -14.7361 -23.8511 3.3
    endloop
  endfacet
  facet normal 0 0 1
    outer loop
      vertex -15.4126 -22.3316 3.3
      vertex -14.1542 -28.1269 3.3
      vertex -15.1542 -23.1269 3.3
    endloop
  endfacet
  facet normal -0 0 1
    outer loop
      vertex -25.1542 -1.62695 3.3
      vertex -15.5 -21.5 3.3
      vertex -25.1542 1.62695 3.3
    endloop
  endfacet
  facet normal 0 0 1
    outer loop
      vertex -15.5 -21.5 3.3
      vertex -25.1542 -1.62695 3.3
      vertex -15.4126 -22.3316 3.3
    endloop
  endfacet
  facet normal 0 0 1
    outer loop
      vertex -15.4126 -22.3316 3.3
      vertex -25.1542 -1.62695 3.3
      vertex -14.1542 -28.1269 3.3
    endloop
  endfacet
  facet normal -0 0 1
    outer loop
      vertex -25.4126 0.831646 3.3
      vertex -25.1542 -1.62695 3.3
      vertex -25.1542 1.62695 3.3
    endloop
  endfacet
  facet normal 0 0 1
    outer loop
      vertex -25.4126 0.831646 3.3
      vertex -25.4126 -0.831646 3.3
      vertex -25.1542 -1.62695 3.3
    endloop
  endfacet
  facet normal 0 -0 1
    outer loop
      vertex -25.4126 -0.831646 3.3
      vertex -25.4126 0.831646 3.3
      vertex -25.5 0 3.3
    endloop
  endfacet
  facet normal -0.587783 0.809018 0
    outer loop
      vertex -12.5 29.9641 2.5
      vertex -13.1765 29.4726 3.3
      vertex -12.5 29.9641 3.3
    endloop
  endfacet
  facet normal -0.587783 0.809018 0
    outer loop
      vertex -13.1765 29.4726 3.3
      vertex -12.5 29.9641 2.5
      vertex -13.1765 29.4726 2.5
    endloop
  endfacet
  facet normal -0.207913 0.978147 0
    outer loop
      vertex -10.9181 30.4781 2.5
      vertex -11.7361 30.3042 3.3
      vertex -10.9181 30.4781 3.3
    endloop
  endfacet
  facet normal -0.207913 0.978147 0
    outer loop
      vertex -11.7361 30.3042 3.3
      vertex -10.9181 30.4781 2.5
      vertex -11.7361 30.3042 2.5
    endloop
  endfacet
  facet normal -0.743145 0.66913 0
    outer loop
      vertex -13.7361 28.8511 2.5
      vertex -13.1765 29.4726 3.3
      vertex -13.1765 29.4726 2.5
    endloop
  endfacet
  facet normal -0.743145 0.66913 0
    outer loop
      vertex -13.1765 29.4726 3.3
      vertex -13.7361 28.8511 2.5
      vertex -13.7361 28.8511 3.3
    endloop
  endfacet
  facet normal 0.207913 0.978147 -0
    outer loop
      vertex 11.7361 30.3042 2.5
      vertex 10.9181 30.4781 3.3
      vertex 11.7361 30.3042 3.3
    endloop
  endfacet
  facet normal 0.207913 0.978147 0
    outer loop
      vertex 10.9181 30.4781 3.3
      vertex 11.7361 30.3042 2.5
      vertex 10.9181 30.4781 2.5
    endloop
  endfacet
  facet normal 0.866026 -0.499999 0
    outer loop
      vertex 13.7361 -28.8511 3.3
      vertex 14.1542 -28.1269 2.5
      vertex 14.1542 -28.1269 3.3
    endloop
  endfacet
  facet normal 0.866026 -0.499999 0
    outer loop
      vertex 14.1542 -28.1269 2.5
      vertex 13.7361 -28.8511 3.3
      vertex 13.7361 -28.8511 2.5
    endloop
  endfacet
  facet normal 0 -1 0
    outer loop
      vertex -10.9181 -30.4781 2.5
      vertex 10.9181 -30.4781 3.3
      vertex -10.9181 -30.4781 3.3
    endloop
  endfacet
  facet normal 0 -1 -0
    outer loop
      vertex 10.9181 -30.4781 3.3
      vertex -10.9181 -30.4781 2.5
      vertex 10.9181 -30.4781 2.5
    endloop
  endfacet
  facet normal 0.951057 0.309016 0
    outer loop
      vertex 25.4126 0.831646 3.3
      vertex 25.1542 1.62695 2.5
      vertex 25.1542 1.62695 3.3
    endloop
  endfacet
  facet normal 0.951057 0.309016 0
    outer loop
      vertex 25.1542 1.62695 2.5
      vertex 25.4126 0.831646 3.3
      vertex 25.4126 0.831646 2.5
    endloop
  endfacet
  facet normal 0.994522 0.104529 0
    outer loop
      vertex 25.5 0 3.3
      vertex 25.4126 0.831646 2.5
      vertex 25.4126 0.831646 3.3
    endloop
  endfacet
  facet normal 0.994522 0.104529 0
    outer loop
      vertex 25.4126 0.831646 2.5
      vertex 25.5 0 3.3
      vertex 25.5 0 2.5
    endloop
  endfacet
  facet normal -0.951057 -0.309016 0
    outer loop
      vertex -25.1542 -1.62695 2.5
      vertex -25.4126 -0.831646 3.3
      vertex -25.4126 -0.831646 2.5
    endloop
  endfacet
  facet normal -0.951057 -0.309016 0
    outer loop
      vertex -25.4126 -0.831646 3.3
      vertex -25.1542 -1.62695 2.5
      vertex -25.1542 -1.62695 3.3
    endloop
  endfacet
  facet normal -0.406738 0.913545 0
    outer loop
      vertex -11.7361 30.3042 2.5
      vertex -12.5 29.9641 3.3
      vertex -11.7361 30.3042 3.3
    endloop
  endfacet
  facet normal -0.406738 0.913545 0
    outer loop
      vertex -12.5 29.9641 3.3
      vertex -11.7361 30.3042 2.5
      vertex -12.5 29.9641 2.5
    endloop
  endfacet
  facet normal 0.406738 0.913545 -0
    outer loop
      vertex 12.5 29.9641 2.5
      vertex 11.7361 30.3042 3.3
      vertex 12.5 29.9641 3.3
    endloop
  endfacet
  facet normal 0.406738 0.913545 0
    outer loop
      vertex 11.7361 30.3042 3.3
      vertex 12.5 29.9641 2.5
      vertex 11.7361 30.3042 2.5
    endloop
  endfacet
  facet normal 0.587783 0.809018 -0
    outer loop
      vertex 13.1765 29.4726 2.5
      vertex 12.5 29.9641 3.3
      vertex 13.1765 29.4726 3.3
    endloop
  endfacet
  facet normal 0.587783 0.809018 0
    outer loop
      vertex 12.5 29.9641 3.3
      vertex 13.1765 29.4726 2.5
      vertex 12.5 29.9641 2.5
    endloop
  endfacet
  facet normal 0.743145 0.66913 0
    outer loop
      vertex 13.7361 28.8511 3.3
      vertex 13.1765 29.4726 2.5
      vertex 13.1765 29.4726 3.3
    endloop
  endfacet
  facet normal 0.743145 0.66913 0
    outer loop
      vertex 13.1765 29.4726 2.5
      vertex 13.7361 28.8511 3.3
      vertex 13.7361 28.8511 2.5
    endloop
  endfacet
  facet normal 0.587783 -0.809018 0
    outer loop
      vertex 12.5 -29.9641 2.5
      vertex 13.1765 -29.4726 3.3
      vertex 12.5 -29.9641 3.3
    endloop
  endfacet
  facet normal 0.587783 -0.809018 0
    outer loop
      vertex 13.1765 -29.4726 3.3
      vertex 12.5 -29.9641 2.5
      vertex 13.1765 -29.4726 2.5
    endloop
  endfacet
  facet normal 0.406738 -0.913545 0
    outer loop
      vertex 11.7361 -30.3042 2.5
      vertex 12.5 -29.9641 3.3
      vertex 11.7361 -30.3042 3.3
    endloop
  endfacet
  facet normal 0.406738 -0.913545 0
    outer loop
      vertex 12.5 -29.9641 3.3
      vertex 11.7361 -30.3042 2.5
      vertex 12.5 -29.9641 2.5
    endloop
  endfacet
  facet normal 0.207913 -0.978147 0
    outer loop
      vertex 10.9181 -30.4781 2.5
      vertex 11.7361 -30.3042 3.3
      vertex 10.9181 -30.4781 3.3
    endloop
  endfacet
  facet normal 0.207913 -0.978147 0
    outer loop
      vertex 11.7361 -30.3042 3.3
      vertex 10.9181 -30.4781 2.5
      vertex 11.7361 -30.3042 2.5
    endloop
  endfacet
  facet normal -0.207913 -0.978147 0
    outer loop
      vertex -11.7361 -30.3042 2.5
      vertex -10.9181 -30.4781 3.3
      vertex -11.7361 -30.3042 3.3
    endloop
  endfacet
  facet normal -0.207913 -0.978147 -0
    outer loop
      vertex -10.9181 -30.4781 3.3
      vertex -11.7361 -30.3042 2.5
      vertex -10.9181 -30.4781 2.5
    endloop
  endfacet
  facet normal -0.866026 -0.499999 0
    outer loop
      vertex -13.7361 -28.8511 2.5
      vertex -14.1542 -28.1269 3.3
      vertex -14.1542 -28.1269 2.5
    endloop
  endfacet
  facet normal -0.866026 -0.499999 0
    outer loop
      vertex -14.1542 -28.1269 3.3
      vertex -13.7361 -28.8511 2.5
      vertex -13.7361 -28.8511 3.3
    endloop
  endfacet
  facet normal -0.743145 -0.66913 0
    outer loop
      vertex -13.1765 -29.4726 2.5
      vertex -13.7361 -28.8511 3.3
      vertex -13.7361 -28.8511 2.5
    endloop
  endfacet
  facet normal -0.743145 -0.66913 0
    outer loop
      vertex -13.7361 -28.8511 3.3
      vertex -13.1765 -29.4726 2.5
      vertex -13.1765 -29.4726 3.3
    endloop
  endfacet
  facet normal -0.406738 -0.913545 0
    outer loop
      vertex -12.5 -29.9641 2.5
      vertex -11.7361 -30.3042 3.3
      vertex -12.5 -29.9641 3.3
    endloop
  endfacet
  facet normal -0.406738 -0.913545 -0
    outer loop
      vertex -11.7361 -30.3042 3.3
      vertex -12.5 -29.9641 2.5
      vertex -11.7361 -30.3042 2.5
    endloop
  endfacet
  facet normal -0.587783 -0.809018 0
    outer loop
      vertex -13.1765 -29.4726 2.5
      vertex -12.5 -29.9641 3.3
      vertex -13.1765 -29.4726 3.3
    endloop
  endfacet
  facet normal -0.587783 -0.809018 -0
    outer loop
      vertex -12.5 -29.9641 3.3
      vertex -13.1765 -29.4726 2.5
      vertex -12.5 -29.9641 2.5
    endloop
  endfacet
  facet normal -0.994522 -0.104529 0
    outer loop
      vertex 15.5 21.5 -2.5
      vertex 15.4126 22.3316 3.3
      vertex 15.4126 22.3316 -2.5
    endloop
  endfacet
  facet normal -0.994522 -0.104529 0
    outer loop
      vertex 15.4126 22.3316 3.3
      vertex 15.5 21.5 -2.5
      vertex 15.5 21.5 3.3
    endloop
  endfacet
  facet normal 0.866026 -0.499999 0
    outer loop
      vertex -15.1542 23.1269 3.3
      vertex -14.7361 23.8511 -2.5
      vertex -14.7361 23.8511 3.3
    endloop
  endfacet
  facet normal 0.866026 -0.499999 0
    outer loop
      vertex -14.7361 23.8511 -2.5
      vertex -15.1542 23.1269 3.3
      vertex -15.1542 23.1269 -2.5
    endloop
  endfacet
  facet normal 0 -1 0
    outer loop
      vertex -11.9181 25.4781 -2.5
      vertex 11.9181 25.4781 3.3
      vertex -11.9181 25.4781 3.3
    endloop
  endfacet
  facet normal 0 -1 -0
    outer loop
      vertex 11.9181 25.4781 3.3
      vertex -11.9181 25.4781 -2.5
      vertex 11.9181 25.4781 -2.5
    endloop
  endfacet
  facet normal -0.743145 -0.66913 0
    outer loop
      vertex 14.7361 23.8511 -2.5
      vertex 14.1765 24.4726 3.3
      vertex 14.1765 24.4726 -2.5
    endloop
  endfacet
  facet normal -0.743145 -0.66913 0
    outer loop
      vertex 14.1765 24.4726 3.3
      vertex 14.7361 23.8511 -2.5
      vertex 14.7361 23.8511 3.3
    endloop
  endfacet
  facet normal -1 0 0
    outer loop
      vertex 15.5 -21.5 -2.5
      vertex 15.5 21.5 3.3
      vertex 15.5 21.5 -2.5
    endloop
  endfacet
  facet normal -1 -0 0
    outer loop
      vertex 15.5 21.5 3.3
      vertex 15.5 -21.5 -2.5
      vertex 15.5 -21.5 3.3
    endloop
  endfacet
  facet normal -0.866026 0.499999 0
    outer loop
      vertex 14.7361 -23.8511 -2.5
      vertex 15.1542 -23.1269 3.3
      vertex 15.1542 -23.1269 -2.5
    endloop
  endfacet
  facet normal -0.866026 0.499999 0
    outer loop
      vertex 15.1542 -23.1269 3.3
      vertex 14.7361 -23.8511 -2.5
      vertex 14.7361 -23.8511 3.3
    endloop
  endfacet
  facet normal -0.951056 0.309017 0
    outer loop
      vertex 15.1542 -23.1269 -2.5
      vertex 15.4126 -22.3316 3.3
      vertex 15.4126 -22.3316 -2.5
    endloop
  endfacet
  facet normal -0.951056 0.309017 0
    outer loop
      vertex 15.4126 -22.3316 3.3
      vertex 15.1542 -23.1269 -2.5
      vertex 15.1542 -23.1269 3.3
    endloop
  endfacet
  facet normal 0.406738 -0.913545 0
    outer loop
      vertex -13.5 24.9641 -2.5
      vertex -12.7361 25.3042 3.3
      vertex -13.5 24.9641 3.3
    endloop
  endfacet
  facet normal 0.406738 -0.913545 0
    outer loop
      vertex -12.7361 25.3042 3.3
      vertex -13.5 24.9641 -2.5
      vertex -12.7361 25.3042 -2.5
    endloop
  endfacet
  facet normal -0.207913 -0.978147 0
    outer loop
      vertex 11.9181 25.4781 -2.5
      vertex 12.7361 25.3042 3.3
      vertex 11.9181 25.4781 3.3
    endloop
  endfacet
  facet normal -0.207913 -0.978147 -0
    outer loop
      vertex 12.7361 25.3042 3.3
      vertex 11.9181 25.4781 -2.5
      vertex 12.7361 25.3042 -2.5
    endloop
  endfacet
  facet normal -0.866026 -0.499999 0
    outer loop
      vertex 15.1542 23.1269 -2.5
      vertex 14.7361 23.8511 3.3
      vertex 14.7361 23.8511 -2.5
    endloop
  endfacet
  facet normal -0.866026 -0.499999 0
    outer loop
      vertex 14.7361 23.8511 3.3
      vertex 15.1542 23.1269 -2.5
      vertex 15.1542 23.1269 3.3
    endloop
  endfacet
  facet normal 0.207913 0.978147 -0
    outer loop
      vertex -11.9181 -25.4781 -2.5
      vertex -12.7361 -25.3042 3.3
      vertex -11.9181 -25.4781 3.3
    endloop
  endfacet
  facet normal 0.207913 0.978147 0
    outer loop
      vertex -12.7361 -25.3042 3.3
      vertex -11.9181 -25.4781 -2.5
      vertex -12.7361 -25.3042 -2.5
    endloop
  endfacet
  facet normal -0.207913 0.978147 0
    outer loop
      vertex 12.7361 -25.3042 -2.5
      vertex 11.9181 -25.4781 3.3
      vertex 12.7361 -25.3042 3.3
    endloop
  endfacet
  facet normal -0.207913 0.978147 0
    outer loop
      vertex 11.9181 -25.4781 3.3
      vertex 12.7361 -25.3042 -2.5
      vertex 11.9181 -25.4781 -2.5
    endloop
  endfacet
  facet normal 1 -0 0
    outer loop
      vertex -15.5 -21.5 3.3
      vertex -15.5 21.5 -2.5
      vertex -15.5 21.5 3.3
    endloop
  endfacet
  facet normal 1 0 0
    outer loop
      vertex -15.5 21.5 -2.5
      vertex -15.5 -21.5 3.3
      vertex -15.5 -21.5 -2.5
    endloop
  endfacet
  facet normal 0.866026 0.499999 0
    outer loop
      vertex -14.7361 -23.8511 3.3
      vertex -15.1542 -23.1269 -2.5
      vertex -15.1542 -23.1269 3.3
    endloop
  endfacet
  facet normal 0.866026 0.499999 0
    outer loop
      vertex -15.1542 -23.1269 -2.5
      vertex -14.7361 -23.8511 3.3
      vertex -14.7361 -23.8511 -2.5
    endloop
  endfacet
  facet normal 0.743145 -0.66913 0
    outer loop
      vertex -14.7361 23.8511 3.3
      vertex -14.1765 24.4726 -2.5
      vertex -14.1765 24.4726 3.3
    endloop
  endfacet
  facet normal 0.743145 -0.66913 0
    outer loop
      vertex -14.1765 24.4726 -2.5
      vertex -14.7361 23.8511 3.3
      vertex -14.7361 23.8511 -2.5
    endloop
  endfacet
  facet normal 0.207913 -0.978147 0
    outer loop
      vertex -12.7361 25.3042 -2.5
      vertex -11.9181 25.4781 3.3
      vertex -12.7361 25.3042 3.3
    endloop
  endfacet
  facet normal 0.207913 -0.978147 0
    outer loop
      vertex -11.9181 25.4781 3.3
      vertex -12.7361 25.3042 -2.5
      vertex -11.9181 25.4781 -2.5
    endloop
  endfacet
  facet normal -0.587783 -0.809018 0
    outer loop
      vertex 13.5 24.9641 -2.5
      vertex 14.1765 24.4726 3.3
      vertex 13.5 24.9641 3.3
    endloop
  endfacet
  facet normal -0.587783 -0.809018 -0
    outer loop
      vertex 14.1765 24.4726 3.3
      vertex 13.5 24.9641 -2.5
      vertex 14.1765 24.4726 -2.5
    endloop
  endfacet
  facet normal -0.406738 -0.913545 0
    outer loop
      vertex 12.7361 25.3042 -2.5
      vertex 13.5 24.9641 3.3
      vertex 12.7361 25.3042 3.3
    endloop
  endfacet
  facet normal -0.406738 -0.913545 -0
    outer loop
      vertex 13.5 24.9641 3.3
      vertex 12.7361 25.3042 -2.5
      vertex 13.5 24.9641 -2.5
    endloop
  endfacet
  facet normal -0.951056 -0.309017 0
    outer loop
      vertex 15.4126 22.3316 -2.5
      vertex 15.1542 23.1269 3.3
      vertex 15.1542 23.1269 -2.5
    endloop
  endfacet
  facet normal -0.951056 -0.309017 0
    outer loop
      vertex 15.1542 23.1269 3.3
      vertex 15.4126 22.3316 -2.5
      vertex 15.4126 22.3316 3.3
    endloop
  endfacet
  facet normal -0.994522 0.104529 0
    outer loop
      vertex 15.4126 -22.3316 -2.5
      vertex 15.5 -21.5 3.3
      vertex 15.5 -21.5 -2.5
    endloop
  endfacet
  facet normal -0.994522 0.104529 0
    outer loop
      vertex 15.5 -21.5 3.3
      vertex 15.4126 -22.3316 -2.5
      vertex 15.4126 -22.3316 3.3
    endloop
  endfacet
  facet normal 0.743145 0.66913 0
    outer loop
      vertex -14.1765 -24.4726 3.3
      vertex -14.7361 -23.8511 -2.5
      vertex -14.7361 -23.8511 3.3
    endloop
  endfacet
  facet normal 0.743145 0.66913 0
    outer loop
      vertex -14.7361 -23.8511 -2.5
      vertex -14.1765 -24.4726 3.3
      vertex -14.1765 -24.4726 -2.5
    endloop
  endfacet
  facet normal 0.951056 -0.309017 0
    outer loop
      vertex -15.4126 22.3316 3.3
      vertex -15.1542 23.1269 -2.5
      vertex -15.1542 23.1269 3.3
    endloop
  endfacet
  facet normal 0.951056 -0.309017 0
    outer loop
      vertex -15.1542 23.1269 -2.5
      vertex -15.4126 22.3316 3.3
      vertex -15.4126 22.3316 -2.5
    endloop
  endfacet
  facet normal 0.994522 -0.104529 0
    outer loop
      vertex -15.5 21.5 3.3
      vertex -15.4126 22.3316 -2.5
      vertex -15.4126 22.3316 3.3
    endloop
  endfacet
  facet normal 0.994522 -0.104529 0
    outer loop
      vertex -15.4126 22.3316 -2.5
      vertex -15.5 21.5 3.3
      vertex -15.5 21.5 -2.5
    endloop
  endfacet
  facet normal 0.951056 0.309017 0
    outer loop
      vertex -15.1542 -23.1269 3.3
      vertex -15.4126 -22.3316 -2.5
      vertex -15.4126 -22.3316 3.3
    endloop
  endfacet
  facet normal 0.951056 0.309017 0
    outer loop
      vertex -15.4126 -22.3316 -2.5
      vertex -15.1542 -23.1269 3.3
      vertex -15.1542 -23.1269 -2.5
    endloop
  endfacet
  facet normal 0.994522 0.104529 0
    outer loop
      vertex -15.4126 -22.3316 3.3
      vertex -15.5 -21.5 -2.5
      vertex -15.5 -21.5 3.3
    endloop
  endfacet
  facet normal 0.994522 0.104529 0
    outer loop
      vertex -15.5 -21.5 -2.5
      vertex -15.4126 -22.3316 3.3
      vertex -15.4126 -22.3316 -2.5
    endloop
  endfacet
  facet normal 0.587783 -0.809018 0
    outer loop
      vertex -14.1765 24.4726 -2.5
      vertex -13.5 24.9641 3.3
      vertex -14.1765 24.4726 3.3
    endloop
  endfacet
  facet normal 0.587783 -0.809018 0
    outer loop
      vertex -13.5 24.9641 3.3
      vertex -14.1765 24.4726 -2.5
      vertex -13.5 24.9641 -2.5
    endloop
  endfacet
  facet normal 0.406738 0.913545 -0
    outer loop
      vertex -12.7361 -25.3042 -2.5
      vertex -13.5 -24.9641 3.3
      vertex -12.7361 -25.3042 3.3
    endloop
  endfacet
  facet normal 0.406738 0.913545 0
    outer loop
      vertex -13.5 -24.9641 3.3
      vertex -12.7361 -25.3042 -2.5
      vertex -13.5 -24.9641 -2.5
    endloop
  endfacet
  facet normal -0.587783 0.809018 0
    outer loop
      vertex 14.1765 -24.4726 -2.5
      vertex 13.5 -24.9641 3.3
      vertex 14.1765 -24.4726 3.3
    endloop
  endfacet
  facet normal -0.587783 0.809018 0
    outer loop
      vertex 13.5 -24.9641 3.3
      vertex 14.1765 -24.4726 -2.5
      vertex 13.5 -24.9641 -2.5
    endloop
  endfacet
  facet normal -0.743145 0.66913 0
    outer loop
      vertex 14.1765 -24.4726 -2.5
      vertex 14.7361 -23.8511 3.3
      vertex 14.7361 -23.8511 -2.5
    endloop
  endfacet
  facet normal -0.743145 0.66913 0
    outer loop
      vertex 14.7361 -23.8511 3.3
      vertex 14.1765 -24.4726 -2.5
      vertex 14.1765 -24.4726 3.3
    endloop
  endfacet
  facet normal 0 1 -0
    outer loop
      vertex 11.9181 -25.4781 -2.5
      vertex -11.9181 -25.4781 3.3
      vertex 11.9181 -25.4781 3.3
    endloop
  endfacet
  facet normal 0 1 0
    outer loop
      vertex -11.9181 -25.4781 3.3
      vertex 11.9181 -25.4781 -2.5
      vertex -11.9181 -25.4781 -2.5
    endloop
  endfacet
  facet normal 0.587783 0.809018 -0
    outer loop
      vertex -13.5 -24.9641 -2.5
      vertex -14.1765 -24.4726 3.3
      vertex -13.5 -24.9641 3.3
    endloop
  endfacet
  facet normal 0.587783 0.809018 0
    outer loop
      vertex -14.1765 -24.4726 3.3
      vertex -13.5 -24.9641 -2.5
      vertex -14.1765 -24.4726 -2.5
    endloop
  endfacet
  facet normal -0.406738 0.913545 0
    outer loop
      vertex 13.5 -24.9641 -2.5
      vertex 12.7361 -25.3042 3.3
      vertex 13.5 -24.9641 3.3
    endloop
  endfacet
  facet normal -0.406738 0.913545 0
    outer loop
      vertex 12.7361 -25.3042 3.3
      vertex 13.5 -24.9641 -2.5
      vertex 12.7361 -25.3042 -2.5
    endloop
  endfacet
endsolid OpenSCAD_Model
